<?xml version="1.0" encoding="UTF-8"?>
<!-- Generator: Adobe Illustrator 23.0.3, SVG Export Plug-In . SVG Version: 6.00 Build 0)  -->
<svg version="1.1" id="Ñëîé_1" xmlns="http://www.w3.org/2000/svg" xmlns:xlink="http://www.w3.org/1999/xlink" x="0px" y="0px" viewBox="0 0 944.3 479.8" style="enable-background:new 0 0 944.3 479.8;" xml:space="preserve">
<style type="text/css">
	.st0{opacity:0.5;fill:#173D7A;}
	.st1{fill:#396CAA;}
	.st2{fill:#5793CE;}
	.st3{fill:#D4ECFF;}
	.st4{fill:#FFFFFF;}
	.st5{fill:#FF2C9C;}
	.st6{fill:#173D7A;}
	.st7{fill:#274F89;}
	.st8{fill:#FFC2B0;}
	.st9{fill:#E5158C;}
	.st10{fill:#FAFDFF;}
	.st11{opacity:0.4;fill:#D4ECFF;}
	.st12{opacity:0.3;fill:#D4ECFF;}
	.st13{fill:#397DB5;}
</style>
<g>
	<path class="st0" d="M285.1,315.8l-42.5-24.6c-2.6-1.5-2.3-4.1,0.7-5.9l41.1-23.7c3-1.7,7.6-1.9,10.2-0.4l42.5,24.6   c2.6,1.5,2.3,4.1-0.7,5.9l-41.1,23.7C292.2,317.1,287.7,317.3,285.1,315.8z"/>
	<g>
		<path class="st1" d="M351.2,267.1L351.2,267.1v-18.4l-41.2,0l-14.2-8.2c-3.3-1.9-9-1.7-12.8,0.5l-13.3,7.7l-41.2,0v18.9    c-0.1,1.3,0.6,2.5,2.2,3.4l53.3,30.7c3.3,1.9,9,1.7,12.8-0.5l51.4-29.7C350.2,270.2,351.3,268.6,351.2,267.1z"/>
		<path class="st1" d="M289.8,239.2c-2.4,0.1-4.9,0.7-6.8,1.8l-13.3,7.7l-41.2,0v18.9c-0.1,1.3,0.6,2.5,2.2,3.4l53.3,30.7    c1.6,0.9,3.7,1.3,5.9,1.3V239.2z"/>
		<path class="st2" d="M233.1,248.6l-4.7,0v18.9c-0.1,1.3,0.6,2.5,2.2,3.4l2.5,1.4V248.6z"/>
		<path class="st2" d="M284.7,302.1c2.8,1.2,6.9,1.1,10.2-0.1v-21.5h-10.2V302.1z"/>
		<path class="st3" d="M283.9,282.8l-53.3-30.7c-3.3-1.9-2.9-5.2,0.9-7.4l51.4-29.7c3.8-2.2,9.5-2.4,12.8-0.5l53.3,30.7    c3.3,1.9,2.9,5.2-0.9,7.4l-51.4,29.7C292.9,284.5,287.2,284.7,283.9,282.8z"/>
		<path class="st2" d="M284.8,277.3l-44.6-25.8c-2.7-1.6-2.4-4.3,0.8-6.2l43.1-24.9c3.2-1.8,7.9-2,10.7-0.4l44.6,25.8    c2.7,1.6,2.4,4.3-0.8,6.2l-43.1,24.9C292.4,278.7,287.6,278.9,284.8,277.3z"/>
		<g>
			<path class="st3" d="M331.6,271.9c0,1.4-1,3-2.2,3.7c-1.2,0.7-2.2,0.1-2.2-1.2s1-3,2.2-3.7C330.6,270,331.6,270.5,331.6,271.9z"/>
			<path class="st3" d="M338.5,267.9c0,1.4-1,3-2.2,3.7s-2.2,0.1-2.2-1.2s1-3,2.2-3.7S338.5,266.5,338.5,267.9z"/>
			<path class="st3" d="M345.4,263.9c0,1.4-1,3-2.2,3.7c-1.2,0.7-2.2,0.1-2.2-1.2s1-3,2.2-3.7C344.5,262,345.4,262.5,345.4,263.9z"/>
		</g>
	</g>
	<g>
		<path class="st1" d="M351.2,237.7L351.2,237.7v-18.4l-41.2,0l-14.2-8.2c-3.3-1.9-9-1.7-12.8,0.5l-13.3,7.7l-41.2,0v18.9    c-0.1,1.3,0.6,2.5,2.2,3.4l53.3,30.7c3.3,1.9,9,1.7,12.8-0.5l51.4-29.7C350.2,240.8,351.3,239.2,351.2,237.7z"/>
		<path class="st1" d="M289.8,209.8c-2.4,0.1-4.9,0.7-6.8,1.8l-13.3,7.7l-41.2,0v18.9c-0.1,1.3,0.6,2.5,2.2,3.4l53.3,30.7    c1.6,0.9,3.7,1.3,5.9,1.3V209.8z"/>
		<path class="st2" d="M233.1,219.3l-4.7,0v18.9c-0.1,1.3,0.6,2.5,2.2,3.4l2.5,1.4V219.3z"/>
		<path class="st2" d="M284.7,272.7c2.8,1.2,6.9,1.1,10.2-0.1v-21.5h-10.2V272.7z"/>
		<path class="st3" d="M283.9,253.5l-53.3-30.7c-3.3-1.9-2.9-5.2,0.9-7.4l51.4-29.7c3.8-2.2,9.5-2.4,12.8-0.5l53.3,30.7    c3.3,1.9,2.9,5.2-0.9,7.4L296.6,253C292.9,255.1,287.2,255.4,283.9,253.5z"/>
		<path class="st2" d="M284.8,247.9l-44.6-25.8c-2.7-1.6-2.4-4.3,0.8-6.2l43.1-24.9c3.2-1.8,7.9-2,10.7-0.4l44.6,25.8    c2.7,1.6,2.4,4.3-0.8,6.2l-43.1,24.9C292.4,249.3,287.6,249.5,284.8,247.9z"/>
		<g>
			<path class="st3" d="M331.6,242.5c0,1.4-1,3-2.2,3.7c-1.2,0.7-2.2,0.1-2.2-1.2s1-3,2.2-3.7C330.6,240.6,331.6,241.2,331.6,242.5z     "/>
			<path class="st3" d="M338.5,238.5c0,1.4-1,3-2.2,3.7c-1.2,0.7-2.2,0.1-2.2-1.2s1-3,2.2-3.7C337.5,236.6,338.5,237.2,338.5,238.5z     "/>
			<path class="st3" d="M345.4,234.6c0,1.4-1,3-2.2,3.7c-1.2,0.7-2.2,0.1-2.2-1.2c0-1.4,1-3,2.2-3.7     C344.5,232.6,345.4,233.2,345.4,234.6z"/>
		</g>
	</g>
	<g>
		<path class="st1" d="M351.2,208.3L351.2,208.3V190l-41.2,0l-14.2-8.2c-3.3-1.9-9-1.7-12.8,0.5l-13.3,7.7l-41.2,0v18.9    c-0.1,1.3,0.6,2.5,2.2,3.4l53.3,30.7c3.3,1.9,9,1.7,12.8-0.5l51.4-29.7C350.2,211.5,351.3,209.8,351.2,208.3z"/>
		<path class="st1" d="M289.8,180.5c-2.4,0.1-4.9,0.7-6.8,1.8l-13.3,7.7l-41.2,0v18.9c-0.1,1.3,0.6,2.5,2.2,3.4l53.3,30.7    c1.6,0.9,3.7,1.3,5.9,1.3V180.5z"/>
		<path class="st2" d="M233.1,189.9l-4.7,0v18.9c-0.1,1.3,0.6,2.5,2.2,3.4l2.5,1.4V189.9z"/>
		<path class="st2" d="M284.7,243.4c2.8,1.2,6.9,1.1,10.2-0.1v-21.5h-10.2V243.4z"/>
		<path class="st3" d="M283.9,224.1l-53.3-30.7c-3.3-1.9-2.9-5.2,0.9-7.4l51.4-29.7c3.8-2.2,9.5-2.4,12.8-0.5l53.3,30.7    c3.3,1.9,2.9,5.2-0.9,7.4l-51.4,29.7C292.9,225.8,287.2,226,283.9,224.1z"/>
		<path class="st2" d="M284.8,218.6l-44.6-25.8c-2.7-1.6-2.4-4.3,0.8-6.2l43.1-24.9c3.2-1.8,7.9-2,10.7-0.4l44.6,25.8    c2.7,1.6,2.4,4.3-0.8,6.2l-43.1,24.9C292.4,220,287.6,220.2,284.8,218.6z"/>
		<g>
			<path class="st3" d="M331.6,213.2c0,1.4-1,3-2.2,3.7c-1.2,0.7-2.2,0.1-2.2-1.2c0-1.4,1-3,2.2-3.7     C330.6,211.3,331.6,211.8,331.6,213.2z"/>
			<path class="st3" d="M338.5,209.2c0,1.4-1,3-2.2,3.7c-1.2,0.7-2.2,0.1-2.2-1.2c0-1.4,1-3,2.2-3.7     C337.5,207.3,338.5,207.8,338.5,209.2z"/>
			<path class="st3" d="M345.4,205.2c0,1.4-1,3-2.2,3.7c-1.2,0.7-2.2,0.1-2.2-1.2s1-3,2.2-3.7C344.5,203.3,345.4,203.8,345.4,205.2z     "/>
		</g>
	</g>
	<g>
		<path class="st1" d="M351.2,179L351.2,179v-18.4l-41.2,0l-14.2-8.2c-3.3-1.9-9-1.7-12.8,0.5l-13.3,7.7l-41.2,0v18.9    c-0.1,1.3,0.6,2.5,2.2,3.4l53.3,30.7c3.3,1.9,9,1.7,12.8-0.5l51.4-29.7C350.2,182.1,351.3,180.5,351.2,179z"/>
		<path class="st1" d="M289.8,151.1c-2.4,0.1-4.9,0.7-6.8,1.8l-13.3,7.7l-41.2,0v18.9c-0.1,1.3,0.6,2.5,2.2,3.4l53.3,30.7    c1.6,0.9,3.7,1.3,5.9,1.3V151.1z"/>
		<path class="st2" d="M233.1,160.5l-4.7,0v18.9c-0.1,1.3,0.6,2.5,2.2,3.4l2.5,1.4V160.5z"/>
		<path class="st2" d="M284.7,214c2.8,1.2,6.9,1.1,10.2-0.1v-21.5h-10.2V214z"/>
		<path class="st3" d="M283.9,194.8L230.6,164c-3.3-1.9-2.9-5.2,0.9-7.4L283,127c3.8-2.2,9.5-2.4,12.8-0.5l53.3,30.7    c3.3,1.9,2.9,5.2-0.9,7.4l-51.4,29.7C292.9,196.4,287.2,196.6,283.9,194.8z"/>
		<path class="st2" d="M284.8,189.2l-44.6-25.8c-2.7-1.6-2.4-4.3,0.8-6.2l43.1-24.9c3.2-1.8,7.9-2,10.7-0.4l44.6,25.8    c2.7,1.6,2.4,4.3-0.8,6.2l-43.1,24.9C292.4,190.6,287.6,190.8,284.8,189.2z"/>
		<g>
			<path class="st3" d="M331.6,183.8c0,1.4-1,3-2.2,3.7c-1.2,0.7-2.2,0.1-2.2-1.2s1-3,2.2-3.7C330.6,181.9,331.6,182.4,331.6,183.8z     "/>
			<path class="st3" d="M338.5,179.8c0,1.4-1,3-2.2,3.7s-2.2,0.1-2.2-1.2c0-1.4,1-3,2.2-3.7C337.5,177.9,338.5,178.5,338.5,179.8z"/>
			<path class="st3" d="M345.4,175.8c0,1.4-1,3-2.2,3.7c-1.2,0.7-2.2,0.1-2.2-1.2s1-3,2.2-3.7C344.5,173.9,345.4,174.5,345.4,175.8z     "/>
		</g>
	</g>
	<g>
		<path class="st1" d="M351.2,149.6L351.2,149.6v-18.4l-41.2,0l-14.2-8.2c-3.3-1.9-9-1.7-12.8,0.5l-13.3,7.7l-41.2,0v18.9    c-0.1,1.3,0.6,2.5,2.2,3.4l53.3,30.7c3.3,1.9,9,1.7,12.8-0.5l51.4-29.7C350.2,152.8,351.3,151.1,351.2,149.6z"/>
		<path class="st1" d="M289.8,121.7c-2.4,0.1-4.9,0.7-6.8,1.8l-13.3,7.7l-41.2,0v18.9c-0.1,1.3,0.6,2.5,2.2,3.4l53.3,30.7    c1.6,0.9,3.7,1.3,5.9,1.3V121.7z"/>
		<path class="st2" d="M233.1,131.2l-4.7,0v18.9c-0.1,1.3,0.6,2.5,2.2,3.4l2.5,1.4V131.2z"/>
		<path class="st2" d="M284.7,184.6c2.8,1.2,6.9,1.1,10.2-0.1v-21.5h-10.2V184.6z"/>
		<path class="st3" d="M283.9,165.4l-53.3-30.7c-3.3-1.9-2.9-5.2,0.9-7.4L283,97.6c3.8-2.2,9.5-2.4,12.8-0.5l53.3,30.7    c3.3,1.9,2.9,5.2-0.9,7.4l-51.4,29.7C292.9,167,287.2,167.3,283.9,165.4z"/>
		<path class="st2" d="M284.8,159.9l-44.6-25.8c-2.7-1.6-2.4-4.3,0.8-6.2l43.1-24.9c3.2-1.8,7.9-2,10.7-0.4l44.6,25.8    c2.7,1.6,2.4,4.3-0.8,6.2l-43.1,24.9C292.4,161.2,287.6,161.4,284.8,159.9z"/>
		<g>
			
				<rect x="306.6" y="161.7" transform="matrix(0.8659 -0.5003 0.5003 0.8659 -38.3151 181.2777)" class="st4" width="24.7" height="0.9"/>
			<path class="st3" d="M331.6,154.5c0,1.4-1,3-2.2,3.7c-1.2,0.7-2.2,0.1-2.2-1.2c0-1.4,1-3,2.2-3.7     C330.6,152.5,331.6,153.1,331.6,154.5z"/>
			<path class="st3" d="M338.5,150.5c0,1.4-1,3-2.2,3.7c-1.2,0.7-2.2,0.1-2.2-1.2s1-3,2.2-3.7C337.5,148.5,338.5,149.1,338.5,150.5z     "/>
			<path class="st3" d="M345.4,146.5c0,1.4-1,3-2.2,3.7c-1.2,0.7-2.2,0.1-2.2-1.2s1-3,2.2-3.7C344.5,144.5,345.4,145.1,345.4,146.5z     "/>
		</g>
	</g>
	<g>
		<path class="st1" d="M351.2,120L351.2,120v-18.4l-41.2,0l-14.2-8.2c-3.3-1.9-9-1.7-12.8,0.5l-13.3,7.7l-41.2,0v18.9    c-0.1,1.3,0.6,2.5,2.2,3.4l53.3,30.7c3.3,1.9,9,1.7,12.8-0.5l51.4-29.7C350.2,123.2,351.3,121.6,351.2,120z"/>
		<path class="st1" d="M289.8,92.2c-2.4,0.1-4.9,0.7-6.8,1.8l-13.3,7.7l-41.2,0v18.9c-0.1,1.3,0.6,2.5,2.2,3.4l53.3,30.7    c1.6,0.9,3.7,1.3,5.9,1.3V92.2z"/>
		<path class="st2" d="M233.1,101.6l-4.7,0v18.9c-0.1,1.3,0.6,2.5,2.2,3.4l2.5,1.4V101.6z"/>
		<path class="st2" d="M284.7,155.1c2.8,1.2,6.9,1.1,10.2-0.1v-21.5h-10.2V155.1z"/>
		<path class="st3" d="M283.9,135.8l-53.3-30.7c-3.3-1.9-2.9-5.2,0.9-7.4L283,68c3.8-2.2,9.5-2.4,12.8-0.5L349,98.3    c3.3,1.9,2.9,5.2-0.9,7.4l-51.4,29.7C292.9,137.5,287.2,137.7,283.9,135.8z"/>
		<path class="st4" d="M348.1,102l-51.4,29.7c-3.8,2.2-9.5,2.4-12.8,0.5l-53.3-30.7c-0.7-0.4-1.3-0.9-1.6-1.4    c-1.1,1.8-0.6,3.8,1.6,5.1l53.3,30.7c3.3,1.9,9,1.7,12.8-0.5l51.4-29.7c2.9-1.7,3.8-4.1,2.5-5.9    C350.1,100.5,349.2,101.3,348.1,102z"/>
		<g>
			<path class="st3" d="M331.6,124.9c0,1.4-1,3-2.2,3.7c-1.2,0.7-2.2,0.1-2.2-1.2c0-1.4,1-3,2.2-3.7     C330.6,123,331.6,123.5,331.6,124.9z"/>
			<path class="st3" d="M310.4,136.5c0,1.4-1,3-2.2,3.7c-1.2,0.7-2.2,0.1-2.2-1.2s1-3,2.2-3.7C309.4,134.6,310.4,135.2,310.4,136.5z     "/>
			<path class="st4" d="M310.4,167c0,1.4-1,3-2.2,3.7c-1.2,0.7-2.2,0.1-2.2-1.2s1-3,2.2-3.7C309.4,165.1,310.4,165.6,310.4,167z"/>
			<path class="st3" d="M338.5,120.9c0,1.4-1,3-2.2,3.7c-1.2,0.7-2.2,0.1-2.2-1.2c0-1.4,1-3,2.2-3.7     C337.5,119,338.5,119.5,338.5,120.9z"/>
			<path class="st3" d="M345.4,116.9c0,1.4-1,3-2.2,3.7c-1.2,0.7-2.2,0.1-2.2-1.2c0-1.4,1-3,2.2-3.7     C344.5,115,345.4,115.5,345.4,116.9z"/>
		</g>
		<g>
			<path class="st5" d="M287,116.8l-24.9-14.4c-1.5-0.9-1.3-2.4,0.4-3.4L286.6,85c1.8-1,4.4-1.1,6-0.2l24.9,14.4     c1.5,0.9,1.3,2.4-0.4,3.4L293,116.5C291.2,117.5,288.6,117.7,287,116.8z"/>
			<path class="st3" d="M289.4,104.7l-3.4-2c-0.2-0.1-0.2-0.3,0.1-0.5l3.3-1.9c0.2-0.1,0.6-0.2,0.8,0l3.4,2c0.2,0.1,0.2,0.3-0.1,0.5     l-3.3,1.9C290,104.8,289.6,104.8,289.4,104.7z"/>
			<path class="st6" d="M262.1,102.4L262.1,102.4c0.2,0,0.3-0.1,0.4-0.2l24.1-13.9c1.8-1,4.4-1.1,6-0.2l24.8,14.3     c1.4-1,1.5-2.4,0.1-3.2l-24.9-14.4c-1.5-0.9-4.2-0.8-6,0.2l-24.1,13.9C260.8,100,260.6,101.5,262.1,102.4z"/>
		</g>
	</g>
	<g>
		<path class="st3" d="M281.8,140.2c0,1.4-1,2-2.3,1.3c-1.3-0.7-2.3-2.5-2.3-3.9c0-1.4,1-2,2.3-1.3    C280.8,137,281.8,138.7,281.8,140.2z"/>
		<path class="st2" d="M274.8,136.2c0,1.4-1,2-2.3,1.3c-1.3-0.7-2.3-2.5-2.3-3.9c0-1.4,1-2,2.3-1.3    C273.8,133,274.8,134.7,274.8,136.2z"/>
		<path class="st5" d="M281.8,148.7c0,1.4-1,2-2.3,1.3c-1.3-0.7-2.3-2.5-2.3-3.9c0-1.4,1-2,2.3-1.3    C280.8,145.5,281.8,147.2,281.8,148.7z"/>
		<path class="st3" d="M274.8,144.6c0,1.4-1,2-2.3,1.3c-1.3-0.7-2.3-2.5-2.3-3.9c0-1.4,1-2,2.3-1.3    C273.8,141.4,274.8,143.2,274.8,144.6z"/>
	</g>
	<g>
		<path class="st3" d="M281.8,169.4c0,1.4-1,2-2.3,1.3c-1.3-0.7-2.3-2.5-2.3-3.9c0-1.4,1-2,2.3-1.3    C280.8,166.2,281.8,167.9,281.8,169.4z"/>
		<path class="st3" d="M274.8,165.3c0,1.4-1,2-2.3,1.3c-1.3-0.7-2.3-2.5-2.3-3.9c0-1.4,1-2,2.3-1.3    C273.8,162.1,274.8,163.9,274.8,165.3z"/>
		<path class="st2" d="M281.8,177.8c0,1.4-1,2-2.3,1.3c-1.3-0.7-2.3-2.5-2.3-3.9c0-1.4,1-2,2.3-1.3    C280.8,174.6,281.8,176.4,281.8,177.8z"/>
		<path class="st3" d="M274.8,173.8c0,1.4-1,2-2.3,1.3c-1.3-0.7-2.3-2.5-2.3-3.9c0-1.4,1-2,2.3-1.3    C273.8,170.6,274.8,172.4,274.8,173.8z"/>
	</g>
	<g>
		<path class="st3" d="M281.8,198.6c0,1.4-1,2-2.3,1.3c-1.3-0.7-2.3-2.5-2.3-3.9c0-1.4,1-2,2.3-1.3    C280.8,195.4,281.8,197.1,281.8,198.6z"/>
		<path class="st2" d="M274.8,194.5c0,1.4-1,2-2.3,1.3c-1.3-0.7-2.3-2.5-2.3-3.9c0-1.4,1-2,2.3-1.3    C273.8,191.3,274.8,193.1,274.8,194.5z"/>
		<path class="st3" d="M281.8,207c0,1.4-1,2-2.3,1.3c-1.3-0.7-2.3-2.5-2.3-3.9c0-1.4,1-2,2.3-1.3C280.8,203.8,281.8,205.6,281.8,207    z"/>
		<path class="st5" d="M274.8,203c0,1.4-1,2-2.3,1.3c-1.3-0.7-2.3-2.5-2.3-3.9c0-1.4,1-2,2.3-1.3C273.8,199.8,274.8,201.6,274.8,203    z"/>
	</g>
	<g>
		<path class="st5" d="M281.8,228c0,1.4-1,2-2.3,1.3c-1.3-0.7-2.3-2.5-2.3-3.9c0-1.4,1-2,2.3-1.3C280.8,224.8,281.8,226.6,281.8,228    z"/>
		<path class="st3" d="M274.8,224c0,1.4-1,2-2.3,1.3c-1.3-0.7-2.3-2.5-2.3-3.9c0-1.4,1-2,2.3-1.3C273.8,220.8,274.8,222.6,274.8,224    z"/>
		<path class="st5" d="M281.8,236.5c0,1.4-1,2-2.3,1.3c-1.3-0.7-2.3-2.5-2.3-3.9c0-1.4,1-2,2.3-1.3    C280.8,233.3,281.8,235.1,281.8,236.5z"/>
		<path class="st2" d="M274.8,232.5c0,1.4-1,2-2.3,1.3c-1.3-0.7-2.3-2.5-2.3-3.9c0-1.4,1-2,2.3-1.3    C273.8,229.3,274.8,231.1,274.8,232.5z"/>
	</g>
	<g>
		<path class="st5" d="M281.8,257.2c0,1.4-1,2-2.3,1.3c-1.3-0.7-2.3-2.5-2.3-3.9c0-1.4,1-2,2.3-1.3    C280.8,254,281.8,255.8,281.8,257.2z"/>
		<path class="st3" d="M274.8,253.2c0,1.4-1,2-2.3,1.3c-1.3-0.7-2.3-2.5-2.3-3.9c0-1.4,1-2,2.3-1.3    C273.8,250,274.8,251.8,274.8,253.2z"/>
		<path class="st2" d="M281.8,265.7c0,1.4-1,2-2.3,1.3c-1.3-0.7-2.3-2.5-2.3-3.9c0-1.4,1-2,2.3-1.3    C280.8,262.5,281.8,264.3,281.8,265.7z"/>
		<path class="st5" d="M274.8,261.7c0,1.4-1,2-2.3,1.3c-1.3-0.7-2.3-2.5-2.3-3.9c0-1.4,1-2,2.3-1.3    C273.8,258.5,274.8,260.3,274.8,261.7z"/>
	</g>
	<g>
		<path class="st3" d="M281.8,286.8c0,1.4-1,2-2.3,1.3c-1.3-0.7-2.3-2.5-2.3-3.9c0-1.4,1-2,2.3-1.3    C280.8,283.6,281.8,285.4,281.8,286.8z"/>
		<path class="st2" d="M274.8,282.8c0,1.4-1,2-2.3,1.3c-1.3-0.7-2.3-2.5-2.3-3.9c0-1.4,1-2,2.3-1.3    C273.8,279.6,274.8,281.3,274.8,282.8z"/>
		<path class="st3" d="M281.8,295.3c0,1.4-1,2-2.3,1.3c-1.3-0.7-2.3-2.5-2.3-3.9c0-1.4,1-2,2.3-1.3    C280.8,292.1,281.8,293.9,281.8,295.3z"/>
		<path class="st5" d="M274.8,291.3c0,1.4-1,2-2.3,1.3c-1.3-0.7-2.3-2.5-2.3-3.9c0-1.4,1-2,2.3-1.3    C273.8,288.1,274.8,289.8,274.8,291.3z"/>
	</g>
</g>
<path class="st2" d="M718.8,348.2c-3.5,0-7-1-10.2-2.9l-13.8-8.2c-0.7-0.4-1-1.4-0.5-2.1c0.4-0.7,1.4-1,2.1-0.5l13.8,8.2  c5.4,3.3,11.9,3.2,17.3-0.1c5.4-3.3,8.4-9.1,7.9-15.4l-0.3-4.2c-4.9-68.3-13.9-195.5,39.7-209.2c18.5-4.7,31.1-9.2,40.3-12.5  c27.5-9.8,29.4-9.3,67.3,19.3c0.7,0.5,0.8,1.5,0.3,2.2c-0.5,0.7-1.5,0.8-2.2,0.3c-37.7-28.4-38.2-28.3-64.4-18.9  c-9.3,3.3-22,7.9-40.6,12.6c-51.1,13.1-42.1,138.5-37.3,205.9l0.3,4.2c0.5,7.5-3,14.3-9.4,18.3C725.9,347.2,722.4,348.2,718.8,348.2  z"/>
<path class="st0" d="M79.7,423.4l103.9-59.2c3.8-2.2,3.3-6-1.1-8.6l-59.8-34.5c-4.4-2.5-11-2.8-14.8-0.6L4,379.7  c-3.8,2.2-3.3,6,1.1,8.6l59.8,34.5C69.2,425.3,75.9,425.5,79.7,423.4z"/>
<g>
	<path class="st0" d="M503.8,476.6l-206.1-119c-5.8-3.4-5.1-9.2,1.6-13.1l140.3-81c6.7-3.9,16.9-4.3,22.7-0.9l206.1,119   c5.8,3.4,5.1,9.2-1.6,13.1l-140.3,81C519.8,479.5,509.6,479.9,503.8,476.6z"/>
	<path class="st6" d="M727.2,153.2L511.9,29c-2.5-1.4-5-1.7-7.3-0.9l0,0l-0.4,0.1c0,0-0.1,0-0.1,0l-7.8,3l7,3.4   c0,0.1-0.1,0.2-0.1,0.4l-35.1,159.6c-1.8,8,1.8,17.3,7.8,20.8l210.1,121.3l-0.7,8.9l8.5-3.3c2.9-1.3,5.1-4.4,6.1-8.7L735,174.1   C736.8,166.1,733.3,156.7,727.2,153.2z"/>
	<path class="st1" d="M727.2,153.2L511.9,29c-2.5-1.4-5-1.7-7.3-0.9l0,0l-0.4,0.1c0,0-0.1,0-0.1,0l-7.8,3l7,3.4   c0,0.1-0.1,0.2-0.1,0.4l-23.1,105.2l105.3,82L734,161.8C732.5,158.1,730.2,155,727.2,153.2z"/>
	<path class="st7" d="M719,177.8l16.4-7c0.3-6.3-2.3-12.9-6.6-16.4l-25.9,10.9L719,177.8z"/>
	<path class="st3" d="M677.9,344.7L462.7,220.5c-6.1-3.5-9.6-12.8-7.8-20.8l35.1-159.6c1.8-8,8.1-11.6,14.2-8.1l215.2,124.3   c6.1,3.5,9.6,12.8,7.8,20.8l-35.1,159.6C690.3,344.6,684,348.3,677.9,344.7z"/>
	<path class="st4" d="M721.4,155.5L506.1,31.2c-2.9-1.7-6-1.7-8.5-0.4c2-0.4,4.2-0.1,6.4,1.1l215.2,124.3c6.1,3.5,9.6,12.8,7.8,20.8   l-35.1,159.6c-0.9,4.1-3,7-5.7,8.5c3.6-0.8,6.7-4.1,7.8-9.2l35.1-159.6C731,168.3,727.5,159,721.4,155.5z"/>
	<path class="st4" d="M673.2,332.9L470.8,216.1c-5.6-3.2-8.8-11.7-7.2-19.1l32.1-146c1.6-7.3,7.4-10.6,13-7.4l202.4,116.8   c5.6,3.2,8.8,11.7,7.2,19.1l-32.1,146C684.6,332.8,678.8,336.1,673.2,332.9z"/>
	<path class="st6" d="M673.2,332.9L470.8,216.1c-5.6-3.2-8.8-11.7-7.2-19.1l32.1-146c1.6-7.3,7.4-10.6,13-7.4l202.4,116.8   c5.6,3.2,8.8,11.7,7.2,19.1l-32.1,146C684.6,332.8,678.8,336.1,673.2,332.9z"/>
	<path class="st2" d="M675,332.2L472.6,215.3c-5.6-3.2-8.8-11.7-7.2-19.1l32.1-146c0.8-3.7,2.7-6.4,5.1-7.7   c-3.2,0.8-5.9,3.8-6.9,8.4l-32.1,146c-1.6,7.3,1.6,15.8,7.2,19.1l202.4,116.8c2.8,1.6,5.6,1.6,7.9,0.3   C679.2,333.6,677.1,333.4,675,332.2z"/>
	<path class="st6" d="M680.9,350.2l-29.4-3.9L461.5,236.6c-6.1-3.5-16.7-3.1-23.8,1l-134.6,77.7l-17.8-2.3V323l0,0   c-0.1,2.3,1.2,4.6,4.1,6.2l215.2,124.3c6.1,3.5,16.7,3.1,23.8-1L675,367.9c4-2.3,5.9-5.2,5.8-8l0,0V350.2z"/>
	<path class="st1" d="M538.2,280.9l-13.5-7.8H376.3l-73.1,42.2l-17.8-2.3V323l0,0c-0.1,2.3,1.2,4.6,4.1,6.2l215.2,124.3   c3.2,1.9,7.7,2.6,12.3,2.3L538.2,280.9z"/>
	<path class="st2" d="M293.3,314l-7.9-1V323l0,0c-0.1,2.3,1.2,4.6,4.1,6.2l3.8,2.2V314z"/>
	<path class="st7" d="M506.9,454.5c5.8,2.2,14,1.7,20.2-1.3v-22.5h-20.2V454.5z"/>
	<path class="st3" d="M504.7,443.4L289.5,319.2c-6.1-3.5-5.3-9.7,1.7-13.7l146.6-84.6c7-4.1,17.7-4.5,23.8-1l215.2,124.3   c6.1,3.5,5.3,9.7-1.7,13.7l-146.6,84.6C521.5,446.5,510.8,447,504.7,443.4z"/>
	<path class="st4" d="M675,354.2l-146.6,84.6c-7,4.1-17.7,4.5-23.8,1L289.5,315.5c-2-1.2-3.2-2.6-3.8-4.1c-1,2.9,0.3,5.8,3.8,7.8   l215.2,124.3c6.1,3.5,16.7,3.1,23.8-1L675,357.9c4.7-2.7,6.6-6.4,5.5-9.6C679.8,350.4,678,352.5,675,354.2z"/>
	<g>
		<path class="st2" d="M381,278l-9.7-5.6c-0.8-0.5-0.7-1.2,0.2-1.8L383,264c0.9-0.5,2.3-0.6,3.1-0.1l9.7,5.6    c0.8,0.5,0.7,1.2-0.2,1.8l-11.5,6.6C383.2,278.4,381.8,278.5,381,278z"/>
		<path class="st2" d="M396.1,286.7l-9.7-5.6c-0.8-0.5-0.7-1.2,0.2-1.8l11.5-6.6c0.9-0.5,2.3-0.6,3.1-0.1l9.7,5.6    c0.8,0.5,0.7,1.2-0.2,1.8l-11.5,6.6C398.2,287.1,396.9,287.2,396.1,286.7z"/>
		<path class="st2" d="M411.1,295.4l-9.7-5.6c-0.8-0.5-0.7-1.2,0.2-1.8l11.5-6.6c0.9-0.5,2.3-0.6,3.1-0.1l9.7,5.6    c0.8,0.5,0.7,1.2-0.2,1.8l-11.5,6.6C413.3,295.8,411.9,295.9,411.1,295.4z"/>
		<path class="st2" d="M431.9,288.2l-9.7-5.6c-0.8-0.5-0.7-1.2,0.2-1.8l9.6-5.6c0.9-0.5,2.3-0.6,3.1-0.1l9.7,5.6    c0.8,0.5,0.7,1.2-0.2,1.8l-9.6,5.6C434.1,288.6,432.7,288.7,431.9,288.2z"/>
		<path class="st2" d="M447,296.9l-9.7-5.6c-0.8-0.5-0.7-1.2,0.2-1.8l9.6-5.6c0.9-0.5,2.3-0.6,3.1-0.1l9.7,5.6    c0.8,0.5,0.7,1.2-0.2,1.8l-9.6,5.6C449.1,297.3,447.7,297.4,447,296.9z"/>
		<path class="st2" d="M462,305.6l-9.7-5.6c-0.8-0.5-0.7-1.2,0.2-1.8l9.6-5.6c0.9-0.5,2.3-0.6,3.1-0.1l9.7,5.6    c0.8,0.5,0.7,1.2-0.2,1.8l-9.6,5.6C464.1,306,462.8,306,462,305.6z"/>
		<path class="st2" d="M477,314.3l-9.7-5.6c-0.8-0.5-0.7-1.2,0.2-1.8l9.6-5.6c0.9-0.5,2.3-0.6,3.1-0.1l9.7,5.6    c0.8,0.5,0.7,1.2-0.2,1.8l-9.6,5.6C479.2,314.7,477.8,314.7,477,314.3z"/>
		<path class="st2" d="M492.1,323l-9.7-5.6c-0.8-0.5-0.7-1.2,0.2-1.8l9.6-5.6c0.9-0.5,2.3-0.6,3.1-0.1l9.7,5.6    c0.8,0.5,0.7,1.2-0.2,1.8l-9.6,5.6C494.2,323.4,492.9,323.4,492.1,323z"/>
		<path class="st2" d="M507.1,331.6l-9.7-5.6c-0.8-0.5-0.7-1.2,0.2-1.8l9.6-5.6c0.9-0.5,2.3-0.6,3.1-0.1l9.7,5.6    c0.8,0.5,0.7,1.2-0.2,1.8l-9.6,5.6C509.3,332,507.9,332.1,507.1,331.6z"/>
		<path class="st2" d="M522.2,340.3l-9.7-5.6c-0.8-0.5-0.7-1.2,0.2-1.8l9.6-5.6c0.9-0.5,2.3-0.6,3.1-0.1l9.7,5.6    c0.8,0.5,0.7,1.2-0.2,1.8l-9.6,5.6C524.3,340.7,522.9,340.8,522.2,340.3z"/>
		<path class="st2" d="M537.2,349l-9.7-5.6c-0.8-0.5-0.7-1.2,0.2-1.8l9.6-5.6c0.9-0.5,2.3-0.6,3.1-0.1l9.7,5.6    c0.8,0.5,0.7,1.2-0.2,1.8l-9.6,5.6C539.3,349.4,538,349.5,537.2,349z"/>
		<path class="st2" d="M552.2,357.7l-9.7-5.6c-0.8-0.5-0.7-1.2,0.2-1.8l9.6-5.6c0.9-0.5,2.3-0.6,3.1-0.1l9.7,5.6    c0.8,0.5,0.7,1.2-0.2,1.8l-9.6,5.6C554.4,358.1,553,358.1,552.2,357.7z"/>
		<path class="st2" d="M567.3,366.4l-9.7-5.6c-0.8-0.5-0.7-1.2,0.2-1.8l9.6-5.6c0.9-0.5,2.3-0.6,3.1-0.1l9.7,5.6    c0.8,0.5,0.7,1.2-0.2,1.8l-9.6,5.6C569.4,366.8,568.1,366.8,567.3,366.4z"/>
		<path class="st2" d="M454.1,284.1l-9.7-5.6c-0.8-0.5-0.7-1.2,0.2-1.8l9.6-5.6c0.9-0.5,2.3-0.6,3.1-0.1l9.7,5.6    c0.8,0.5,0.7,1.2-0.2,1.8l-9.6,5.6C456.2,284.5,454.9,284.6,454.1,284.1z"/>
		<path class="st2" d="M438.8,275.3l-9.7-5.6c-0.8-0.5-0.7-1.2,0.2-1.8l9.6-5.6c0.9-0.5,2.3-0.6,3.1-0.1l9.7,5.6    c0.8,0.5,0.7,1.2-0.2,1.8l-9.6,5.6C441,275.7,439.6,275.8,438.8,275.3z"/>
		<path class="st2" d="M423.5,266.5l-21-12.1c-0.8-0.5-0.7-1.2,0.2-1.8l9.6-5.6c0.9-0.5,2.3-0.6,3.1-0.1l21,12.1    c0.8,0.5,0.7,1.2-0.2,1.8l-9.6,5.6C425.7,266.9,424.3,266.9,423.5,266.5z"/>
		<path class="st2" d="M434.2,255.7l-17-9.8c-0.8-0.5-0.7-1.2,0.2-1.8l9.6-5.6c0.9-0.5,2.3-0.6,3.1-0.1l17,9.8    c0.8,0.5,0.7,1.2-0.2,1.8l-9.6,5.6C436.4,256.1,435,256.2,434.2,255.7z"/>
		<path class="st2" d="M469.1,292.8l-9.7-5.6c-0.8-0.5-0.7-1.2,0.2-1.8l9.6-5.6c0.9-0.5,2.3-0.6,3.1-0.1l9.7,5.6    c0.8,0.5,0.7,1.2-0.2,1.8l-9.6,5.6C471.3,293.2,469.9,293.3,469.1,292.8z"/>
		<path class="st2" d="M484.2,301.5l-9.7-5.6c-0.8-0.5-0.7-1.2,0.2-1.8l9.6-5.6c0.9-0.5,2.3-0.6,3.1-0.1l9.7,5.6    c0.8,0.5,0.7,1.2-0.2,1.8l-9.6,5.6C486.3,301.9,484.9,301.9,484.2,301.5z"/>
		<path class="st2" d="M499.2,310.2l-9.7-5.6c-0.8-0.5-0.7-1.2,0.2-1.8l9.6-5.6c0.9-0.5,2.3-0.6,3.1-0.1l9.7,5.6    c0.8,0.5,0.7,1.2-0.2,1.8l-9.6,5.6C501.3,310.6,500,310.6,499.2,310.2z"/>
		<path class="st2" d="M514.2,318.9l-9.7-5.6c-0.8-0.5-0.7-1.2,0.2-1.8l9.6-5.6c0.9-0.5,2.3-0.6,3.1-0.1l9.7,5.6    c0.8,0.5,0.7,1.2-0.2,1.8l-9.6,5.6C516.4,319.2,515,319.3,514.2,318.9z"/>
		<path class="st2" d="M529.3,327.5l-9.7-5.6c-0.8-0.5-0.7-1.2,0.2-1.8l9.6-5.6c0.9-0.5,2.3-0.6,3.1-0.1l9.7,5.6    c0.8,0.5,0.7,1.2-0.2,1.8l-9.6,5.6C531.4,327.9,530.1,328,529.3,327.5z"/>
		<path class="st2" d="M544.3,336.2l-9.7-5.6c-0.8-0.5-0.7-1.2,0.2-1.8l9.6-5.6c0.9-0.5,2.3-0.6,3.1-0.1l9.7,5.6    c0.8,0.5,0.7,1.2-0.2,1.8l-9.6,5.6C546.5,336.6,545.1,336.7,544.3,336.2z"/>
		<path class="st2" d="M559.4,344.9l-9.7-5.6c-0.8-0.5-0.7-1.2,0.2-1.8l9.6-5.6c0.9-0.5,2.3-0.6,3.1-0.1l9.7,5.6    c0.8,0.5,0.7,1.2-0.2,1.8l-9.6,5.6C561.5,345.3,560.1,345.4,559.4,344.9z"/>
		<path class="st2" d="M574.4,353.6l-9.7-5.6c-0.8-0.5-0.7-1.2,0.2-1.8l9.6-5.6c0.9-0.5,2.3-0.6,3.1-0.1l9.7,5.6    c0.8,0.5,0.7,1.2-0.2,1.8l-9.6,5.6C576.5,354,575.2,354,574.4,353.6z"/>
		<path class="st2" d="M589.4,362.3l-9.7-5.6c-0.8-0.5-0.7-1.2,0.2-1.8l9.6-5.6c0.9-0.5,2.3-0.6,3.1-0.1l9.7,5.6    c0.8,0.5,0.7,1.2-0.2,1.8l-9.6,5.6C591.6,362.7,590.2,362.7,589.4,362.3z"/>
		<path class="st2" d="M616.2,377.7l-21.2-12.3c-0.8-0.5-0.7-1.2,0.2-1.8l9.6-5.6c0.9-0.5,2.3-0.6,3.1-0.1l21.2,12.3    c0.8,0.5,0.7,1.2-0.2,1.8l-9.6,5.6C618.3,378.1,617,378.2,616.2,377.7z"/>
		<path class="st2" d="M645.4,360.8l-17.9-10.4c-0.8-0.5-0.7-1.2,0.2-1.8l9.6-5.6c0.9-0.5,2.3-0.6,3.1-0.1l17.9,10.4    c0.8,0.5,0.7,1.2-0.2,1.8l-9.6,5.6C647.6,361.2,646.2,361.2,645.4,360.8z"/>
		<path class="st2" d="M495.5,291.1l-9.7-5.6c-0.8-0.5-0.7-1.2,0.2-1.8l9.6-5.6c0.9-0.5,2.3-0.6,3.1-0.1l9.7,5.6    c0.8,0.5,0.7,1.2-0.2,1.8l-9.6,5.6C497.6,291.5,496.2,291.6,495.5,291.1z"/>
		<path class="st2" d="M480,282.2l-9.7-5.6c-0.8-0.5-0.7-1.2,0.2-1.8l9.6-5.6c0.9-0.5,2.3-0.6,3.1-0.1l9.7,5.6    c0.8,0.5,0.7,1.2-0.2,1.8l-9.6,5.6C482.2,282.6,480.8,282.7,480,282.2z"/>
		<path class="st2" d="M464.6,273.3l-9.7-5.6c-0.8-0.5-0.7-1.2,0.2-1.8l9.6-5.6c0.9-0.5,2.3-0.6,3.1-0.1l9.7,5.6    c0.8,0.5,0.7,1.2-0.2,1.8l-9.6,5.6C466.8,273.7,465.4,273.8,464.6,273.3z"/>
		<path class="st2" d="M449.2,264.4l-9.7-5.6c-0.8-0.5-0.7-1.2,0.2-1.8l9.6-5.6c0.9-0.5,2.3-0.6,3.1-0.1l9.7,5.6    c0.8,0.5,0.7,1.2-0.2,1.8l-9.6,5.6C451.4,264.8,450,264.9,449.2,264.4z"/>
		<path class="st2" d="M510.5,299.8l-9.7-5.6c-0.8-0.5-0.7-1.2,0.2-1.8l9.6-5.6c0.9-0.5,2.3-0.6,3.1-0.1l9.7,5.6    c0.8,0.5,0.7,1.2-0.2,1.8l-9.6,5.6C512.6,300.2,511.3,300.2,510.5,299.8z"/>
		<path class="st2" d="M525.5,308.5l-9.7-5.6c-0.8-0.5-0.7-1.2,0.2-1.8l9.6-5.6c0.9-0.5,2.3-0.6,3.1-0.1l9.7,5.6    c0.8,0.5,0.7,1.2-0.2,1.8l-9.6,5.6C527.7,308.9,526.3,308.9,525.5,308.5z"/>
		<path class="st2" d="M540.6,317.2l-9.7-5.6c-0.8-0.5-0.7-1.2,0.2-1.8l9.6-5.6c0.9-0.5,2.3-0.6,3.1-0.1l9.7,5.6    c0.8,0.5,0.7,1.2-0.2,1.8l-9.6,5.6C542.7,317.5,541.4,317.6,540.6,317.2z"/>
		<path class="st2" d="M555.6,325.8l-9.7-5.6c-0.8-0.5-0.7-1.2,0.2-1.8l9.6-5.6c0.9-0.5,2.3-0.6,3.1-0.1l9.7,5.6    c0.8,0.5,0.7,1.2-0.2,1.8l-9.6,5.6C557.8,326.2,556.4,326.3,555.6,325.8z"/>
		<path class="st2" d="M570.7,334.5l-9.7-5.6c-0.8-0.5-0.7-1.2,0.2-1.8l9.6-5.6c0.9-0.5,2.3-0.6,3.1-0.1l9.7,5.6    c0.8,0.5,0.7,1.2-0.2,1.8l-9.6,5.6C572.8,334.9,571.4,335,570.7,334.5z"/>
		<path class="st2" d="M585.7,343.2l-9.7-5.6c-0.8-0.5-0.7-1.2,0.2-1.8l9.6-5.6c0.9-0.5,2.3-0.6,3.1-0.1l9.7,5.6    c0.8,0.5,0.7,1.2-0.2,1.8l-9.6,5.6C587.8,343.6,586.5,343.7,585.7,343.2z"/>
		<path class="st2" d="M600.7,351.9l-9.7-5.6c-0.8-0.5-0.7-1.2,0.2-1.8l9.6-5.6c0.9-0.5,2.3-0.6,3.1-0.1l9.7,5.6    c0.8,0.5,0.7,1.2-0.2,1.8l-9.6,5.6C602.9,352.3,601.5,352.3,600.7,351.9z"/>
		<path class="st2" d="M615.8,360.6l-9.7-5.6c-0.8-0.5-0.7-1.2,0.2-1.8l9.6-5.6c0.9-0.5,2.3-0.6,3.1-0.1l9.7,5.6    c0.8,0.5,0.7,1.2-0.2,1.8l-9.6,5.6C617.9,361,616.6,361,615.8,360.6z"/>
		<path class="st2" d="M630.8,369.2l-9.7-5.6c-0.8-0.5-0.7-1.2,0.2-1.8l9.6-5.6c0.9-0.5,2.3-0.6,3.1-0.1l9.7,5.6    c0.8,0.5,0.7,1.2-0.2,1.8l-9.6,5.6C633,369.6,631.6,369.7,630.8,369.2z"/>
		<path class="st2" d="M487.5,269.6l-9.7-5.6c-0.8-0.5-0.7-1.2,0.2-1.8l9.6-5.6c0.9-0.5,2.3-0.6,3.1-0.1l9.7,5.6    c0.8,0.5,0.7,1.2-0.2,1.8l-9.6,5.6C489.7,270,488.3,270.1,487.5,269.6z"/>
		<path class="st2" d="M472.6,261l-9.7-5.6c-0.8-0.5-0.7-1.2,0.2-1.8l9.6-5.6c0.9-0.5,2.3-0.6,3.1-0.1l9.7,5.6    c0.8,0.5,0.7,1.2-0.2,1.8l-9.6,5.6C474.7,261.4,473.4,261.4,472.6,261z"/>
		<path class="st2" d="M457.6,252.3l-9.7-5.6c-0.8-0.5-0.7-1.2,0.2-1.8l9.6-5.6c0.9-0.5,2.3-0.6,3.1-0.1l9.7,5.6    c0.8,0.5,0.7,1.2-0.2,1.8l-9.6,5.6C459.8,252.7,458.4,252.8,457.6,252.3z"/>
		<path class="st2" d="M442.6,243.7l-9.7-5.6c-0.8-0.5-0.7-1.2,0.2-1.8l9.6-5.6c0.9-0.5,2.3-0.6,3.1-0.1l9.7,5.6    c0.8,0.5,0.7,1.2-0.2,1.8l-9.6,5.6C444.8,244.1,443.4,244.2,442.6,243.7z"/>
		<path class="st2" d="M458,234.8l-9.7-5.6c-0.8-0.5-0.7-1.2,0.2-1.8l3.2-1.8c0.9-0.5,2.3-0.6,3.1-0.1l9.7,5.6    c0.8,0.5,0.7,1.2-0.2,1.8l-3.2,1.8C460.2,235.2,458.8,235.3,458,234.8z"/>
		<path class="st2" d="M477.6,246.1l-9.7-5.6c-0.8-0.5-0.7-1.2,0.2-1.8l3.2-1.8c0.9-0.5,2.3-0.6,3.1-0.1l9.7,5.6    c0.8,0.5,0.7,1.2-0.2,1.8l-3.2,1.8C479.7,246.5,478.3,246.5,477.6,246.1z"/>
		<path class="st2" d="M492.5,254.7l-9.7-5.6c-0.8-0.5-0.7-1.2,0.2-1.8l3.2-1.8c0.9-0.5,2.3-0.6,3.1-0.1l9.7,5.6    c0.8,0.5,0.7,1.2-0.2,1.8l-3.2,1.8C494.6,255.1,493.2,255.2,492.5,254.7z"/>
		<path class="st2" d="M507.4,263.3l-9.7-5.6c-0.8-0.5-0.7-1.2,0.2-1.8l3.2-1.8c0.9-0.5,2.3-0.6,3.1-0.1l9.7,5.6    c0.8,0.5,0.7,1.2-0.2,1.8l-3.2,1.8C509.5,263.7,508.1,263.8,507.4,263.3z"/>
		<path class="st2" d="M522.3,271.9l-9.7-5.6c-0.8-0.5-0.7-1.2,0.2-1.8l3.2-1.8c0.9-0.5,2.3-0.6,3.1-0.1l9.7,5.6    c0.8,0.5,0.7,1.2-0.2,1.8l-3.2,1.8C524.4,272.3,523,272.4,522.3,271.9z"/>
		<path class="st2" d="M605.5,319.9l-9.7-5.6c-0.8-0.5-0.7-1.2,0.2-1.8l3.2-1.8c0.9-0.5,2.3-0.6,3.1-0.1l9.7,5.6    c0.8,0.5,0.7,1.2-0.2,1.8l-3.2,1.8C607.6,320.3,606.2,320.4,605.5,319.9z"/>
		<path class="st2" d="M620.4,328.5l-9.7-5.6c-0.8-0.5-0.7-1.2,0.2-1.8l3.2-1.8c0.9-0.5,2.3-0.6,3.1-0.1l9.7,5.6    c0.8,0.5,0.7,1.2-0.2,1.8l-3.2,1.8C622.5,328.9,621.1,329,620.4,328.5z"/>
		<path class="st2" d="M635.3,337.1l-9.7-5.6c-0.8-0.5-0.7-1.2,0.2-1.8l3.2-1.8c0.9-0.5,2.3-0.6,3.1-0.1l9.7,5.6    c0.8,0.5,0.7,1.2-0.2,1.8l-3.2,1.8C637.4,337.5,636,337.6,635.3,337.1z"/>
		<path class="st2" d="M650.2,345.8l-9.7-5.6c-0.8-0.5-0.7-1.2,0.2-1.8l3.2-1.8c0.9-0.5,2.3-0.6,3.1-0.1l9.7,5.6    c0.8,0.5,0.7,1.2-0.2,1.8l-3.2,1.8C652.3,346.1,650.9,346.2,650.2,345.8z"/>
		<path class="st2" d="M502.6,278.3l-9.7-5.6c-0.8-0.5-0.7-1.2,0.2-1.8l9.6-5.6c0.9-0.5,2.3-0.6,3.1-0.1l9.7,5.6    c0.8,0.5,0.7,1.2-0.2,1.8l-9.6,5.6C504.7,278.7,503.4,278.8,502.6,278.3z"/>
		<path class="st2" d="M517.6,287l-9.7-5.6c-0.8-0.5-0.7-1.2,0.2-1.8l9.6-5.6c0.9-0.5,2.3-0.6,3.1-0.1l9.7,5.6    c0.8,0.5,0.7,1.2-0.2,1.8l-9.6,5.6C519.8,287.4,518.4,287.4,517.6,287z"/>
		<path class="st2" d="M532.7,295.7l-9.7-5.6c-0.8-0.5-0.7-1.2,0.2-1.8l9.6-5.6c0.9-0.5,2.3-0.6,3.1-0.1l9.7,5.6    c0.8,0.5,0.7,1.2-0.2,1.8l-9.6,5.6C534.8,296.1,533.4,296.1,532.7,295.7z"/>
		<path class="st2" d="M547.7,304.4l-9.7-5.6c-0.8-0.5-0.7-1.2,0.2-1.8l9.6-5.6c0.9-0.5,2.3-0.6,3.1-0.1l9.7,5.6    c0.8,0.5,0.7,1.2-0.2,1.8l-9.6,5.6C549.8,304.8,548.5,304.8,547.7,304.4z"/>
		<path class="st2" d="M562.7,313l-9.7-5.6c-0.8-0.5-0.7-1.2,0.2-1.8l9.6-5.6c0.9-0.5,2.3-0.6,3.1-0.1l9.7,5.6    c0.8,0.5,0.7,1.2-0.2,1.8l-9.6,5.6C564.9,313.4,563.5,313.5,562.7,313z"/>
		<path class="st2" d="M577.8,321.7l-9.7-5.6c-0.8-0.5-0.7-1.2,0.2-1.8l9.6-5.6c0.9-0.5,2.3-0.6,3.1-0.1l9.7,5.6    c0.8,0.5,0.7,1.2-0.2,1.8l-9.6,5.6C579.9,322.1,578.6,322.2,577.8,321.7z"/>
		<path class="st2" d="M592.8,330.4l-9.7-5.6c-0.8-0.5-0.7-1.2,0.2-1.8l9.6-5.6c0.9-0.5,2.3-0.6,3.1-0.1l9.7,5.6    c0.8,0.5,0.7,1.2-0.2,1.8l-9.6,5.6C595,330.8,593.6,330.9,592.8,330.4z"/>
		<path class="st2" d="M607.8,339.1l-9.7-5.6c-0.8-0.5-0.7-1.2,0.2-1.8l9.6-5.6c0.9-0.5,2.3-0.6,3.1-0.1l9.7,5.6    c0.8,0.5,0.7,1.2-0.2,1.8l-9.6,5.6C610,339.5,608.6,339.5,607.8,339.1z"/>
		<path class="st2" d="M622.9,347.8l-9.7-5.6c-0.8-0.5-0.7-1.2,0.2-1.8l9.6-5.6c0.9-0.5,2.3-0.6,3.1-0.1l9.7,5.6    c0.8,0.5,0.7,1.2-0.2,1.8l-9.6,5.6C625,348.2,623.7,348.2,622.9,347.8z"/>
		<path class="st2" d="M416.6,279.4l-28.7-16.6c-0.8-0.5-0.7-1.2,0.2-1.8l9.6-5.6c0.9-0.5,2.3-0.6,3.1-0.1l28.7,16.6    c0.8,0.5,0.7,1.2-0.2,1.8l-9.6,5.6C418.7,279.8,417.4,279.8,416.6,279.4z"/>
		<path class="st2" d="M601.4,386.1l-28.7-16.6c-0.8-0.5-0.7-1.2,0.2-1.8l9.6-5.6c0.9-0.5,2.3-0.6,3.1-0.1l28.7,16.6    c0.8,0.5,0.7,1.2-0.2,1.8l-9.6,5.6C603.5,386.4,602.1,386.5,601.4,386.1z"/>
		<path class="st2" d="M541.2,370.5l-9.7-5.6c-0.8-0.5-0.7-1.2,0.2-1.8l11.5-6.6c0.9-0.5,2.3-0.6,3.1-0.1l9.7,5.6    c0.8,0.5,0.7,1.2-0.2,1.8l-11.5,6.6C543.4,370.9,542,371,541.2,370.5z"/>
		<path class="st2" d="M432,307.5l-15.6-9c-0.8-0.5-0.7-1.2,0.2-1.8l11.5-6.6c0.9-0.5,2.3-0.6,3.1-0.1l15.6,9    c0.8,0.5,0.7,1.2-0.2,1.8l-11.5,6.6C434.1,307.8,432.8,307.9,432,307.5z"/>
		<path class="st2" d="M526.7,362.1l-15.6-9c-0.8-0.5-0.7-1.2,0.2-1.8l11.5-6.6c0.9-0.5,2.3-0.6,3.1-0.1l15.6,9    c0.8,0.5,0.7,1.2-0.2,1.8l-11.5,6.6C528.9,362.5,527.5,362.6,526.7,362.1z"/>
		<path class="st2" d="M453.7,320l-15.6-9c-0.8-0.5-0.7-1.2,0.2-1.8l11.5-6.6c0.9-0.5,2.3-0.6,3.1-0.1l15.6,9    c0.8,0.5,0.7,1.2-0.2,1.8l-11.5,6.6C455.8,320.4,454.5,320.4,453.7,320z"/>
		<path class="st2" d="M453,302.5l67.7,39.1c0.8,0.5,0.8,1.3,0,1.8l-11.7,6.8c-0.8,0.5-2.2,0.5-3,0L438.2,311L453,302.5z"/>
		<path class="st2" d="M583.2,386.3l10.8,6.3c0.6,0.4,0.6,1-0.2,1.4l-4.7,2.7c-0.7,0.4-1.9,0.5-2.5,0.1l-10.8-6.3    c-0.6-0.4-0.6-1,0.2-1.4l4.7-2.7C581.5,385.9,582.6,385.9,583.2,386.3z"/>
		<path class="st2" d="M568.1,377.5l10.8,6.3c0.6,0.4,0.6,1-0.2,1.4l-4.7,2.7c-0.7,0.4-1.9,0.5-2.5,0.1l-10.8-6.3    c-0.6-0.4-0.6-1,0.2-1.4l4.7-2.7C566.3,377.2,567.4,377.1,568.1,377.5z"/>
		<path class="st2" d="M553,368.8l10.8,6.3c0.6,0.4,0.6,1-0.2,1.4l-4.7,2.7c-0.7,0.4-1.9,0.5-2.5,0.1l-10.8-6.3    c-0.6-0.4-0.6-1,0.2-1.4l4.7-2.7C551.3,368.5,552.4,368.4,553,368.8z"/>
		<path class="st2" d="M576.4,372.7l10.8,6.3c0.6,0.4,0.6,1-0.2,1.4l-4.7,2.7c-0.7,0.4-1.9,0.5-2.5,0.1L569,377    c-0.6-0.4-0.6-1,0.2-1.4l4.7-2.7C574.6,372.4,575.7,372.3,576.4,372.7z"/>
	</g>
	<g>
		<polygon class="st3" points="635.8,203.3 554.8,156.5 555.8,151.2 636.8,198   "/>
		<polygon class="st3" points="606.8,212.2 550.2,179.5 551.3,174.2 607.8,206.9   "/>
		<polygon class="st4" points="601.4,196.3 552.5,168 553.5,162.7 602.5,191   "/>
		<polygon class="st5" points="633.5,214.8 609.1,200.7 610.1,195.4 634.6,209.5   "/>
		<polygon class="st3" points="546.2,110.6 521.7,96.4 522.7,91.2 547.2,105.3   "/>
		<polygon class="st4" points="543.5,122.8 519,108.7 520.1,103.4 544.5,117.5   "/>
		<polygon class="st3" points="663.6,292.6 639.1,278.4 640.1,273.2 664.6,287.3   "/>
		<polygon class="st3" points="538.2,147.3 513.7,133.2 514.8,127.9 539.2,142   "/>
	</g>
	<g>
		<path class="st5" d="M591,151.1c-0.8,1.7-2.7,2.3-4.4,1.4c-1.6-1-2.4-3.1-1.6-4.8c0.8-1.7,2.7-2.3,4.4-1.4    C591.1,147.2,591.8,149.4,591,151.1z"/>
		<path class="st4" d="M601.6,157.1c-0.8,1.7-2.7,2.3-4.4,1.4c-1.6-1-2.4-3.1-1.6-4.8c0.8-1.7,2.7-2.3,4.4-1.4    C601.7,153.3,602.4,155.4,601.6,157.1z"/>
		<path class="st3" d="M612.1,163.2c-0.8,1.7-2.7,2.3-4.4,1.4c-1.6-1-2.4-3.1-1.6-4.8c0.8-1.7,2.7-2.3,4.4-1.4    C612.2,159.4,612.9,161.5,612.1,163.2z"/>
		<path class="st5" d="M622.6,169.3c-0.8,1.7-2.7,2.3-4.4,1.4c-1.6-1-2.4-3.1-1.6-4.8c0.8-1.7,2.7-2.3,4.4-1.4    C622.7,165.5,623.4,167.6,622.6,169.3z"/>
	</g>
	<path class="st4" d="M443.3,384.2l-61.3-35.4c-1.8-1-1.6-2.8,0.5-4l37-21.3c2.1-1.2,5.2-1.3,7-0.3l61.3,35.4c1.8,1,1.6,2.8-0.5,4   l-37,21.3C448.2,385.1,445.1,385.2,443.3,384.2z"/>
</g>
<g>
	<g>
		<g>
			<g>
				
					<rect x="380.3" y="216.3" transform="matrix(-0.632 0.7749 -0.7749 -0.632 807.5949 74.3365)" class="st2" width="11.7" height="25.2"/>
				<path class="st2" d="M395.2,241.6c2.5-0.9,4.8-3.8,5.2-6.4c0.4-2.6-1.2-4-3.7-3c-2.5,0.9-4.8,3.8-5.2,6.4      C391,241.2,392.7,242.5,395.2,241.6z"/>
			</g>
			<g>
				
					<rect x="360.3" y="202.7" transform="matrix(-0.632 0.775 -0.775 -0.632 770.576 65.2434)" class="st2" width="19" height="25.8"/>
				<path class="st1" d="M383.3,219l6.6,5.4c-1,3.7-4,7.4-7.4,9.1l-6.6-5.4C376.8,224.4,379.9,220.7,383.3,219z"/>
				<path class="st2" d="M378.5,231.4c4-1.5,7.8-6.2,8.5-10.4c0.7-4.2-2-6.4-6-4.9c-4,1.5-7.8,6.2-8.5,10.4      C371.9,230.7,374.6,232.9,378.5,231.4z"/>
				<path class="st2" d="M358.6,215.1c4-1.5,7.8-6.2,8.5-10.4c0.7-4.2-2-6.4-6-4.9c-4,1.5-7.8,6.2-8.5,10.4      C351.9,214.4,354.6,216.6,358.6,215.1z"/>
				<path class="st3" d="M359.1,211.7c2.3-0.9,4.4-3.5,4.8-5.9c0.4-2.4-1.1-3.6-3.4-2.8c-2.3,0.9-4.4,3.5-4.8,5.9      C355.3,211.4,356.8,212.6,359.1,211.7z"/>
			</g>
		</g>
	</g>
	<path class="st3" d="M395.2,234.2c1,0.8,1.9,0.4,2.1-0.8c0.2-1.2-0.4-2.8-1.4-3.6c-1-0.8-1.9-0.4-2.1,0.8   C393.6,231.8,394.3,233.4,395.2,234.2z"/>
</g>
<path class="st2" d="M196.3,433.2c-3.5,0-7-1-10.2-2.9l-13.8-8.2c-0.7-0.4-1-1.4-0.5-2.1c0.4-0.7,1.4-1,2.1-0.5l13.8,8.2  c5.4,3.3,11.9,3.2,17.3-0.1c5.4-3.3,8.4-9.1,7.9-15.4l-0.3-4.2c-4.9-68.3-13.9-195.5,39.7-209.2c18.5-4.7,31.1-9.2,40.3-12.5  c27.5-9.8,29.4-9.3,67.3,19.3c0.7,0.5,0.8,1.5,0.3,2.2c-0.5,0.7-1.5,0.8-2.2,0.3c-37.7-28.4-38.2-28.3-64.4-18.9  c-9.3,3.3-22,7.9-40.6,12.6c-51.1,13.1-42.1,138.5-37.3,205.9l0.3,4.2c0.5,7.5-3,14.3-9.4,18.3C203.4,432.2,199.8,433.2,196.3,433.2  z"/>
<ellipse class="st0" cx="301.4" cy="429.3" rx="50.7" ry="29.3"/>
<g>
	<path class="st6" d="M325.6,416.8c2.9,1.2,4.7,4.4,4.4,7.8c-0.1,1.6-0.3,3.1-0.6,3.8c-0.9,1.9-3.9,4.5-8.6,2.6   c-4.8-1.9-15.3-11.8-15.7-18.3C304.3,400.7,318.1,413.5,325.6,416.8z"/>
	<path class="st6" d="M297.7,436.7c0,0,1.1,7,0.6,8.2s-3.9,4-8.7,3.4c-4.9-0.6-18.9-5.4-22.1-14.7c-4.9-14.4,27.1,1.1,27.1,1.1   L297.7,436.7z"/>
	<path class="st3" d="M283.9,325.5l-1.1,108.5c0.1,3.8,2.6,7,5.9,7.5c0.4,0.1,0.9,0.1,1.3,0.2c3.4,0.3,5.3-1.1,6.4-2.7   c0.9-1.2,1.4-2.8,1.5-4.4l1.4-46.3l6.9-41.4l9.6,73.3c0.2,2,1.1,3.8,2.6,4.8c1.1,0.7,2.5,1.2,4.4,1.2c2.7-0.1,4.6-1.5,5.8-2.9   c0.9-1,1.4-2.5,1.4-3.9l-3.8-44.1l-1.4-56.3L283.9,325.5z"/>
	<path class="st8" d="M298,228.4l1.7,9.9c0,0,0.1,3.4-3.7,4.3c-3.8,0.9-4.9-1.5-4.9-1.5l-1.7-11.1L298,228.4z"/>
	<path class="st8" d="M277.9,228.7c6.3,6.3,15.9,6.8,21.5,1.2c5.6-5.6,5-15.3-1.3-21.5c-6.3-6.3-15.9-6.8-21.5-1.2   C271,212.8,271.6,222.4,277.9,228.7z"/>
	<path class="st5" d="M297.5,238.5c0.3-0.1,16-10.2,21.8,0.4c9.5,17.3,8.9,72.9,5.9,80.1c-2.8,6.7-9.7,11.6-14.5,14.4   c-4.3,2.5-9.1,4-14.1,4c-4.9,0-14.3-4.3-14-10.8c1.6-29.5-1-54.5-3.5-78.6C279.2,247.9,282.2,244.7,297.5,238.5z"/>
	<path class="st1" d="M306.3,347l9.6,73.3c0.2,2,1.1,3.8,2.6,4.8c0.2,0.2,0.5,0.3,0.8,0.5c-2-1.5-7.8-63-8.9-69.9   C309.4,348.8,306.3,347,306.3,347z"/>
</g>
<polygon class="st8" points="247.2,241.7 238.7,213.7 243.2,211.9 253.3,233.8 "/>
<polygon class="st8" points="333.4,219.7 327,190.5 321.9,190.6 323.8,214.7 "/>
<path class="st9" d="M279.2,247.9c0,0-15.4,3.1-25.1-14.8c-0.9-1.6-3.1-1.8-4.1-0.4c-1.6,2.4-3.6,6-2.6,10  c4.8,17.5,30.6,21.3,35.2,31.5C287.3,284.3,279.2,247.9,279.2,247.9z"/>
<path class="st9" d="M307.5,234.8c0,0,12.2,0.9,13.9-9.6c0.9-5.4,1.2-8.7,1.2-10.5c0-1.3,1.1-2.2,2.4-2.1c2.9,0.4,7.4,1.2,8,3.2  c0.9,2.9,2.6,17.2-9.4,39.1C315.8,269.3,307.5,234.8,307.5,234.8z"/>
<path class="st8" d="M327,190.6l-0.1-3.3c0-1.2-0.4-2.3-1-3.3l-3.4-5.5l-0.9-1.1c-0.8-1-2.3-1.3-3.4-0.6l-0.8,0.5  c-1,0.6-1.6,1.7-1.5,2.9l1.7,4.7l-2.2-0.4c-0.4-0.1-0.8,0.2-0.9,0.6l0,0c-0.1,0.4,0.1,0.7,0.5,0.9l3.6,1.5l3.3,4.6L327,190.6z"/>
<path class="st8" d="M238.6,213.9l-1-3.2c-0.4-1.1-0.4-2.3-0.2-3.5l1.3-6.3l0.5-1.3c0.4-1.2,1.7-2,3-1.7l0.9,0.2  c1.1,0.2,2.1,1.1,2.4,2.2l0,5l1.9-1.1c0.4-0.2,0.9-0.1,1.1,0.3l0,0c0.2,0.3,0.1,0.7-0.2,1l-2.9,2.6l-1.7,6.1L238.6,213.9z"/>
<path class="st9" d="M286.4,269.1c1.4,6.4-2.5,55.9,10.3,68.2c-4.9,0-14.3-4.3-14-10.8c1.1-19.8,0.2-37.5-1.2-54.3  c-5-6.5-18.8-10.6-27.4-19C254.7,253.4,285,262.8,286.4,269.1z"/>
<path class="st4" d="M303.2,235.7l-2.2-2.2c0,0-3.6,3.7-6.5,4.3c0,0-3.5,1-5.2,1.1l-1.4,3.9C288,242.7,299.4,241.8,303.2,235.7z"/>
<path class="st6" d="M287.1,224.2c-0.5,0.3-1.2,0.3-1.7,0c-0.9-0.5-2.4-4.2-4.4-3.9c-3,0.4-7.4,6.8-12.9-2.1  c-2.8-4.6-1.2-7.1-2.6-9.7c0,0,0.5,1.4,12.4-5.8c11.9-7.2,21.6,1.6,24.6,6.6c3,5,5,14.9-2.8,20.5c-1.3,0.9-9.6-0.7-9.8-1.4  c-0.2-0.7,2.1-1.8,0.8-3.4C289.7,223.5,288.5,223.5,287.1,224.2z"/>
<path class="st2" d="M175.8,424c-0.3,0-0.5-0.1-0.8-0.2l-83.6-49.5c-0.7-0.4-1-1.4-0.5-2.1c0.4-0.7,1.4-1,2.1-0.5l83.6,49.5  c0.7,0.4,1,1.4,0.5,2.1C176.9,423.8,176.4,424,175.8,424z"/>
<g>
	<g>
		<g>
			<path class="st1" d="M1.5,350.8L1.5,350.8v-226l89.9-23.5l16.6-9.6c3.8-2.2,10.4-1.9,14.8,0.6l15.4,8.9l47.9,0l-14.2,218.2     c0.1,1.5-0.7,2.9-2.5,4L79.7,391c-3.8,2.2-10.4,1.9-14.8-0.6L5.1,355.9C2.6,354.5,1.3,352.6,1.5,350.8z"/>
			<path class="st3" d="M114.8,90.2c2.8,0.1,5.7,0.8,7.9,2.1l15.4,8.9l47.9,0v226.6c0.1,1.5-0.7,2.9-2.5,4L79.7,391     c-1.8,1.1-4.3,1.5-6.9,1.5l-1.1-228L114.8,90.2z"/>
			<path class="st2" d="M78.7,391.5c-3.3,1.4-8,1.3-11.8-0.1V161.8h11.8V391.5z"/>
			<path class="st3" d="M79.7,164.5l103.9-59.2c3.8-2.2,3.3-6-1.1-8.6l-59.8-34.5c-4.4-2.5-11-2.8-14.8-0.6L4,120.8     c-3.8,2.2-3.3,6,1.1,8.6l59.8,34.5C69.2,166.4,75.9,166.7,79.7,164.5z"/>
			<path class="st10" d="M5.1,125.2l59.8,34.5c4.4,2.5,11,2.8,14.8,0.6l103.9-59.2c0.8-0.5,1.5-1.1,1.9-1.7c1.3,2.1,0.7,4.4-1.9,5.9     L79.7,164.5c-3.8,2.2-10.4,1.9-14.8-0.6L5.1,129.4c-3.4-2-4.4-4.7-3-6.9C2.7,123.5,3.7,124.4,5.1,125.2z"/>
			<g>
				<path class="st6" d="M76.7,140.5l69.1-40.1c1.8-1,1.6-2.8-0.5-4l-28-16.1c-2.1-1.2-5.2-1.3-6.9-0.3L41.3,120      c-1.8,1-1.6,2.8,0.5,4l28,16.1C71.8,141.4,75,141.5,76.7,140.5z"/>
				<g>
					<path class="st3" d="M114.1,102.2l4-2.3c0.2-0.1,0.2-0.4-0.1-0.6l-3.9-2.2c-0.3-0.2-0.7-0.2-1,0l-4,2.3       c-0.2,0.1-0.2,0.4,0.1,0.6l3.9,2.2C113.4,102.3,113.8,102.3,114.1,102.2z"/>
					<path class="st5" d="M100.7,109.9l4-2.3c0.2-0.1,0.2-0.4-0.1-0.6l-3.9-2.2c-0.3-0.2-0.7-0.2-1,0l-4,2.3       c-0.2,0.1-0.2,0.4,0.1,0.6l3.9,2.2C100,110,100.4,110,100.7,109.9z"/>
					<path class="st3" d="M87.3,117.6l4-2.3c0.2-0.1,0.2-0.4-0.1-0.6l-3.9-2.2c-0.3-0.2-0.7-0.2-1,0l-4,2.3       c-0.2,0.1-0.2,0.4,0.1,0.6l3.9,2.2C86.6,117.7,87,117.7,87.3,117.6z"/>
					<path class="st3" d="M73.9,125.3l4-2.3c0.2-0.1,0.2-0.4-0.1-0.6l-3.9-2.2c-0.3-0.2-0.7-0.2-1,0l-4,2.3       c-0.2,0.1-0.2,0.4,0.1,0.6l3.9,2.2C73.2,125.4,73.7,125.4,73.9,125.3z"/>
				</g>
				<path class="st2" d="M145.9,100.4L145.9,100.4c-0.2,0-0.3-0.1-0.5-0.2l-28-16.1c-2.1-1.2-5.2-1.3-6.9-0.3l-69.1,40      c-1.6-1.2-1.7-2.8-0.1-3.7L110.5,80c1.8-1,4.9-0.9,6.9,0.3l28,16.1C147.4,97.6,147.7,99.4,145.9,100.4z"/>
			</g>
		</g>
		<g>
			<path class="st6" d="M53.2,209.3l-39.3-22.5c-2.2-1.3-4-4.7-4-7.7V165c0-2.9,1.8-4.3,4-3l39.3,22.5c2.2,1.3,4,4.7,4,7.7v14.1     C57.2,209.2,55.4,210.5,53.2,209.3z"/>
			<path class="st4" d="M11.9,161.6c-0.6,0.6-1,1.6-1,2.9v14.1c0,2.9,1.8,6.4,4,7.7l39.3,22.5c0.7,0.4,1.4,0.5,1.9,0.4     c-0.7,0.7-1.8,0.8-3,0.1l-39.3-22.5c-2.2-1.3-4-4.7-4-7.7V165C9.9,163,10.7,161.8,11.9,161.6z"/>
			<g>
				<path class="st1" d="M41.4,194l-3.6-2.1c-0.5-0.3-0.9-1-0.9-1.7v-3.9c0-0.6,0.4-0.9,0.9-0.7l3.6,2.1c0.5,0.3,0.9,1,0.9,1.7v3.9      C42.2,194,41.8,194.3,41.4,194z"/>
				<path class="st4" d="M29.3,187l-3.6-2.1c-0.5-0.3-0.9-1-0.9-1.7v-3.9c0-0.6,0.4-0.9,0.9-0.7l3.6,2.1c0.5,0.3,0.9,1,0.9,1.7v3.9      C30.2,187,29.8,187.3,29.3,187z"/>
			</g>
		</g>
		<g>
			<path class="st6" d="M53.2,310.9l-39.3-22.5c-2.2-1.3-4-4.7-4-7.7v-14.1c0-2.9,1.8-4.3,4-3l39.3,22.5c2.2,1.3,4,4.7,4,7.7v14.1     C57.2,310.8,55.4,312.1,53.2,310.9z"/>
			<path class="st4" d="M11.9,263.2c-0.6,0.6-1,1.6-1,2.9v14.1c0,2.9,1.8,6.4,4,7.7l39.3,22.5c0.7,0.4,1.4,0.5,1.9,0.4     c-0.7,0.7-1.8,0.8-3,0.1l-39.3-22.5c-2.2-1.3-4-4.7-4-7.7v-14.1C9.9,264.6,10.7,263.4,11.9,263.2z"/>
			<g>
				<path class="st5" d="M41.4,295.6l-3.6-2.1c-0.5-0.3-0.9-1-0.9-1.7V288c0-0.6,0.4-0.9,0.9-0.7l3.6,2.1c0.5,0.3,0.9,1,0.9,1.7v3.9      C42.2,295.6,41.8,295.9,41.4,295.6z"/>
				<path class="st4" d="M29.3,288.6l-3.6-2.1c-0.5-0.3-0.9-1-0.9-1.7V281c0-0.6,0.4-0.9,0.9-0.7l3.6,2.1c0.5,0.3,0.9,1,0.9,1.7v3.9      C30.2,288.6,29.8,288.9,29.3,288.6z"/>
			</g>
		</g>
		<g>
			<path class="st6" d="M53.2,361.7l-39.3-22.5c-2.2-1.3-4-4.7-4-7.7v-14.1c0-2.9,1.8-4.3,4-3l39.3,22.5c2.2,1.3,4,4.7,4,7.7v14.1     C57.2,361.6,55.4,362.9,53.2,361.7z"/>
			<path class="st4" d="M11.9,314c-0.6,0.6-1,1.6-1,2.9V331c0,2.9,1.8,6.4,4,7.7l39.3,22.5c0.7,0.4,1.4,0.5,1.9,0.4     c-0.7,0.7-1.8,0.8-3,0.1l-39.3-22.5c-2.2-1.3-4-4.7-4-7.7v-14.1C9.9,315.4,10.7,314.2,11.9,314z"/>
			<g>
				<path class="st1" d="M41.4,346.4l-3.6-2.1c-0.5-0.3-0.9-1-0.9-1.7v-3.9c0-0.6,0.4-0.9,0.9-0.7l3.6,2.1c0.5,0.3,0.9,1,0.9,1.7      v3.9C42.2,346.4,41.8,346.7,41.4,346.4z"/>
				<path class="st4" d="M29.3,339.4l-3.6-2.1c-0.5-0.3-0.9-1-0.9-1.7v-3.9c0-0.6,0.4-0.9,0.9-0.7l3.6,2.1c0.5,0.3,0.9,1,0.9,1.7      v3.9C30.2,339.4,29.8,339.7,29.3,339.4z"/>
			</g>
		</g>
		<g>
			<path class="st6" d="M53.2,260.1l-39.3-22.5c-2.2-1.3-4-4.7-4-7.7v-14.1c0-2.9,1.8-4.3,4-3l39.3,22.5c2.2,1.3,4,4.7,4,7.7V257     C57.2,260,55.4,261.3,53.2,260.1z"/>
			<path class="st4" d="M11.9,212.4c-0.6,0.6-1,1.6-1,2.9v14.1c0,2.9,1.8,6.4,4,7.7l39.3,22.5c0.7,0.4,1.4,0.5,1.9,0.4     c-0.7,0.7-1.8,0.8-3,0.1l-39.3-22.5c-2.2-1.3-4-4.7-4-7.7v-14.1C9.9,213.8,10.7,212.6,11.9,212.4z"/>
			<g>
				<path class="st1" d="M41.4,244.8l-3.6-2.1c-0.5-0.3-0.9-1-0.9-1.7v-3.9c0-0.6,0.4-0.9,0.9-0.7l3.6,2.1c0.5,0.3,0.9,1,0.9,1.7      v3.9C42.2,244.8,41.8,245.1,41.4,244.8z"/>
				<path class="st4" d="M29.3,237.8l-3.6-2.1c-0.5-0.3-0.9-1-0.9-1.7v-3.9c0-0.6,0.4-0.9,0.9-0.7l3.6,2.1c0.5,0.3,0.9,1,0.9,1.7      v3.9C30.2,237.8,29.8,238.1,29.3,237.8z"/>
			</g>
		</g>
	</g>
	<g>
		<path class="st2" d="M87.2,194.9l90.7-52.4c2-1.2,3.7-4.3,3.7-7v-17.3c0-2.7-1.6-4-3.7-2.8l-90.7,52.4c-2,1.2-3.7,4.3-3.7,7v17.3    C83.6,194.8,85.2,196,87.2,194.9z"/>
		<path class="st11" d="M89.8,188.8l85.5-49.4c1-0.6,1.9-2.2,1.9-3.6v-13c0-1.4-0.8-2-1.9-1.4l-85.5,49.4c-1,0.6-1.9,2.2-1.9,3.6v13    C88,188.8,88.8,189.4,89.8,188.8z"/>
		<path class="st3" d="M157.5,143.2l12.8-7.4c1-0.6,1.8-2.1,1.8-3.5l0,0c0-1.3-0.8-1.9-1.8-1.4l-12.8,7.4c-1,0.6-1.8,2.1-1.8,3.5    l0,0C155.7,143.1,156.5,143.7,157.5,143.2z"/>
		<path class="st6" d="M146.6,147c0,1.3,0.9,1.9,2.1,1.2c1.2-0.7,2.1-2.3,2.1-3.6c0-1.3-0.9-1.9-2.1-1.2    C147.6,144.1,146.6,145.7,146.6,147z"/>
		<path class="st6" d="M139.3,151.3c0,1.3,0.9,1.9,2.1,1.2c1.2-0.7,2.1-2.3,2.1-3.6c0-1.3-0.9-1.9-2.1-1.2    C140.2,148.3,139.3,149.9,139.3,151.3z"/>
		<path class="st3" d="M131.9,155.5c0,1.3,0.9,1.9,2.1,1.2s2.1-2.3,2.1-3.6c0-1.3-0.9-1.9-2.1-1.2S131.9,154.2,131.9,155.5z"/>
		<path class="st6" d="M124.5,159.8c0,1.3,0.9,1.9,2.1,1.2c1.2-0.7,2.1-2.3,2.1-3.6c0-1.3-0.9-1.9-2.1-1.2    C125.4,156.8,124.5,158.5,124.5,159.8z"/>
		<path class="st6" d="M93.4,181.6l4.3-2.5c0.6-0.4,1.2-1.4,1.2-2.2v-4.5c0-0.9-0.5-1.2-1.2-0.9l-4.3,2.5c-0.6,0.4-1.2,1.4-1.2,2.2    v4.5C92.3,181.5,92.8,181.9,93.4,181.6z"/>
	</g>
	<g>
		<path class="st2" d="M87.2,225.4l90.7-52.4c2-1.2,3.7-4.3,3.7-7v-17.3c0-2.7-1.6-4-3.7-2.8l-90.7,52.4c-2,1.2-3.7,4.3-3.7,7v17.3    C83.6,225.3,85.2,226.5,87.2,225.4z"/>
		<path class="st11" d="M89.8,219.3l85.5-49.4c1-0.6,1.9-2.2,1.9-3.6v-13c0-1.4-0.8-2-1.9-1.4l-85.5,49.4c-1,0.6-1.9,2.2-1.9,3.6v13    C88,219.3,88.8,219.9,89.8,219.3z"/>
		<path class="st3" d="M157.5,173.7l12.8-7.4c1-0.6,1.8-2.1,1.8-3.5l0,0c0-1.3-0.8-1.9-1.8-1.4l-12.8,7.4c-1,0.6-1.8,2.1-1.8,3.5    l0,0C155.7,173.6,156.5,174.2,157.5,173.7z"/>
		<path class="st4" d="M146.6,177.5c0,1.3,0.9,1.9,2.1,1.2c1.2-0.7,2.1-2.3,2.1-3.6c0-1.3-0.9-1.9-2.1-1.2    C147.6,174.6,146.6,176.2,146.6,177.5z"/>
		<path class="st6" d="M139.3,181.8c0,1.3,0.9,1.9,2.1,1.2c1.2-0.7,2.1-2.3,2.1-3.6c0-1.3-0.9-1.9-2.1-1.2    C140.2,178.8,139.3,180.4,139.3,181.8z"/>
		<path class="st3" d="M131.9,186c0,1.3,0.9,1.9,2.1,1.2s2.1-2.3,2.1-3.6c0-1.3-0.9-1.9-2.1-1.2S131.9,184.7,131.9,186z"/>
		<path class="st6" d="M124.5,190.3c0,1.3,0.9,1.9,2.1,1.2c1.2-0.7,2.1-2.3,2.1-3.6c0-1.3-0.9-1.9-2.1-1.2    C125.4,187.3,124.5,189,124.5,190.3z"/>
		<path class="st6" d="M93.4,212.1l4.3-2.5c0.6-0.4,1.2-1.4,1.2-2.2v-4.5c0-0.9-0.5-1.2-1.2-0.9l-4.3,2.5c-0.6,0.4-1.2,1.4-1.2,2.2    v4.5C92.3,212,92.8,212.4,93.4,212.1z"/>
	</g>
	<g>
		<path class="st2" d="M87.2,255.9l90.7-52.4c2-1.2,3.7-4.3,3.7-7v-17.3c0-2.7-1.6-4-3.7-2.8l-90.7,52.4c-2,1.2-3.7,4.3-3.7,7v17.3    C83.6,255.8,85.2,257,87.2,255.9z"/>
		<path class="st11" d="M89.8,249.8l85.5-49.4c1-0.6,1.9-2.2,1.9-3.6v-13c0-1.4-0.8-2-1.9-1.4l-85.5,49.4c-1,0.6-1.9,2.2-1.9,3.6v13    C88,249.8,88.8,250.4,89.8,249.8z"/>
		<path class="st3" d="M157.5,204.2l12.8-7.4c1-0.6,1.8-2.1,1.8-3.5l0,0c0-1.3-0.8-1.9-1.8-1.4l-12.8,7.4c-1,0.6-1.8,2.1-1.8,3.5    l0,0C155.7,204.1,156.5,204.7,157.5,204.2z"/>
		<path class="st4" d="M146.6,208c0,1.3,0.9,1.9,2.1,1.2c1.2-0.7,2.1-2.3,2.1-3.6c0-1.3-0.9-1.9-2.1-1.2    C147.6,205.1,146.6,206.7,146.6,208z"/>
		<path class="st6" d="M139.3,212.3c0,1.3,0.9,1.9,2.1,1.2c1.2-0.7,2.1-2.3,2.1-3.6c0-1.3-0.9-1.9-2.1-1.2    C140.2,209.3,139.3,210.9,139.3,212.3z"/>
		<path class="st3" d="M131.9,216.5c0,1.3,0.9,1.9,2.1,1.2c1.2-0.7,2.1-2.3,2.1-3.6c0-1.3-0.9-1.9-2.1-1.2S131.9,215.2,131.9,216.5z    "/>
		<path class="st6" d="M124.5,220.8c0,1.3,0.9,1.9,2.1,1.2c1.2-0.7,2.1-2.3,2.1-3.6c0-1.3-0.9-1.9-2.1-1.2    C125.4,217.8,124.5,219.5,124.5,220.8z"/>
		<path class="st6" d="M93.4,242.6l4.3-2.5c0.6-0.4,1.2-1.4,1.2-2.2v-4.5c0-0.9-0.5-1.2-1.2-0.9l-4.3,2.5c-0.6,0.4-1.2,1.4-1.2,2.2    v4.5C92.3,242.5,92.8,242.9,93.4,242.6z"/>
	</g>
	<g>
		<path class="st2" d="M87.2,286.4l90.7-52.4c2-1.2,3.7-4.3,3.7-7v-17.3c0-2.7-1.6-4-3.7-2.8l-90.7,52.4c-2,1.2-3.7,4.3-3.7,7v17.3    C83.6,286.3,85.2,287.5,87.2,286.4z"/>
		<path class="st11" d="M89.8,280.3l85.5-49.4c1-0.6,1.9-2.2,1.9-3.6v-13c0-1.4-0.8-2-1.9-1.4l-85.5,49.4c-1,0.6-1.9,2.2-1.9,3.6v13    C88,280.3,88.8,280.9,89.8,280.3z"/>
		<path class="st3" d="M157.5,234.7l12.8-7.4c1-0.6,1.8-2.1,1.8-3.5l0,0c0-1.3-0.8-1.9-1.8-1.4l-12.8,7.4c-1,0.6-1.8,2.1-1.8,3.5v0    C155.7,234.6,156.5,235.2,157.5,234.7z"/>
		<path class="st6" d="M146.6,238.5c0,1.3,0.9,1.9,2.1,1.2c1.2-0.7,2.1-2.3,2.1-3.6c0-1.3-0.9-1.9-2.1-1.2    C147.6,235.6,146.6,237.2,146.6,238.5z"/>
		<path class="st6" d="M139.3,242.8c0,1.3,0.9,1.9,2.1,1.2c1.2-0.7,2.1-2.3,2.1-3.6c0-1.3-0.9-1.9-2.1-1.2    C140.2,239.8,139.3,241.4,139.3,242.8z"/>
		<path class="st3" d="M131.9,247c0,1.3,0.9,1.9,2.1,1.2s2.1-2.3,2.1-3.6c0-1.3-0.9-1.9-2.1-1.2S131.9,245.7,131.9,247z"/>
		<path class="st6" d="M124.5,251.3c0,1.3,0.9,1.9,2.1,1.2c1.2-0.7,2.1-2.3,2.1-3.6c0-1.3-0.9-1.9-2.1-1.2    C125.4,248.3,124.5,250,124.5,251.3z"/>
		<path class="st3" d="M93.4,273.1l4.3-2.5c0.6-0.4,1.2-1.4,1.2-2.2v-4.5c0-0.9-0.5-1.2-1.2-0.9l-4.3,2.5c-0.6,0.4-1.2,1.4-1.2,2.2    v4.5C92.3,273,92.8,273.4,93.4,273.1z"/>
	</g>
	<g>
		<path class="st2" d="M87.2,316.9l90.7-52.4c2-1.2,3.7-4.3,3.7-7v-17.3c0-2.7-1.6-4-3.7-2.8l-90.7,52.4c-2,1.2-3.7,4.3-3.7,7v17.3    C83.6,316.8,85.2,318,87.2,316.9z"/>
		<path class="st11" d="M89.8,310.8l85.5-49.4c1-0.6,1.9-2.2,1.9-3.6v-13c0-1.4-0.8-2-1.9-1.4l-85.5,49.4c-1,0.6-1.9,2.2-1.9,3.6v13    C88,310.8,88.8,311.4,89.8,310.8z"/>
		<path class="st3" d="M157.5,265.2l12.8-7.4c1-0.6,1.8-2.1,1.8-3.5l0,0c0-1.3-0.8-1.9-1.8-1.4l-12.8,7.4c-1,0.6-1.8,2.1-1.8,3.5    l0,0C155.7,265.1,156.5,265.7,157.5,265.2z"/>
		<path class="st6" d="M146.6,269c0,1.3,0.9,1.9,2.1,1.2c1.2-0.7,2.1-2.3,2.1-3.6c0-1.3-0.9-1.9-2.1-1.2    C147.6,266.1,146.6,267.7,146.6,269z"/>
		<path class="st4" d="M139.3,273.3c0,1.3,0.9,1.9,2.1,1.2c1.2-0.7,2.1-2.3,2.1-3.6c0-1.3-0.9-1.9-2.1-1.2    C140.2,270.3,139.3,271.9,139.3,273.3z"/>
		<path class="st3" d="M131.9,277.5c0,1.3,0.9,1.9,2.1,1.2c1.2-0.7,2.1-2.3,2.1-3.6c0-1.3-0.9-1.9-2.1-1.2    C132.8,274.6,131.9,276.2,131.9,277.5z"/>
		<path class="st4" d="M124.5,281.8c0,1.3,0.9,1.9,2.1,1.2c1.2-0.7,2.1-2.3,2.1-3.6c0-1.3-0.9-1.9-2.1-1.2    C125.4,278.8,124.5,280.5,124.5,281.8z"/>
		<path class="st3" d="M93.4,303.6l4.3-2.5c0.6-0.4,1.2-1.4,1.2-2.2v-4.5c0-0.9-0.5-1.2-1.2-0.9l-4.3,2.5c-0.6,0.4-1.2,1.4-1.2,2.2    v4.5C92.3,303.5,92.8,303.9,93.4,303.6z"/>
	</g>
	<g>
		<path class="st2" d="M87.2,347.4l90.7-52.4c2-1.2,3.7-4.3,3.7-7v-17.3c0-2.7-1.6-4-3.7-2.8l-90.7,52.4c-2,1.2-3.7,4.3-3.7,7v17.3    C83.6,347.3,85.2,348.5,87.2,347.4z"/>
		<path class="st11" d="M89.8,341.3l85.5-49.4c1-0.6,1.9-2.2,1.9-3.6v-13c0-1.4-0.8-2-1.9-1.4l-85.5,49.4c-1,0.6-1.9,2.2-1.9,3.6v13    C88,341.3,88.8,341.9,89.8,341.3z"/>
		<path class="st3" d="M157.5,295.7l12.8-7.4c1-0.6,1.8-2.1,1.8-3.5l0,0c0-1.3-0.8-1.9-1.8-1.4l-12.8,7.4c-1,0.6-1.8,2.1-1.8,3.5    l0,0C155.7,295.6,156.5,296.2,157.5,295.7z"/>
		<path class="st6" d="M146.6,299.5c0,1.3,0.9,1.9,2.1,1.2c1.2-0.7,2.1-2.3,2.1-3.6c0-1.3-0.9-1.9-2.1-1.2    C147.6,296.6,146.6,298.2,146.6,299.5z"/>
		<path class="st6" d="M139.3,303.8c0,1.3,0.9,1.9,2.1,1.2c1.2-0.7,2.1-2.3,2.1-3.6c0-1.3-0.9-1.9-2.1-1.2    C140.2,300.8,139.3,302.4,139.3,303.8z"/>
		<path class="st3" d="M131.9,308c0,1.3,0.9,1.9,2.1,1.2c1.2-0.7,2.1-2.3,2.1-3.6c0-1.3-0.9-1.9-2.1-1.2    C132.8,305.1,131.9,306.7,131.9,308z"/>
		<path class="st6" d="M124.5,312.3c0,1.3,0.9,1.9,2.1,1.2c1.2-0.7,2.1-2.3,2.1-3.6c0-1.3-0.9-1.9-2.1-1.2    C125.4,309.3,124.5,311,124.5,312.3z"/>
		<path class="st6" d="M93.4,334.1l4.3-2.5c0.6-0.4,1.2-1.4,1.2-2.2v-4.5c0-0.9-0.5-1.2-1.2-0.9l-4.3,2.5c-0.6,0.4-1.2,1.4-1.2,2.2    v4.5C92.3,334,92.8,334.4,93.4,334.1z"/>
	</g>
	<g>
		<path class="st2" d="M87.2,377.9l90.7-52.4c2-1.2,3.7-4.3,3.7-7v-17.3c0-2.7-1.6-4-3.7-2.8l-90.7,52.4c-2,1.2-3.7,4.3-3.7,7v17.3    C83.6,377.8,85.2,379,87.2,377.9z"/>
		<path class="st11" d="M89.8,371.8l85.5-49.4c1-0.6,1.9-2.2,1.9-3.6v-13c0-1.4-0.8-2-1.9-1.4l-85.5,49.4c-1,0.6-1.9,2.2-1.9,3.6v13    C88,371.8,88.8,372.4,89.8,371.8z"/>
		<path class="st3" d="M157.5,326.1l12.8-7.4c1-0.6,1.8-2.1,1.8-3.5l0,0c0-1.3-0.8-1.9-1.8-1.4l-12.8,7.4c-1,0.6-1.8,2.1-1.8,3.5    l0,0C155.7,326.1,156.5,326.7,157.5,326.1z"/>
		<path class="st4" d="M144.3,331.7c0,2.5,1.8,3.5,3.9,2.3c2.2-1.3,3.9-4.3,3.9-6.8c0-2.5-1.8-3.5-3.9-2.3    C146.1,326.1,144.3,329.1,144.3,331.7z"/>
		<path class="st6" d="M129,340.6c0,1.3,0.9,1.9,2.1,1.2c1.2-0.7,2.1-2.3,2.1-3.6c0-1.3-0.9-1.9-2.1-1.2    C130,337.6,129,339.3,129,340.6z"/>
		<path class="st3" d="M121.7,344.9c0,1.3,0.9,1.9,2.1,1.2c1.2-0.7,2.1-2.3,2.1-3.6s-0.9-1.9-2.1-1.2    C122.6,341.9,121.7,343.5,121.7,344.9z"/>
		<path class="st6" d="M114.3,349.1c0,1.3,0.9,1.9,2.1,1.2c1.2-0.7,2.1-2.3,2.1-3.6c0-1.3-0.9-1.9-2.1-1.2    C115.2,346.2,114.3,347.8,114.3,349.1z"/>
		<path class="st3" d="M93.4,364.6l4.3-2.5c0.6-0.4,1.2-1.4,1.2-2.2v-4.5c0-0.9-0.5-1.2-1.2-0.9l-4.3,2.5c-0.6,0.4-1.2,1.4-1.2,2.2    v4.5C92.3,364.5,92.8,364.9,93.4,364.6z"/>
	</g>
</g>
<path class="st0" d="M866.1,423.4l-103.9-59.2c-3.8-2.2-3.3-6,1.1-8.6l59.8-34.5c4.4-2.5,11-2.8,14.8-0.6l103.9,59.2  c3.8,2.2,3.3,6-1.1,8.6l-59.8,34.5C876.5,425.3,869.9,425.5,866.1,423.4z"/>
<g>
	<g>
		<g>
			<path class="st1" d="M944.3,350.8L944.3,350.8v-226l-89.9-23.5l-16.6-9.6c-3.8-2.2-10.4-1.9-14.8,0.6l-15.4,8.9l-47.9,0     l14.2,218.2c-0.1,1.5,0.7,2.9,2.5,4l89.7,67.7c3.8,2.2,10.4,1.9,14.8-0.6l59.8-34.5C943.2,354.5,944.4,352.6,944.3,350.8z"/>
			<path class="st3" d="M831,90.2c-2.8,0.1-5.7,0.8-7.9,2.1l-15.4,8.9l-47.9,0v226.6c-0.1,1.5,0.7,2.9,2.5,4L866.1,391     c1.8,1.1,4.3,1.5,6.9,1.5l1.1-228L831,90.2z"/>
			<path class="st2" d="M867,391.5c3.3,1.4,8,1.3,11.8-0.1V161.8H867V391.5z"/>
			<path class="st3" d="M866.1,164.5l-103.9-59.2c-3.8-2.2-3.3-6,1.1-8.6L823,62.2c4.4-2.5,11-2.8,14.8-0.6l103.9,59.2     c3.8,2.2,3.3,6-1.1,8.6l-59.8,34.5C876.5,166.4,869.9,166.7,866.1,164.5z"/>
			<path class="st10" d="M940.7,125.2l-59.8,34.5c-4.4,2.5-11,2.8-14.8,0.6l-103.9-59.2c-0.8-0.5-1.5-1.1-1.9-1.7     c-1.3,2.1-0.7,4.4,1.9,5.9l103.9,59.2c3.8,2.2,10.4,1.9,14.8-0.6l59.8-34.5c3.4-2,4.4-4.7,3-6.9C943,123.5,942,124.4,940.7,125.2     z"/>
			<g>
				<path class="st6" d="M869,140.5l-69.1-40.1c-1.8-1-1.6-2.8,0.5-4l28-16.1c2.1-1.2,5.2-1.3,6.9-0.3l69.1,40.1      c1.8,1,1.6,2.8-0.5,4l-28,16.1C873.9,141.4,870.8,141.5,869,140.5z"/>
				<g>
					<path class="st3" d="M831.7,102.2l-4-2.3c-0.2-0.1-0.2-0.4,0.1-0.6l3.9-2.2c0.3-0.2,0.7-0.2,1,0l4,2.3c0.2,0.1,0.2,0.4-0.1,0.6       l-3.9,2.2C832.4,102.3,831.9,102.3,831.7,102.2z"/>
					<path class="st5" d="M845.1,109.9l-4-2.3c-0.2-0.1-0.2-0.4,0.1-0.6l3.9-2.2c0.3-0.2,0.7-0.2,1,0l4,2.3c0.2,0.1,0.2,0.4-0.1,0.6       l-3.9,2.2C845.8,110,845.3,110,845.1,109.9z"/>
					<path class="st3" d="M858.5,117.6l-4-2.3c-0.2-0.1-0.2-0.4,0.1-0.6l3.9-2.2c0.3-0.2,0.7-0.2,1,0l4,2.3c0.2,0.1,0.2,0.4-0.1,0.6       l-3.9,2.2C859.1,117.7,858.7,117.7,858.5,117.6z"/>
					<path class="st3" d="M871.9,125.3l-4-2.3c-0.2-0.1-0.2-0.4,0.1-0.6l3.9-2.2c0.3-0.2,0.7-0.2,1,0l4,2.3c0.2,0.1,0.2,0.4-0.1,0.6       l-3.9,2.2C872.5,125.4,872.1,125.4,871.9,125.3z"/>
				</g>
				<path class="st2" d="M799.9,100.4L799.9,100.4c0.2,0,0.3-0.1,0.5-0.2l28-16.1c2.1-1.2,5.2-1.3,6.9-0.3l69.1,40      c1.6-1.2,1.7-2.8,0.1-3.7L835.3,80c-1.8-1-4.9-0.9-6.9,0.3l-28,16.1C798.3,97.6,798.1,99.4,799.9,100.4z"/>
			</g>
		</g>
		<g>
			<path class="st6" d="M892.6,209.3l39.3-22.5c2.2-1.3,4-4.7,4-7.7V165c0-2.9-1.8-4.3-4-3l-39.3,22.5c-2.2,1.3-4,4.7-4,7.7v14.1     C888.6,209.2,890.4,210.5,892.6,209.3z"/>
			<path class="st4" d="M933.8,161.6c0.6,0.6,1,1.6,1,2.9v14.1c0,2.9-1.8,6.4-4,7.7l-39.3,22.5c-0.7,0.4-1.4,0.5-1.9,0.4     c0.7,0.7,1.8,0.8,3,0.1l39.3-22.5c2.2-1.3,4-4.7,4-7.7V165C935.9,163,935.1,161.8,933.8,161.6z"/>
			<g>
				<path class="st1" d="M904.4,194l3.6-2.1c0.5-0.3,0.9-1,0.9-1.7v-3.9c0-0.6-0.4-0.9-0.9-0.7l-3.6,2.1c-0.5,0.3-0.9,1-0.9,1.7v3.9      C903.5,194,903.9,194.3,904.4,194z"/>
				<path class="st4" d="M916.5,187l3.6-2.1c0.5-0.3,0.9-1,0.9-1.7v-3.9c0-0.6-0.4-0.9-0.9-0.7l-3.6,2.1c-0.5,0.3-0.9,1-0.9,1.7v3.9      C915.6,187,916,187.3,916.5,187z"/>
			</g>
		</g>
		<g>
			<path class="st6" d="M892.6,310.9l39.3-22.5c2.2-1.3,4-4.7,4-7.7v-14.1c0-2.9-1.8-4.3-4-3l-39.3,22.5c-2.2,1.3-4,4.7-4,7.7v14.1     C888.6,310.8,890.4,312.1,892.6,310.9z"/>
			<path class="st4" d="M933.8,263.2c0.6,0.6,1,1.6,1,2.9v14.1c0,2.9-1.8,6.4-4,7.7l-39.3,22.5c-0.7,0.4-1.4,0.5-1.9,0.4     c0.7,0.7,1.8,0.8,3,0.1l39.3-22.5c2.2-1.3,4-4.7,4-7.7v-14.1C935.9,264.6,935.1,263.4,933.8,263.2z"/>
			<g>
				<path class="st5" d="M904.4,295.6l3.6-2.1c0.5-0.3,0.9-1,0.9-1.7V288c0-0.6-0.4-0.9-0.9-0.7l-3.6,2.1c-0.5,0.3-0.9,1-0.9,1.7      v3.9C903.5,295.6,903.9,295.9,904.4,295.6z"/>
				<path class="st4" d="M916.5,288.6l3.6-2.1c0.5-0.3,0.9-1,0.9-1.7V281c0-0.6-0.4-0.9-0.9-0.7l-3.6,2.1c-0.5,0.3-0.9,1-0.9,1.7      v3.9C915.6,288.6,916,288.9,916.5,288.6z"/>
			</g>
		</g>
		<g>
			<path class="st6" d="M892.6,361.7l39.3-22.5c2.2-1.3,4-4.7,4-7.7v-14.1c0-2.9-1.8-4.3-4-3l-39.3,22.5c-2.2,1.3-4,4.7-4,7.7v14.1     C888.6,361.6,890.4,362.9,892.6,361.7z"/>
			<path class="st4" d="M933.8,314c0.6,0.6,1,1.6,1,2.9V331c0,2.9-1.8,6.4-4,7.7l-39.3,22.5c-0.7,0.4-1.4,0.5-1.9,0.4     c0.7,0.7,1.8,0.8,3,0.1l39.3-22.5c2.2-1.3,4-4.7,4-7.7v-14.1C935.9,315.4,935.1,314.2,933.8,314z"/>
			<g>
				<path class="st1" d="M904.4,346.4l3.6-2.1c0.5-0.3,0.9-1,0.9-1.7v-3.9c0-0.6-0.4-0.9-0.9-0.7l-3.6,2.1c-0.5,0.3-0.9,1-0.9,1.7      v3.9C903.5,346.4,903.9,346.7,904.4,346.4z"/>
				<path class="st4" d="M916.5,339.4l3.6-2.1c0.5-0.3,0.9-1,0.9-1.7v-3.9c0-0.6-0.4-0.9-0.9-0.7l-3.6,2.1c-0.5,0.3-0.9,1-0.9,1.7      v3.9C915.6,339.4,916,339.7,916.5,339.4z"/>
			</g>
		</g>
		<g>
			<path class="st6" d="M892.6,260.1l39.3-22.5c2.2-1.3,4-4.7,4-7.7v-14.1c0-2.9-1.8-4.3-4-3l-39.3,22.5c-2.2,1.3-4,4.7-4,7.7V257     C888.6,260,890.4,261.3,892.6,260.1z"/>
			<path class="st4" d="M933.8,212.4c0.6,0.6,1,1.6,1,2.9v14.1c0,2.9-1.8,6.4-4,7.7l-39.3,22.5c-0.7,0.4-1.4,0.5-1.9,0.4     c0.7,0.7,1.8,0.8,3,0.1l39.3-22.5c2.2-1.3,4-4.7,4-7.7v-14.1C935.9,213.8,935.1,212.6,933.8,212.4z"/>
			<g>
				<path class="st1" d="M904.4,244.8l3.6-2.1c0.5-0.3,0.9-1,0.9-1.7v-3.9c0-0.6-0.4-0.9-0.9-0.7l-3.6,2.1c-0.5,0.3-0.9,1-0.9,1.7      v3.9C903.5,244.8,903.9,245.1,904.4,244.8z"/>
				<path class="st4" d="M916.5,237.8l3.6-2.1c0.5-0.3,0.9-1,0.9-1.7v-3.9c0-0.6-0.4-0.9-0.9-0.7l-3.6,2.1c-0.5,0.3-0.9,1-0.9,1.7      v3.9C915.6,237.8,916,238.1,916.5,237.8z"/>
			</g>
		</g>
	</g>
	<g>
		<path class="st2" d="M858.5,194.9l-90.7-52.4c-2-1.2-3.7-4.3-3.7-7v-17.3c0-2.7,1.6-4,3.7-2.8l90.7,52.4c2,1.2,3.7,4.3,3.7,7v17.3    C862.2,194.8,860.6,196,858.5,194.9z"/>
		<path class="st11" d="M855.9,188.8l-85.5-49.4c-1-0.6-1.9-2.2-1.9-3.6v-13c0-1.4,0.8-2,1.9-1.4l85.5,49.4c1,0.6,1.9,2.2,1.9,3.6    v13C857.8,188.8,856.9,189.4,855.9,188.8z"/>
		<path class="st3" d="M788.2,143.2l-12.8-7.4c-1-0.6-1.8-2.1-1.8-3.5l0,0c0-1.3,0.8-1.9,1.8-1.4l12.8,7.4c1,0.6,1.8,2.1,1.8,3.5    l0,0C790.1,143.1,789.2,143.7,788.2,143.2z"/>
		<path class="st6" d="M799.1,147c0,1.3-0.9,1.9-2.1,1.2c-1.2-0.7-2.1-2.3-2.1-3.6c0-1.3,0.9-1.9,2.1-1.2    C798.2,144.1,799.1,145.7,799.1,147z"/>
		<path class="st6" d="M806.5,151.3c0,1.3-0.9,1.9-2.1,1.2c-1.2-0.7-2.1-2.3-2.1-3.6c0-1.3,0.9-1.9,2.1-1.2    C805.6,148.3,806.5,149.9,806.5,151.3z"/>
		<path class="st3" d="M813.9,155.5c0,1.3-0.9,1.9-2.1,1.2s-2.1-2.3-2.1-3.6c0-1.3,0.9-1.9,2.1-1.2S813.9,154.2,813.9,155.5z"/>
		<path class="st6" d="M821.2,159.8c0,1.3-0.9,1.9-2.1,1.2c-1.2-0.7-2.1-2.3-2.1-3.6c0-1.3,0.9-1.9,2.1-1.2    C820.3,156.8,821.2,158.5,821.2,159.8z"/>
		<path class="st6" d="M852.3,181.6l-4.3-2.5c-0.6-0.4-1.2-1.4-1.2-2.2v-4.5c0-0.9,0.5-1.2,1.2-0.9l4.3,2.5c0.6,0.4,1.2,1.4,1.2,2.2    v4.5C853.5,181.5,853,181.9,852.3,181.6z"/>
	</g>
	<g>
		<path class="st2" d="M858.5,225.4L767.8,173c-2-1.2-3.7-4.3-3.7-7v-17.3c0-2.7,1.6-4,3.7-2.8l90.7,52.4c2,1.2,3.7,4.3,3.7,7v17.3    C862.2,225.3,860.6,226.5,858.5,225.4z"/>
		<path class="st11" d="M855.9,219.3l-85.5-49.4c-1-0.6-1.9-2.2-1.9-3.6v-13c0-1.4,0.8-2,1.9-1.4l85.5,49.4c1,0.6,1.9,2.2,1.9,3.6    v13C857.8,219.3,856.9,219.9,855.9,219.3z"/>
		<path class="st3" d="M788.2,173.7l-12.8-7.4c-1-0.6-1.8-2.1-1.8-3.5l0,0c0-1.3,0.8-1.9,1.8-1.4l12.8,7.4c1,0.6,1.8,2.1,1.8,3.5    l0,0C790.1,173.6,789.2,174.2,788.2,173.7z"/>
		<path class="st4" d="M799.1,177.5c0,1.3-0.9,1.9-2.1,1.2c-1.2-0.7-2.1-2.3-2.1-3.6c0-1.3,0.9-1.9,2.1-1.2    C798.2,174.6,799.1,176.2,799.1,177.5z"/>
		<path class="st6" d="M806.5,181.8c0,1.3-0.9,1.9-2.1,1.2c-1.2-0.7-2.1-2.3-2.1-3.6c0-1.3,0.9-1.9,2.1-1.2    C805.6,178.8,806.5,180.4,806.5,181.8z"/>
		<path class="st3" d="M813.9,186c0,1.3-0.9,1.9-2.1,1.2s-2.1-2.3-2.1-3.6c0-1.3,0.9-1.9,2.1-1.2S813.9,184.7,813.9,186z"/>
		<path class="st6" d="M821.2,190.3c0,1.3-0.9,1.9-2.1,1.2c-1.2-0.7-2.1-2.3-2.1-3.6c0-1.3,0.9-1.9,2.1-1.2    C820.3,187.3,821.2,189,821.2,190.3z"/>
		<path class="st6" d="M852.3,212.1l-4.3-2.5c-0.6-0.4-1.2-1.4-1.2-2.2v-4.5c0-0.9,0.5-1.2,1.2-0.9l4.3,2.5c0.6,0.4,1.2,1.4,1.2,2.2    v4.5C853.5,212,853,212.4,852.3,212.1z"/>
	</g>
	<g>
		<path class="st2" d="M858.5,255.9l-90.7-52.4c-2-1.2-3.7-4.3-3.7-7v-17.3c0-2.7,1.6-4,3.7-2.8l90.7,52.4c2,1.2,3.7,4.3,3.7,7v17.3    C862.2,255.8,860.6,257,858.5,255.9z"/>
		<path class="st11" d="M855.9,249.8l-85.5-49.4c-1-0.6-1.9-2.2-1.9-3.6v-13c0-1.4,0.8-2,1.9-1.4l85.5,49.4c1,0.6,1.9,2.2,1.9,3.6    v13C857.8,249.8,856.9,250.4,855.9,249.8z"/>
		<path class="st3" d="M788.2,204.2l-12.8-7.4c-1-0.6-1.8-2.1-1.8-3.5l0,0c0-1.3,0.8-1.9,1.8-1.4l12.8,7.4c1,0.6,1.8,2.1,1.8,3.5    l0,0C790.1,204.1,789.2,204.7,788.2,204.2z"/>
		<path class="st4" d="M799.1,208c0,1.3-0.9,1.9-2.1,1.2c-1.2-0.7-2.1-2.3-2.1-3.6c0-1.3,0.9-1.9,2.1-1.2    C798.2,205.1,799.1,206.7,799.1,208z"/>
		<path class="st6" d="M806.5,212.3c0,1.3-0.9,1.9-2.1,1.2c-1.2-0.7-2.1-2.3-2.1-3.6c0-1.3,0.9-1.9,2.1-1.2    C805.6,209.3,806.5,210.9,806.5,212.3z"/>
		<path class="st3" d="M813.9,216.5c0,1.3-0.9,1.9-2.1,1.2c-1.2-0.7-2.1-2.3-2.1-3.6c0-1.3,0.9-1.9,2.1-1.2S813.9,215.2,813.9,216.5    z"/>
		<path class="st6" d="M821.2,220.8c0,1.3-0.9,1.9-2.1,1.2c-1.2-0.7-2.1-2.3-2.1-3.6c0-1.3,0.9-1.9,2.1-1.2    C820.3,217.8,821.2,219.5,821.2,220.8z"/>
		<path class="st6" d="M852.3,242.6l-4.3-2.5c-0.6-0.4-1.2-1.4-1.2-2.2v-4.5c0-0.9,0.5-1.2,1.2-0.9l4.3,2.5c0.6,0.4,1.2,1.4,1.2,2.2    v4.5C853.5,242.5,853,242.9,852.3,242.6z"/>
	</g>
	<g>
		<path class="st2" d="M858.5,286.4L767.8,234c-2-1.2-3.7-4.3-3.7-7v-17.3c0-2.7,1.6-4,3.7-2.8l90.7,52.4c2,1.2,3.7,4.3,3.7,7v17.3    C862.2,286.3,860.6,287.5,858.5,286.4z"/>
		<path class="st11" d="M855.9,280.3l-85.5-49.4c-1-0.6-1.9-2.2-1.9-3.6v-13c0-1.4,0.8-2,1.9-1.4l85.5,49.4c1,0.6,1.9,2.2,1.9,3.6    v13C857.8,280.3,856.9,280.9,855.9,280.3z"/>
		<path class="st3" d="M788.2,234.7l-12.8-7.4c-1-0.6-1.8-2.1-1.8-3.5l0,0c0-1.3,0.8-1.9,1.8-1.4l12.8,7.4c1,0.6,1.8,2.1,1.8,3.5v0    C790.1,234.6,789.2,235.2,788.2,234.7z"/>
		<path class="st6" d="M799.1,238.5c0,1.3-0.9,1.9-2.1,1.2c-1.2-0.7-2.1-2.3-2.1-3.6c0-1.3,0.9-1.9,2.1-1.2    C798.2,235.6,799.1,237.2,799.1,238.5z"/>
		<path class="st6" d="M806.5,242.8c0,1.3-0.9,1.9-2.1,1.2c-1.2-0.7-2.1-2.3-2.1-3.6c0-1.3,0.9-1.9,2.1-1.2    C805.6,239.8,806.5,241.4,806.5,242.8z"/>
		<path class="st3" d="M813.9,247c0,1.3-0.9,1.9-2.1,1.2s-2.1-2.3-2.1-3.6c0-1.3,0.9-1.9,2.1-1.2S813.9,245.7,813.9,247z"/>
		<path class="st6" d="M821.2,251.3c0,1.3-0.9,1.9-2.1,1.2c-1.2-0.7-2.1-2.3-2.1-3.6c0-1.3,0.9-1.9,2.1-1.2    C820.3,248.3,821.2,250,821.2,251.3z"/>
		<path class="st3" d="M852.3,273.1l-4.3-2.5c-0.6-0.4-1.2-1.4-1.2-2.2v-4.5c0-0.9,0.5-1.2,1.2-0.9l4.3,2.5c0.6,0.4,1.2,1.4,1.2,2.2    v4.5C853.5,273,853,273.4,852.3,273.1z"/>
	</g>
	<g>
		<path class="st2" d="M858.5,316.9l-90.7-52.4c-2-1.2-3.7-4.3-3.7-7v-17.3c0-2.7,1.6-4,3.7-2.8l90.7,52.4c2,1.2,3.7,4.3,3.7,7v17.3    C862.2,316.8,860.6,318,858.5,316.9z"/>
		<path class="st11" d="M855.9,310.8l-85.5-49.4c-1-0.6-1.9-2.2-1.9-3.6v-13c0-1.4,0.8-2,1.9-1.4l85.5,49.4c1,0.6,1.9,2.2,1.9,3.6    v13C857.8,310.8,856.9,311.4,855.9,310.8z"/>
		<path class="st3" d="M788.2,265.2l-12.8-7.4c-1-0.6-1.8-2.1-1.8-3.5l0,0c0-1.3,0.8-1.9,1.8-1.4l12.8,7.4c1,0.6,1.8,2.1,1.8,3.5    l0,0C790.1,265.1,789.2,265.7,788.2,265.2z"/>
		<path class="st6" d="M799.1,269c0,1.3-0.9,1.9-2.1,1.2c-1.2-0.7-2.1-2.3-2.1-3.6c0-1.3,0.9-1.9,2.1-1.2    C798.2,266.1,799.1,267.7,799.1,269z"/>
		<path class="st4" d="M806.5,273.3c0,1.3-0.9,1.9-2.1,1.2c-1.2-0.7-2.1-2.3-2.1-3.6c0-1.3,0.9-1.9,2.1-1.2    C805.6,270.3,806.5,271.9,806.5,273.3z"/>
		<path class="st3" d="M813.9,277.5c0,1.3-0.9,1.9-2.1,1.2c-1.2-0.7-2.1-2.3-2.1-3.6c0-1.3,0.9-1.9,2.1-1.2    C812.9,274.6,813.9,276.2,813.9,277.5z"/>
		<path class="st4" d="M821.2,281.8c0,1.3-0.9,1.9-2.1,1.2c-1.2-0.7-2.1-2.3-2.1-3.6c0-1.3,0.9-1.9,2.1-1.2    C820.3,278.8,821.2,280.5,821.2,281.8z"/>
		<path class="st3" d="M852.3,303.6l-4.3-2.5c-0.6-0.4-1.2-1.4-1.2-2.2v-4.5c0-0.9,0.5-1.2,1.2-0.9l4.3,2.5c0.6,0.4,1.2,1.4,1.2,2.2    v4.5C853.5,303.5,853,303.9,852.3,303.6z"/>
	</g>
	<g>
		<path class="st2" d="M858.5,347.4L767.8,295c-2-1.2-3.7-4.3-3.7-7v-17.3c0-2.7,1.6-4,3.7-2.8l90.7,52.4c2,1.2,3.7,4.3,3.7,7v17.3    C862.2,347.3,860.6,348.5,858.5,347.4z"/>
		<path class="st11" d="M855.9,341.3l-85.5-49.4c-1-0.6-1.9-2.2-1.9-3.6v-13c0-1.4,0.8-2,1.9-1.4l85.5,49.4c1,0.6,1.9,2.2,1.9,3.6    v13C857.8,341.3,856.9,341.9,855.9,341.3z"/>
		<path class="st3" d="M788.2,295.7l-12.8-7.4c-1-0.6-1.8-2.1-1.8-3.5l0,0c0-1.3,0.8-1.9,1.8-1.4l12.8,7.4c1,0.6,1.8,2.1,1.8,3.5    l0,0C790.1,295.6,789.2,296.2,788.2,295.7z"/>
		<path class="st6" d="M799.1,299.5c0,1.3-0.9,1.9-2.1,1.2c-1.2-0.7-2.1-2.3-2.1-3.6c0-1.3,0.9-1.9,2.1-1.2    C798.2,296.6,799.1,298.2,799.1,299.5z"/>
		<path class="st6" d="M806.5,303.8c0,1.3-0.9,1.9-2.1,1.2c-1.2-0.7-2.1-2.3-2.1-3.6c0-1.3,0.9-1.9,2.1-1.2    C805.6,300.8,806.5,302.4,806.5,303.8z"/>
		<path class="st3" d="M813.9,308c0,1.3-0.9,1.9-2.1,1.2c-1.2-0.7-2.1-2.3-2.1-3.6c0-1.3,0.9-1.9,2.1-1.2    C812.9,305.1,813.9,306.7,813.9,308z"/>
		<path class="st6" d="M821.2,312.3c0,1.3-0.9,1.9-2.1,1.2c-1.2-0.7-2.1-2.3-2.1-3.6c0-1.3,0.9-1.9,2.1-1.2    C820.3,309.3,821.2,311,821.2,312.3z"/>
		<path class="st6" d="M852.3,334.1l-4.3-2.5c-0.6-0.4-1.2-1.4-1.2-2.2v-4.5c0-0.9,0.5-1.2,1.2-0.9l4.3,2.5c0.6,0.4,1.2,1.4,1.2,2.2    v4.5C853.5,334,853,334.4,852.3,334.1z"/>
	</g>
	<g>
		<path class="st2" d="M858.5,377.9l-90.7-52.4c-2-1.2-3.7-4.3-3.7-7v-17.3c0-2.7,1.6-4,3.7-2.8l90.7,52.4c2,1.2,3.7,4.3,3.7,7v17.3    C862.2,377.8,860.6,379,858.5,377.9z"/>
		<path class="st11" d="M855.9,371.8l-85.5-49.4c-1-0.6-1.9-2.2-1.9-3.6v-13c0-1.4,0.8-2,1.9-1.4l85.5,49.4c1,0.6,1.9,2.2,1.9,3.6    v13C857.8,371.8,856.9,372.4,855.9,371.8z"/>
		<path class="st3" d="M788.2,326.1l-12.8-7.4c-1-0.6-1.8-2.1-1.8-3.5l0,0c0-1.3,0.8-1.9,1.8-1.4l12.8,7.4c1,0.6,1.8,2.1,1.8,3.5    l0,0C790.1,326.1,789.2,326.7,788.2,326.1z"/>
		<path class="st4" d="M801.4,331.7c0,2.5-1.8,3.5-3.9,2.3c-2.2-1.3-3.9-4.3-3.9-6.8c0-2.5,1.8-3.5,3.9-2.3    C799.7,326.1,801.4,329.1,801.4,331.7z"/>
		<path class="st6" d="M816.7,340.6c0,1.3-0.9,1.9-2.1,1.2c-1.2-0.7-2.1-2.3-2.1-3.6c0-1.3,0.9-1.9,2.1-1.2    C815.8,337.6,816.7,339.3,816.7,340.6z"/>
		<path class="st3" d="M824.1,344.9c0,1.3-0.9,1.9-2.1,1.2c-1.2-0.7-2.1-2.3-2.1-3.6s0.9-1.9,2.1-1.2    C823.2,341.9,824.1,343.5,824.1,344.9z"/>
		<path class="st6" d="M831.5,349.1c0,1.3-0.9,1.9-2.1,1.2c-1.2-0.7-2.1-2.3-2.1-3.6c0-1.3,0.9-1.9,2.1-1.2    C830.5,346.2,831.5,347.8,831.5,349.1z"/>
		<path class="st3" d="M852.3,364.6l-4.3-2.5c-0.6-0.4-1.2-1.4-1.2-2.2v-4.5c0-0.9,0.5-1.2,1.2-0.9l4.3,2.5c0.6,0.4,1.2,1.4,1.2,2.2    v4.5C853.5,364.5,853,364.9,852.3,364.6z"/>
	</g>
</g>
<polygon class="st12" points="405.4,88.1 373.1,69.5 405.4,50.9 437.6,69.5 "/>
<polygon class="st13" points="437.6,55.9 405.4,74.5 405.4,37.2 437.6,18.6 "/>
<polygon class="st3" points="405.4,37.2 373.1,18.6 405.4,0 437.6,18.6 "/>
<polygon class="st2" points="405.4,74.5 373.1,55.9 373.1,18.6 405.4,37.2 "/>
<polygon class="st4" points="393.8,54.4 384.7,49.2 384.7,38.7 393.8,43.9 "/>
</svg>