<?xml version="1.0" encoding="UTF-8"?>
<!-- Generator: Adobe Illustrator 23.0.3, SVG Export Plug-In . SVG Version: 6.00 Build 0)  -->
<svg version="1.1" id="dizajn" xmlns="http://www.w3.org/2000/svg" xmlns:xlink="http://www.w3.org/1999/xlink" x="0px" y="0px" viewBox="0 0 950.8 927.2" style="enable-background:new 0 0 950.8 927.2;" xml:space="preserve">
<style type="text/css">
	.st0{fill:#D4EDFF;}
	.st1{fill:#E9F6FF;}
	.st2{fill:#163C79;}
	.st3{fill:#FFFFFF;}
	.st4{fill:#E9F5FF;}
	.st5{fill:#FF2C9C;}
	.st6{fill:#E9D6B8;}
	.st7{fill:#B0BFDE;}
	.st8{fill:#D1DBEA;}
	.st9{fill:#163F59;}
	.st10{fill:#194866;}
	.st11{fill:#161711;}
	.st12{fill:#F7D200;}
	.st13{fill:#D8E5ED;}
	.st14{fill:#8DCFFF;}
	.st15{fill:#C0E6FF;stroke:#99DBFF;stroke-width:2;stroke-miterlimit:10;}
</style>
<path class="st0" d="M703.9,669.1l-8.4-33.5l17-8.4c0-4.9,0.3-9.9,0.9-14.8l-16.7-8.9l9.5-33.2l20.9,1.4c2.2-3.8,4.6-7.5,7.2-11  l-11-17.6l24.8-24l18.5,12.4c3.4-2,7-3.9,10.6-5.5l-0.8-21.9l33.5-8.4l10,20.3c3.9-0.1,7.8,0,11.7,0.3l10.3-19.4l33.2,9.5l-1.5,22  c3.7,1.9,7.3,4,10.7,6.3l17.9-11.2l24,24.8l-11.4,17c2.6,3.9,4.9,7.9,7,12l19.4-0.7l8.4,33.5l-16.5,8.1c0.4,5.2,0.4,10.5,0,15.8  l15.3,8.1l-9.5,33.2l-16.4-1.1c-2.6,5.4-5.5,10.4-8.8,15.2l8.2,13l-24.8,24l-12.5-8.4c-5.2,3.5-10.7,6.5-16.4,9.1l0.5,14.2  l-33.5,8.4L829,737c-6.3,0.3-12.6,0.1-19-0.6l-6.6,12.5l-33.2-9.4l1-15.2c-5.4-2.9-10.6-6.2-15.4-9.9l-12.8,8l-24-24.8l9.4-14  c-2.9-4.8-5.4-9.8-7.5-15L703.9,669.1z M807.2,682.4c30.8,8.8,62.9-9.1,71.7-39.9c8.8-30.8-9.1-62.9-39.9-71.7  c-30.8-8.8-62.9,9.1-71.7,39.9C758.5,641.5,776.3,673.6,807.2,682.4z"/>
<path class="st1" d="M845.9,546.4c44.3,12.6,69.9,58.7,57.3,103c-12.6,44.3-58.7,69.9-103,57.3c-44.3-12.6-69.9-58.7-57.3-103  C755.5,559.5,801.6,533.8,845.9,546.4z M805,690.1c35.1,10,71.6-10.4,81.6-45.4c10-35.1-10.4-71.6-45.4-81.6  c-35.1-10-71.6,10.4-81.6,45.4C749.5,643.6,769.9,680.1,805,690.1z"/>
<path class="st2" d="M517.1,649.7c-14,0-25.3-11.4-25.3-25.3V462.3h-59.1l59.1-59.1v-38.3c0-14,11.3-25.3,25.3-25.3h305.8  c14,0,25.3,11.3,25.3,25.3v259.5c0,14-11.3,25.3-25.3,25.3H517.1z"/>
<path class="st3" d="M713.5,409.2h-48.3V379h48.3V409.2z M677.3,397.1h24.1v-6h-24.1V397.1z"/>
<path class="st3" d="M689.4,590.2c-46.6,0-84.5-37.9-84.5-84.5H617c0,39.9,32.5,72.4,72.4,72.4c39.9,0,72.4-32.5,72.4-72.4  c0-39.9-32.5-72.4-72.4-72.4c-35.5,0-65.5,25.4-71.4,60.3l-11.9-2c6.9-40.8,41.9-70.3,83.3-70.3c46.6,0,84.5,37.9,84.5,84.5  C773.9,552.3,736,590.2,689.4,590.2z"/>
<rect x="683.3" y="403.2" class="st3" width="12.1" height="24.1"/>
<rect x="683.3" y="445.4" class="st3" width="12.1" height="66.4"/>
<rect x="733.3" y="428.8" transform="matrix(0.7071 -0.7071 0.7071 0.7071 -88.3552 656.3905)" class="st3" width="29.9" height="12.1"/>
<rect x="752.7" y="411.5" transform="matrix(0.7071 -0.7071 0.7071 0.7071 -77.7905 660.7859)" class="st3" width="12.1" height="25.6"/>
<path class="st3" d="M743.7,505.8h-12.1c0-19.3-13-36.1-31.7-40.9l3-11.7C726.9,459.3,743.7,481,743.7,505.8z"/>
<rect x="580.8" y="499.7" class="st3" width="54.3" height="12.1"/>
<rect x="544.5" y="499.7" class="st3" width="24.1" height="12.1"/>
<rect x="544.5" y="463.5" class="st3" width="42.2" height="12.1"/>
<rect x="562.7" y="535.9" class="st3" width="36.2" height="12.1"/>
<path class="st4" d="M383.1,368.6c0,14-11.3,25.3-25.3,25.3h-16.9V453l-59.1-59.1H87.4c-14,0-25.3-11.3-25.3-25.3V157.4  c0-14,11.3-25.3,25.3-25.3h270.3c14,0,25.3,11.3,25.3,25.3V368.6z"/>
<rect x="112.8" y="208.1" class="st2" width="219.6" height="16.9"/>
<rect x="112.8" y="250.3" class="st2" width="219.6" height="16.9"/>
<rect x="112.8" y="292.5" class="st2" width="219.6" height="16.9"/>
<path class="st5" d="M207,556.6c10.7,0,19.3-8.7,19.3-19.3v-12.9h45.1l-45.1-45.1V363.4c0-10.7-8.7-19.3-19.3-19.3H20.3  c-10.7,0-19.3,8.7-19.3,19.3v173.9c0,10.7,8.7,19.3,19.3,19.3H207z"/>
<path class="st0" d="M573.9,271.4v13.5h14.2c0.9,4.3,2.6,8.3,4.9,11.8l-10,10l9.5,9.5l10-10c3.5,2.3,7.5,4.1,11.8,4.9v14.2h13.5  v-14.2c4.3-0.9,8.3-2.6,11.8-4.9l10,10l9.6-9.5l-10-10c2.3-3.5,4-7.5,4.9-11.8h14.2v-13.5h-14.2c-0.9-4.3-2.6-8.3-4.9-11.8l10-10  l-9.5-9.5l-10,10c-3.5-2.3-7.5-4.1-11.8-4.9v-14.2h-13.5V245c-4.3,0.9-8.3,2.6-11.8,4.9l-10-10l-9.5,9.5l10,10  c-2.3,3.5-4.1,7.5-4.9,11.8H573.9z M621.2,257.9c11.2,0,20.2,9.1,20.2,20.2c0,11.2-9.1,20.2-20.2,20.2c-11.2,0-20.2-9.1-20.2-20.2  C600.9,266.9,610,257.9,621.2,257.9z"/>
<path class="st3" d="M155,488.6v-11.8c0-13.1-10.6-23.6-23.6-23.6H90c-13.1,0-23.6,10.6-23.6,23.6v11.8H155z"/>
<path class="st3" d="M131.4,414.7c0-11.4-9.3-20.7-20.7-20.7c-11.4,0-20.7,9.3-20.7,20.7c0,11.4,9.3,20.7,20.7,20.7  C122.1,435.4,131.4,426.1,131.4,414.7z"/>
<path class="st2" d="M21.8,258.3C9.2,258.3-1,268.5-1,281.1c0,12.6,22.8,47.1,22.8,47.1s22.8-34.5,22.8-47.1  C44.6,268.5,34.4,258.3,21.8,258.3z M21.8,289.1c-3.7,0-6.7-3-6.7-6.7c0-3.7,3-6.7,6.7-6.7c3.7,0,6.8,3,6.8,6.7  C28.5,286.1,25.5,289.1,21.8,289.1z"/>
<polygon class="st0" points="539.4,860.8 539.4,748.5 452.1,748.5 452.1,773.5 477,773.5 477,860.8 452.1,860.8 452.1,885.8   564.4,885.8 564.4,860.8 "/>
<path class="st0" d="M533.2,699.3c0,18.9-15.3,34.3-34.3,34.3c-18.9,0-34.3-15.4-34.3-34.3c0-18.9,15.4-34.3,34.3-34.3  C517.8,665,533.2,680.3,533.2,699.3z"/>
<path class="st6" d="M343.9,647.6l-4.4,57.2c0,0-15.4-30.7-17.1-52.1C320.8,631.2,344.3,646.8,343.9,647.6z"/>
<path class="st6" d="M446.2,615l-28.1,45.7c0,0,41.8-20.1,39.6-38.7C455.6,603.3,446.2,615,446.2,615z"/>
<path class="st6" d="M375.1,506.7c0.5,6.5,4.1,12.2,7.7,12.4c3.5,0,7,0,10.5,0c3.7-0.3,7.2-5.9,7.7-12.4c0.9-10.8,1.7-21.5,2.6-32.3  c0.6-6.5-2-19.4-7.5-23.2c-5.1-3.4-11-3.4-16.1,0c-5.6,3.8-8.1,16.8-7.5,23.2C373.4,485.1,374.2,495.9,375.1,506.7z"/>
<path class="st7" d="M344.6,523c0,0-13.7,9-21.6,63.6c-7.9,54.6-2.9,52.6-2.9,52.6l1.4,12.5l20.2,2.1l11.5-47L344.6,523z"/>
<path class="st8" d="M339.6,523.7l31.8-14.3l16.4,4.9L408,512l22.3,9.7c0,0,10.1,9.7,0.7,40.8c-9.4,31.1-8,82.5-8,82.5l-81.1,5.1  C342,650.1,347.5,541,339.6,523.7z"/>
<path class="st8" d="M415.9,523c0,0,12.2-6.9,24.5,8.3c20.9,25.9,31,58.1,33.1,64.3c2.2,6.2,5,24.9-3.6,30.4  c-8.6,5.5-8.6,5.5-8.6,5.5l-18-11.1l2.9-5.5l1.4-3.5c0,0-10.1-22.1-20.9-42.2C415.9,549.3,415.9,523,415.9,523z"/>
<polygon class="st7" points="391.8,513.6 399.8,522.3 407.8,510.8 403,503.7 "/>
<polygon class="st7" points="374.2,504.4 389.6,514.3 382.3,523 370.3,509.4 "/>
<path class="st9" d="M386.6,443.5v-7.5h-3.1h-8.1h-4.9c-5.4,0-9.8,4.4-9.8,9.8v7.5h3.1h8.1h4.9C382.2,453.4,386.6,449,386.6,443.5z"/>
<path class="st6" d="M402,488.9c0,4.8-3.9,8.7-8.7,8.7h-19.8c-4.8,0-8.7-3.9-8.7-8.7v-39.6c0-4.8,3.9-8.7,8.7-8.7h19.8  c4.8,0,8.7,3.9,8.7,8.7V488.9z"/>
<path class="st9" d="M387.2,436.1c3.4,0,6.5,1.8,8.2,4.4h3.4c4.2,0,7.6,3.4,7.6,7.6v18.8H401v-7.6c0-3-2.4-5.4-5.4-5.4h-3.1h-8.1  h-4.9c-5.4,0-9.8-4.4-9.8-9.8v-8H387.2z"/>
<path class="st6" d="M399.3,471.8c0-2.6,2.1-4.7,4.7-4.7h0.4c2.6,0,4.7,2.1,4.7,4.7v5.7c0,2.6-2.1,4.7-4.7,4.7H404  c-1.9,0-3.5-1.1-4.3-2.8L399.3,471.8z"/>
<path class="st9" d="M394,679.4c0,0-24.4,86.5-44,117.5c-19.6,31-26.4-9.3-26.4-9.3l24.3-143.8l56.8-0.4  C404.8,643.4,403.3,646.3,394,679.4z"/>
<path class="st10" d="M367,643.7c0,0,16.4,141.9,18.7,149c7.9,24.1,26,8.6,28.8,0.5c2.8-8,7.5-67.5,6.5-110.9  c-0.9-43.4-0.9-40.6-0.9-40.6L367,643.7z"/>
<path class="st11" d="M416.9,922.3c0.8,1,0.2,3.7,0.2,3.7s-14.7,1.6-19.5,0.5c-1.2-0.3-3.3-1.3-5.3-2.5c-0.3-0.2-0.9-1.3-1.2-1.5  c-0.6-0.3-0.9,0.2-1.4-0.1c-1.3-0.8-2.2-1.5-2.3-1.6c-1.3-6.8,0.4-9.5,0.4-9.5s12.5-4.2,14.9-1.3C408.3,917,415,920.1,416.9,922.3z"/>
<path class="st11" d="M325.4,916.2l-2.1,11h-11.2c0,0-0.6-1.5-1.6-1.5c-0.8,0-1.8,1.5-2.9,1.5c-2.4,0-5,0-6,0c-2.1,0-22.4,0-22.4,0  s-0.5-2.3,0.1-3.1c0.3-0.4,2.2-1.1,3.4-1.5c5.8-1.6,22.3-6.7,25.2-12.2C311.4,903.7,325.4,916.2,325.4,916.2z"/>
<path class="st10" d="M381.6,732.2c0,0,3.6,53.8,3.1,82.3c-0.4,21.5-0.4,62.6,2.8,97.7c0.2,2.1,17.7,0.5,17.7,0.5  s11.8-134.2,13.6-156.1C420.7,734.5,395.6,716.5,381.6,732.2z"/>
<path class="st9" d="M329.7,791.8c0,0,5,1.1,20.5,2.4c7.1,0.6-20.7,124.2-20.7,124.2l-22-9.5L324,784.4L329.7,791.8z"/>
<path class="st12" d="M533.8,286.6c17.5-13.8,27.4-32.9,28.8-55.2c0.1-1.4,0.1-2.8,0.2-4.2v0c0,0,0,0,0,0c0.1-8.5-0.9-15.8-3.5-24  c-0.1-0.2-0.2-0.4-0.2-0.6c0.1,0.2,0.1,0.4,0.2,0.6l-22.8,7.1c1.6,5.2,2.5,10.8,2.4,16.6v0c-0.2,17.8-9.2,33.4-22.7,43l13.8,19.5  C531.3,288.5,532.6,287.5,533.8,286.6z"/>
<path class="st5" d="M441.7,257c-6.3-8.9-10-19.8-9.8-31.6c0.4-29.6,24.7-53.2,54.3-52.8c23.8,0.3,43.7,16.1,50.4,37.7l22.8-7.1  c-0.1-0.2-0.1-0.4-0.2-0.6c-0.3-1-0.6-1.9-1-2.8c-0.1-0.3-0.2-0.5-0.3-0.8c-10.8-29.3-36.9-48.5-68.2-50.1c-0.7,0-1.5-0.1-2.2-0.1  c-0.3,0-0.6,0-1,0c-0.1,0-0.1,0-0.2,0c-1,0-2.1,0-3.1,0c-0.3,0-0.6,0-0.9,0c-0.8,0-1.6,0.1-2.4,0.1c-0.6,0-1.1,0.1-1.7,0.1  c-0.4,0-0.9,0.1-1.3,0.2c-0.9,0.1-1.9,0.2-2.8,0.3c-0.1,0-0.1,0-0.2,0c-6.6,1-12.9,2.8-18.9,5.3c-0.7,0.3-1.5,0.6-2.2,1  c0,0,0,0-0.1,0c-23.8,11-41,33.8-44.3,61c0,0.2,0,0.3-0.1,0.5c-0.1,0.9-0.2,1.8-0.2,2.7c0,0.5-0.1,0.9-0.1,1.4  c0,0.6-0.1,1.2-0.1,1.9c0,0.5-0.1,1.1-0.1,1.6c-0.2,17,5,32.8,14.1,45.7L441.7,257z"/>
<path class="st13" d="M530,289.4l-13.8-19.5c-8.9,6.3-19.8,10-31.6,9.8h0c-17.8-0.2-33.4-9.2-43-22.7l-19.5,13.8c0,0,0,0,0,0  c0.9,1.2,1.8,2.4,2.7,3.6c13,16.6,30.8,26.4,51.5,28.7c0.1,0,0.3,0,0.4,0c1.1,0.1,2.1,0.2,3.2,0.3c0.1,0,0.1,0,0.2,0  c0.3,0,0.6,0,0.9,0c1.1,0.1,2.1,0.1,3.2,0.1c16.7,0.2,32.2-4.8,44.9-13.6C530.8,288.9,531.3,288.5,530,289.4z"/>
<g>
	<g>
		<path class="st14" d="M487,225.1l84.2,27.3c15.1-46.5-10.3-96.4-56.8-111.5c-9.3-3-17.6-4.3-27.3-4.3V225.1z"/>
	</g>
</g>
<path class="st4" d="M788.8,110.5c0,61-49.5,110.5-110.5,110.5c-61,0-110.5-49.5-110.5-110.5C567.8,49.5,617.3,0,678.3,0  C739.3,0,788.8,49.5,788.8,110.5z"/>
<path class="st15" d="M769.8,110.5c0,50.6-41,91.5-91.5,91.5c-50.6,0-91.5-41-91.5-91.5c0-50.6,41-91.5,91.5-91.5  C728.9,19,769.8,60,769.8,110.5z"/>
<path class="st3" d="M651.8,125.9h11.5c0.2,4.4,1.6,7.8,4.1,10c2.5,2.2,6.1,3.4,10.9,3.4c4.3,0,7.8-1.2,10.4-3.6  c2.6-2.4,3.9-5.6,3.9-9.6c0-1.4-0.2-2.7-0.5-3.9c-0.3-1.2-0.8-2.2-1.3-3.1c-1.9-2.9-6-5-12-6.3c-1-0.2-1.7-0.4-2.2-0.5  c-7.6-1.8-13.1-4.3-16.7-7.7c-3.6-3.4-5.4-7.8-5.4-13.3c0-5.9,1.7-10.9,5.1-14.8c3.4-4,8.1-6.4,14-7.4V57.4h11.1v11.9  c5.3,0.7,9.6,2.9,12.8,6.5c3.2,3.6,5,8.2,5.4,13.9H691c-0.2-3.2-1.5-5.8-3.7-7.6c-2.2-1.9-5-2.8-8.6-2.8c-3.8,0-6.8,1-9,3.1  c-2.3,2.1-3.4,4.9-3.4,8.3c0,1.3,0.2,2.4,0.6,3.5c0.4,1,1,2,1.8,2.9c1.7,1.8,5.2,3.2,10.6,4.3c3.2,0.6,5.7,1.2,7.4,1.8  c5.9,1.9,10.4,4.7,13.5,8.4c3.1,3.7,4.6,8.1,4.6,13.3c0,6.5-1.9,12.1-5.6,16.6c-3.7,4.6-8.6,7.2-14.5,7.9v14.3h-11.1v-13.8  c-6.7-0.8-11.9-3.4-15.8-7.6C653.8,138,651.8,132.5,651.8,125.9z"/>
</svg>