<?xml version="1.0" encoding="UTF-8"?>
<!-- Generator: Adobe Illustrator 16.0.0, SVG Export Plug-In . SVG Version: 6.00 Build 0)  -->
<!DOCTYPE svg PUBLIC "-//W3C//DTD SVG 1.1//EN" "http://www.w3.org/Graphics/SVG/1.1/DTD/svg11.dtd">
<svg version="1.1" id="Layer_1" xmlns="http://www.w3.org/2000/svg" xmlns:xlink="http://www.w3.org/1999/xlink" x="0px" y="0px" viewBox="0 0 350 382.032" enable-background="new 0 0 350 382.032" xml:space="preserve">
	 <style xmlns="http://www.w3.org/2000/svg" type="text/css">

.domain_camera {
	animation-name: droneCamera;
    animation-duration: 3s;
    animation-iteration-count: infinite;
    transform-origin: 50% 50%;
}

@keyframes droneCamera {
	0% {transform: translate(0, 0);}
	50% {transform: translate(0, 10px);}
}

.domain_stroke {
	animation-name: domain-text;
    animation-iteration-count: infinite;
    animation-duration: 6.5s;
    stroke: #2d4383;
    stroke-width: 0.5px;
    stroke-dasharray: 110;
    stroke-dashoffset: -110;
    fill: none;

}

@keyframes domain-text {
	0% {stroke-dashoffset: 110;}
	50% {stroke-dashoffset: 0;}
	100% {stroke-dashoffset: 110;}
}


	 </style>


<g>
	<path fill="#D1DDFF" d="M176.305,314.785l54.716-30.745c2.439-1.371,5.419-1.369,7.857,0.006L267.16,300   c5.438,3.066,5.431,10.899-0.01,13.957l-54.716,30.746c-2.441,1.371-5.42,1.369-7.858-0.007l-28.284-15.953   C170.855,325.676,170.862,317.843,176.305,314.785"/>
	<path fill="#D1DDFF" d="M54.373,300.417c5.732-4.933,13.803-7.826,18.025-6.465c2.626,0.846,3.144,3.139,1.785,5.936   c0.256,0.459,0.44,0.939,0.506,1.408c0.051-0.005,0.103-0.01,0.152-0.013c0.097-0.009,0.183-0.015,0.275-0.019   c0.066-0.004,0.13-0.008,0.184-0.01c0.083-0.002,0.375-0.006,0.438-0.01c0.085,0.006,0.176-0.017,0.254,0.013   c0.049,0.015,0.338,0.016,0.419,0.024c0.039,0.003,0.078,0.007,0.112,0.01c0.438,0.047,0.878,0.093,1.308,0.137   c3.661,0.384,87.555,8.233,87.555,8.233c0.208-0.056,0.416-0.114,0.624-0.166l33.526,3.304c7.479-0.646,14.467-0.124,20.319,1.763   c20.022,6.455,19.226,26.335-1.779,44.406c-21.005,18.069-54.263,27.485-74.284,21.028c-8-2.579-12.666-7.307-14.058-13.2   c-1.074-0.927-65.567-56.552-65.565-56.556c-0.073-0.056-0.291-0.313-0.32-0.354c-0.518,0.092-1.074,0.149-1.639,0.184   c-4.02,1.817-8.005,2.568-10.572,1.74C47.416,310.45,48.64,305.349,54.373,300.417"/>
	<path fill="#FFDB5A" d="M131.318,317.17l6.329,8.159v10.477c0,2.93-1.447,5.673-3.863,7.33l-3.945,2.766   c0.958-0.917,1.161-1.686,1.225-3.248L131.318,317.17z"/>
	<path fill="#FFBD59" d="M91.733,269.013c0.71-0.43,1.514-0.482,1.514-0.482l1.995,2.57c-1.334-0.109-2.315,0.902-2.391,2.732   c0,0,0.139,44.736,0.144,44.866c0.024,1.235,0.443,2.573,1.108,3.763c0.634,1.139,1.504,2.137,2.477,2.737l27.798,15.957   c2.088,1.311,3.873,0.34,3.973-2.161l0.23-25.354c0.524,0.674,2.353,3.029,2.737,3.528l-0.254,25.96   c-0.064,1.562-0.688,2.61-1.643,2.998c-0.805,0.34-1.842,0.203-2.96-0.489l-32.216-18.722c-1.032-0.646-1.961-1.665-2.678-2.848   c-0.973-1.589-1.558-3.471-1.485-5.136l0.008-46.925C90.09,270.304,90.714,269.63,91.733,269.013"/>
	<path fill="#FD9C3D" d="M95.242,271.101c1.918,2.461,5.755,7.391,5.755,7.391s0.53,35.713,0.53,35.882   c0,4.253,2.754,6.59,4.163,7.466l22.693,12.787l-0.032,4.37c-0.1,2.5-1.885,3.471-3.973,2.16L96.58,325.199   c-0.973-0.601-3.585-2.917-3.585-6.5c0-0.13-0.144-44.866-0.144-44.866C92.928,272.003,93.909,270.991,95.242,271.101"/>
	<path fill="#9899EF" d="M78.954,219.815c4.055,2.125,4.002,10.229-0.122,18.098c-4.123,7.871-10.753,12.529-14.809,10.406   c-4.057-2.127-4.003-10.23,0.12-18.102C68.266,222.349,74.896,217.69,78.954,219.815"/>
	<path fill="#FF65A7" d="M77.56,224.972c0.492,0,0.915,0.098,1.291,0.293c1.441,0.754,4.044,4.994,3.788,8   c-0.171,1.996-2.636,2.416-3.807,4.648c-2.582,4.932-1.174,5.369-3.309,6.793c-2.174,1.449-6.704,0.621-7.08,0.426   c-1.468-0.77-1.852-2.979-1.949-3.891c-0.281-2.648,0.437-5.84,1.964-8.762C71.041,227.55,74.992,224.972,77.56,224.972"/>
	<path fill="#282F39" d="M210.927,252.323c-0.104-0.023-0.213-0.041-0.321-0.057c0.062,0.012,0.127,0.016,0.185,0.029   C210.834,252.3,210.883,252.312,210.927,252.323"/>
	<path fill="#282F39" d="M151.903,343.626c-0.038-0.042-0.066-0.093-0.1-0.136c0.058,0.083,0.117,0.156,0.179,0.237   C151.96,343.691,151.928,343.662,151.903,343.626"/>
	<path fill="#FFFFFF" d="M85.023,242.603c2.424-4.404,6.197-7.613,10.379-9.227l103.715,15.699L145.75,335.69   c-0.112-0.144-63.118-80.027-63.118-80.027c-0.597-3.738-0.086-7.836,1.716-11.721C84.562,243.481,84.783,243.038,85.023,242.603"/>
	<path fill="#D1DDFF" d="M165.886,243.696l33.231,5.377l-53.367,86.618c-0.112-0.145-8.077-10.371-18.303-23.517   c-0.887-11.935,2.194-25.285,8.741-37.791C143.658,260.13,154.567,249.116,165.886,243.696"/>
	<path fill="#9899EF" d="M76.685,235.396c1.14-1.457,2.553-2.664,4.074-3.375c0.145-0.072,0.291-0.137,0.438-0.195   c0.049-0.02,0.088-0.033,0.135-0.055c0.098-0.033,0.202-0.068,0.299-0.105c0.054-0.018,0.104-0.029,0.161-0.045   c0.085-0.029,0.171-0.057,0.264-0.074c0.058-0.016,0.108-0.029,0.163-0.041c0.075-0.02,0.155-0.035,0.23-0.051   c0.007,0,0.015,0,0.02-0.004c0.054-0.008,0.11-0.02,0.166-0.025c0.083-0.016,0.159-0.027,0.241-0.031   c0.058-0.008,0.114-0.016,0.163-0.02c0.074-0.004,0.156-0.006,0.233-0.012c0.051,0.006,0.102,0,0.158-0.006   c0.076,0.008,0.152,0.012,0.228,0.018c0.046,0,0.095,0,0.144,0.004c0.079,0.008,0.161,0.02,0.237,0.031   c0.035,0.004,0.071,0.01,0.102,0.016c0.402,0.068,0.805,0.139,1.197,0.205c3.355,0.58,6.709,1.166,10.068,1.744   c-4.191,1.613-7.962,4.826-10.381,9.23c-0.24,0.436-0.46,0.881-0.675,1.34c-1.8,3.887-2.314,7.98-1.715,11.721   c-2.326-2.998-4.658-5.998-6.991-8.994c-0.24-0.314-0.482-0.625-0.727-0.938c-0.003-0.004-0.003-0.004-0.003-0.01   c-0.078-0.09-0.151-0.195-0.215-0.299c-0.012-0.025-0.033-0.053-0.041-0.076c-0.051-0.082-0.099-0.166-0.144-0.256   c-0.018-0.039-0.04-0.084-0.06-0.123c-0.031-0.076-0.066-0.154-0.101-0.23c-0.016-0.051-0.035-0.098-0.052-0.145   c-0.029-0.076-0.055-0.16-0.081-0.244c-0.014-0.051-0.031-0.104-0.042-0.156c-0.027-0.082-0.049-0.164-0.071-0.252   c-0.007-0.053-0.021-0.109-0.029-0.17c-0.02-0.086-0.036-0.18-0.044-0.277c-0.012-0.053-0.02-0.107-0.025-0.164   c-0.016-0.104-0.021-0.213-0.026-0.313c-0.006-0.057-0.01-0.104-0.017-0.15c-0.007-0.164-0.011-0.324-0.007-0.49   c0.034-2.063,0.873-4.303,2.174-6.227C76.308,235.89,76.497,235.642,76.685,235.396"/>
	<path fill="#FF8FBF" d="M215.101,251.29c19.231,10.074,22.576,41.618,7.47,70.458c-15.107,28.838-42.943,44.048-62.177,33.972   c-19.232-10.074-22.575-41.619-7.469-70.457C168.032,256.425,195.868,241.216,215.101,251.29"/>
	<path fill="#FF65A7" d="M202.088,253.196c3.877,0,7.472,0.852,10.688,2.535c7.768,4.07,12.724,12.693,13.951,24.279   c1.309,12.334-1.746,26.363-8.597,39.443c-10.777,20.573-28.75,34.428-44.72,34.428h-0.004c-3.877,0-7.472-0.886-10.686-2.568   c-7.769-4.071-12.724-12.709-13.952-24.299c-1.308-12.334,1.746-26.338,8.597-39.418   C168.143,267.024,186.116,253.196,202.088,253.196"/>
	<path fill="#6E6FDA" d="M184.227,258.397c1.384,0.299,2.7,0.777,3.935,1.428c5.576,2.92,9.136,9.111,10.021,17.426   c0.932,8.855-1.253,18.819-6.173,28.21c-7.74,14.764-20.634,24.61-32.095,24.61c-2.789,0-5.363-0.534-7.678-1.743   c-1.307-0.689-2.505-1.555-3.583-2.588c-0.978-12.025,2.098-25.517,8.709-38.142C164.2,274.546,173.942,264.206,184.227,258.397"/>
	<path fill="#EE428C" d="M157.362,287.599c1.605-3.061,3.367-5.967,5.253-8.699c6.176-8.947,13.733-16.053,21.612-20.502   c1.384,0.299,2.699,0.777,3.936,1.428c5.574,2.92,9.135,9.111,10.02,17.426c0.933,8.855-1.254,18.819-6.174,28.211   c-7.739,14.763-20.633,24.609-32.095,24.609c-2.788,0-5.363-0.535-7.677-1.744c-1.308-0.688-2.505-1.554-3.583-2.587   c-0.633-7.776,0.433-16.167,3.052-24.538C153.133,296.626,155.026,292.058,157.362,287.599"/>
	<path fill="#2D4383" d="M162.615,278.899c6.922,0.502,12.394,6.285,12.394,13.342c0,7.381-5.991,13.371-13.372,13.371   c-3.942,0-7.482-1.703-9.932-4.41c1.428-4.575,3.321-9.145,5.657-13.604C158.968,284.54,160.729,281.632,162.615,278.899"/>
	<polygon fill="#D1DDFF" points="251.219,28.95 251.699,116.096 349.366,174.41 348.891,87.265  "/>
	<path fill="#D1DDFF" d="M222.971,145.22l97.672,58.314c5.577,3.24,28.725-1.236,28.725-29.76l-97.668-58.315   C251.699,143.897,228.552,148.462,222.971,145.22"/>
	<path fill="#9899EF" d="M310.085,178.98l-97.671-58.312c0.034,12.332,4.402,21.015,11.438,25.104l97.67,58.313   C314.486,199.997,310.118,191.312,310.085,178.98"/>
	<polygon fill="#FFFFFF" points="260.383,119.985 338.377,164.938 338.377,117.862 260.383,72.909  "/>
	<polygon fill="#D1DDFF" points="248.883,30.725 344.54,87.055 349.786,83.114 254.127,26.784  "/>
	<polygon fill="#6E6FDA" points="344.54,87.055 344.587,103.31 349.832,99.369 349.786,83.114  "/>
	<polygon fill="#FFFFFF" points="248.883,30.725 248.93,46.981 344.586,103.31 344.54,87.055  "/>
	<polygon fill="#D1DDFF" points="253.438,44.376 302.332,73.178 302.332,67.396 253.423,38.584  "/>
	<path fill="#FF65A7" d="M338.354,87.872l-4.502,2.83c-0.703,0.442-0.917,1.371-0.474,2.076c0.287,0.454,0.777,0.705,1.278,0.705   c0.271,0,0.55-0.076,0.8-0.231l4.5-2.83c0.706-0.443,0.917-1.372,0.473-2.076C339.988,87.643,339.059,87.432,338.354,87.872"/>
	<path fill="#FF65A7" d="M337.089,86.868c-0.299-0.776-1.172-1.159-1.945-0.864c-0.779,0.299-1.164,1.171-0.866,1.947l2.508,6.512   c0.23,0.599,0.803,0.965,1.406,0.965c0.181,0,0.364-0.033,0.542-0.101c0.776-0.299,1.164-1.17,0.864-1.946L337.089,86.868z"/>
	<path fill="#6E6FDA" d="M289.994,173.79c-2.079-1.852-5.312-1.491-7.309,0.616c-5.554,6.469-13.747,12.494-21.152,15.613   c-4.389,1.846-4.188,5.736-2.377,8.012c0.38,0.475,0.621,0.74,1.286,1.381c2.962,2.844,5.562,2.232,8.377,0.885   c8.014-3.832,15.277-11.58,21.569-18.51c2.182-2.404,1.815-6.026-0.259-7.873C290.096,173.881,290.027,173.819,289.994,173.79"/>
	<path fill="#FFC4B1" d="M289.467,140.36c-0.391-1.246-1.51-2.049-1.51-2.049l-3.716-2.357c-0.49,0.529-0.3,1.697,0.396,2.177   c0.239,0.162,2.242,1.899,2.242,1.899s0.428,0.684,0.049,1.088c-0.096,0.098-1.72-0.515-2.345-1.29   c-1.068-1.301-2.752-5.199-4.188-7.736c-0.455-0.802-3.167-2.19-2.089,0.4c0.209,0.505,2.571,3.868,2.211,4.789   c-0.595,1.503-1.458,2.999-1.218,5.016c0.311,2.522,3.928,4.84,4.31,5.246c0.675,0.713,0.493,8.923,1.198,14.474l7.178-1.723   c0,0-2.375-12.724-3.091-15.961C288.594,142.964,289.841,141.605,289.467,140.36"/>
	<path fill="#6E6FDA" d="M282.949,150.619c1.121,7.959,0.312,20.168-1.086,26.402c-0.418,2.465,1.095,4.889,3.522,5.506   c0.041,0.01,0.619,0.121,0.66,0.131c2.423,0.615,5.443-1.293,5.921-4.067c1.575-6.971,0.526-20.461-0.907-29.178   C288.852,150.386,286.433,150.732,282.949,150.619"/>
	<path fill="#0845A9" d="M263.32,343.512c0,0,0.045,0,0.014-0.01L263.32,343.512z"/>
	<path fill="#103769" d="M274.894,326.855c-2.402,0-4.172,0.538-5.915,1.066c-4.063,1.235-16.364,2.928-16.364,2.928   s-0.233,5.108-0.233,9.462c0,3.106,3.22,4.782,6.409,4.782c2.166,0,4.815-1.961,4.815-1.961l0.284-2.082l1.237,0.776   c0,0,11.948-7.902,12.891-9.935C278.96,329.863,277.325,326.855,274.894,326.855"/>
	<path fill="#26E0BF" d="M252.043,336.824c10.468,2.812,14.449-3.701,14.449-3.701l5.313-79.862l-20.837,2.84L252.043,336.824z"/>
	<path fill="#0845A9" d="M288.027,357.249c0,0,0.045,0,0.013-0.011L288.027,357.249z"/>
	<path fill="#103769" d="M299.599,340.592c-2.4,0-4.171,0.54-5.913,1.068c-4.064,1.234-16.365,2.926-16.365,2.926   s-0.231,5.109-0.231,9.462c0,3.108,3.218,4.782,6.406,4.782c2.169,0,4.816-1.961,4.816-1.961l0.284-2.082l1.237,0.776   c0,0,11.949-7.901,12.891-9.934C303.668,343.6,302.031,340.592,299.599,340.592"/>
	<path fill="#26E0BF" d="M276.75,350.562c10.467,2.812,14.449-3.701,14.449-3.701l0.352-86.574l-22.327-2.303L276.75,350.562z"/>
	<path fill="#6E6FDA" d="M293.184,208.345c0.286-4.369-0.479-13.494-5.021-16.641c-3.056-2.119-9.764-3.879-16.717-3.879   c-19.081,0-19.746,16.66-19.746,21.039c0,9.5-2.784,46.611-2.784,46.611c2.012,1.285,5.414,5.141,12.217,6.535   c5.31,1.09,10.611,1.697,15.595,1.705c6.521,0.012,12.502-1.002,17.245-3.303C293.973,260.413,292.574,217.562,293.184,208.345"/>
	<path fill="#FFC4B1" d="M268.881,176.54c0,0,0.709,7.887-0.757,11.375c-1.094,2.607,13.702,3.932,10.839,0.199   c-1.378-1.799,1.017-7.029,1.017-7.029L268.881,176.54z"/>
	<path fill="#FFC4B1" d="M282.69,160.288c-3.565-1.864-12.624-0.087-14.825,6.268c-1.321,3.81,0.835,9.544,0.835,9.544   s5.137,6.698,7.458,8.22c0.544,0.355,4.199,2.1,6.065,0c1.867-2.102,4.198-7.597,3.734-13.832   C285.491,164.254,285.063,161.526,282.69,160.288"/>
	<path fill="#2D4383" d="M283.371,160.218c-3.853-4.091-13.5-5.078-18.609,0.746c-5.095,5.808-2.7,16.764,1.159,20.701   c2.294,2.344,7.286,3.92,10.806,1.816c4.338-2.589,4.606-15.341,6.856-15.987c6.051-1.738,4.85-8.148,4.85-8.148   S286.379,163.413,283.371,160.218"/>
	<path fill="#6E6FDA" d="M314.521,197.261c-8.493,0.752-18.813-2.791-26.357-5.557c-2.652-0.814-5.663,1.732-6.838,5.268   c-0.194,0.578-0.217,1.734-0.188,2.654c0.133,4.104,2.421,5.482,5.377,6.484c8.411,2.854,19.021,2.379,28.363,1.813   c3.242-0.195,5.508-3.045,5.314-5.816c-0.003-0.047-0.01-0.137-0.013-0.184C319.987,199.147,317.422,197.147,314.521,197.261"/>
	<path fill="#FFC4B1" d="M348.386,176.785c0,0-3.287,1.492-4.929,1.876c-0.966,0.236-2.629-0.262-2.644-0.399   c-0.054-0.551,0.699-0.834,0.699-0.834s2.645-0.164,2.935-0.147c0.844,0.04,1.704-0.772,1.636-1.491l-4.384-0.382   c0,0-1.378-0.042-2.444,0.71c-1.052,0.763-0.885,2.6-1.957,3.504c-2.533,2.137-12.146,10.805-12.146,10.805l4.655,5.729   c3.932-3.982,8.771-10.617,9.74-10.773c0.552-0.09,6.327-0.148,8.105-1.967c1.764-1.811,1.294-2.411,2.15-5.044   C350.671,175.734,348.386,176.785,348.386,176.785"/>
	<path fill="#6E6FDA" d="M333.04,182.132c-5.36,5.986-15.218,13.238-20.885,16.188c-2.152,1.27-3.031,3.99-1.938,6.242   c0.018,0.037,0.307,0.551,0.326,0.588c1.091,2.25,4.498,3.33,6.924,1.906c6.345-3.289,15.982-12.787,21.721-19.504   C337.021,186.493,335.198,184.868,333.04,182.132"/>
	<path fill="#EE428C" d="M118.839,247.237c3.048-0.039,5.637-1.684,5.782-3.646c0.002-0.025,0.07,4.902,0.063,5.012   c-0.145,1.965-2.734,3.609-5.783,3.646c-2.894,0.035-5.095-1.393-5.115-3.219l-0.059-4.941   C113.801,245.882,115.982,247.272,118.839,247.237"/>
	<path fill="#FFDB5A" d="M119.508,240.177c2.965-0.037,5.256,1.48,5.114,3.414c-0.146,1.963-2.734,3.607-5.782,3.646   c-3.047,0.039-5.331-1.545-5.104-3.51C113.959,241.792,116.542,240.216,119.508,240.177"/>
	<path fill="#EE428C" d="M117.293,240.132c1.146-0.701,2.898-0.725,3.925-0.049c0.467,0.309,0.707,0.709,0.719,1.123l0.02,1.645   c0.017,0.498-0.294,1.012-0.92,1.404c-1.156,0.717-2.933,0.74-3.962,0.049c-0.459-0.307-0.689-0.703-0.702-1.111l-0.022-1.666   C116.344,241.03,116.662,240.517,117.293,240.132"/>
	<path fill="#FFDB5A" d="M117.292,240.132c0.284-0.174,0.607-0.307,0.946-0.396c1.027-0.273,2.209-0.16,2.981,0.348   c1.03,0.68,0.945,1.811-0.203,2.523c-1.153,0.719-2.932,0.742-3.962,0.051C116.027,241.968,116.14,240.839,117.292,240.132"/>
	<path fill="#DAF0F5" d="M117.874,103.651l0.012,0.012c0.773,0.88,2.16,0.858,2.935-0.048l-0.282,136.698   c-0.004,0.813-0.667,1.482-1.481,1.492c-0.813,0.01-1.47-0.643-1.464-1.455"/>



	<path class="domain_camera" fill="#FF65A7" d="M103.69,111.16c0,0,0.124-0.908,0.125-1.299l0.025-9.276l-1.241-0.717l3.707-2.155l1.243,0.718   l-0.027,9.274c-0.007,2.178-0.778,3.71-2.022,4.432l-3.706,2.153C102.768,113.725,103.438,112.644,103.69,111.16"/>
	<path class="domain_camera" fill="#FF65A7" d="M83.76,84.697l-0.027,9.274c0,0.423,0.039,0.856,0.105,1.296c0.01,0.069,0.024,0.137,0.035,0.206   c0.072,0.41,0.164,0.823,0.286,1.235c0.012,0.038,0.024,0.077,0.036,0.115c0.138,0.45,0.302,0.898,0.494,1.34   c0.005,0.009,0.008,0.017,0.011,0.025c0.199,0.45,0.422,0.893,0.67,1.323c0.007,0.014,0.014,0.028,0.022,0.04   c0.243,0.421,0.51,0.825,0.792,1.214c0.027,0.036,0.053,0.07,0.078,0.106c0.262,0.351,0.541,0.683,0.831,1   c0.061,0.067,0.123,0.134,0.188,0.201c0.229,0.239,0.471,0.457,0.715,0.671c0.11,0.095,0.217,0.198,0.328,0.287   c0.347,0.276,0.701,0.529,1.068,0.74l11.194,6.464c0.357,0.205,0.704,0.357,1.044,0.479c0.066,0.024,0.131,0.047,0.197,0.069   c0.32,0.102,0.633,0.171,0.931,0.2c0.027,0.003,0.054,0.109,0.081,0.11c0.01,0.001,0.019,0.102,0.027,0.102h-0.091v0.431   l-1.92,1.151c-0.012,0.005,0.037,0.012,0.025,0.018c-0.091,0.051-0.186,0.099-0.286,0.14c-0.096,0.041-0.198,0.076-0.301,0.105   c-0.066,0.02-0.134,0.033-0.201,0.047c-0.015,0.004-0.031,0.007-0.046,0.012c-0.025,0.003-0.049,0.012-0.074,0.016   c-0.112,0.019-0.225,0.034-0.344,0.04c-0.121,0.008-0.248,0.008-0.377,0.004c-0.037-0.002-0.079-0.009-0.118-0.013   c-0.029-0.002-0.055-0.005-0.081-0.008c-0.075-0.007-0.147-0.01-0.222-0.023c-0.162-0.024-0.33-0.06-0.499-0.106   c-0.07-0.019-0.142-0.051-0.212-0.074c-0.066-0.019-0.13-0.042-0.198-0.067c-0.084-0.03-0.169-0.052-0.257-0.088   c-0.257-0.107-0.519-0.237-0.786-0.392l-11.195-6.463c-0.365-0.211-0.72-0.464-1.067-0.739c-0.112-0.09-0.215-0.192-0.325-0.287   c-0.167-0.145-0.338-0.28-0.499-0.439c-0.074-0.075-0.145-0.157-0.22-0.233c-0.062-0.067-0.125-0.133-0.186-0.199   c-0.071-0.078-0.144-0.148-0.213-0.227c-0.159-0.183-0.311-0.371-0.46-0.561c-0.055-0.07-0.105-0.143-0.158-0.213   c-0.026-0.036-0.052-0.07-0.077-0.106c-0.048-0.065-0.098-0.129-0.144-0.194c-0.114-0.163-0.223-0.327-0.33-0.493   c-0.101-0.159-0.2-0.319-0.293-0.482c-0.01-0.015-0.018-0.029-0.027-0.044c-0.007-0.014-0.013-0.027-0.022-0.041   c-0.074-0.13-0.149-0.261-0.22-0.394c-0.084-0.16-0.167-0.321-0.245-0.484c-0.071-0.147-0.139-0.296-0.203-0.445   c-0.004-0.008-0.008-0.017-0.012-0.025c-0.003-0.009-0.008-0.017-0.01-0.025c-0.074-0.169-0.144-0.34-0.21-0.51   c-0.067-0.178-0.133-0.357-0.191-0.537c-0.03-0.089-0.056-0.178-0.083-0.268c-0.012-0.039-0.023-0.076-0.036-0.115   c-0.02-0.065-0.042-0.13-0.06-0.196c-0.06-0.218-0.112-0.433-0.159-0.651c-0.027-0.131-0.044-0.259-0.066-0.39   c-0.014-0.069-0.026-0.137-0.036-0.205c-0.01-0.063-0.025-0.126-0.032-0.191c-0.049-0.374-0.074-0.743-0.072-1.104l0.026-9.276   l-1.243-0.716l3.707-2.156L83.76,84.697z"/>
	<path class="domain_camera" fill="#BC4274" d="M80.053,86.851l-0.027,9.274c-0.01,3.59,2.522,7.99,5.657,9.8l11.194,6.464   c3.125,1.802,5.684,0.343,5.695-3.246l0.026-9.274l1.242,0.717l-0.025,9.274c-0.013,4.386-3.137,6.154-6.941,3.956l-11.196-6.463   c-3.817-2.205-6.908-7.558-6.896-11.944l0.027-9.275L80.053,86.851z"/>
	<path class="domain_camera" fill="#FF65A7" d="M138.019,97.924c0,0,0.124-0.908,0.124-1.301l0.026-9.274l-1.243-0.717l3.707-2.155l1.243,0.718   l-0.027,9.274c-0.005,2.178-0.778,3.71-2.02,4.431l-3.708,2.154C137.097,100.488,137.767,99.408,138.019,97.924"/>
	<path class="domain_camera" fill="#FF65A7" d="M116.845,70.743L116.845,70.743l1.242,0.718l-0.026,9.274c-0.001,0.422,0.039,0.857,0.105,1.296   c0.011,0.068,0.022,0.137,0.036,0.207c0.071,0.408,0.163,0.821,0.284,1.234c0.014,0.038,0.026,0.078,0.036,0.116   c0.138,0.449,0.302,0.897,0.495,1.339c0.004,0.009,0.007,0.016,0.011,0.025c0.197,0.45,0.422,0.894,0.67,1.323   c0.006,0.014,0.013,0.028,0.022,0.041c0.241,0.419,0.509,0.825,0.791,1.213c0.027,0.036,0.052,0.071,0.08,0.106   c0.26,0.352,0.539,0.684,0.829,1.001c0.062,0.067,0.125,0.134,0.187,0.199c0.231,0.24,0.472,0.458,0.717,0.672   c0.11,0.095,0.215,0.197,0.327,0.286c0.345,0.276,0.702,0.53,1.066,0.742l11.196,6.462c0.357,0.207,0.703,0.358,1.044,0.48   c0.066,0.024,0.132,0.048,0.196,0.069c0.321,0.101,0.634,0.173,0.934,0.201c0.027,0.003,0.052,0.058,0.079,0.059   c0.011,0.002,0.02,0.053,0.031,0.053h-0.132v0.531l-1.904,1.149c-0.008,0.007,0.019,0.012,0.009,0.018   c-0.092,0.053-0.167,0.1-0.269,0.142c-0.095,0.039-0.188,0.076-0.291,0.105c-0.064,0.019-0.127,0.032-0.195,0.047   c-0.015,0.004-0.029,0.008-0.044,0.01c-0.025,0.005-0.047,0.012-0.072,0.018c-0.112,0.018-0.227,0.032-0.344,0.039   c-0.122,0.008-0.248,0.009-0.377,0.003c-0.039-0.001-0.08-0.009-0.118-0.011c-0.028-0.003-0.054-0.006-0.082-0.008   c-0.074-0.007-0.147-0.012-0.223-0.023c-0.163-0.024-0.328-0.059-0.497-0.106c-0.07-0.019-0.141-0.051-0.21-0.073   c-0.066-0.021-0.134-0.044-0.2-0.068c-0.086-0.032-0.169-0.053-0.255-0.089c-0.257-0.108-0.52-0.237-0.789-0.391l-11.193-6.464   c-0.366-0.211-0.721-0.463-1.068-0.74c-0.112-0.089-0.215-0.19-0.325-0.285c-0.166-0.146-0.336-0.281-0.499-0.44   c-0.074-0.075-0.146-0.156-0.218-0.233c-0.064-0.066-0.125-0.132-0.188-0.2c-0.069-0.076-0.144-0.148-0.211-0.227   c-0.159-0.181-0.313-0.369-0.462-0.56c-0.054-0.069-0.105-0.143-0.158-0.212c-0.025-0.036-0.052-0.072-0.078-0.107   c-0.048-0.065-0.098-0.129-0.143-0.195c-0.113-0.162-0.224-0.325-0.33-0.492c-0.1-0.158-0.198-0.319-0.295-0.482   c-0.008-0.014-0.016-0.029-0.025-0.045c-0.007-0.013-0.013-0.025-0.02-0.04c-0.076-0.13-0.151-0.261-0.222-0.395   c-0.085-0.159-0.166-0.32-0.245-0.483c-0.071-0.147-0.139-0.297-0.203-0.445c-0.003-0.01-0.007-0.017-0.012-0.025   c-0.003-0.009-0.007-0.016-0.012-0.025c-0.073-0.168-0.142-0.339-0.206-0.51c-0.07-0.178-0.136-0.357-0.195-0.537   c-0.029-0.088-0.054-0.179-0.081-0.267c-0.012-0.039-0.024-0.077-0.035-0.117c-0.019-0.065-0.041-0.131-0.06-0.195   c-0.061-0.217-0.113-0.435-0.159-0.65c-0.029-0.132-0.046-0.261-0.068-0.391c-0.011-0.068-0.025-0.136-0.035-0.205   c-0.01-0.063-0.025-0.127-0.032-0.19c-0.047-0.375-0.073-0.744-0.071-1.106l0.025-9.274l-1.243-0.718L116.845,70.743z"/>
	<path class="domain_camera" fill="#BC4274" d="M114.38,73.614l-0.027,9.275c-0.01,3.59,2.523,7.989,5.657,9.799l11.196,6.464   c3.123,1.802,5.683,0.343,5.693-3.246l0.027-9.274l1.242,0.717l-0.026,9.274c-0.013,4.387-3.135,6.154-6.941,3.956l-11.194-6.463   c-3.818-2.204-6.909-7.558-6.898-11.944l0.028-9.275L114.38,73.614z"/>
	<polygon class="domain_camera" fill="#BC4274" points="136.874,108.737 126.968,114.457 126.94,105.128 136.848,99.409  "/>
	<polygon class="domain_camera" fill="#BC4274" points="136.848,99.428 126.94,105.147 123.004,102.859 132.911,97.141  "/>
	<polygon class="domain_camera" fill="#FF65A7" points="126.968,114.457 123.031,112.169 123.004,102.841 126.941,105.128  "/>
	<path class="domain_camera" fill="#BC4274" d="M78.383,82.742c0.291,0.37,0.628,0.729,1,1.079c0.323,0.302,0.668,0.598,1.052,0.883   c0.041,0.032,0.092,0.059,0.136,0.091c0.382,0.277,0.788,0.551,1.234,0.809l20.054,11.655c0.536,0.311,1.107,0.592,1.693,0.853   c0.192,0.085,0.395,0.157,0.591,0.237c0.408,0.166,0.822,0.326,1.248,0.469c0.334,0.111,0.674,0.216,1.017,0.313   c0.173,0.049,0.34,0.103,0.515,0.147c0.548,0.143,1.104,0.274,1.671,0.383l0.02,6.897c-0.566-0.109-1.123-0.239-1.673-0.381   c-0.172-0.047-0.342-0.1-0.512-0.147c-0.254-0.073-0.511-0.14-0.76-0.218c-0.09-0.029-0.171-0.068-0.261-0.097   c-0.426-0.143-0.837-0.303-1.245-0.469c-0.197-0.079-0.399-0.151-0.592-0.237c-0.585-0.261-1.155-0.541-1.691-0.852L81.824,92.502   c-0.083-0.049-0.164-0.097-0.244-0.146c-0.355-0.214-0.68-0.439-0.994-0.667c-0.041-0.03-0.09-0.057-0.131-0.087   c-0.358-0.267-0.69-0.541-0.994-0.823c-0.022-0.019-0.036-0.041-0.058-0.06c-0.372-0.352-0.71-0.71-0.999-1.079   c0-0.001-0.002-0.003-0.004-0.004c-0.266-0.337-0.496-0.681-0.692-1.03c-0.003-0.004-0.005-0.009-0.007-0.014l-40.894-0.003   c-5.056-0.001-9.159-3.087-9.173-6.898l50.047,0.004C77.879,82.049,78.114,82.4,78.383,82.742"/>
	<path class="domain_camera" fill="#BC4274" d="M118.762,99.785c0.737-0.121,1.461-0.275,2.172-0.455c0.161-0.04,0.323-0.074,0.482-0.117   c0.829-0.227,1.638-0.49,2.411-0.797c0.047-0.019,0.093-0.042,0.143-0.062c0.792-0.324,1.555-0.685,2.264-1.094l10.689-6.171   c2.962-1.71,4.625-3.893,4.995-6.129l49.208,0.006l0.03-4.086l0.026,6.898c-0.017,2.259-2.453,4.085-5.451,4.084l-43.793-0.004   c-0.371,2.234-2.035,4.418-4.998,6.129l-10.686,6.17c-0.711,0.41-1.472,0.77-2.264,1.094c-0.051,0.02-0.096,0.043-0.146,0.062   c-0.028,0.012-0.054,0.026-0.083,0.036c-0.667,0.263-1.359,0.497-2.072,0.699c-0.083,0.023-0.171,0.039-0.254,0.062   c-0.16,0.044-0.322,0.078-0.483,0.119c-0.356,0.089-0.704,0.186-1.068,0.26c-0.364,0.075-0.734,0.131-1.104,0.192   c-0.129,0.022-0.254,0.048-0.383,0.067c-0.074,0.012-0.147,0.028-0.22,0.039c-0.556,0.079-1.116,0.14-1.681,0.187   c-0.278,0.023-0.557,0.042-0.838,0.058h-0.001l-0.021-6.898c0.922-0.049,1.839-0.147,2.741-0.283   C118.506,99.831,118.632,99.806,118.762,99.785"/>
	<path class="domain_camera" fill="#FF65A7" d="M76.878,77.608c0.372-2.234,2.045-4.412,5.007-6.123l10.687-6.169c2.962-1.71,6.728-2.673,10.587-2.881   l0.094-32.325l6.986,0.121h0.06l-0.087,32.81c2.454,0.467,4.767,1.205,6.724,2.343l20.056,11.54   c1.95,1.133,3.326,2.837,4.133,3.789h50.031l-0.03,4.168l-49.208,0.037c-0.371,2.235-2.035,4.44-4.996,6.149l-10.686,6.181   c-2.964,1.711-6.738,2.672-10.597,2.881l-0.097,29.719l-7.044-0.005l0.096-30.183c-2.465-0.474-4.784-1.269-6.735-2.403   L81.804,85.604c-1.957-1.139-3.324-2.484-4.123-3.909l-50.046-0.006l0.029-4.075L76.878,77.608z"/>
	<path class="domain_camera" fill="#FFBD59" d="M93.568,74.661l3.299-1.903c1.673-0.966,4.135-1.6,6.755-1.742c0,0,1.873-0.177,2.495-0.135   c0.631,0.042,2.485,0.474,2.485,0.474c1.573,0.299,2.963,0.782,4.018,1.394l12.62,7.335c3.009,1.749,3.002,6.096-0.011,7.835   l-3.291,1.9c-1.664,0.962-4.126,1.737-6.763,1.737c-2.746,0-3.729-0.174-4.961-0.333c-1.619-0.209-2.999-0.789-4.038-1.392   l-12.62-7.335C90.548,80.749,90.555,76.401,93.568,74.661"/>
	<path class="domain_camera" fill="#FFDB5A" d="M93.568,72.617l3.299-1.904c1.673-0.966,4.131-1.741,6.755-1.741c6.038,0,7.943,1.121,8.998,1.733   l12.62,7.335c3.009,1.748,3.002,6.095-0.011,7.835l-3.291,1.9c-1.664,0.961-4.126,1.726-6.763,1.736   c-1.244,0.004-3.729-0.173-4.961-0.332c-1.619-0.209-2.999-0.79-4.038-1.392l-12.62-7.335   C90.548,78.704,90.555,74.358,93.568,72.617"/>
	<path class="domain_camera" fill="#D1DDFF" d="M80.024,127.608c0,0-0.015,3.707-0.013,3.946c0.094,11.457,15.036,21.375,33.364,21.375   c17.276,0,29.692-8.82,29.081-19.432l-0.003-2.243c0,0-4.33-18.534-33.363-18.534C87.069,112.72,80.024,127.608,80.024,127.608    M83.829,131.517c-0.019-2.703,1.135-5.251,3.436-7.58c4.602-4.63,12.764-7.399,21.825-7.399c14.405,0,27.57,7.074,29.355,15.781   c0.602,2.969-0.171,5.804-2.311,8.42c-4.209,5.164-12.935,8.372-22.759,8.372C97.71,149.111,83.905,140.891,83.829,131.517"/>
	<path class="domain_camera" fill="#616161" d="M104.346,130.987v-0.016h0.003C104.348,130.977,104.346,130.981,104.346,130.987"/>
	<path class="domain_camera" fill="#6E6FDA" d="M104.68,131.443c0,2.366,3.299,4.31,6.975,4.31c3.448,0,6.031-1.711,6.092-3.876l-0.01,5.962   c0.006,2.204-2.607,3.96-6.102,3.96c-3.676,0-6.805-1.945-7.008-4.311C104.616,137.357,104.68,131.443,104.68,131.443   L104.68,131.443z"/>
	<path class="domain_camera" fill="#26E0BF" d="M110.69,127.247c3.578,0,6.718,1.864,7.016,4.196c0.302,2.366-2.428,4.309-6.104,4.309   c-3.678,0-6.825-1.943-7.029-4.309C104.372,129.111,107.112,127.247,110.69,127.247"/>
	<path class="domain_camera" fill="#BC4274" d="M108.625,127.159c1.229-0.83,3.343-0.83,4.735,0c0.766,0.456,1.159,1.069,1.158,1.669v2.01   c-0.011,0.49-0.283,0.971-0.83,1.349c-1.232,0.85-3.378,0.85-4.78,0c-0.762-0.462-1.144-1.077-1.134-1.676v-1.987   C107.785,128.026,108.064,127.538,108.625,127.159"/>
	<path class="domain_camera" fill="#2D4383" d="M93.401,118.711c0.003-0.003,0.003-0.003,0.007-0.005c0.39-0.248,1.045-0.241,1.458,0.006l17.672,10.587   l2.499,1.497c0.365,0.22,0.901,0.266,1.305,0.114l2.083-0.786c0.403-0.152,0.935-0.106,1.305,0.112l14.461,8.029   c0,0,0.306,0.748-0.14,1.227c-0.7,0.758-1.513,1.486-2.444,2.172c-0.001,0.001-0.005,0.004-0.007,0.005   c-0.387,0.286-1.091,0.278-1.566-0.007l-18.914-11.395l-2.475-1.492c-0.36-0.217-0.89-0.263-1.296-0.112l-2.099,0.779   c-0.408,0.152-0.937,0.106-1.296-0.112l-12.94-7.879c-0.558-0.379-0.328-1.317-0.328-1.317S92.457,119.31,93.401,118.711"/>
	<path class="domain_camera" fill="#FF65A7" d="M93.401,117.815c0.001-0.001,0.003-0.002,0.007-0.003c0.193-0.123,0.45-0.183,0.708-0.183h0.002   c0.267,0,0.54,0.063,0.75,0.189l17.67,10.585l2.499,1.498c0.366,0.221,0.901,0.266,1.307,0.114l2.081-0.786   c0.403-0.151,0.935-0.105,1.305,0.113l14.041,8.326c0.42,0.247,0.546,0.642,0.28,0.93c-0.7,0.758-1.513,1.485-2.442,2.171   c-0.003,0.001-0.007,0.004-0.009,0.005c-0.387,0.286-1.091,0.278-1.566-0.007l-18.912-11.395l-2.477-1.491   c-0.36-0.218-0.89-0.262-1.294-0.113l-2.099,0.778c-0.41,0.154-0.939,0.107-1.298-0.111l-12.94-7.878   c-0.367-0.223-0.438-0.575-0.153-0.832C91.613,119.053,92.459,118.414,93.401,117.815"/>
	<path class="domain_camera" fill="#713D23" d="M108.625,127.159c0.614-0.415,1.45-0.622,2.306-0.622s1.734,0.207,2.429,0.622   c1.401,0.834,1.554,2.196,0.327,3.041c-1.231,0.85-3.377,0.85-4.779,0C107.512,129.355,107.392,127.993,108.625,127.159"/>
	<path class="domain_camera" fill="#FFFFFF" d="M80.011,128.372c0.094,11.455,15.036,21.375,33.364,21.375c18.322,0,31.152-9.92,28.804-21.375   c-2.186-10.694-16.936-18.836-33.089-18.836C92.946,109.535,79.925,117.677,80.011,128.372 M83.829,128.333   c-0.019-2.703,1.135-5.251,3.436-7.58c4.602-4.63,12.764-7.399,21.825-7.399c14.405,0,27.57,7.074,29.355,15.781   c0.602,2.969-0.171,5.804-2.311,8.419c-4.209,5.165-12.935,8.373-22.759,8.373C97.71,145.927,83.905,137.708,83.829,128.333"/>


	<path class="domain_camera" fill="#FFDB5A" d="M137.124,119.63l2.208-0.605c2.265,2.609,3.749,5.426,4.39,8.378c0.651,3.007,0.392,5.984-0.799,8.845   l-2.596-0.672c1.121-2.638,1.385-5.39,0.803-8.173C140.56,124.667,139.205,122.054,137.124,119.63"/>
	<path class="domain_camera" fill="#DAF0F5" d="M144.062,130.506l0.008,0.008v2.997c0,3.266-1.147,5.737-1.147,5.737l-1.307-0.347v-2.344l-1.289-0.335   v-0.646l2.596,0.673C143.702,134.377,144.075,132.454,144.062,130.506"/>
	<path class="domain_camera" fill="#DAF0F5" d="M141.421,130.629c-0.017-0.855-0.11-1.715-0.292-2.579c-0.569-2.736-1.923-5.349-4.007-7.772v-0.648   c2.084,2.424,3.438,5.037,4.007,7.772C141.357,128.485,141.451,129.562,141.421,130.629"/>
	<path class="domain_camera" fill="#D1DDFF" d="M0.015,67.602c0,0-0.016,3.707-0.015,3.946c0.096,11.456,15.036,21.375,33.366,21.375   c17.276,0,29.692-8.82,29.08-19.432l-0.002-2.243c0,0-4.33-18.535-33.363-18.535C7.058,52.712,0.015,67.602,0.015,67.602    M3.82,71.51c-0.02-2.702,1.135-5.25,3.436-7.58c4.602-4.629,12.764-7.399,21.825-7.399c14.405,0,27.57,7.075,29.355,15.782   c0.602,2.968-0.171,5.804-2.311,8.42c-4.209,5.164-12.935,8.372-22.759,8.372C17.699,89.104,3.896,80.885,3.82,71.51"/>
	<path class="domain_camera" fill="#616161" d="M24.338,70.98v-0.016h0.001C24.339,70.97,24.338,70.974,24.338,70.98"/>
	<path class="domain_camera" fill="#6E6FDA" d="M24.671,71.436c0,2.366,3.299,4.31,6.975,4.31c3.448,0,6.031-1.71,6.092-3.876l-0.01,5.962   c0.006,2.204-2.607,3.96-6.102,3.96c-3.676,0-6.804-1.944-7.007-4.311C24.607,77.351,24.671,71.436,24.671,71.436L24.671,71.436z"/>
	<path class="domain_camera" fill="#26E0BF" d="M30.682,67.241c3.578,0,6.718,1.864,7.016,4.195c0.302,2.366-2.428,4.31-6.106,4.31   c-3.676,0-6.824-1.944-7.027-4.31C24.364,69.104,27.104,67.241,30.682,67.241"/>
	<path class="domain_camera" fill="#BC4274" d="M28.616,67.153c1.228-0.83,3.343-0.83,4.737,0c0.763,0.456,1.157,1.068,1.155,1.668l-0.001,2.01   c-0.009,0.491-0.281,0.971-0.828,1.35c-1.233,0.85-3.38,0.85-4.781,0c-0.762-0.462-1.143-1.077-1.133-1.677v-1.987   C27.775,68.02,28.056,67.532,28.616,67.153"/>
	<path class="domain_camera" fill="#2D4383" d="M13.392,58.703c0.002-0.001,0.003-0.002,0.007-0.004c0.389-0.248,1.045-0.241,1.458,0.007L35.028,70.79   c0.367,0.219,0.902,0.266,1.306,0.113l2.08-0.785c0.403-0.153,0.938-0.106,1.307,0.112l14.461,8.028c0,0,0.306,0.749-0.139,1.227   c-0.701,0.758-1.514,1.486-2.445,2.173c-0.001,0.001-0.005,0.002-0.007,0.004c-0.387,0.287-1.093,0.279-1.566-0.007L28.636,68.768   c-0.36-0.216-0.89-0.262-1.295-0.111l-2.1,0.778c-0.408,0.152-0.937,0.106-1.296-0.112l-12.94-7.878   c-0.558-0.38-0.328-1.317-0.328-1.317S12.448,59.303,13.392,58.703"/>

	<path class="domain_camera" fill="#FF65A7" d="M13.392,57.809c0.002-0.002,0.003-0.002,0.007-0.003c0.193-0.123,0.448-0.183,0.709-0.184h0.001   c0.268,0.001,0.54,0.064,0.748,0.19l17.672,10.585l2.499,1.498c0.367,0.22,0.902,0.266,1.306,0.114l2.082-0.786   c0.403-0.151,0.936-0.106,1.305,0.113l14.041,8.326c0.42,0.247,0.546,0.641,0.281,0.929c-0.701,0.759-1.514,1.485-2.443,2.172   c-0.003,0.001-0.007,0.003-0.009,0.005c-0.387,0.285-1.091,0.278-1.566-0.007L31.113,69.364l-2.478-1.491   c-0.359-0.217-0.889-0.262-1.294-0.113l-2.1,0.78c-0.408,0.152-0.939,0.105-1.296-0.112l-12.94-7.879   c-0.367-0.222-0.438-0.575-0.152-0.831C11.604,59.046,12.45,58.408,13.392,57.809"/>
	<path class="domain_camera" fill="#713D23" d="M28.616,67.153c0.614-0.415,1.45-0.623,2.306-0.623s1.734,0.208,2.429,0.623   c1.401,0.834,1.553,2.197,0.327,3.041c-1.232,0.85-3.377,0.85-4.78,0C27.503,69.35,27.383,67.987,28.616,67.153"/>
	<path class="domain_camera" fill="#FFFFFF" d="M0,68.364C0.096,79.82,15.036,89.739,33.366,89.739c18.32,0,31.152-9.919,28.804-21.375   c-2.188-10.692-16.938-18.835-33.089-18.835C12.938,49.529-0.083,57.672,0,68.364 M3.82,68.327   c-0.02-2.703,1.135-5.251,3.436-7.581c4.602-4.629,12.764-7.398,21.825-7.398c14.405,0,27.57,7.074,29.355,15.781   c0.602,2.969-0.171,5.804-2.311,8.42c-4.209,5.164-12.935,8.372-22.759,8.372C17.699,85.92,3.896,77.701,3.82,68.327"/>
	<path class="domain_camera" fill="#FFDB5A" d="M57.115,59.624l2.208-0.605c2.265,2.609,3.748,5.426,4.388,8.377c0.653,3.008,0.394,5.985-0.797,8.846   l-2.597-0.672c1.122-2.639,1.386-5.39,0.804-8.174C60.551,64.66,59.196,62.046,57.115,59.624"/>
	<path class="domain_camera" fill="#DAF0F5" d="M64.053,70.5l0.008,0.008v2.997c0,3.266-1.147,5.737-1.147,5.737l-1.307-0.347v-2.344l-1.289-0.335V75.57   l2.596,0.672C63.693,74.371,64.064,72.448,64.053,70.5"/>
	<path class="domain_camera" fill="#DAF0F5" d="M61.412,70.623c-0.017-0.855-0.11-1.715-0.291-2.579c-0.57-2.736-1.924-5.349-4.008-7.773v-0.647   c2.084,2.423,3.438,5.037,4.008,7.772C61.348,68.478,61.442,69.555,61.412,70.623"/>
	<path class="domain_camera" fill="#D1DDFF" d="M75.262,18.073c0,0-0.017,3.706-0.015,3.946c0.096,11.456,15.036,21.375,33.366,21.375   c17.276,0,29.692-8.821,29.079-19.433l-0.001-2.243c0,0-4.33-18.535-33.363-18.535C82.305,3.183,75.262,18.073,75.262,18.073    M79.067,21.981c-0.021-2.703,1.135-5.251,3.436-7.58c4.602-4.63,12.764-7.399,21.825-7.399c14.405,0,27.57,7.074,29.355,15.781   c0.602,2.969-0.171,5.804-2.311,8.42c-4.209,5.165-12.935,8.372-22.759,8.372C92.947,39.575,79.143,31.355,79.067,21.981"/>
	<path class="domain_camera" fill="#616161" d="M99.584,21.452v-0.017h0.003C99.586,21.44,99.584,21.445,99.584,21.452"/>
	<path class="domain_camera" fill="#6E6FDA" d="M99.917,21.907c0,2.366,3.299,4.31,6.975,4.31c3.448,0,6.031-1.711,6.092-3.876l-0.01,5.962   c0.006,2.204-2.607,3.96-6.102,3.96c-3.676,0-6.805-1.945-7.008-4.311C99.854,27.822,99.917,21.907,99.917,21.907"/>
	<path class="domain_camera" fill="#26E0BF" d="M105.928,17.712c3.578,0,6.718,1.864,7.016,4.195c0.302,2.366-2.428,4.309-6.104,4.309   c-3.678,0-6.827-1.943-7.029-4.309C99.609,19.576,102.35,17.712,105.928,17.712"/>
	<path class="domain_camera" fill="#BC4274" d="M103.862,17.623c1.229-0.83,3.343-0.83,4.735,0c0.767,0.457,1.16,1.069,1.158,1.669l-0.002,2.01   c-0.009,0.49-0.281,0.971-0.828,1.349c-1.232,0.85-3.378,0.85-4.78,0c-0.763-0.462-1.145-1.077-1.134-1.676v-1.987   C103.022,18.49,103.302,18.003,103.862,17.623"/>
	<path class="domain_camera" fill="#2D4383" d="M88.639,9.175c0.001-0.002,0.003-0.004,0.007-0.005c0.389-0.248,1.045-0.242,1.458,0.006l17.672,10.587   l2.499,1.497c0.365,0.22,0.901,0.267,1.305,0.114l2.081-0.786c0.405-0.152,0.937-0.106,1.307,0.112l14.459,8.029   c0,0,0.308,0.749-0.138,1.227c-0.7,0.758-1.514,1.486-2.444,2.172c-0.002,0.001-0.005,0.004-0.007,0.005   c-0.387,0.286-1.093,0.279-1.566-0.007L106.358,20.73l-2.475-1.491c-0.36-0.218-0.89-0.263-1.296-0.113l-2.099,0.779   c-0.408,0.152-0.937,0.106-1.296-0.112l-12.94-7.878c-0.558-0.38-0.328-1.318-0.328-1.318S87.695,9.774,88.639,9.175"/>
	<path class="domain_camera" fill="#FF65A7" d="M88.639,8.28c0.001-0.002,0.003-0.003,0.007-0.004c0.191-0.123,0.45-0.183,0.708-0.183   c0.269,0,0.542,0.063,0.752,0.189l17.67,10.586l2.499,1.497c0.366,0.221,0.901,0.266,1.307,0.114l2.081-0.786   c0.403-0.151,0.935-0.106,1.305,0.113l14.041,8.327c0.419,0.247,0.546,0.642,0.28,0.929c-0.7,0.758-1.514,1.485-2.442,2.171   c-0.004,0.001-0.007,0.004-0.009,0.005c-0.387,0.286-1.091,0.28-1.566-0.007l-18.914-11.395l-2.475-1.491   c-0.36-0.217-0.89-0.262-1.296-0.113l-2.099,0.779c-0.408,0.153-0.939,0.106-1.296-0.112l-12.94-7.878   c-0.367-0.223-0.438-0.575-0.153-0.832C86.851,9.517,87.697,8.878,88.639,8.28"/>
	<path class="domain_camera" fill="#713D23" d="M103.862,17.623c0.614-0.415,1.45-0.622,2.306-0.622s1.734,0.207,2.429,0.622   c1.401,0.834,1.554,2.197,0.327,3.042c-1.231,0.849-3.377,0.849-4.779,0C102.75,19.82,102.629,18.457,103.862,17.623"/>
	<path class="domain_camera" fill="#FFFFFF" d="M75.247,18.835c0.096,11.456,15.036,21.375,33.366,21.375c18.32,0,31.151-9.919,28.804-21.375   C135.229,8.142,120.479,0,104.328,0C88.184,0,75.162,8.142,75.247,18.835 M79.067,18.797c-0.021-2.702,1.135-5.251,3.436-7.58   c4.602-4.63,12.764-7.399,21.825-7.399c14.405,0,27.57,7.074,29.355,15.781c0.602,2.969-0.171,5.804-2.311,8.419   c-4.209,5.165-12.935,8.373-22.759,8.373C92.947,36.391,79.143,28.172,79.067,18.797"/>
	<path class="domain_camera" fill="#FFDB5A" d="M132.36,10.094l2.209-0.606c2.266,2.61,3.749,5.426,4.389,8.378c0.652,3.008,0.394,5.986-0.797,8.847   l-2.595-0.674c1.12-2.638,1.382-5.39,0.802-8.173C135.798,15.131,134.443,12.518,132.36,10.094"/>
	<path class="domain_camera" fill="#DAF0F5" d="M139.299,20.97l0.008,0.008v2.997c0,3.266-1.147,5.737-1.147,5.737l-1.307-0.347v-2.344l-1.288-0.335V26.04   l2.595,0.673C138.939,24.841,139.312,22.918,139.299,20.97"/>
	<path class="domain_camera" fill="#DAF0F5" d="M136.659,21.094c-0.017-0.855-0.11-1.715-0.291-2.58c-0.57-2.736-1.924-5.348-4.008-7.772v-0.648   c2.084,2.425,3.438,5.037,4.008,7.772C136.595,18.949,136.688,20.025,136.659,21.094"/>
	<path class="domain_camera" fill="#D1DDFF" d="M157.175,73.316c0,0-0.017,3.707-0.013,3.947c0.094,11.456,15.034,21.375,33.364,21.375   c17.278,0,29.692-8.82,29.08-19.433l-0.001-2.243c0,0-4.331-18.534-33.364-18.534C164.221,58.428,157.175,73.316,157.175,73.316    M160.98,77.225c-0.019-2.702,1.135-5.251,3.436-7.58c4.601-4.63,12.764-7.399,21.825-7.399c14.405,0,27.57,7.075,29.355,15.781   c0.602,2.969-0.171,5.804-2.312,8.42c-4.209,5.165-12.935,8.372-22.759,8.372C174.86,94.819,161.057,86.599,160.98,77.225"/>
	<path class="domain_camera" fill="#616161" d="M181.497,76.696v-0.017h0.003C181.499,76.685,181.497,76.689,181.497,76.696"/>
	<path class="domain_camera" fill="#6E6FDA" d="M181.831,77.151c0,2.366,3.299,4.31,6.975,4.31c3.448,0,6.031-1.711,6.093-3.876l-0.011,5.962   c0.006,2.204-2.606,3.96-6.1,3.96c-3.679,0-6.807-1.945-7.009-4.311C181.767,83.066,181.831,77.151,181.831,77.151"/>
	<path class="domain_camera" fill="#26E0BF" d="M187.842,72.956c3.578,0,6.718,1.863,7.016,4.195c0.303,2.366-2.428,4.309-6.104,4.309   c-3.678,0-6.825-1.943-7.029-4.309C181.522,74.819,184.264,72.956,187.842,72.956"/>
	<path class="domain_camera" fill="#BC4274" d="M185.776,72.867c1.228-0.83,3.343-0.83,4.736,0c0.765,0.456,1.157,1.069,1.155,1.669v2.01   c-0.01,0.49-0.282,0.971-0.828,1.349c-1.233,0.85-3.379,0.85-4.781,0c-0.764-0.462-1.144-1.077-1.133-1.676v-1.987   C184.936,73.734,185.217,73.246,185.776,72.867"/>
	<path class="domain_camera" fill="#2D4383" d="M170.552,64.419c0.002-0.002,0.003-0.003,0.007-0.005c0.39-0.248,1.045-0.241,1.458,0.006l17.672,10.587   l2.498,1.497c0.367,0.22,0.901,0.267,1.306,0.114l2.083-0.786c0.403-0.152,0.935-0.105,1.304,0.113l14.461,8.029   c0,0,0.307,0.747-0.139,1.226c-0.7,0.758-1.513,1.486-2.444,2.172c-0.002,0.002-0.005,0.004-0.005,0.005   c-0.389,0.286-1.093,0.279-1.567-0.007l-18.914-11.395l-2.476-1.491c-0.359-0.217-0.89-0.263-1.296-0.112l-2.099,0.778   c-0.408,0.152-0.938,0.106-1.296-0.112l-12.94-7.878c-0.558-0.38-0.328-1.318-0.328-1.318S169.608,65.018,170.552,64.419"/>
	<path class="domain_camera" fill="#FF65A7" d="M170.552,63.524c0.002-0.001,0.003-0.003,0.007-0.004c0.193-0.123,0.45-0.183,0.709-0.183h0.001   c0.267,0,0.54,0.063,0.75,0.189l17.67,10.586l2.498,1.498c0.367,0.22,0.901,0.266,1.308,0.113l2.081-0.786   c0.403-0.151,0.935-0.105,1.304,0.113l14.042,8.327c0.419,0.247,0.546,0.642,0.28,0.929c-0.7,0.758-1.513,1.486-2.442,2.171   c-0.004,0.001-0.007,0.003-0.009,0.005c-0.387,0.287-1.091,0.28-1.565-0.007L188.273,75.08l-2.478-1.492   c-0.359-0.216-0.89-0.261-1.294-0.111l-2.099,0.778c-0.41,0.153-0.939,0.105-1.298-0.112l-12.94-7.878   c-0.367-0.223-0.438-0.575-0.152-0.832C168.764,64.762,169.61,64.123,170.552,63.524"/>
	<path class="domain_camera" fill="#713D23" d="M185.777,72.867c0.612-0.415,1.448-0.622,2.305-0.622c0.855,0,1.733,0.207,2.429,0.622   c1.401,0.835,1.554,2.197,0.327,3.042c-1.232,0.849-3.377,0.849-4.779,0C184.663,75.064,184.543,73.702,185.777,72.867"/>
	<path class="domain_camera" fill="#FFFFFF" d="M157.163,74.08c0.094,11.456,15.034,21.374,33.364,21.374c18.32,0,31.152-9.918,28.804-21.374   c-2.187-10.693-16.936-18.836-33.089-18.836C170.098,55.243,157.076,63.386,157.163,74.08 M160.98,74.042   c-0.019-2.703,1.135-5.251,3.436-7.58c4.601-4.63,12.764-7.399,21.825-7.399c14.405,0,27.57,7.074,29.355,15.781   c0.602,2.969-0.171,5.804-2.312,8.42c-4.209,5.164-12.935,8.372-22.759,8.372C174.86,91.635,161.057,83.417,160.98,74.042"/>
	<path class="domain_camera" fill="#FFDB5A" d="M214.275,65.338l2.207-0.605c2.266,2.609,3.75,5.425,4.39,8.377c0.653,3.008,0.393,5.986-0.797,8.846   l-2.597-0.673c1.12-2.638,1.384-5.389,0.804-8.173C217.711,70.375,216.355,67.762,214.275,65.338"/>
	<path class="domain_camera" fill="#DAF0F5" d="M221.214,76.214l0.008,0.009v2.996c0,3.266-1.146,5.737-1.146,5.737l-1.308-0.346v-2.345l-1.288-0.334   v-0.647l2.596,0.673C220.854,80.085,221.226,78.162,221.214,76.214"/>
	<path class="domain_camera" fill="#DAF0F5" d="M218.572,76.338c-0.017-0.856-0.11-1.716-0.291-2.579c-0.57-2.737-1.924-5.35-4.007-7.773v-0.648   c2.083,2.425,3.437,5.038,4.007,7.772C218.508,74.193,218.603,75.27,218.572,76.338"/>



	<path class="domain_stroke" fill="#2D4383" d="M262.717,87.423c0-0.233,0.078-0.377,0.234-0.433c0.157-0.055,0.36-0.005,0.611,0.148   c0.243,0.15,0.444,0.349,0.605,0.597c0.162,0.249,0.242,0.491,0.242,0.728c0,0.24-0.081,0.383-0.244,0.429   s-0.365-0.006-0.604-0.153c-0.244-0.149-0.446-0.347-0.606-0.593C262.797,87.901,262.717,87.66,262.717,87.423"/>
	<path class="domain_stroke" fill="#2D4383" d="M267.678,90.105c0.423,0.259,0.638,0.116,0.645-0.428l1.369,0.841c-0.007,0.603-0.195,0.979-0.563,1.127   c-0.365,0.148-0.84,0.044-1.42-0.312c-0.717-0.44-1.264-0.999-1.641-1.677c-0.378-0.678-0.57-1.453-0.577-2.325v-0.443   c0-0.875,0.186-1.428,0.558-1.659c0.373-0.231,0.924-0.123,1.65,0.324c0.614,0.377,1.098,0.864,1.452,1.46   c0.352,0.596,0.533,1.245,0.54,1.946l-1.369-0.842c-0.003-0.314-0.055-0.586-0.155-0.815c-0.099-0.229-0.264-0.414-0.494-0.556   c-0.254-0.156-0.435-0.177-0.546-0.065c-0.108,0.113-0.168,0.426-0.175,0.94v0.566c0,0.453,0.023,0.783,0.068,0.991   c0.045,0.207,0.118,0.385,0.221,0.532C267.344,89.857,267.49,89.989,267.678,90.105"/>
	<path class="domain_stroke" fill="#2D4383" d="M270.344,89.885c0-0.843,0.199-1.383,0.598-1.619c0.397-0.236,0.949-0.138,1.651,0.294   c0.71,0.437,1.266,1.017,1.662,1.742c0.399,0.725,0.598,1.513,0.598,2.364v0.355c0,0.847-0.197,1.388-0.593,1.623   c-0.394,0.234-0.945,0.133-1.655-0.304c-0.714-0.438-1.27-1.018-1.665-1.74c-0.397-0.722-0.596-1.509-0.596-2.36V89.885z    M271.807,91.149c0,0.995,0.266,1.656,0.798,1.982c0.489,0.302,0.754,0.049,0.792-0.758l0.005-0.609   c0-0.508-0.071-0.928-0.211-1.26c-0.142-0.332-0.34-0.576-0.598-0.734c-0.247-0.152-0.439-0.148-0.578,0.012   c-0.14,0.16-0.208,0.493-0.208,1.001V91.149z"/>
	<path class="domain_stroke" fill="#2D4383" d="M277.127,91.449l0.041,0.54c0.326-0.211,0.757-0.153,1.292,0.176c0.557,0.342,0.948,0.833,1.179,1.475   c0.318-0.305,0.773-0.275,1.363,0.087c0.976,0.598,1.475,1.579,1.497,2.942v3.649l-1.456-0.895v-3.556   c0-0.322-0.045-0.58-0.134-0.772c-0.089-0.191-0.24-0.353-0.453-0.483c-0.27-0.167-0.474-0.125-0.606,0.126l0.01,0.181v3.777   l-1.456-0.894v-3.546c0-0.32-0.043-0.577-0.129-0.772c-0.085-0.195-0.238-0.36-0.458-0.494c-0.251-0.155-0.449-0.141-0.597,0.039   v4.045l-1.456-0.895V90.61L277.127,91.449z"/>
	<path class="domain_stroke" fill="#2D4383" d="M287.103,102.405c0-0.233,0.078-0.377,0.233-0.433c0.157-0.055,0.36-0.005,0.611,0.149   c0.243,0.149,0.445,0.348,0.606,0.596c0.161,0.249,0.241,0.492,0.241,0.728c0,0.24-0.081,0.383-0.244,0.429   s-0.364-0.005-0.604-0.153c-0.244-0.149-0.446-0.347-0.605-0.592C287.182,102.883,287.103,102.642,287.103,102.405"/>
	<path class="domain_stroke" fill="#2D4383" d="M291.385,100.208l0.041,0.576c0.329-0.234,0.76-0.187,1.291,0.14c0.957,0.588,1.449,1.561,1.478,2.919   v3.659l-1.461-0.898v-3.55c0-0.316-0.048-0.574-0.143-0.775c-0.095-0.2-0.26-0.373-0.496-0.518   c-0.265-0.162-0.471-0.154-0.617,0.027v4.045l-1.462-0.898v-5.568L291.385,100.208z"/>
	<path class="domain_stroke" fill="#2D4383" d="M297.488,109.629c-0.748-0.459-1.331-1.041-1.75-1.744s-0.629-1.47-0.629-2.3v-0.443   c0-0.878,0.192-1.438,0.577-1.679c0.384-0.24,0.936-0.14,1.652,0.3c0.7,0.43,1.226,0.977,1.58,1.641   c0.353,0.664,0.533,1.437,0.54,2.319v0.714l-2.898-1.781c0.022,0.427,0.113,0.785,0.274,1.075c0.161,0.291,0.41,0.539,0.746,0.746   c0.486,0.299,0.893,0.382,1.22,0.25l0.571,1.231c-0.18,0.137-0.438,0.178-0.778,0.122   C298.255,110.024,297.886,109.874,297.488,109.629 M296.572,105.649l1.455,0.895v-0.134c-0.007-0.337-0.061-0.623-0.163-0.858   c-0.104-0.235-0.281-0.43-0.535-0.586c-0.254-0.156-0.439-0.178-0.555-0.067C296.66,105.01,296.593,105.26,296.572,105.649"/>
	<path class="domain_stroke" fill="#2D4383" d="M301.975,105.346v1.369l0.746,0.459v1.09l-0.746-0.458v2.768c0,0.22,0.03,0.389,0.091,0.509   c0.06,0.119,0.177,0.232,0.347,0.337c0.141,0.086,0.256,0.145,0.345,0.176l-0.01,1.125c-0.247-0.059-0.514-0.177-0.802-0.354   c-0.941-0.577-1.416-1.408-1.426-2.493v-2.963l-0.645-0.395v-1.091l0.645,0.395v-1.369L301.975,105.346z"/>
	<path class="domain_stroke" fill="#2D4383" d="M308.027,115.26c0-0.233,0.077-0.377,0.232-0.433c0.157-0.054,0.36-0.005,0.611,0.149   c0.243,0.149,0.445,0.348,0.606,0.597c0.161,0.248,0.241,0.491,0.241,0.728c0,0.239-0.081,0.382-0.244,0.428   s-0.363-0.005-0.604-0.153c-0.244-0.149-0.446-0.347-0.605-0.592C308.105,115.738,308.027,115.497,308.027,115.26"/>
	<path class="domain_stroke" fill="#2D4383" d="M310.805,114.745c0-0.844,0.199-1.384,0.599-1.62c0.396-0.236,0.948-0.138,1.65,0.295   c0.71,0.436,1.266,1.016,1.662,1.741c0.399,0.725,0.599,1.513,0.599,2.364v0.354c0,0.847-0.197,1.388-0.593,1.623   c-0.394,0.234-0.946,0.133-1.656-0.303c-0.714-0.439-1.27-1.019-1.665-1.741c-0.397-0.722-0.596-1.508-0.596-2.359V114.745z    M312.268,116.008c0,0.995,0.266,1.656,0.798,1.982c0.489,0.302,0.755,0.049,0.792-0.758l0.006-0.609   c0-0.508-0.071-0.927-0.211-1.26c-0.142-0.331-0.34-0.576-0.599-0.734c-0.247-0.152-0.438-0.148-0.579,0.012   c-0.139,0.16-0.207,0.494-0.207,1.002V116.008z"/>
	<path class="domain_stroke" fill="#2D4383" d="M318.967,118.56l-0.482-0.338c-0.399-0.245-0.667-0.235-0.81,0.028v3.68l-1.461-0.898v-5.569l1.374,0.845   l0.041,0.627c0.23-0.329,0.547-0.369,0.952-0.12c0.165,0.101,0.299,0.206,0.402,0.313L318.967,118.56z"/>
	<path class="domain_stroke" fill="#2D4383" d="M319.441,120.061c0-0.913,0.165-1.493,0.493-1.74c0.329-0.247,0.791-0.188,1.385,0.176   c0.505,0.31,0.894,0.748,1.169,1.315l0.056-0.459l1.313,0.806v5.568c0,0.711-0.198,1.131-0.598,1.262   c-0.396,0.131-0.968-0.032-1.714-0.489c-0.304-0.188-0.626-0.446-0.961-0.774c-0.336-0.328-0.587-0.637-0.751-0.927l0.488-0.708   c0.138,0.228,0.314,0.455,0.535,0.681c0.22,0.226,0.428,0.399,0.622,0.519c0.326,0.2,0.561,0.266,0.702,0.197   c0.144-0.068,0.217-0.275,0.22-0.62v-0.478c-0.277,0.193-0.641,0.152-1.086-0.122c-0.595-0.364-1.053-0.877-1.377-1.538   c-0.323-0.66-0.489-1.413-0.496-2.258V120.061z M320.897,121.321c0,0.514,0.066,0.93,0.2,1.248   c0.135,0.317,0.348,0.565,0.639,0.744c0.299,0.183,0.52,0.212,0.664,0.084v-2.661c-0.15-0.33-0.369-0.582-0.653-0.756   c-0.288-0.178-0.502-0.19-0.641-0.039c-0.14,0.151-0.209,0.489-0.209,1.014V121.321z"/>
	<path class="domain_stroke" fill="#2D4383" d="M262.717,98.313c0-0.233,0.078-0.377,0.234-0.433c0.157-0.055,0.36-0.005,0.611,0.149   c0.243,0.149,0.444,0.348,0.605,0.596c0.162,0.249,0.242,0.492,0.242,0.728c0,0.24-0.081,0.383-0.244,0.429   s-0.365-0.005-0.604-0.153c-0.244-0.149-0.446-0.347-0.606-0.593C262.797,98.792,262.717,98.55,262.717,98.313"/>
	<path class="domain_stroke" fill="#2D4383" d="M270.01,100.93c0,0.903-0.145,1.491-0.433,1.765s-0.741,0.222-1.358-0.158   c-0.483-0.297-0.871-0.753-1.162-1.368l-0.048,0.522l-1.343-0.825v-7.905l1.456,0.895v2.789c0.275-0.202,0.637-0.164,1.086,0.111   c0.618,0.38,1.071,0.882,1.359,1.507s0.436,1.371,0.442,2.24V100.93z M268.553,99.67c0-0.586-0.057-1.015-0.17-1.285   c-0.112-0.271-0.31-0.492-0.592-0.665c-0.304-0.187-0.527-0.186-0.669,0.006v2.537c0.131,0.341,0.358,0.611,0.68,0.808   c0.277,0.171,0.472,0.199,0.579,0.083c0.108-0.115,0.165-0.433,0.172-0.954V99.67z"/>
	<path class="domain_stroke" fill="#2D4383" d="M270.885,97.063c0-0.226,0.072-0.367,0.217-0.423c0.143-0.056,0.335-0.01,0.576,0.138   c0.24,0.148,0.432,0.337,0.576,0.57c0.144,0.233,0.217,0.462,0.217,0.689c0,0.223-0.072,0.364-0.214,0.424   c-0.144,0.06-0.336,0.016-0.579-0.134c-0.243-0.149-0.438-0.342-0.579-0.577C270.956,97.515,270.885,97.286,270.885,97.063    M272.414,105.011l-1.463-0.898v-5.568l1.463,0.898V105.011z"/>
	<polygon class="domain_stroke" fill="#2D4383" points="275.151,105.484 277.354,106.838 277.354,108.047 273.422,105.631 273.422,104.72 275.573,102.599    273.473,101.309 273.473,100.095 277.323,102.46 277.323,103.339  "/>
	<path class="domain_stroke" fill="#2D4383" d="M286.695,113.046c0-0.233,0.078-0.377,0.234-0.433c0.157-0.055,0.36-0.005,0.611,0.149   c0.243,0.149,0.444,0.348,0.605,0.596c0.162,0.249,0.242,0.491,0.242,0.728c0,0.24-0.081,0.383-0.244,0.429   s-0.363-0.005-0.604-0.153c-0.244-0.149-0.446-0.347-0.606-0.593C286.775,113.524,286.695,113.283,286.695,113.046"/>
	<path class="domain_stroke" fill="#2D4383" d="M292.382,116.771c-0.302,0.223-0.706,0.178-1.214-0.134c-0.512-0.314-0.898-0.728-1.163-1.241   c-0.265-0.515-0.396-1.108-0.396-1.78v-3.608l1.456,0.895v3.643c0.006,0.547,0.187,0.929,0.541,1.145   c0.332,0.205,0.572,0.208,0.719,0.011v-4.024l1.467,0.901v5.568l-1.368-0.841L292.382,116.771z"/>
	<polygon class="domain_stroke" fill="#2D4383" points="296.681,117.775 296.288,117.972 296.288,119.681 294.832,118.786 294.832,110.881    296.288,111.776 296.288,116.047 296.469,115.89 297.479,114.843 299.211,115.908 297.596,117.211 299.367,121.571    297.699,120.547  "/>
	<path class="domain_stroke" fill="#2D4383" d="M309.24,126.897c0-0.233,0.078-0.377,0.234-0.433c0.157-0.055,0.36-0.005,0.611,0.148   c0.243,0.15,0.444,0.349,0.605,0.597c0.162,0.249,0.242,0.491,0.242,0.728c0,0.24-0.081,0.383-0.244,0.429   s-0.363-0.006-0.604-0.153c-0.244-0.149-0.446-0.347-0.606-0.593C309.32,127.375,309.24,127.133,309.24,126.897"/>
	<path class="domain_stroke" fill="#2D4383" d="M314.202,129.58c0.423,0.259,0.637,0.116,0.644-0.428l1.369,0.841c-0.007,0.603-0.195,0.979-0.563,1.127   c-0.365,0.148-0.84,0.044-1.42-0.312c-0.717-0.44-1.264-0.999-1.641-1.678c-0.377-0.677-0.57-1.452-0.577-2.324v-0.443   c0-0.875,0.187-1.428,0.559-1.659s0.923-0.123,1.649,0.324c0.614,0.377,1.098,0.864,1.452,1.46c0.352,0.596,0.533,1.245,0.54,1.946   l-1.369-0.842c-0.003-0.314-0.055-0.586-0.155-0.815c-0.099-0.229-0.263-0.414-0.494-0.556c-0.254-0.156-0.435-0.177-0.545-0.065   c-0.109,0.113-0.169,0.426-0.176,0.94v0.566c0,0.453,0.023,0.783,0.068,0.991c0.045,0.207,0.118,0.385,0.221,0.532   S314.014,129.464,314.202,129.58"/>
	<path class="domain_stroke" fill="#2D4383" d="M317.038,125.419c0-0.227,0.071-0.368,0.216-0.424c0.144-0.055,0.336-0.009,0.577,0.139   c0.24,0.147,0.431,0.337,0.576,0.57c0.143,0.232,0.216,0.462,0.216,0.688c0,0.224-0.072,0.365-0.214,0.425   c-0.143,0.06-0.335,0.015-0.578-0.135c-0.244-0.149-0.438-0.341-0.579-0.576C317.109,125.871,317.038,125.642,317.038,125.419    M318.565,133.368l-1.461-0.898v-5.568l1.461,0.898V133.368z"/>
	<path class="domain_stroke" fill="#2D4383" d="M321.386,128.163v1.369l0.746,0.458v1.091l-0.746-0.458v2.768c0,0.22,0.03,0.389,0.091,0.509   c0.06,0.119,0.176,0.231,0.347,0.337c0.141,0.086,0.256,0.145,0.345,0.176l-0.011,1.125c-0.246-0.059-0.514-0.177-0.802-0.354   c-0.94-0.578-1.415-1.409-1.426-2.493v-2.963l-0.644-0.395v-1.091l0.644,0.395v-1.369L321.386,128.163z"/>
	<path class="domain_stroke" fill="#2D4383" d="M324.717,134.722l0.739-2.689l1.556,0.955l-1.832,5.276c-0.275,0.775-0.791,0.929-1.55,0.463   c-0.176-0.107-0.374-0.262-0.598-0.464v-1.137l0.17,0.109c0.228,0.139,0.398,0.2,0.513,0.184c0.114-0.017,0.201-0.116,0.261-0.296   l0.112-0.306l-1.605-6.612l1.563,0.961L324.717,134.722z"/>
	<path class="domain_stroke" fill="#2D4383" d="M262.717,109.204c0-0.233,0.078-0.377,0.234-0.433c0.157-0.054,0.36-0.005,0.611,0.149   c0.243,0.15,0.444,0.348,0.605,0.597c0.162,0.248,0.242,0.491,0.242,0.728c0,0.239-0.081,0.382-0.244,0.428   s-0.365-0.005-0.604-0.153c-0.244-0.149-0.446-0.347-0.606-0.592C262.797,109.682,262.717,109.441,262.717,109.204"/>
	<path class="domain_stroke" fill="#2D4383" d="M267.678,111.887c0.423,0.259,0.638,0.117,0.645-0.428l1.369,0.841c-0.007,0.603-0.195,0.979-0.563,1.127   c-0.365,0.148-0.84,0.044-1.42-0.311c-0.717-0.441-1.264-1-1.641-1.678c-0.378-0.678-0.57-1.453-0.577-2.325v-0.443   c0-0.875,0.186-1.428,0.558-1.659c0.373-0.231,0.924-0.123,1.65,0.324c0.614,0.377,1.098,0.864,1.452,1.46   c0.352,0.596,0.533,1.245,0.54,1.946l-1.369-0.841c-0.003-0.315-0.055-0.586-0.155-0.816c-0.099-0.229-0.264-0.414-0.494-0.555   c-0.254-0.156-0.435-0.178-0.546-0.065c-0.108,0.112-0.168,0.425-0.175,0.94v0.566c0,0.452,0.023,0.783,0.068,0.99   c0.045,0.208,0.118,0.385,0.221,0.532S267.49,111.771,267.678,111.887"/>
	<path class="domain_stroke" fill="#2D4383" d="M270.344,111.667c0-0.844,0.199-1.384,0.598-1.62c0.397-0.236,0.949-0.138,1.651,0.295   c0.71,0.436,1.266,1.016,1.662,1.741c0.399,0.725,0.598,1.513,0.598,2.364v0.355c0,0.847-0.197,1.388-0.593,1.623   c-0.394,0.234-0.945,0.133-1.655-0.303c-0.714-0.439-1.27-1.019-1.665-1.741c-0.397-0.722-0.596-1.509-0.596-2.359V111.667z    M271.807,112.93c0,0.995,0.266,1.656,0.798,1.982c0.489,0.302,0.754,0.049,0.792-0.758l0.005-0.609   c0-0.508-0.071-0.927-0.211-1.26c-0.142-0.331-0.34-0.576-0.598-0.734c-0.247-0.152-0.439-0.148-0.578,0.012   c-0.14,0.16-0.208,0.494-0.208,1.002V112.93z"/>
	<path class="domain_stroke" fill="#2D4383" d="M286.573,123.861c0-0.233,0.077-0.377,0.233-0.433c0.157-0.055,0.36-0.005,0.61,0.148   c0.244,0.15,0.446,0.349,0.606,0.597c0.161,0.249,0.242,0.491,0.242,0.728c0,0.24-0.082,0.383-0.245,0.429   s-0.363-0.006-0.604-0.153c-0.243-0.149-0.446-0.347-0.605-0.593C286.652,124.339,286.573,124.097,286.573,123.861"/>
	<path class="domain_stroke" fill="#2D4383" d="M291.77,127.898c-0.747-0.459-1.33-1.041-1.748-1.744c-0.42-0.703-0.629-1.47-0.629-2.3v-0.443   c0-0.878,0.191-1.437,0.576-1.679c0.384-0.24,0.936-0.14,1.653,0.3c0.699,0.43,1.225,0.977,1.579,1.642   c0.353,0.664,0.534,1.436,0.541,2.318v0.714l-2.898-1.78c0.021,0.426,0.112,0.784,0.273,1.075c0.161,0.29,0.41,0.538,0.746,0.745   c0.486,0.299,0.893,0.382,1.22,0.25l0.571,1.231c-0.18,0.137-0.438,0.178-0.778,0.122   C292.538,128.292,292.168,128.143,291.77,127.898 M290.854,123.917l1.457,0.896v-0.134c-0.007-0.337-0.062-0.623-0.164-0.858   c-0.104-0.234-0.281-0.43-0.535-0.586c-0.254-0.155-0.439-0.178-0.555-0.067C290.943,123.279,290.875,123.529,290.854,123.917"/>
	<path class="domain_stroke" fill="#2D4383" d="M294.369,126.438c0-0.913,0.154-1.499,0.464-1.759c0.309-0.259,0.758-0.208,1.349,0.154   c0.428,0.264,0.785,0.668,1.07,1.214v-2.789l1.467,0.901v7.904l-1.324-0.812l-0.066-0.607c-0.299,0.262-0.683,0.249-1.152-0.04   c-0.583-0.358-1.029-0.854-1.335-1.489c-0.309-0.635-0.464-1.387-0.472-2.255V126.438z M295.831,127.701   c0,0.549,0.059,0.968,0.175,1.258c0.117,0.289,0.313,0.519,0.592,0.69c0.288,0.177,0.506,0.182,0.654,0.016v-2.543   c-0.146-0.362-0.36-0.632-0.649-0.81c-0.267-0.164-0.463-0.176-0.586-0.036c-0.124,0.14-0.186,0.487-0.186,1.039V127.701z"/>
	<path class="domain_stroke" fill="#2D4383" d="M302.526,133.894c-0.303,0.223-0.707,0.178-1.216-0.134c-0.511-0.314-0.897-0.728-1.162-1.242   c-0.265-0.514-0.396-1.107-0.396-1.78v-3.607l1.456,0.895v3.643c0.006,0.546,0.187,0.928,0.54,1.145   c0.333,0.205,0.573,0.208,0.72,0.011V128.8l1.467,0.902v5.567l-1.369-0.84L302.526,133.894z"/>
	<path class="domain_stroke" fill="#2D4383" d="M309.482,137.937c0-0.233,0.078-0.377,0.234-0.433c0.157-0.054,0.36-0.005,0.61,0.149   c0.244,0.15,0.445,0.348,0.606,0.597c0.161,0.248,0.242,0.491,0.242,0.728c0,0.239-0.082,0.382-0.245,0.428   c-0.162,0.046-0.364-0.005-0.604-0.153c-0.243-0.149-0.446-0.347-0.605-0.592C309.563,138.415,309.482,138.173,309.482,137.937"/>
	<path class="domain_stroke" fill="#2D4383" d="M314.443,140.619c0.423,0.259,0.638,0.117,0.645-0.428l1.369,0.841c-0.007,0.603-0.195,0.979-0.563,1.127   c-0.367,0.148-0.841,0.044-1.42-0.311c-0.718-0.441-1.264-1-1.641-1.678c-0.378-0.678-0.571-1.453-0.578-2.325v-0.443   c0-0.875,0.187-1.428,0.559-1.659c0.372-0.231,0.922-0.123,1.65,0.324c0.614,0.377,1.097,0.864,1.451,1.46   c0.353,0.596,0.534,1.245,0.541,1.946l-1.369-0.841c-0.004-0.315-0.055-0.586-0.155-0.816c-0.099-0.229-0.264-0.414-0.494-0.555   c-0.254-0.156-0.435-0.178-0.546-0.065c-0.108,0.112-0.168,0.425-0.175,0.94v0.566c0,0.452,0.023,0.783,0.068,0.99   c0.044,0.208,0.117,0.385,0.221,0.532C314.109,140.371,314.256,140.503,314.443,140.619"/>
	<path class="domain_stroke" fill="#2D4383" d="M317.109,140.399c0-0.844,0.199-1.384,0.598-1.62c0.397-0.236,0.949-0.138,1.651,0.295   c0.71,0.436,1.265,1.016,1.662,1.741c0.398,0.725,0.598,1.513,0.598,2.364v0.355c0,0.847-0.197,1.388-0.593,1.623   c-0.394,0.234-0.946,0.133-1.656-0.303c-0.713-0.439-1.27-1.019-1.665-1.741c-0.396-0.722-0.595-1.509-0.595-2.359V140.399z    M318.57,141.663c0,0.995,0.268,1.656,0.799,1.982c0.49,0.302,0.755,0.049,0.793-0.758l0.005-0.609c0-0.508-0.071-0.927-0.211-1.26   c-0.142-0.331-0.34-0.576-0.598-0.734c-0.247-0.152-0.439-0.148-0.579,0.012c-0.139,0.16-0.209,0.494-0.209,1.002V141.663z"/>
	<path class="domain_stroke" fill="#2D4383" d="M322.643,146.021c0-0.233,0.077-0.377,0.233-0.433c0.156-0.055,0.36-0.005,0.61,0.149   c0.243,0.149,0.445,0.348,0.606,0.596c0.161,0.249,0.242,0.491,0.242,0.728c0,0.24-0.082,0.383-0.245,0.429   s-0.363-0.005-0.604-0.153c-0.243-0.149-0.446-0.347-0.605-0.593C322.721,146.5,322.643,146.258,322.643,146.021"/>
	<path class="domain_stroke" fill="#2D4383" d="M328.328,149.747c-0.302,0.223-0.706,0.178-1.215-0.134c-0.511-0.314-0.897-0.728-1.163-1.242   c-0.264-0.514-0.396-1.107-0.396-1.78v-3.607l1.457,0.894v3.644c0.006,0.546,0.186,0.928,0.54,1.145   c0.333,0.205,0.573,0.208,0.72,0.011v-4.025l1.467,0.901v5.568l-1.369-0.84L328.328,149.747z"/>
	<polygon class="domain_stroke" fill="#2D4383" points="332.625,150.75 332.234,150.947 332.234,152.656 330.777,151.761 330.777,143.856 332.234,144.751    332.234,149.022 332.414,148.865 333.424,147.818 335.157,148.883 333.541,150.187 335.313,154.546 333.646,153.522  "/>
</g>
</svg>