<?xml version="1.0" encoding="UTF-8"?>
<svg xmlns="http://www.w3.org/2000/svg" xmlns:xlink="http://www.w3.org/1999/xlink" viewBox="0 0 350 255"><defs><style>.cls-1{opacity:0.5;}.cls-2{fill:#b4b4d3;}.cls-3{fill:#babcbe;}.cls-4{fill:#292949;}.cls-5{fill:url(#linear-gradient);}.cls-6{fill:#a0675c;}.cls-7{fill:url(#linear-gradient-2);}.cls-8{fill:url(#linear-gradient-3);}.cls-9{fill:url(#linear-gradient-4);}.cls-10{fill:#dddae8;}.cls-11{fill:url(#linear-gradient-5);}.cls-12{fill:url(#linear-gradient-6);}.cls-13{fill:#ececec;}.cls-14{fill:#8cabef;}.cls-15{fill:#d67086;}.cls-16{opacity:0.36;}.cls-17{fill:#252526;}.cls-18{fill:#474ebb;}.cls-19{fill:#e1cfb5;}.cls-20{fill:#eac2a7;}.cls-21{fill:#3b3387;}.cls-22{fill:#f7f7f7;}.cls-23{fill:#353a85;}.cls-24{fill:#fff;}.cls-25{fill:url(#linear-gradient-7);}.cls-26{fill:#323643;}.cls-27{fill:#f3dc38;}.cls-28{fill:url(#linear-gradient-8);}.cls-29{fill:url(#linear-gradient-9);}.cls-30{fill:url(#linear-gradient-10);}</style><linearGradient id="linear-gradient" x1="268.83" y1="136.73" x2="308.73" y2="136.73" gradientUnits="userSpaceOnUse"><stop offset="0" stop-color="#1f16a6"/><stop offset="1" stop-color="#9024e5"/></linearGradient><linearGradient id="linear-gradient-2" x1="290.25" y1="93.12" x2="310.86" y2="93.12" xlink:href="#linear-gradient"/><linearGradient id="linear-gradient-3" x1="266.15" y1="123.1" x2="293.35" y2="123.1" xlink:href="#linear-gradient"/><linearGradient id="linear-gradient-4" x1="302.96" y1="96.49" x2="320.54" y2="96.49" xlink:href="#linear-gradient"/><linearGradient id="linear-gradient-5" x1="42.18" y1="63.91" x2="285.45" y2="63.91" gradientUnits="userSpaceOnUse"><stop offset="0" stop-color="#435efa"/><stop offset="1" stop-color="#9024e5"/></linearGradient><linearGradient id="linear-gradient-6" x1="42.18" y1="74.58" x2="285.45" y2="74.58" xlink:href="#linear-gradient"/><linearGradient id="linear-gradient-7" x1="92.5" y1="186.69" x2="204.71" y2="186.69" xlink:href="#linear-gradient"/><linearGradient id="linear-gradient-8" x1="107.92" y1="28.37" x2="146.92" y2="28.37" xlink:href="#linear-gradient"/><linearGradient id="linear-gradient-9" x1="148.24" y1="28.21" x2="187.24" y2="28.21" xlink:href="#linear-gradient"/><linearGradient id="linear-gradient-10" x1="188.57" y1="28.06" x2="227.57" y2="28.06" xlink:href="#linear-gradient"/></defs><title>domain-icon</title><g id="Shadow"><g class="cls-1"><path class="cls-2" d="M160.57,208.72a229.29,229.29,0,0,0-30.73,1.76c-3.86.53-7.63,1.7-11.5,2.17-7.72.95-15.31,2.71-23.06,3.52-6.24.65-12.51,1-18.73,1.87a53.15,53.15,0,0,1-18.09-.69c-4.28-.95-8.59-1.49-12.8-3a43,43,0,0,0-14.75-2.89c-7,.06-13.83.07-20.53,3.09a19.79,19.79,0,0,0-7,5c-4.09,5.09-4.64,17.79-.56,23.07C9.68,251.51,24.36,255,34,255.17c10.57.18,20.83-.8,31.42-1.37,9.83-.53,19.64-1.29,29.48-1.26,20.12.05,40.24,0,60.32-1.67,18.86-1.57,37.77-1,56.68-1,19.39,0,38.64.19,57.89,3.39,8.39,1.39,16.93,1.88,25.36,2.86,7.55.87,14.8,0,22.32-.83a45.51,45.51,0,0,0,18.32-6.09c4.54-2.69,12.63-11.06,14-17.48,3.91-18-55-17.59-64.05-17.55-10.12.05-20.31.46-30.42,0a58.8,58.8,0,0,1-12.6-2.36c-4.13-1.13-8.3-.84-12.49-1.31-17.49-2-35-1.69-52.55-1.69C172,208.76,166.28,208.7,160.57,208.72Z" transform="translate(0 -1.45)"/></g></g><g id="Object"><polygon class="cls-3" points="304.76 163.47 305.7 185.35 302.94 222.56 298.81 222.85 293.79 189.06 286.85 160.46 304.76 163.47"/><polygon class="cls-4" points="298.96 224.59 303.58 226.51 305.66 224.12 303.27 222.04 298.8 222.35 298.96 224.59"/><polygon class="cls-3" points="275.52 155.72 274.61 172.26 277.3 221.44 281.44 221.65 287.64 189.39 293.11 154.02 275.52 155.72"/><polygon class="cls-4" points="281.33 223.4 276.75 225.41 274.62 223.06 276.97 220.93 281.44 221.16 281.33 223.4"/><path class="cls-5" d="M305.84,109.82l-12.49-3.52s-7.21-.44-14.86,15.59c-4.25,8.91-7.56,23.54-9.66,34.76,0,1.66.59,9,8.17,9,13,.1,20.12-.81,25.47,1.16,4.53,1.82,5.22-4.74,5.54-9.78l.72-15.63Z" transform="translate(0 -1.45)"/><path class="cls-6" d="M306.07,93.54c-3.09-1.25-6.29-2.45-9.6-2.36a2.73,2.73,0,0,0-2,.68,2.81,2.81,0,0,0-.43.73c-1.32,2.88-3.1,7.18-1.59,10.29a4.92,4.92,0,0,0,1.21,1.54,7.2,7.2,0,0,0,2.22,1.34,13.07,13.07,0,0,1-1.09,2.06c.55,1.24,4,2,4.76,1l.57-2.75a6.06,6.06,0,0,0,1.31-.42,7.82,7.82,0,0,0,3.67-3.56c.92-1.68,2.06-3.23,2.93-5a2.62,2.62,0,0,0,.35-2,2.73,2.73,0,0,0-1.72-1.33Z" transform="translate(0 -1.45)"/><path class="cls-7" d="M295.1,93.45a10.15,10.15,0,0,1,5.68-.43c4.45,1.1,5.54,4.69,5.08,8.88,1.51-1.37,4.18-3,4.66-5a9.62,9.62,0,0,0-.14-5.55c-.64-1.49-2.74-2.61-3.94-3.62l-3.37-2.84a2.78,2.78,0,0,0-.76-.5,2.61,2.61,0,0,0-1.08-.06l-9.24.79a1.44,1.44,0,0,0-1.73,1.73,41.78,41.78,0,0,1,.35,4.85c0,.94-.21,5.66,1.47,5.4a22.22,22.22,0,0,0,1.34-2.39A3.76,3.76,0,0,1,295.1,93.45Z" transform="translate(0 -1.45)"/><polygon class="cls-8" points="293.35 104.85 288.4 105.49 268.18 120.61 266.15 126.37 272.07 141.35 275.13 136.75 273.35 126.12 279.53 123.16 289.69 107.82 293.35 104.85"/><polygon class="cls-9" points="302.96 109.01 313.31 101.03 315.58 75.02 319.71 73.98 320.54 100.89 317.84 107.11 305.75 119 302.96 109.01"/><polygon class="cls-6" points="318.83 74.2 319.22 71.85 317.13 67.82 315 69.16 315.67 72.54 314.72 73.51 315.58 75.02 318.83 74.2"/><rect class="cls-10" x="42.18" y="71.29" width="243.27" height="153.76"/><rect class="cls-11" x="42.18" y="59.3" width="243.27" height="9.23"/><rect class="cls-12" x="42.18" y="68.53" width="243.27" height="12.11"/><rect class="cls-13" x="67.37" y="72.97" width="206.88" height="5.17"/><path class="cls-14" d="M52.37,65a1.54,1.54,0,1,1-1.54-1.52A1.53,1.53,0,0,1,52.37,65Z" transform="translate(0 -1.45)"/><path class="cls-10" d="M56.88,65a1.54,1.54,0,1,1-1.54-1.52A1.53,1.53,0,0,1,56.88,65Z" transform="translate(0 -1.45)"/><path class="cls-15" d="M61.38,65a1.54,1.54,0,1,1-1.53-1.52A1.52,1.52,0,0,1,61.38,65Z" transform="translate(0 -1.45)"/><g class="cls-16"><polygon class="cls-13" points="58.97 73.08 58.97 78.04 60.76 75.56 58.97 73.08"/><polygon class="cls-13" points="51.7 78.04 51.7 73.08 49.91 75.56 51.7 78.04"/></g><g id="_Group_" data-name="&lt;Group&gt;"><polygon class="cls-17" points="36.74 235.14 36.46 237.72 41.34 240.87 44.19 238.56 41.9 235.7 37.02 232.56 36.74 235.14"/><polygon class="cls-17" points="48.44 234.51 48.16 237.1 53.04 240.24 55.89 237.94 53.59 235.07 48.72 231.93 48.44 234.51"/><g id="_Group_2" data-name="&lt;Group&gt;"><g id="_Group_3" data-name="&lt;Group&gt;"><polygon class="cls-18" points="27.57 185.2 32.77 208.33 35.97 235.57 41.94 235.01 44.36 168.88 28.38 169.17 27.57 185.2"/></g><g id="_Group_4" data-name="&lt;Group&gt;"><g id="_Group_5" data-name="&lt;Group&gt;"><polygon class="cls-18" points="58.17 183.78 58.84 206.24 54.38 235.01 48.16 234.36 47.31 204.62 42.87 184.24 41.38 170.9 54.68 169.33 58.17 183.78"/></g></g><g id="_Group_6" data-name="&lt;Group&gt;"><polygon class="cls-15" points="47.64 123.37 33.31 123.03 25 138.51 27.96 153.01 28.48 170.37 48.92 170.65 55.65 169.55 53.87 151.01 54.89 126.24 47.64 123.37"/></g><g id="_Group_7" data-name="&lt;Group&gt;"><polygon class="cls-19" points="31.93 160.27 31.85 162.69 36.12 164.24 38.58 162.38 38.58 159.56 36.2 159.43 36.13 158.81 35.35 158.3 31.93 160.27"/></g><g id="_Group_8" data-name="&lt;Group&gt;"><polygon class="cls-15" points="32.84 124.09 16.96 142.39 16.19 150.4 31.84 162.78 34.65 158.71 24.53 147.88 34.34 138.26 32.84 124.09"/></g><g id="_Group_9" data-name="&lt;Group&gt;"><polygon class="cls-15" points="48.16 132.75 55.63 147.7 63.67 149.31 79.79 146.84 77.81 141.78 63.03 141.78 54.69 126.24 48.16 132.75"/></g><g id="_Group_10" data-name="&lt;Group&gt;"><g id="_Group_11" data-name="&lt;Group&gt;"><path class="cls-20" d="M46.75,112.78c-2.16-6.29-10.46-3.93-12.17,1.67-1.11,3.66,1.71,8.4,5.49,9.45,0,.14,0,.28,0,.39a11.39,11.39,0,0,0,.16,1.75c0,.22,3.34-.41,3.71-.49a.47.47,0,0,0,.34-.17c.13-.2-.08-.82-.11-1s-.06-.54-.08-.82a6.54,6.54,0,0,0,3.37-4.83A12.15,12.15,0,0,0,46.75,112.78Z" transform="translate(0 -1.45)"/></g></g></g><g id="_Group_12" data-name="&lt;Group&gt;"><polygon class="cls-13" points="37.55 123.29 42 129.58 44.09 129.41 47.57 123.03 37.55 123.29"/></g><path class="cls-4" d="M56.54,108.31a11.43,11.43,0,0,1,.82-1.23,21.41,21.41,0,0,0,2-2.49,2.76,2.76,0,0,0,0-3,3.28,3.28,0,0,0-1.77-1,12.8,12.8,0,0,0-6.7,0c-2.07.58-3.92,1.5-6,.75s-3.4-.37-5.45.41c-2.21.84-5.21,1.09-7.2,2.26a6,6,0,0,0-2,2.06,9,9,0,0,0,.16,9.51,13.21,13.21,0,0,0,1.44,1.73c1.07,1.13,2.36,2.51,3.82,2.91,0-1.3-1.26-5.37-.29-6.45,1.55-1.72,5.13-1.2,7.1-.83,2.14.41,4.08,1.89,6.2,2.17a8,8,0,0,0,4.74-1.4C55,112.72,55.64,109.87,56.54,108.31Z" transform="translate(0 -1.45)"/></g><polygon class="cls-21" points="44.33 167.42 32.74 156.65 65.46 146.23 78.09 157.1 44.33 167.42"/><polygon class="cls-22" points="44.33 167.42 78.09 157.1 78.09 130.19 44.33 140.51 44.33 167.42"/><polygon class="cls-23" points="126.01 123.84 134.93 134.98 146.68 128.18 151.18 131.84 141.91 143.62 134.4 149.7 123.61 135.77 126.01 123.84"/><polygon class="cls-4" points="135.38 159.9 135.77 193.24 132.22 236.15 127.4 236.15 121.63 196.56 115.03 156.9 135.38 159.9"/><polygon class="cls-4" points="127.43 238.19 132.64 240.8 135.25 238.19 132.64 235.58 127.43 235.58 127.43 238.19"/><polygon class="cls-4" points="102.33 159.9 102.23 179.19 105.48 236.15 110.31 236.15 118.37 198.35 122.68 156.9 102.33 159.9"/><polygon class="cls-4" points="110.28 238.19 105.06 240.8 102.46 238.19 105.06 235.58 110.28 235.58 110.28 238.19"/><path class="cls-23" d="M97.31,173c-.1,3.06,0,7.15,1.25,7.31a1.31,1.31,0,0,0,.69-.19c2.23-1.08,3.83-2.62,6-3.67a27,27,0,0,1,7.5-2.08,79.06,79.06,0,0,1,11.57-1c3.31,0,6.76,1.49,9.88,2.32a10.85,10.85,0,0,1,3.19,1.89c1.48,1,2.13,1.42,1.92-.66-.32-3.4-.67-6.79-1.08-10.18a127.35,127.35,0,0,0-3.88-20c-.74-2.5-1.58-5-2.42-7.42l-3.09-9c-1.28-3.73-3.43-6.35-7.21-7.66-3.26-1.12-7.31-1.43-10.49.15-3.52,1.75-5.2,7.72-6.92,10.91-1.5,2.8-3.39,10.43-4,13.45-.68,3.63-1.3,7.24-1.8,10.84a112.35,112.35,0,0,0-1,11.93C97.45,170.28,97.36,171.5,97.31,173Z" transform="translate(0 -1.45)"/><path class="cls-24" d="M114.74,123.23l6.52.06s7,24.48,7.24,28.7,2,20.94,2,20.94-7.21.17-15.53,1.18c-8.12,1.75-8.81.72-8.81.72s4.39-17.65,4.54-22.73.81-22.31.81-22.31Z" transform="translate(0 -1.45)"/><path class="cls-20" d="M118.69,123.36a.61.61,0,0,1-.26.15,1.54,1.54,0,0,1-.64,0l-2.58-.31c.28-2.64-1.26-3.24-2.77-4.94s-1-4-1-6.16a4.61,4.61,0,0,1,.31-1.73,3.72,3.72,0,0,1,2.43-1.75,9.13,9.13,0,0,1,7.59.83,4.06,4.06,0,0,1,1.46,1.48,5.56,5.56,0,0,1,.23,3.19,10.89,10.89,0,0,1-1.63,4.65c-.87,1.29-2.52,1.91-2.71,3.47A1.75,1.75,0,0,1,118.69,123.36Z" transform="translate(0 -1.45)"/><path class="cls-4" d="M123.41,112.22a4.64,4.64,0,0,0-.29,2,3.83,3.83,0,0,0,2.11-2.54,3.89,3.89,0,0,0,.25-1.55,1.85,1.85,0,0,0-.68-1.35,1.16,1.16,0,0,0-1.79.5C122.85,110,123.63,111.22,123.41,112.22Z" transform="translate(0 -1.45)"/><path class="cls-4" d="M129,106.38a2.4,2.4,0,0,0-1-2,4.74,4.74,0,0,1-1.69-1.41c-.29-.51-.33-1.15-.62-1.66-.52-.93-1.64-1.2-2.62-1.51-2.45-.79-3.76-1.7-6.35-.69-1.85.71-4.23.81-5.94,1.86a6,6,0,0,0-1.82,1.91,10.87,10.87,0,0,0-1,9.34,12.86,12.86,0,0,0,.92,1.77c.68,1.11,1.42,2.48,2.63,3,.07-.52.46-.81.58-1.33a4,4,0,0,0,0-1.14c-.07-1.48-.53-3.83,1-4.56,1.87-.93,5.38-.09,7.18.69,1.6.7,4.29,1.61,6,.86S129.06,108.08,129,106.38Z" transform="translate(0 -1.45)"/><ellipse id="_Path_" data-name="&lt;Path&gt;" class="cls-25" cx="148.61" cy="186.69" rx="56.11" ry="56.22"/><path id="_Compound_Path_" data-name="&lt;Compound Path&gt;" class="cls-24" d="M189.33,170.9a44.44,44.44,0,1,0,3.48,17.24A44.11,44.11,0,0,0,189.33,170.9Zm-62.21,15.87a44,44,0,0,1,1.18-10.15h18.08v21.07H128.44A45.76,45.76,0,0,1,127.12,186.77Zm32.58-29.11a46.68,46.68,0,0,1,7.56,12.1q.5,1.2.93,2.4H150.83V149.44A51.27,51.27,0,0,1,159.7,157.66Zm-13.32-7.78v22.28H129.61c.28-.77.57-1.54.89-2.31A46.52,46.52,0,0,1,138,157.78,52.1,52.1,0,0,1,146.38,149.88Zm0,52.26v23.92a62.26,62.26,0,0,1-8.22-8.72,55.6,55.6,0,0,1-7.61-13.09c-.28-.7-.54-1.4-.79-2.11Zm4.45,24.42V202.14H168c-.24.68-.49,1.35-.76,2a55.3,55.3,0,0,1-7.55,13.05A62,62,0,0,1,150.83,226.56Zm0-28.87V176.62H169.5a44,44,0,0,1,1.18,10.15,45.76,45.76,0,0,1-1.32,10.92Zm23.23-21.07h12.62a40.29,40.29,0,0,1,.53,21.07H173.93a50.74,50.74,0,0,0,1.2-10.92A48.24,48.24,0,0,0,174.06,176.62ZM176.71,160A39.61,39.61,0,0,1,185,172.16H172.88q-.66-2.1-1.53-4.14a51.37,51.37,0,0,0-8.26-13.26,57.57,57.57,0,0,0-5.25-5.37A39.36,39.36,0,0,1,176.71,160Zm-56.21,0a39.34,39.34,0,0,1,19.66-10.77,55.58,55.58,0,0,0-5.45,5.55A51.37,51.37,0,0,0,126.45,168q-.87,2-1.53,4.14H112.17A39.61,39.61,0,0,1,120.5,160Zm-10,16.64h13.21a48.24,48.24,0,0,0-1.07,10.15,50.12,50.12,0,0,0,1.2,10.92H110a40.29,40.29,0,0,1,.53-21.07Zm10,39.68a39.67,39.67,0,0,1-9.13-14.16h13.7c.41,1.27.86,2.53,1.36,3.78a59.55,59.55,0,0,0,8.22,14.15,67,67,0,0,0,6.45,7.19A39.34,39.34,0,0,1,120.5,216.3Zm56.21,0a39.39,39.39,0,0,1-19.86,10.81,65.82,65.82,0,0,0,6.3-7,59.55,59.55,0,0,0,8.22-14.15c.5-1.25.95-2.51,1.36-3.78h13.11A39.67,39.67,0,0,1,176.71,216.3Z" transform="translate(0 -1.45)"/><polygon class="cls-20" points="147.71 126.89 153.54 126.03 157.57 130.5 155.13 132.69 151.14 130.84 149.21 131.76 145.89 129.89 147.71 126.89"/><g id="_Group_13" data-name="&lt;Group&gt;"><g id="_Group_14" data-name="&lt;Group&gt;"><g id="_Group_15" data-name="&lt;Group&gt;"><g id="_Group_16" data-name="&lt;Group&gt;"><path class="cls-26" d="M246.49,234.26a1.74,1.74,0,0,1,1.56-.67,1.77,1.77,0,0,1,1.3,1,3.29,3.29,0,0,1,.23,1.12c.16,2,.15,6.66-2.48,7.34a2,2,0,0,1-2.31-1.5C244.35,240.05,245,235.9,246.49,234.26Z" transform="translate(0 -1.45)"/></g><g id="_Group_17" data-name="&lt;Group&gt;"><path class="cls-20" d="M245.56,204.48l.14,12c-.16,5.35.67,10.73.51,16.08a13.78,13.78,0,0,0,0,3.74c.3,1.19,1.26,1.41,2.26.8,1.33-.81,1.11-2.7,1.33-4.08.61-3.78,1.33-7.55,2-11.34.31-1.85-.33-4.45-.19-6.33l1.94-10.09Z" transform="translate(0 -1.45)"/></g></g><g id="_Group_18" data-name="&lt;Group&gt;"><polygon class="cls-23" points="259.29 183.57 254.06 206.85 252.95 228.84 244.66 228.66 242.4 167.16 258.48 167.45 259.29 183.57"/></g><g id="_Group_19" data-name="&lt;Group&gt;"><g id="_Group_20" data-name="&lt;Group&gt;"><g id="_Group_21" data-name="&lt;Group&gt;"><path class="cls-26" d="M234.63,233.82a1.7,1.7,0,0,1,1.58-.57,1.78,1.78,0,0,1,1.26,1.06,3.35,3.35,0,0,1,.17,1.14c.08,2-.13,6.67-2.78,7.19a2,2,0,0,1-2.24-1.63C232.24,239.49,233.08,235.38,234.63,233.82Z" transform="translate(0 -1.45)"/></g><g id="_Group_22" data-name="&lt;Group&gt;"><path class="cls-20" d="M239,206.17l-.7,12c-.06,3.34-.5,6.66-.85,10-.32,3.09.18,6.3-1.43,9.1-.5.88-1.52,1.47-2.23.4-.55-.83-.23-2.2-.33-3.13-.43-3.81-1-7.61-1.42-11.42-.23-1.87.54-4.44.49-6.32l-1.47-10.17Z" transform="translate(0 -1.45)"/></g></g><g id="_Group_23" data-name="&lt;Group&gt;"><polygon class="cls-23" points="228.51 182.15 227.83 204.75 231.37 227.6 239.81 227.86 239.44 203.12 243.9 182.61 245.4 169.19 232.01 167.6 228.51 182.15"/></g></g><g id="_Group_24" data-name="&lt;Group&gt;"><polygon class="cls-22" points="239.1 121.35 253.52 121.01 261.88 136.59 258.91 151.18 258.38 168.65 237.81 168.93 231.04 167.83 232.84 149.17 231.8 124.24 239.1 121.35"/></g><g id="_Group_25" data-name="&lt;Group&gt;"><polygon class="cls-22" points="254 122.08 265.71 139.95 263.95 149.9 245.81 162.49 242.4 159.5 254.53 144.14 254.05 134.44 254 122.08"/></g><g id="_Group_26" data-name="&lt;Group&gt;"><polygon class="cls-22" points="238.38 130.79 230.86 145.84 222.76 147.45 202.58 138.63 206.06 134.67 224.47 138.04 231.8 124.24 238.38 130.79"/></g><g id="_Group_27" data-name="&lt;Group&gt;"><g id="_Group_28" data-name="&lt;Group&gt;"><path class="cls-20" d="M240,110.69c2.17-6.34,10.52-4,12.24,1.68,1.12,3.68-1.71,8.45-5.52,9.51,0,.14,0,.28,0,.39a11.76,11.76,0,0,1-.16,1.77c0,.22-3.36-.43-3.73-.5a.49.49,0,0,1-.35-.17c-.13-.21.09-.83.11-1.06l.09-.82a6.58,6.58,0,0,1-3.39-4.87A12.17,12.17,0,0,1,240,110.69Z" transform="translate(0 -1.45)"/></g><g id="_Group_29" data-name="&lt;Group&gt;"><g id="_Group_30" data-name="&lt;Group&gt;"><path class="cls-4" d="M245.44,105a3.3,3.3,0,0,1,.76,1.7,2.73,2.73,0,0,1,.06,1.1c-.31,1.43-1.73,1.36-2.83,1.82a7.35,7.35,0,0,0-3.29,2.84c-1.19,1.9-.65,4.34-.17,6.43.17.74.51,1.83-.06,2.49a2.44,2.44,0,0,1-2.62.22c-.63-.31-1.15-.89-1.85-1s-1.73.2-2.08-.48a4.19,4.19,0,0,0-.22-.59c-.41-.58-1.42.1-2-.31a1.13,1.13,0,0,1-.23-1.22,3,3,0,0,0,.24-1.29,4,4,0,0,0-.51-1,2,2,0,0,1,.27-2.11c.91-1.06,2.67-.86,3.64-1.85a4.31,4.31,0,0,0,.9-2,3.73,3.73,0,0,1,1-1.93c.67-.59,1.63-.49,2.29-1.19a12.5,12.5,0,0,1,1.09-1.3,8.62,8.62,0,0,1,2.41-1.08A3.11,3.11,0,0,1,245.44,105Z" transform="translate(0 -1.45)"/></g><g id="_Group_31" data-name="&lt;Group&gt;"><path class="cls-4" d="M250.72,115.07c0,2.09-1,4.34,0,6.18s3.38,2.18,5.43,2.28c.34,0,4.68.39,4.69.31a14.53,14.53,0,0,1,1.42-4.21,4.62,4.62,0,0,1,3.48-2.42.9.9,0,0,1-.58-1,6.39,6.39,0,0,1,.4-1.24,2.94,2.94,0,0,0-.76-2.93c-1.54-1.44-4.32-.84-5.63-2.49-.82-1-.72-2.5-1.15-3.74-.83-2.41-3.46-2.91-5.43-4a9.39,9.39,0,0,0-6.43-1.38c-3,.5-5.18,3.53-4,6.38,1.47,3.66,7.35,3.34,8.45,7.06A4.23,4.23,0,0,1,250.72,115.07Z" transform="translate(0 -1.45)"/></g></g></g></g><g id="_Group_32" data-name="&lt;Group&gt;"><polygon class="cls-20" points="249.25 121.27 244.78 127.61 242.68 127.43 239.17 121.01 249.25 121.27"/></g></g><path class="cls-24" d="M226.56,170.53a1.4,1.4,0,0,1-1-.43l-10.07-10.34-6.23,8a1.25,1.25,0,0,1-1,.51,1.6,1.6,0,0,1-1.45-1l-15-40.48a1.34,1.34,0,0,1,.32-1.45,1.25,1.25,0,0,1,1-.49,1.48,1.48,0,0,1,.53.11l40,16a1.48,1.48,0,0,1,.34,2.61l-8,5.93L236,159.81a1.44,1.44,0,0,1,.41,1,1.42,1.42,0,0,1-.42,1.05l-8.43,8.24a1.48,1.48,0,0,1-1,.42Zm-11.24-14.44a1.48,1.48,0,0,1,1.06.43L226.6,167l6.35-6.2-10.2-10.47a1.45,1.45,0,0,1-.42-1.12,1.62,1.62,0,0,1,.65-1.13l7.23-5.38-34.56-13.85,13,35,5.66-7.25A1.31,1.31,0,0,1,215.32,156.09Z" transform="translate(0 -1.45)"/><path class="cls-24" d="M236.49,159.36l-9.54-9.8,4.12-3.06,3.27-2.44a2.11,2.11,0,0,0-.49-3.71l-5.48-2.2-8.12-3.25-11.94-4.78-9.55-3.83-2.46-1-2.46-1a2.17,2.17,0,0,0-.77-.16,1.88,1.88,0,0,0-1.46.7,1.91,1.91,0,0,0-.44,2.1l4.88,13.17.22.59,2.18,5.89,5.88,15.86.92,2.49.92,2.48a2.27,2.27,0,0,0,2.05,1.45,1.9,1.9,0,0,0,1.52-.75l3.34-4.28,2.44-3.13,2.71,2.78,5.48,5.63.69.7.68.71a2.06,2.06,0,0,0,1.48.62,2.16,2.16,0,0,0,1.49-.6l.61-.6,7.82-7.64a2.12,2.12,0,0,0,0-3Zm-.91,2-8.43,8.24a.82.82,0,0,1-.59.24.8.8,0,0,1-.56-.23l-1.38-1.42-9.21-9.45-6.67,8.56a.66.66,0,0,1-.52.26,1,1,0,0,1-.85-.61q-.93-2.49-1.84-5l-8.07-21.74-5.1-13.76a.67.67,0,0,1,.19-.79.62.62,0,0,1,.52-.29.65.65,0,0,1,.29.07l4.92,2,21.5,8.61,13.6,5.45a.83.83,0,0,1,.2,1.49L225,149.4l.71.74,9.85,10.11A.84.84,0,0,1,235.58,161.41Z" transform="translate(0 -1.45)"/><path class="cls-24" d="M223.21,149.89a.84.84,0,0,1,.15-1.29l8.15-6.06L228,141.15l-21.49-8.61-12-4.81,1.23,3.32q4,10.88,8.06,21.74,2.29,6.17,4.57,12.34l6.36-8.16a.71.71,0,0,1,.55-.24.88.88,0,0,1,.61.24l1.37,1.41,9.29,9.54,7.26-7.1-.8-.82Zm7.43,12.28-4,3.94-2.38-2.45-6-6.17-.69-.71-.69-.71a2.14,2.14,0,0,0-1.52-.62,2,2,0,0,0-1.56.73l-3.17,4.08-1.77,2.27-1.43-3.85L205,152.35,204,149.4l-7-18.8-.23-.61,9.31,3.74,6.72,2.69,14.78,5.92,1.36.54-6.32,4.7a2.23,2.23,0,0,0-.9,1.59,2,2,0,0,0,.59,1.61l9.75,10Z" transform="translate(0 -1.45)"/><polygon class="cls-4" points="193.15 124.85 208.16 165.33 215.35 156.1 226.57 167.63 230.79 163.51 235 159.39 223.78 147.86 233.16 140.88 193.15 124.85"/><g id="_Group_33" data-name="&lt;Group&gt;"><polygon class="cls-19" points="238.4 161.07 238.48 163.51 234.18 165.07 231.71 163.2 231.71 160.36 234.1 160.22 234.17 159.6 234.95 159.1 238.4 161.07"/></g><g id="_Group_34" data-name="&lt;Group&gt;"><polygon class="cls-20" points="111.74 162.21 110.23 164.12 112.75 167.94 115.86 167.9 117.54 165.62 115.7 164.09 116.01 163.54 115.68 162.67 111.74 162.21"/></g><g id="_Group_35" data-name="&lt;Group&gt;"><polygon class="cls-23" points="109.38 122.64 97.28 130.03 90.58 142.63 92.34 152.59 110.47 165.17 113.89 162.18 101.76 146.83 102.23 137.13 109.38 122.64"/></g><rect class="cls-27" x="92.45" width="153.96" height="53.98"/><polygon class="cls-27" points="186.84 48.67 186.84 76.26 211 48.67 186.84 48.67"/><polygon class="cls-28" points="135.63 33.48 129.55 15.6 125.64 15.62 119.55 33.29 113.61 15.66 107.92 15.68 117.07 41.2 121.55 41.18 127.47 24.26 133.48 41.13 137.95 41.12 146.92 15.54 141.58 15.55 135.63 33.48"/><polygon class="cls-29" points="175.96 33.33 169.87 15.45 165.97 15.46 159.88 33.14 153.94 15.51 148.24 15.53 157.4 41.04 161.88 41.03 167.79 24.1 173.8 40.98 178.28 40.97 187.24 15.38 181.91 15.4 175.96 33.33"/><polygon class="cls-30" points="216.28 33.18 210.2 15.29 206.3 15.31 200.2 32.99 194.26 15.36 188.57 15.38 197.72 40.89 202.2 40.87 208.12 23.95 214.13 40.83 218.6 40.81 227.57 15.23 222.23 15.25 216.28 33.18"/><rect class="cls-24" x="228.3" y="36.43" width="5.84" height="5.78" transform="translate(-0.15 -0.56) rotate(-0.22)"/></g></svg>