<?xml version="1.0" encoding="UTF-8"?>
<!-- Generator: Adobe Illustrator 23.0.3, SVG Export Plug-In . SVG Version: 6.00 Build 0)  -->
<svg version="1.1" id="Ñëîé_1" xmlns="http://www.w3.org/2000/svg" xmlns:xlink="http://www.w3.org/1999/xlink" x="0px" y="0px" viewBox="0 0 152.9 160" style="enable-background:new 0 0 152.9 160;" xml:space="preserve">
<style type="text/css">
	.st0{fill:#0C5ADB;}
	.st1{fill:url(#SVGID_1_);}
	.st2{fill:#0E3AD8;}
	.st3{fill:#0CBFDB;}
	.st4{filter:url(#Adobe_OpacityMaskFilter);}
	.st5{filter:url(#Adobe_OpacityMaskFilter_1_);}
	.st6{mask:url(#SVGID_2_);fill:url(#SVGID_3_);}
	.st7{opacity:0.78;fill:#0C8ADB;}
	.st8{fill:url(#SVGID_4_);}
	.st9{fill:#78CEF9;}
	.st10{opacity:0.51;}
	.st11{fill:#453C9E;}
	.st12{fill:url(#SVGID_5_);}
	.st13{fill:url(#SVGID_6_);}
	.st14{fill:url(#SVGID_7_);}
	.st15{fill:url(#SVGID_8_);}
	.st16{fill:url(#SVGID_9_);}
	.st17{filter:url(#Adobe_OpacityMaskFilter_2_);}
	.st18{filter:url(#Adobe_OpacityMaskFilter_3_);}
	.st19{mask:url(#SVGID_10_);fill:url(#SVGID_11_);}
	.st20{fill:url(#SVGID_12_);}
	.st21{fill:url(#SVGID_13_);}
	.st22{fill:url(#SVGID_14_);}
	.st23{fill:url(#SVGID_15_);}
	.st24{fill:url(#SVGID_16_);}
	.st25{fill:url(#SVGID_17_);}
	.st26{filter:url(#Adobe_OpacityMaskFilter_4_);}
	.st27{filter:url(#Adobe_OpacityMaskFilter_5_);}
	.st28{mask:url(#SVGID_18_);fill:url(#SVGID_19_);}
	.st29{fill:url(#SVGID_20_);}
	.st30{fill:url(#SVGID_21_);}
	.st31{fill:url(#SVGID_22_);}
	.st32{fill:url(#SVGID_23_);}
	.st33{fill:url(#SVGID_24_);}
	.st34{fill:url(#SVGID_25_);}
	.st35{filter:url(#Adobe_OpacityMaskFilter_6_);}
	.st36{filter:url(#Adobe_OpacityMaskFilter_7_);}
	.st37{mask:url(#SVGID_26_);fill:url(#SVGID_27_);}
	.st38{fill:url(#SVGID_28_);}
	.st39{fill:url(#SVGID_29_);}
	.st40{fill:url(#SVGID_30_);}
	.st41{fill:url(#SVGID_31_);}
	.st42{fill:url(#SVGID_32_);}
</style>
<g>
	<g>
		<polygon class="st0" points="76.5,34.5 46.5,17.3 76.5,0 106.4,17.3   "/>
		
			<linearGradient id="SVGID_1_" gradientUnits="userSpaceOnUse" x1="5892.5967" y1="91.518" x2="5961.6265" y2="91.518" gradientTransform="matrix(1 0 0 1 -5850.647 0)">
			<stop offset="0" style="stop-color:#0C7DDB"/>
			<stop offset="0.2109" style="stop-color:#0C82DB"/>
			<stop offset="0.4595" style="stop-color:#0C90DB"/>
			<stop offset="0.7271" style="stop-color:#0CA8DB"/>
			<stop offset="1" style="stop-color:#0CC8DB"/>
		</linearGradient>
		<path class="st1" d="M76.5,111.8c-0.4,0-0.8-0.1-1.2-0.3L42.5,92.5c-0.4-0.2-0.6-0.6-0.6-1c0-0.4,0.2-0.8,0.6-1l32.7-18.9    c0.7-0.4,1.7-0.4,2.4,0l32.7,18.9c0.4,0.2,0.6,0.6,0.6,1c0,0.4-0.2,0.8-0.6,1l-32.7,18.9C77.3,111.7,76.9,111.8,76.5,111.8z     M76.5,72.1c-0.3,0-0.5,0.1-0.8,0.2L43,91.2c-0.1,0.1-0.2,0.2-0.2,0.3c0,0.1,0,0.2,0.2,0.3l32.7,18.9c0.5,0.3,1.1,0.3,1.5,0    L110,91.8c0.1-0.1,0.2-0.2,0.2-0.3c0-0.1,0-0.2-0.2-0.3L77.2,72.3C77,72.2,76.7,72.1,76.5,72.1z"/>
		<g>
			<polygon class="st2" points="76.5,106.2 51.1,91.5 76.5,76.9 101.8,91.5    "/>
		</g>
		<polygon class="st3" points="106.4,17.3 106.4,83.6 76.5,100.8 76.5,34.5   "/>
		<polygon class="st0" points="46.5,17.3 46.5,83.6 76.5,100.8 76.5,34.5   "/>
		<g>
			<polygon class="st2" points="48.6,21.7 48.6,81.3 74.4,96.2 74.4,36.6    "/>
		</g>
		<polygon class="st2" points="101.9,33.3 101.9,35 81,47.1 81,45.4   "/>
		<polygon class="st2" points="101.9,40.7 101.9,42.5 81,54.5 81,52.8   "/>
		<polygon class="st2" points="101.9,48.1 101.9,49.9 81,62 81,60.2   "/>
		<polygon class="st2" points="101.9,55.5 101.9,57.3 81,69.4 81,67.6   "/>
		<polygon class="st2" points="101.9,62.9 101.9,64.7 81,76.8 81,75   "/>
		<polygon class="st2" points="101.9,70.3 101.9,72.1 81,84.2 81,82.4   "/>
		<defs>
			<filter id="Adobe_OpacityMaskFilter" filterUnits="userSpaceOnUse" x="46.5" y="3.4" width="29.9" height="26.6">
				<feFlood style="flood-color:white;flood-opacity:1" result="back"/>
				<feBlend in="SourceGraphic" in2="back" mode="normal"/>
			</filter>
		</defs>
		<mask maskUnits="userSpaceOnUse" x="46.5" y="3.4" width="29.9" height="26.6" id="SVGID_2_">
			<g class="st4">
				<defs>
					<filter id="Adobe_OpacityMaskFilter_1_" filterUnits="userSpaceOnUse" x="46.5" y="3.4" width="29.9" height="26.6">
						<feFlood style="flood-color:white;flood-opacity:1" result="back"/>
						<feBlend in="SourceGraphic" in2="back" mode="normal"/>
					</filter>
				</defs>
				<mask maskUnits="userSpaceOnUse" x="46.5" y="3.4" width="29.9" height="26.6" id="SVGID_2_">
					<g class="st5">
					</g>
				</mask>
				
					<linearGradient id="SVGID_3_" gradientUnits="userSpaceOnUse" x1="5897.1934" y1="16.7117" x2="5927.1118" y2="16.7117" gradientTransform="matrix(1 0 0 1 -5850.647 0)">
					<stop offset="0" style="stop-color:#000000"/>
					<stop offset="4.693538e-02" style="stop-color:#2F2F2F"/>
					<stop offset="9.814870e-02" style="stop-color:#5A5A5A"/>
					<stop offset="0.155" style="stop-color:#828282"/>
					<stop offset="0.2161" style="stop-color:#A4A4A4"/>
					<stop offset="0.2828" style="stop-color:#C0C0C0"/>
					<stop offset="0.3571" style="stop-color:#D7D7D7"/>
					<stop offset="0.442" style="stop-color:#E9E9E9"/>
					<stop offset="0.5443" style="stop-color:#F6F6F6"/>
					<stop offset="0.6813" style="stop-color:#FDFDFD"/>
					<stop offset="1" style="stop-color:#FFFFFF"/>
				</linearGradient>
				<polygon class="st6" points="76.5,30 68.6,30 46.5,17.3 70.5,3.4 76.5,3.4     "/>
			</g>
		</mask>
		<polygon class="st7" points="76.5,30 68.6,30 46.5,17.3 70.5,3.4 76.5,3.4   "/>
		<g>
			
				<linearGradient id="SVGID_4_" gradientUnits="userSpaceOnUse" x1="54.7567" y1="15.9496" x2="98.1725" y2="15.9496" gradientTransform="matrix(-1 0 0 1 152.9291 0)">
				<stop offset="0" style="stop-color:#2FB3F6"/>
				<stop offset="0.1177" style="stop-color:#34B5F6"/>
				<stop offset="0.2566" style="stop-color:#42BAF7"/>
				<stop offset="0.4062" style="stop-color:#5AC3F8"/>
				<stop offset="0.5634" style="stop-color:#7BCFF9"/>
				<stop offset="0.7265" style="stop-color:#A6DEFB"/>
				<stop offset="0.8921" style="stop-color:#D9F1FD"/>
				<stop offset="1" style="stop-color:#FFFFFF"/>
			</linearGradient>
			<polygon class="st8" points="76.5,28.5 54.8,15.9 76.5,3.4 98.2,15.9    "/>
			<polygon class="st9" points="98.2,15.9 98.2,17.5 76.5,30 76.5,28.5    "/>
			<polygon class="st2" points="54.8,15.9 54.8,17.5 76.5,30 76.5,28.5    "/>
		</g>
		<g>
			<g>
				<polygon class="st0" points="68,16.2 67.1,15.6 67.2,15.1 76.1,10 77.3,10.5 77.1,10.9     "/>
				<polygon class="st2" points="76.1,10.4 77.1,10.9 77.7,10.6 76.1,9.7 66.5,15.2 67.1,15.6     "/>
			</g>
			<g>
				<polygon class="st0" points="71,17.8 70,17.3 70.1,16.8 79,11.6 80.2,12.2 80,12.6     "/>
				<polygon class="st2" points="79,12.1 80,12.6 80.6,12.3 79,11.3 69.4,16.9 70,17.3     "/>
			</g>
			<g>
				<polygon class="st0" points="73.9,19.5 72.9,19 73,18.5 81.9,13.3 83.2,13.9 82.9,14.3     "/>
				<polygon class="st2" points="82,13.7 82.9,14.3 83.5,13.9 82,13 72.3,18.6 72.9,19     "/>
			</g>
			<g>
				<polygon class="st0" points="76.8,21.2 75.8,20.6 75.9,20.2 84.8,15 86.1,15.6 85.8,16     "/>
				<polygon class="st2" points="84.9,15.4 85.8,16 86.5,15.6 84.9,14.7 75.2,20.3 75.8,20.6     "/>
			</g>
		</g>
		<g class="st10">
			<polygon class="st11" points="46.5,73.1 76.5,55 76.5,34.5 46.5,17.3    "/>
		</g>
		<g>
			
				<linearGradient id="SVGID_5_" gradientUnits="userSpaceOnUse" x1="5923.0479" y1="37.0435" x2="5925.9268" y2="37.0435" gradientTransform="matrix(1 0 0 1 -5850.647 0)">
				<stop offset="0" style="stop-color:#2FB3F6"/>
				<stop offset="0.1177" style="stop-color:#34B5F6"/>
				<stop offset="0.2566" style="stop-color:#42BAF7"/>
				<stop offset="0.4062" style="stop-color:#5AC3F8"/>
				<stop offset="0.5634" style="stop-color:#7BCFF9"/>
				<stop offset="0.7265" style="stop-color:#A6DEFB"/>
				<stop offset="0.8921" style="stop-color:#D9F1FD"/>
				<stop offset="1" style="stop-color:#FFFFFF"/>
			</linearGradient>
			<path class="st12" d="M75.3,37.5c0-0.8-0.5-1.7-1.2-2.1c-0.3-0.2-0.6-0.2-0.8-0.1v0l-0.8,0.5l0.5,0c0,0.1,0,0.2,0,0.3     c0,0.8,0.5,1.7,1.2,2.1c0.1,0.1,0.2,0.1,0.3,0.1l-0.2,0.5l0.8-0.5l0,0C75.1,38.2,75.3,37.9,75.3,37.5z"/>
			<path class="st0" d="M74.4,38c0,0.8-0.5,1.1-1.2,0.7c-0.7-0.4-1.2-1.3-1.2-2.1s0.5-1.1,1.2-0.7C73.9,36.3,74.4,37.3,74.4,38z"/>
			<path class="st3" d="M73.9,37.7c0,0.4-0.3,0.6-0.7,0.4c-0.4-0.2-0.7-0.7-0.7-1.2s0.3-0.6,0.7-0.4C73.6,36.8,73.9,37.3,73.9,37.7z     "/>
		</g>
		<g>
			
				<linearGradient id="SVGID_6_" gradientUnits="userSpaceOnUse" x1="5897.9561" y1="21.6265" x2="5900.835" y2="21.6265" gradientTransform="matrix(1 0 0 1 -5850.647 0)">
				<stop offset="0" style="stop-color:#2FB3F6"/>
				<stop offset="0.1177" style="stop-color:#34B5F6"/>
				<stop offset="0.2566" style="stop-color:#42BAF7"/>
				<stop offset="0.4062" style="stop-color:#5AC3F8"/>
				<stop offset="0.5634" style="stop-color:#7BCFF9"/>
				<stop offset="0.7265" style="stop-color:#A6DEFB"/>
				<stop offset="0.8921" style="stop-color:#D9F1FD"/>
				<stop offset="1" style="stop-color:#FFFFFF"/>
			</linearGradient>
			<path class="st13" d="M50.2,22.1c0-0.8-0.5-1.7-1.2-2.1c-0.3-0.2-0.6-0.2-0.8-0.1v0l-0.8,0.5l0.5,0c0,0.1,0,0.2,0,0.3     c0,0.8,0.5,1.7,1.2,2.1c0.1,0.1,0.2,0.1,0.3,0.1L49,23.4l0.8-0.5l0,0C50.1,22.8,50.2,22.5,50.2,22.1z"/>
			<path class="st0" d="M49.3,22.6c0,0.8-0.5,1.1-1.2,0.7C47.5,22.9,47,22,47,21.2c0-0.8,0.5-1.1,1.2-0.7     C48.8,20.9,49.3,21.8,49.3,22.6z"/>
			<path class="st3" d="M48.8,22.3c0,0.4-0.3,0.6-0.7,0.4c-0.4-0.2-0.7-0.7-0.7-1.2c0-0.4,0.3-0.6,0.7-0.4     C48.5,21.3,48.8,21.9,48.8,22.3z"/>
		</g>
		<g>
			
				<linearGradient id="SVGID_7_" gradientUnits="userSpaceOnUse" x1="5923.0479" y1="96.4232" x2="5925.9268" y2="96.4232" gradientTransform="matrix(1 0 0 1 -5850.647 0)">
				<stop offset="0" style="stop-color:#2FB3F6"/>
				<stop offset="0.1177" style="stop-color:#34B5F6"/>
				<stop offset="0.2566" style="stop-color:#42BAF7"/>
				<stop offset="0.4062" style="stop-color:#5AC3F8"/>
				<stop offset="0.5634" style="stop-color:#7BCFF9"/>
				<stop offset="0.7265" style="stop-color:#A6DEFB"/>
				<stop offset="0.8921" style="stop-color:#D9F1FD"/>
				<stop offset="1" style="stop-color:#FFFFFF"/>
			</linearGradient>
			<path class="st14" d="M75.3,96.9c0-0.8-0.5-1.7-1.2-2.1c-0.3-0.2-0.6-0.2-0.8-0.1v0l-0.8,0.5l0.5,0c0,0.1,0,0.2,0,0.3     c0,0.8,0.5,1.7,1.2,2.1c0.1,0.1,0.2,0.1,0.3,0.1l-0.2,0.5l0.8-0.5l0,0C75.1,97.6,75.3,97.3,75.3,96.9z"/>
			<path class="st0" d="M74.4,97.4c0,0.8-0.5,1.1-1.2,0.7c-0.7-0.4-1.2-1.3-1.2-2.1s0.5-1.1,1.2-0.7C73.9,95.7,74.4,96.6,74.4,97.4z     "/>
			<path class="st3" d="M73.9,97.1c0,0.4-0.3,0.6-0.7,0.4c-0.4-0.2-0.7-0.7-0.7-1.2s0.3-0.6,0.7-0.4C73.6,96.1,73.9,96.7,73.9,97.1z     "/>
		</g>
		<g>
			
				<linearGradient id="SVGID_8_" gradientUnits="userSpaceOnUse" x1="5897.9561" y1="81.0062" x2="5900.835" y2="81.0062" gradientTransform="matrix(1 0 0 1 -5850.647 0)">
				<stop offset="0" style="stop-color:#2FB3F6"/>
				<stop offset="0.1177" style="stop-color:#34B5F6"/>
				<stop offset="0.2566" style="stop-color:#42BAF7"/>
				<stop offset="0.4062" style="stop-color:#5AC3F8"/>
				<stop offset="0.5634" style="stop-color:#7BCFF9"/>
				<stop offset="0.7265" style="stop-color:#A6DEFB"/>
				<stop offset="0.8921" style="stop-color:#D9F1FD"/>
				<stop offset="1" style="stop-color:#FFFFFF"/>
			</linearGradient>
			<path class="st15" d="M50.2,81.5c0-0.8-0.5-1.7-1.2-2.1c-0.3-0.2-0.6-0.2-0.8-0.1v0l-0.8,0.5l0.5,0c0,0.1,0,0.2,0,0.3     c0,0.8,0.5,1.7,1.2,2.1c0.1,0.1,0.2,0.1,0.3,0.1L49,82.7l0.8-0.5l0,0C50.1,82.1,50.2,81.9,50.2,81.5z"/>
			<path class="st0" d="M49.3,82c0,0.8-0.5,1.1-1.2,0.7c-0.7-0.4-1.2-1.3-1.2-2.1s0.5-1.1,1.2-0.7C48.8,80.3,49.3,81.2,49.3,82z"/>
			<path class="st3" d="M48.8,81.7c0,0.4-0.3,0.6-0.7,0.4c-0.4-0.2-0.7-0.7-0.7-1.2c0-0.4,0.3-0.6,0.7-0.4     C48.5,80.7,48.8,81.3,48.8,81.7z"/>
		</g>
	</g>
	<g>
		<polygon class="st0" points="34.5,57.6 4.6,40.3 34.5,23.1 64.4,40.3   "/>
		
			<linearGradient id="SVGID_9_" gradientUnits="userSpaceOnUse" x1="5850.647" y1="114.5903" x2="5919.6768" y2="114.5903" gradientTransform="matrix(1 0 0 1 -5850.647 0)">
			<stop offset="0" style="stop-color:#0C7DDB"/>
			<stop offset="0.2109" style="stop-color:#0C82DB"/>
			<stop offset="0.4595" style="stop-color:#0C90DB"/>
			<stop offset="0.7271" style="stop-color:#0CA8DB"/>
			<stop offset="1" style="stop-color:#0CC8DB"/>
		</linearGradient>
		<path class="st16" d="M34.5,134.8c-0.4,0-0.8-0.1-1.2-0.3L0.6,115.6c-0.4-0.2-0.6-0.6-0.6-1c0-0.4,0.2-0.8,0.6-1l32.7-18.9    c0.7-0.4,1.7-0.4,2.4,0l32.7,18.9c0.4,0.2,0.6,0.6,0.6,1c0,0.4-0.2,0.8-0.6,1l-32.7,18.9C35.3,134.7,34.9,134.8,34.5,134.8z     M34.5,95.2c-0.3,0-0.5,0.1-0.8,0.2L1,114.3c-0.1,0.1-0.2,0.2-0.2,0.3c0,0.1,0,0.2,0.2,0.3l32.7,18.9c0.5,0.3,1.1,0.3,1.5,0    L68,114.9c0.1-0.1,0.2-0.2,0.2-0.3c0-0.1,0-0.2-0.2-0.3L35.3,95.4C35,95.3,34.8,95.2,34.5,95.2z"/>
		<g>
			<polygon class="st2" points="34.5,129.2 9.2,114.6 34.5,100 59.9,114.6    "/>
		</g>
		<polygon class="st3" points="64.4,40.3 64.4,106.6 34.5,123.9 34.5,57.6   "/>
		<polygon class="st0" points="4.6,40.3 4.6,106.6 34.5,123.9 34.5,57.6   "/>
		<g>
			<polygon class="st2" points="6.6,44.7 6.6,104.3 32.5,119.3 32.5,59.7    "/>
		</g>
		<polygon class="st2" points="59.9,56.4 59.9,58.1 39,70.2 39,68.5   "/>
		<polygon class="st2" points="59.9,63.8 59.9,65.5 39,77.6 39,75.9   "/>
		<polygon class="st2" points="59.9,71.2 59.9,72.9 39,85 39,83.3   "/>
		<polygon class="st2" points="59.9,78.6 59.9,80.3 39,92.4 39,90.7   "/>
		<polygon class="st2" points="59.9,86 59.9,87.8 39,99.8 39,98.1   "/>
		<polygon class="st2" points="59.9,93.4 59.9,95.2 39,107.3 39,105.5   "/>
		<defs>
			<filter id="Adobe_OpacityMaskFilter_2_" filterUnits="userSpaceOnUse" x="4.6" y="26.5" width="29.9" height="26.6">
				<feFlood style="flood-color:white;flood-opacity:1" result="back"/>
				<feBlend in="SourceGraphic" in2="back" mode="normal"/>
			</filter>
		</defs>
		<mask maskUnits="userSpaceOnUse" x="4.6" y="26.5" width="29.9" height="26.6" id="SVGID_10_">
			<g class="st17">
				<defs>
					<filter id="Adobe_OpacityMaskFilter_3_" filterUnits="userSpaceOnUse" x="4.6" y="26.5" width="29.9" height="26.6">
						<feFlood style="flood-color:white;flood-opacity:1" result="back"/>
						<feBlend in="SourceGraphic" in2="back" mode="normal"/>
					</filter>
				</defs>
				<mask maskUnits="userSpaceOnUse" x="4.6" y="26.5" width="29.9" height="26.6" id="SVGID_10_">
					<g class="st18">
					</g>
				</mask>
				
					<linearGradient id="SVGID_11_" gradientUnits="userSpaceOnUse" x1="5855.2441" y1="39.784" x2="5885.1621" y2="39.784" gradientTransform="matrix(1 0 0 1 -5850.647 0)">
					<stop offset="0" style="stop-color:#000000"/>
					<stop offset="4.693538e-02" style="stop-color:#2F2F2F"/>
					<stop offset="9.814870e-02" style="stop-color:#5A5A5A"/>
					<stop offset="0.155" style="stop-color:#828282"/>
					<stop offset="0.2161" style="stop-color:#A4A4A4"/>
					<stop offset="0.2828" style="stop-color:#C0C0C0"/>
					<stop offset="0.3571" style="stop-color:#D7D7D7"/>
					<stop offset="0.442" style="stop-color:#E9E9E9"/>
					<stop offset="0.5443" style="stop-color:#F6F6F6"/>
					<stop offset="0.6813" style="stop-color:#FDFDFD"/>
					<stop offset="1" style="stop-color:#FFFFFF"/>
				</linearGradient>
				<polygon class="st19" points="34.5,53.1 26.7,53.1 4.6,40.3 28.6,26.5 34.5,26.5     "/>
			</g>
		</mask>
		<polygon class="st7" points="34.5,53.1 26.7,53.1 4.6,40.3 28.6,26.5 34.5,26.5   "/>
		<g>
			
				<linearGradient id="SVGID_12_" gradientUnits="userSpaceOnUse" x1="96.7064" y1="39.0219" x2="140.1222" y2="39.0219" gradientTransform="matrix(-1 0 0 1 152.9291 0)">
				<stop offset="0" style="stop-color:#2FB3F6"/>
				<stop offset="0.1177" style="stop-color:#34B5F6"/>
				<stop offset="0.2566" style="stop-color:#42BAF7"/>
				<stop offset="0.4062" style="stop-color:#5AC3F8"/>
				<stop offset="0.5634" style="stop-color:#7BCFF9"/>
				<stop offset="0.7265" style="stop-color:#A6DEFB"/>
				<stop offset="0.8921" style="stop-color:#D9F1FD"/>
				<stop offset="1" style="stop-color:#FFFFFF"/>
			</linearGradient>
			<polygon class="st20" points="34.5,51.6 12.8,39 34.5,26.5 56.2,39    "/>
			<polygon class="st9" points="56.2,39 56.2,40.5 34.5,53.1 34.5,51.6    "/>
			<polygon class="st2" points="12.8,39 12.8,40.5 34.5,53.1 34.5,51.6    "/>
		</g>
		<g>
			<g>
				<polygon class="st0" points="26.1,39.2 25.1,38.7 25.2,38.2 34.1,33 35.4,33.6 35.1,34     "/>
				<polygon class="st2" points="34.2,33.4 35.1,34 35.8,33.6 34.2,32.7 24.5,38.3 25.1,38.7     "/>
			</g>
			<g>
				<polygon class="st0" points="29,40.9 28.1,40.3 28.1,39.9 37,34.7 38.3,35.3 38.1,35.7     "/>
				<polygon class="st2" points="37.1,35.1 38.1,35.7 38.7,35.3 37.1,34.4 27.4,40 28.1,40.3     "/>
			</g>
			<g>
				<polygon class="st0" points="31.9,42.6 31,42 31,41.6 40,36.4 41.2,37 41,37.4     "/>
				<polygon class="st2" points="40,36.8 41,37.4 41.6,37 40,36.1 30.4,41.7 31,42     "/>
			</g>
			<g>
				<polygon class="st0" points="34.9,44.3 33.9,43.7 34,43.3 42.9,38.1 44.1,38.7 43.9,39     "/>
				<polygon class="st2" points="42.9,38.5 43.9,39 44.5,38.7 42.9,37.8 33.3,43.3 33.9,43.7     "/>
			</g>
		</g>
		<g class="st10">
			<polygon class="st11" points="4.6,96.2 34.5,78.1 34.5,57.6 4.6,40.3    "/>
		</g>
		<g>
			
				<linearGradient id="SVGID_13_" gradientUnits="userSpaceOnUse" x1="5881.0981" y1="60.1159" x2="5883.9771" y2="60.1159" gradientTransform="matrix(1 0 0 1 -5850.647 0)">
				<stop offset="0" style="stop-color:#2FB3F6"/>
				<stop offset="0.1177" style="stop-color:#34B5F6"/>
				<stop offset="0.2566" style="stop-color:#42BAF7"/>
				<stop offset="0.4062" style="stop-color:#5AC3F8"/>
				<stop offset="0.5634" style="stop-color:#7BCFF9"/>
				<stop offset="0.7265" style="stop-color:#A6DEFB"/>
				<stop offset="0.8921" style="stop-color:#D9F1FD"/>
				<stop offset="1" style="stop-color:#FFFFFF"/>
			</linearGradient>
			<path class="st21" d="M33.3,60.6c0-0.8-0.5-1.7-1.2-2.1c-0.3-0.2-0.6-0.2-0.8-0.1v0L30.5,59l0.5,0c0,0.1,0,0.2,0,0.3     c0,0.8,0.5,1.7,1.2,2.1c0.1,0.1,0.2,0.1,0.3,0.1l-0.2,0.5l0.8-0.5l0,0C33.2,61.2,33.3,61,33.3,60.6z"/>
			<path class="st0" d="M32.5,61.1c0,0.8-0.5,1.1-1.2,0.7c-0.7-0.4-1.2-1.3-1.2-2.1s0.5-1.1,1.2-0.7C31.9,59.4,32.5,60.3,32.5,61.1z     "/>
			<path class="st3" d="M32,60.8c0,0.4-0.3,0.6-0.7,0.4c-0.4-0.2-0.7-0.7-0.7-1.2c0-0.4,0.3-0.6,0.7-0.4S32,60.4,32,60.8z"/>
		</g>
		<g>
			
				<linearGradient id="SVGID_14_" gradientUnits="userSpaceOnUse" x1="5856.0063" y1="44.6988" x2="5858.8853" y2="44.6988" gradientTransform="matrix(1 0 0 1 -5850.647 0)">
				<stop offset="0" style="stop-color:#2FB3F6"/>
				<stop offset="0.1177" style="stop-color:#34B5F6"/>
				<stop offset="0.2566" style="stop-color:#42BAF7"/>
				<stop offset="0.4062" style="stop-color:#5AC3F8"/>
				<stop offset="0.5634" style="stop-color:#7BCFF9"/>
				<stop offset="0.7265" style="stop-color:#A6DEFB"/>
				<stop offset="0.8921" style="stop-color:#D9F1FD"/>
				<stop offset="1" style="stop-color:#FFFFFF"/>
			</linearGradient>
			<path class="st22" d="M8.2,45.2c0-0.8-0.5-1.7-1.2-2.1c-0.3-0.2-0.6-0.2-0.8-0.1v0l-0.8,0.5l0.5,0c0,0.1,0,0.2,0,0.3     c0,0.8,0.5,1.7,1.2,2.1C7.1,45.9,7.2,46,7.3,46l-0.2,0.5L7.9,46l0,0C8.1,45.8,8.2,45.6,8.2,45.2z"/>
			<path class="st0" d="M7.4,45.7c0,0.8-0.5,1.1-1.2,0.7C5.5,46,5,45.1,5,44.3c0-0.8,0.5-1.1,1.2-0.7C6.9,44,7.4,44.9,7.4,45.7z"/>
			<path class="st3" d="M6.9,45.4c0,0.4-0.3,0.6-0.7,0.4c-0.4-0.2-0.7-0.7-0.7-1.2c0-0.4,0.3-0.6,0.7-0.4C6.6,44.4,6.9,45,6.9,45.4z     "/>
		</g>
		<g>
			
				<linearGradient id="SVGID_15_" gradientUnits="userSpaceOnUse" x1="5881.0981" y1="119.4955" x2="5883.9771" y2="119.4955" gradientTransform="matrix(1 0 0 1 -5850.647 0)">
				<stop offset="0" style="stop-color:#2FB3F6"/>
				<stop offset="0.1177" style="stop-color:#34B5F6"/>
				<stop offset="0.2566" style="stop-color:#42BAF7"/>
				<stop offset="0.4062" style="stop-color:#5AC3F8"/>
				<stop offset="0.5634" style="stop-color:#7BCFF9"/>
				<stop offset="0.7265" style="stop-color:#A6DEFB"/>
				<stop offset="0.8921" style="stop-color:#D9F1FD"/>
				<stop offset="1" style="stop-color:#FFFFFF"/>
			</linearGradient>
			<path class="st23" d="M33.3,120c0-0.8-0.5-1.7-1.2-2.1c-0.3-0.2-0.6-0.2-0.8-0.1v0l-0.8,0.5l0.5,0c0,0.1,0,0.2,0,0.3     c0,0.8,0.5,1.7,1.2,2.1c0.1,0.1,0.2,0.1,0.3,0.1l-0.2,0.5l0.8-0.5l0,0C33.2,120.6,33.3,120.4,33.3,120z"/>
			<path class="st0" d="M32.5,120.5c0,0.8-0.5,1.1-1.2,0.7c-0.7-0.4-1.2-1.3-1.2-2.1c0-0.8,0.5-1.1,1.2-0.7     C31.9,118.8,32.5,119.7,32.5,120.5z"/>
			<path class="st3" d="M32,120.2c0,0.4-0.3,0.6-0.7,0.4c-0.4-0.2-0.7-0.7-0.7-1.2s0.3-0.6,0.7-0.4C31.7,119.2,32,119.7,32,120.2z"/>
		</g>
		<g>
			
				<linearGradient id="SVGID_16_" gradientUnits="userSpaceOnUse" x1="5856.0063" y1="104.0786" x2="5858.8853" y2="104.0786" gradientTransform="matrix(1 0 0 1 -5850.647 0)">
				<stop offset="0" style="stop-color:#2FB3F6"/>
				<stop offset="0.1177" style="stop-color:#34B5F6"/>
				<stop offset="0.2566" style="stop-color:#42BAF7"/>
				<stop offset="0.4062" style="stop-color:#5AC3F8"/>
				<stop offset="0.5634" style="stop-color:#7BCFF9"/>
				<stop offset="0.7265" style="stop-color:#A6DEFB"/>
				<stop offset="0.8921" style="stop-color:#D9F1FD"/>
				<stop offset="1" style="stop-color:#FFFFFF"/>
			</linearGradient>
			<path class="st24" d="M8.2,104.6c0-0.8-0.5-1.7-1.2-2.1c-0.3-0.2-0.6-0.2-0.8-0.1v0l-0.8,0.5l0.5,0c0,0.1,0,0.2,0,0.3     c0,0.8,0.5,1.7,1.2,2.1c0.1,0.1,0.2,0.1,0.3,0.1l-0.2,0.5l0.8-0.5l0,0C8.1,105.2,8.2,104.9,8.2,104.6z"/>
			<path class="st0" d="M7.4,105.1c0,0.8-0.5,1.1-1.2,0.7c-0.7-0.4-1.2-1.3-1.2-2.1s0.5-1.1,1.2-0.7C6.9,103.4,7.4,104.3,7.4,105.1z     "/>
			<path class="st3" d="M6.9,104.8c0,0.4-0.3,0.6-0.7,0.4c-0.4-0.2-0.7-0.7-0.7-1.2c0-0.4,0.3-0.6,0.7-0.4     C6.6,103.8,6.9,104.3,6.9,104.8z"/>
		</g>
	</g>
	<g>
		<polygon class="st0" points="118.4,57.6 88.5,40.3 118.4,23.1 148.3,40.3   "/>
		
			<linearGradient id="SVGID_17_" gradientUnits="userSpaceOnUse" x1="5934.5464" y1="114.5903" x2="6003.5762" y2="114.5903" gradientTransform="matrix(1 0 0 1 -5850.647 0)">
			<stop offset="0" style="stop-color:#0C7DDB"/>
			<stop offset="0.2109" style="stop-color:#0C82DB"/>
			<stop offset="0.4595" style="stop-color:#0C90DB"/>
			<stop offset="0.7271" style="stop-color:#0CA8DB"/>
			<stop offset="1" style="stop-color:#0CC8DB"/>
		</linearGradient>
		<path class="st25" d="M118.4,134.8c-0.4,0-0.8-0.1-1.2-0.3l-32.7-18.9c-0.4-0.2-0.6-0.6-0.6-1c0-0.4,0.2-0.8,0.6-1l32.7-18.9    c0.7-0.4,1.7-0.4,2.4,0l32.7,18.9c0.4,0.2,0.6,0.6,0.6,1c0,0.4-0.2,0.8-0.6,1l-32.7,18.9C119.2,134.7,118.8,134.8,118.4,134.8z     M118.4,95.2c-0.3,0-0.5,0.1-0.8,0.2l-32.7,18.9c-0.1,0.1-0.2,0.2-0.2,0.3c0,0.1,0,0.2,0.2,0.3l32.7,18.9c0.5,0.3,1.1,0.3,1.5,0    l32.7-18.9c0.1-0.1,0.2-0.2,0.2-0.3c0-0.1,0-0.2-0.2-0.3l-32.7-18.9C118.9,95.3,118.7,95.2,118.4,95.2z"/>
		<g>
			<polygon class="st2" points="118.4,129.2 93.1,114.6 118.4,100 143.8,114.6    "/>
		</g>
		<polygon class="st3" points="148.3,40.3 148.3,106.6 118.4,123.9 118.4,57.6   "/>
		<polygon class="st0" points="88.5,40.3 88.5,106.6 118.4,123.9 118.4,57.6   "/>
		<g>
			<polygon class="st2" points="90.5,44.7 90.5,104.3 116.4,119.3 116.4,59.7    "/>
		</g>
		<polygon class="st2" points="143.8,56.4 143.8,58.1 122.9,70.2 122.9,68.5   "/>
		<polygon class="st2" points="143.8,63.8 143.8,65.5 122.9,77.6 122.9,75.9   "/>
		<polygon class="st2" points="143.8,71.2 143.8,72.9 122.9,85 122.9,83.3   "/>
		<polygon class="st2" points="143.8,78.6 143.8,80.3 122.9,92.4 122.9,90.7   "/>
		<polygon class="st2" points="143.8,86 143.8,87.8 122.9,99.8 122.9,98.1   "/>
		<polygon class="st2" points="143.8,93.4 143.8,95.2 122.9,107.3 122.9,105.5   "/>
		<defs>
			<filter id="Adobe_OpacityMaskFilter_4_" filterUnits="userSpaceOnUse" x="88.5" y="26.5" width="29.9" height="26.6">
				<feFlood style="flood-color:white;flood-opacity:1" result="back"/>
				<feBlend in="SourceGraphic" in2="back" mode="normal"/>
			</filter>
		</defs>
		<mask maskUnits="userSpaceOnUse" x="88.5" y="26.5" width="29.9" height="26.6" id="SVGID_18_">
			<g class="st26">
				<defs>
					<filter id="Adobe_OpacityMaskFilter_5_" filterUnits="userSpaceOnUse" x="88.5" y="26.5" width="29.9" height="26.6">
						<feFlood style="flood-color:white;flood-opacity:1" result="back"/>
						<feBlend in="SourceGraphic" in2="back" mode="normal"/>
					</filter>
				</defs>
				<mask maskUnits="userSpaceOnUse" x="88.5" y="26.5" width="29.9" height="26.6" id="SVGID_18_">
					<g class="st27">
					</g>
				</mask>
				
					<linearGradient id="SVGID_19_" gradientUnits="userSpaceOnUse" x1="5939.1431" y1="39.784" x2="5969.0615" y2="39.784" gradientTransform="matrix(1 0 0 1 -5850.647 0)">
					<stop offset="0" style="stop-color:#000000"/>
					<stop offset="4.693538e-02" style="stop-color:#2F2F2F"/>
					<stop offset="9.814870e-02" style="stop-color:#5A5A5A"/>
					<stop offset="0.155" style="stop-color:#828282"/>
					<stop offset="0.2161" style="stop-color:#A4A4A4"/>
					<stop offset="0.2828" style="stop-color:#C0C0C0"/>
					<stop offset="0.3571" style="stop-color:#D7D7D7"/>
					<stop offset="0.442" style="stop-color:#E9E9E9"/>
					<stop offset="0.5443" style="stop-color:#F6F6F6"/>
					<stop offset="0.6813" style="stop-color:#FDFDFD"/>
					<stop offset="1" style="stop-color:#FFFFFF"/>
				</linearGradient>
				<polygon class="st28" points="118.4,53.1 110.6,53.1 88.5,40.3 112.5,26.5 118.4,26.5     "/>
			</g>
		</mask>
		<polygon class="st7" points="118.4,53.1 110.6,53.1 88.5,40.3 112.5,26.5 118.4,26.5   "/>
		<g>
			
				<linearGradient id="SVGID_20_" gradientUnits="userSpaceOnUse" x1="12.807" y1="39.0219" x2="56.2229" y2="39.0219" gradientTransform="matrix(-1 0 0 1 152.9291 0)">
				<stop offset="0" style="stop-color:#2FB3F6"/>
				<stop offset="0.1177" style="stop-color:#34B5F6"/>
				<stop offset="0.2566" style="stop-color:#42BAF7"/>
				<stop offset="0.4062" style="stop-color:#5AC3F8"/>
				<stop offset="0.5634" style="stop-color:#7BCFF9"/>
				<stop offset="0.7265" style="stop-color:#A6DEFB"/>
				<stop offset="0.8921" style="stop-color:#D9F1FD"/>
				<stop offset="1" style="stop-color:#FFFFFF"/>
			</linearGradient>
			<polygon class="st29" points="118.4,51.6 96.7,39 118.4,26.5 140.1,39    "/>
			<polygon class="st9" points="140.1,39 140.1,40.5 118.4,53.1 118.4,51.6    "/>
			<polygon class="st2" points="96.7,39 96.7,40.5 118.4,53.1 118.4,51.6    "/>
		</g>
		<g>
			<g>
				<polygon class="st0" points="110,39.2 109,38.7 109.1,38.2 118,33 119.3,33.6 119,34     "/>
				<polygon class="st2" points="118.1,33.4 119,34 119.7,33.6 118.1,32.7 108.4,38.3 109,38.7     "/>
			</g>
			<g>
				<polygon class="st0" points="112.9,40.9 112,40.3 112,39.9 120.9,34.7 122.2,35.3 122,35.7     "/>
				<polygon class="st2" points="121,35.1 122,35.7 122.6,35.3 121,34.4 111.3,40 112,40.3     "/>
			</g>
			<g>
				<polygon class="st0" points="115.8,42.6 114.9,42 114.9,41.6 123.9,36.4 125.1,37 124.9,37.4     "/>
				<polygon class="st2" points="123.9,36.8 124.9,37.4 125.5,37 123.9,36.1 114.3,41.7 114.9,42     "/>
			</g>
			<g>
				<polygon class="st0" points="118.7,44.3 117.8,43.7 117.9,43.3 126.8,38.1 128,38.7 127.8,39     "/>
				<polygon class="st2" points="126.8,38.5 127.8,39 128.4,38.7 126.8,37.8 117.2,43.3 117.8,43.7     "/>
			</g>
		</g>
		<g class="st10">
			<polygon class="st11" points="88.5,96.2 118.4,78.1 118.4,57.6 88.5,40.3    "/>
		</g>
		<g>
			
				<linearGradient id="SVGID_21_" gradientUnits="userSpaceOnUse" x1="5964.9976" y1="60.1159" x2="5967.8765" y2="60.1159" gradientTransform="matrix(1 0 0 1 -5850.647 0)">
				<stop offset="0" style="stop-color:#2FB3F6"/>
				<stop offset="0.1177" style="stop-color:#34B5F6"/>
				<stop offset="0.2566" style="stop-color:#42BAF7"/>
				<stop offset="0.4062" style="stop-color:#5AC3F8"/>
				<stop offset="0.5634" style="stop-color:#7BCFF9"/>
				<stop offset="0.7265" style="stop-color:#A6DEFB"/>
				<stop offset="0.8921" style="stop-color:#D9F1FD"/>
				<stop offset="1" style="stop-color:#FFFFFF"/>
			</linearGradient>
			<path class="st30" d="M117.2,60.6c0-0.8-0.5-1.7-1.2-2.1c-0.3-0.2-0.6-0.2-0.8-0.1v0l-0.8,0.5l0.5,0c0,0.1,0,0.2,0,0.3     c0,0.8,0.5,1.7,1.2,2.1c0.1,0.1,0.2,0.1,0.3,0.1l-0.2,0.5l0.8-0.5l0,0C117.1,61.2,117.2,61,117.2,60.6z"/>
			<path class="st0" d="M116.4,61.1c0,0.8-0.5,1.1-1.2,0.7c-0.7-0.4-1.2-1.3-1.2-2.1s0.5-1.1,1.2-0.7     C115.8,59.4,116.4,60.3,116.4,61.1z"/>
			<path class="st3" d="M115.9,60.8c0,0.4-0.3,0.6-0.7,0.4c-0.4-0.2-0.7-0.7-0.7-1.2c0-0.4,0.3-0.6,0.7-0.4S115.9,60.4,115.9,60.8z"/>
		</g>
		<g>
			
				<linearGradient id="SVGID_22_" gradientUnits="userSpaceOnUse" x1="5939.9058" y1="44.6988" x2="5942.7847" y2="44.6988" gradientTransform="matrix(1 0 0 1 -5850.647 0)">
				<stop offset="0" style="stop-color:#2FB3F6"/>
				<stop offset="0.1177" style="stop-color:#34B5F6"/>
				<stop offset="0.2566" style="stop-color:#42BAF7"/>
				<stop offset="0.4062" style="stop-color:#5AC3F8"/>
				<stop offset="0.5634" style="stop-color:#7BCFF9"/>
				<stop offset="0.7265" style="stop-color:#A6DEFB"/>
				<stop offset="0.8921" style="stop-color:#D9F1FD"/>
				<stop offset="1" style="stop-color:#FFFFFF"/>
			</linearGradient>
			<path class="st31" d="M92.1,45.2c0-0.8-0.5-1.7-1.2-2.1c-0.3-0.2-0.6-0.2-0.8-0.1v0l-0.8,0.5l0.5,0c0,0.1,0,0.2,0,0.3     c0,0.8,0.5,1.7,1.2,2.1c0.1,0.1,0.2,0.1,0.3,0.1L91,46.4l0.8-0.5l0,0C92,45.8,92.1,45.6,92.1,45.2z"/>
			<path class="st0" d="M91.3,45.7c0,0.8-0.5,1.1-1.2,0.7c-0.7-0.4-1.2-1.3-1.2-2.1c0-0.8,0.5-1.1,1.2-0.7     C90.8,44,91.3,44.9,91.3,45.7z"/>
			<path class="st3" d="M90.8,45.4c0,0.4-0.3,0.6-0.7,0.4s-0.7-0.7-0.7-1.2c0-0.4,0.3-0.6,0.7-0.4C90.5,44.4,90.8,45,90.8,45.4z"/>
		</g>
		<g>
			
				<linearGradient id="SVGID_23_" gradientUnits="userSpaceOnUse" x1="5964.9976" y1="119.4955" x2="5967.8765" y2="119.4955" gradientTransform="matrix(1 0 0 1 -5850.647 0)">
				<stop offset="0" style="stop-color:#2FB3F6"/>
				<stop offset="0.1177" style="stop-color:#34B5F6"/>
				<stop offset="0.2566" style="stop-color:#42BAF7"/>
				<stop offset="0.4062" style="stop-color:#5AC3F8"/>
				<stop offset="0.5634" style="stop-color:#7BCFF9"/>
				<stop offset="0.7265" style="stop-color:#A6DEFB"/>
				<stop offset="0.8921" style="stop-color:#D9F1FD"/>
				<stop offset="1" style="stop-color:#FFFFFF"/>
			</linearGradient>
			<path class="st32" d="M117.2,120c0-0.8-0.5-1.7-1.2-2.1c-0.3-0.2-0.6-0.2-0.8-0.1v0l-0.8,0.5l0.5,0c0,0.1,0,0.2,0,0.3     c0,0.8,0.5,1.7,1.2,2.1c0.1,0.1,0.2,0.1,0.3,0.1l-0.2,0.5l0.8-0.5l0,0C117.1,120.6,117.2,120.4,117.2,120z"/>
			<path class="st0" d="M116.4,120.5c0,0.8-0.5,1.1-1.2,0.7c-0.7-0.4-1.2-1.3-1.2-2.1c0-0.8,0.5-1.1,1.2-0.7     C115.8,118.8,116.4,119.7,116.4,120.5z"/>
			<path class="st3" d="M115.9,120.2c0,0.4-0.3,0.6-0.7,0.4c-0.4-0.2-0.7-0.7-0.7-1.2s0.3-0.6,0.7-0.4     C115.6,119.2,115.9,119.7,115.9,120.2z"/>
		</g>
		<g>
			
				<linearGradient id="SVGID_24_" gradientUnits="userSpaceOnUse" x1="5939.9058" y1="104.0786" x2="5942.7847" y2="104.0786" gradientTransform="matrix(1 0 0 1 -5850.647 0)">
				<stop offset="0" style="stop-color:#2FB3F6"/>
				<stop offset="0.1177" style="stop-color:#34B5F6"/>
				<stop offset="0.2566" style="stop-color:#42BAF7"/>
				<stop offset="0.4062" style="stop-color:#5AC3F8"/>
				<stop offset="0.5634" style="stop-color:#7BCFF9"/>
				<stop offset="0.7265" style="stop-color:#A6DEFB"/>
				<stop offset="0.8921" style="stop-color:#D9F1FD"/>
				<stop offset="1" style="stop-color:#FFFFFF"/>
			</linearGradient>
			<path class="st33" d="M92.1,104.6c0-0.8-0.5-1.7-1.2-2.1c-0.3-0.2-0.6-0.2-0.8-0.1v0l-0.8,0.5l0.5,0c0,0.1,0,0.2,0,0.3     c0,0.8,0.5,1.7,1.2,2.1c0.1,0.1,0.2,0.1,0.3,0.1l-0.2,0.5l0.8-0.5l0,0C92,105.2,92.1,104.9,92.1,104.6z"/>
			<path class="st0" d="M91.3,105.1c0,0.8-0.5,1.1-1.2,0.7c-0.7-0.4-1.2-1.3-1.2-2.1s0.5-1.1,1.2-0.7     C90.8,103.4,91.3,104.3,91.3,105.1z"/>
			<path class="st3" d="M90.8,104.8c0,0.4-0.3,0.6-0.7,0.4c-0.4-0.2-0.7-0.7-0.7-1.2c0-0.4,0.3-0.6,0.7-0.4     C90.5,103.8,90.8,104.3,90.8,104.8z"/>
		</g>
	</g>
	<g>
		<polygon class="st0" points="76.5,82.8 46.5,65.5 76.5,48.2 106.4,65.5   "/>
		
			<linearGradient id="SVGID_25_" gradientUnits="userSpaceOnUse" x1="5892.5967" y1="139.7601" x2="5961.6265" y2="139.7601" gradientTransform="matrix(1 0 0 1 -5850.647 0)">
			<stop offset="0" style="stop-color:#0C7DDB"/>
			<stop offset="0.2109" style="stop-color:#0C82DB"/>
			<stop offset="0.4595" style="stop-color:#0C90DB"/>
			<stop offset="0.7271" style="stop-color:#0CA8DB"/>
			<stop offset="1" style="stop-color:#0CC8DB"/>
		</linearGradient>
		<path class="st34" d="M76.5,160c-0.4,0-0.8-0.1-1.2-0.3l-32.7-18.9c-0.4-0.2-0.6-0.6-0.6-1c0-0.4,0.2-0.8,0.6-1l32.7-18.9    c0.7-0.4,1.7-0.4,2.4,0l32.7,18.9c0.4,0.2,0.6,0.6,0.6,1c0,0.4-0.2,0.8-0.6,1l-32.7,18.9C77.3,159.9,76.9,160,76.5,160z     M76.5,120.4c-0.3,0-0.5,0.1-0.8,0.2L43,139.5c-0.1,0.1-0.2,0.2-0.2,0.3c0,0.1,0,0.2,0.2,0.3l32.7,18.9c0.5,0.3,1.1,0.3,1.5,0    L110,140c0.1-0.1,0.2-0.2,0.2-0.3c0-0.1,0-0.2-0.2-0.3l-32.7-18.9C77,120.5,76.7,120.4,76.5,120.4z"/>
		<g>
			<polygon class="st2" points="76.5,154.4 51.1,139.8 76.5,125.1 101.8,139.8    "/>
		</g>
		<polygon class="st3" points="106.4,65.5 106.4,131.8 76.5,149.1 76.5,82.8   "/>
		<polygon class="st0" points="46.5,65.5 46.5,131.8 76.5,149.1 76.5,82.8   "/>
		<g>
			<polygon class="st2" points="48.6,69.9 48.6,129.5 74.4,144.4 74.4,84.8    "/>
		</g>
		<polygon class="st2" points="101.9,81.5 101.9,83.3 81,95.4 81,93.6   "/>
		<polygon class="st2" points="101.9,88.9 101.9,90.7 81,102.8 81,101   "/>
		<polygon class="st2" points="101.9,96.4 101.9,98.1 81,110.2 81,108.4   "/>
		<polygon class="st2" points="101.9,103.8 101.9,105.5 81,117.6 81,115.9   "/>
		<polygon class="st2" points="101.9,111.2 101.9,112.9 81,125 81,123.3   "/>
		<polygon class="st2" points="101.9,118.6 101.9,120.3 81,132.4 81,130.7   "/>
		<defs>
			<filter id="Adobe_OpacityMaskFilter_6_" filterUnits="userSpaceOnUse" x="46.5" y="51.7" width="29.9" height="26.6">
				<feFlood style="flood-color:white;flood-opacity:1" result="back"/>
				<feBlend in="SourceGraphic" in2="back" mode="normal"/>
			</filter>
		</defs>
		<mask maskUnits="userSpaceOnUse" x="46.5" y="51.7" width="29.9" height="26.6" id="SVGID_26_">
			<g class="st35">
				<defs>
					<filter id="Adobe_OpacityMaskFilter_7_" filterUnits="userSpaceOnUse" x="46.5" y="51.7" width="29.9" height="26.6">
						<feFlood style="flood-color:white;flood-opacity:1" result="back"/>
						<feBlend in="SourceGraphic" in2="back" mode="normal"/>
					</filter>
				</defs>
				<mask maskUnits="userSpaceOnUse" x="46.5" y="51.7" width="29.9" height="26.6" id="SVGID_26_">
					<g class="st36">
					</g>
				</mask>
				
					<linearGradient id="SVGID_27_" gradientUnits="userSpaceOnUse" x1="5897.1934" y1="64.9538" x2="5927.1118" y2="64.9538" gradientTransform="matrix(1 0 0 1 -5850.647 0)">
					<stop offset="0" style="stop-color:#000000"/>
					<stop offset="4.693538e-02" style="stop-color:#2F2F2F"/>
					<stop offset="9.814870e-02" style="stop-color:#5A5A5A"/>
					<stop offset="0.155" style="stop-color:#828282"/>
					<stop offset="0.2161" style="stop-color:#A4A4A4"/>
					<stop offset="0.2828" style="stop-color:#C0C0C0"/>
					<stop offset="0.3571" style="stop-color:#D7D7D7"/>
					<stop offset="0.442" style="stop-color:#E9E9E9"/>
					<stop offset="0.5443" style="stop-color:#F6F6F6"/>
					<stop offset="0.6813" style="stop-color:#FDFDFD"/>
					<stop offset="1" style="stop-color:#FFFFFF"/>
				</linearGradient>
				<polygon class="st37" points="76.5,78.2 68.6,78.2 46.5,65.5 70.5,51.7 76.5,51.7     "/>
			</g>
		</mask>
		<polygon class="st7" points="76.5,78.2 68.6,78.2 46.5,65.5 70.5,51.7 76.5,51.7   "/>
		<g>
			
				<linearGradient id="SVGID_28_" gradientUnits="userSpaceOnUse" x1="54.7567" y1="64.1917" x2="98.1725" y2="64.1917" gradientTransform="matrix(-1 0 0 1 152.9291 0)">
				<stop offset="0" style="stop-color:#2FB3F6"/>
				<stop offset="0.1177" style="stop-color:#34B5F6"/>
				<stop offset="0.2566" style="stop-color:#42BAF7"/>
				<stop offset="0.4062" style="stop-color:#5AC3F8"/>
				<stop offset="0.5634" style="stop-color:#7BCFF9"/>
				<stop offset="0.7265" style="stop-color:#A6DEFB"/>
				<stop offset="0.8921" style="stop-color:#D9F1FD"/>
				<stop offset="1" style="stop-color:#FFFFFF"/>
			</linearGradient>
			<polygon class="st38" points="76.5,76.7 54.8,64.2 76.5,51.7 98.2,64.2    "/>
			<polygon class="st9" points="98.2,64.2 98.2,65.7 76.5,78.2 76.5,76.7    "/>
			<polygon class="st2" points="54.8,64.2 54.8,65.7 76.5,78.2 76.5,76.7    "/>
		</g>
		<g>
			<g>
				<polygon class="st0" points="68,64.4 67.1,63.8 67.2,63.4 76.1,58.2 77.3,58.8 77.1,59.2     "/>
				<polygon class="st2" points="76.1,58.6 77.1,59.2 77.7,58.8 76.1,57.9 66.5,63.5 67.1,63.8     "/>
			</g>
			<g>
				<polygon class="st0" points="71,66.1 70,65.5 70.1,65.1 79,59.9 80.2,60.5 80,60.9     "/>
				<polygon class="st2" points="79,60.3 80,60.9 80.6,60.5 79,59.6 69.4,65.2 70,65.5     "/>
			</g>
			<g>
				<polygon class="st0" points="73.9,67.8 72.9,67.2 73,66.7 81.9,61.6 83.2,62.1 82.9,62.5     "/>
				<polygon class="st2" points="82,62 82.9,62.5 83.5,62.2 82,61.3 72.3,66.8 72.9,67.2     "/>
			</g>
			<g>
				<polygon class="st0" points="76.8,69.4 75.8,68.9 75.9,68.4 84.8,63.2 86.1,63.8 85.8,64.2     "/>
				<polygon class="st2" points="84.9,63.7 85.8,64.2 86.5,63.9 84.9,62.9 75.2,68.5 75.8,68.9     "/>
			</g>
		</g>
		<g class="st10">
			<polygon class="st11" points="46.5,121.3 76.5,103.3 76.5,82.8 46.5,65.5    "/>
		</g>
		<g>
			
				<linearGradient id="SVGID_29_" gradientUnits="userSpaceOnUse" x1="5923.0479" y1="85.2857" x2="5925.9268" y2="85.2857" gradientTransform="matrix(1 0 0 1 -5850.647 0)">
				<stop offset="0" style="stop-color:#2FB3F6"/>
				<stop offset="0.1177" style="stop-color:#34B5F6"/>
				<stop offset="0.2566" style="stop-color:#42BAF7"/>
				<stop offset="0.4062" style="stop-color:#5AC3F8"/>
				<stop offset="0.5634" style="stop-color:#7BCFF9"/>
				<stop offset="0.7265" style="stop-color:#A6DEFB"/>
				<stop offset="0.8921" style="stop-color:#D9F1FD"/>
				<stop offset="1" style="stop-color:#FFFFFF"/>
			</linearGradient>
			<path class="st39" d="M75.3,85.8c0-0.8-0.5-1.7-1.2-2.1c-0.3-0.2-0.6-0.2-0.8-0.1v0l-0.8,0.5l0.5,0c0,0.1,0,0.2,0,0.3     c0,0.8,0.5,1.7,1.2,2.1c0.1,0.1,0.2,0.1,0.3,0.1L74.1,87l0.8-0.5l0,0C75.1,86.4,75.3,86.2,75.3,85.8z"/>
			<path class="st0" d="M74.4,86.3c0,0.8-0.5,1.1-1.2,0.7c-0.7-0.4-1.2-1.3-1.2-2.1s0.5-1.1,1.2-0.7C73.9,84.6,74.4,85.5,74.4,86.3z     "/>
			<path class="st3" d="M73.9,86c0,0.4-0.3,0.6-0.7,0.4c-0.4-0.2-0.7-0.7-0.7-1.2s0.3-0.6,0.7-0.4C73.6,85,73.9,85.5,73.9,86z"/>
		</g>
		<g>
			
				<linearGradient id="SVGID_30_" gradientUnits="userSpaceOnUse" x1="5897.9561" y1="69.8686" x2="5900.835" y2="69.8686" gradientTransform="matrix(1 0 0 1 -5850.647 0)">
				<stop offset="0" style="stop-color:#2FB3F6"/>
				<stop offset="0.1177" style="stop-color:#34B5F6"/>
				<stop offset="0.2566" style="stop-color:#42BAF7"/>
				<stop offset="0.4062" style="stop-color:#5AC3F8"/>
				<stop offset="0.5634" style="stop-color:#7BCFF9"/>
				<stop offset="0.7265" style="stop-color:#A6DEFB"/>
				<stop offset="0.8921" style="stop-color:#D9F1FD"/>
				<stop offset="1" style="stop-color:#FFFFFF"/>
			</linearGradient>
			<path class="st40" d="M50.2,70.4c0-0.8-0.5-1.7-1.2-2.1c-0.3-0.2-0.6-0.2-0.8-0.1v0l-0.8,0.5l0.5,0c0,0.1,0,0.2,0,0.3     c0,0.8,0.5,1.7,1.2,2.1c0.1,0.1,0.2,0.1,0.3,0.1L49,71.6l0.8-0.5l0,0C50.1,71,50.2,70.7,50.2,70.4z"/>
			<path class="st0" d="M49.3,70.8c0,0.8-0.5,1.1-1.2,0.7c-0.7-0.4-1.2-1.3-1.2-2.1c0-0.8,0.5-1.1,1.2-0.7     C48.8,69.2,49.3,70.1,49.3,70.8z"/>
			<path class="st3" d="M48.8,70.6c0,0.4-0.3,0.6-0.7,0.4c-0.4-0.2-0.7-0.7-0.7-1.2s0.3-0.6,0.7-0.4C48.5,69.6,48.8,70.1,48.8,70.6z     "/>
		</g>
		<g>
			
				<linearGradient id="SVGID_31_" gradientUnits="userSpaceOnUse" x1="5923.0479" y1="144.6654" x2="5925.9268" y2="144.6654" gradientTransform="matrix(1 0 0 1 -5850.647 0)">
				<stop offset="0" style="stop-color:#2FB3F6"/>
				<stop offset="0.1177" style="stop-color:#34B5F6"/>
				<stop offset="0.2566" style="stop-color:#42BAF7"/>
				<stop offset="0.4062" style="stop-color:#5AC3F8"/>
				<stop offset="0.5634" style="stop-color:#7BCFF9"/>
				<stop offset="0.7265" style="stop-color:#A6DEFB"/>
				<stop offset="0.8921" style="stop-color:#D9F1FD"/>
				<stop offset="1" style="stop-color:#FFFFFF"/>
			</linearGradient>
			<path class="st41" d="M75.3,145.1c0-0.8-0.5-1.7-1.2-2.1c-0.3-0.2-0.6-0.2-0.8-0.1v0l-0.8,0.5l0.5,0c0,0.1,0,0.2,0,0.3     c0,0.8,0.5,1.7,1.2,2.1c0.1,0.1,0.2,0.1,0.3,0.1l-0.2,0.5l0.8-0.5l0,0C75.1,145.8,75.3,145.5,75.3,145.1z"/>
			<path class="st0" d="M74.4,145.6c0,0.8-0.5,1.1-1.2,0.7c-0.7-0.4-1.2-1.3-1.2-2.1s0.5-1.1,1.2-0.7     C73.9,144,74.4,144.9,74.4,145.6z"/>
			<path class="st3" d="M73.9,145.4c0,0.4-0.3,0.6-0.7,0.4c-0.4-0.2-0.7-0.7-0.7-1.2c0-0.4,0.3-0.6,0.7-0.4     C73.6,144.4,73.9,144.9,73.9,145.4z"/>
		</g>
		<g>
			
				<linearGradient id="SVGID_32_" gradientUnits="userSpaceOnUse" x1="5897.9561" y1="129.2484" x2="5900.835" y2="129.2484" gradientTransform="matrix(1 0 0 1 -5850.647 0)">
				<stop offset="0" style="stop-color:#2FB3F6"/>
				<stop offset="0.1177" style="stop-color:#34B5F6"/>
				<stop offset="0.2566" style="stop-color:#42BAF7"/>
				<stop offset="0.4062" style="stop-color:#5AC3F8"/>
				<stop offset="0.5634" style="stop-color:#7BCFF9"/>
				<stop offset="0.7265" style="stop-color:#A6DEFB"/>
				<stop offset="0.8921" style="stop-color:#D9F1FD"/>
				<stop offset="1" style="stop-color:#FFFFFF"/>
			</linearGradient>
			<path class="st42" d="M50.2,129.7c0-0.8-0.5-1.7-1.2-2.1c-0.3-0.2-0.6-0.2-0.8-0.1v0l-0.8,0.5l0.5,0c0,0.1,0,0.2,0,0.3     c0,0.8,0.5,1.7,1.2,2.1c0.1,0.1,0.2,0.1,0.3,0.1L49,131l0.8-0.5l0,0C50.1,130.4,50.2,130.1,50.2,129.7z"/>
			<path class="st0" d="M49.3,130.2c0,0.8-0.5,1.1-1.2,0.7c-0.7-0.4-1.2-1.3-1.2-2.1s0.5-1.1,1.2-0.7     C48.8,128.5,49.3,129.5,49.3,130.2z"/>
			<path class="st3" d="M48.8,129.9c0,0.4-0.3,0.6-0.7,0.4c-0.4-0.2-0.7-0.7-0.7-1.2c0-0.4,0.3-0.6,0.7-0.4     C48.5,129,48.8,129.5,48.8,129.9z"/>
		</g>
	</g>
</g>
</svg>