<?xml version="1.0" encoding="UTF-8"?>
<!-- Generator: Adobe Illustrator 23.0.3, SVG Export Plug-In . SVG Version: 6.00 Build 0)  -->
<svg version="1.1" id="Ñëîé_1" xmlns="http://www.w3.org/2000/svg" xmlns:xlink="http://www.w3.org/1999/xlink" x="0px" y="0px" viewBox="0 0 165.7 160" style="enable-background:new 0 0 165.7 160;" xml:space="preserve">
<style type="text/css">
	.st0{fill:#0C5ADB;}
	.st1{opacity:0.2;}
	.st2{fill:#FFFFFF;}
	.st3{opacity:0.15;}
	.st4{fill:url(#SVGID_1_);}
	.st5{fill:#BCBEFF;}
	.st6{fill:url(#SVGID_2_);}
	.st7{fill:#1071FF;}
	.st8{fill:url(#SVGID_3_);}
	.st9{fill:url(#SVGID_4_);}
	.st10{fill:url(#SVGID_5_);}
	.st11{fill:url(#SVGID_6_);}
	.st12{fill:url(#SVGID_7_);}
	.st13{fill:url(#SVGID_8_);}
	.st14{fill:url(#SVGID_9_);}
	.st15{fill:url(#SVGID_10_);}
	.st16{fill:url(#SVGID_11_);}
	.st17{fill:url(#SVGID_12_);}
	.st18{fill:url(#SVGID_13_);}
	.st19{fill:url(#SVGID_14_);}
	.st20{fill:url(#SVGID_15_);}
	.st21{fill:url(#SVGID_16_);}
	.st22{fill:url(#SVGID_17_);}
	.st23{opacity:0.5;fill:#FFFFFF;}
	.st24{opacity:0.5;fill:url(#SVGID_18_);}
	.st25{opacity:0.5;fill:url(#SVGID_19_);}
	.st26{opacity:0.5;fill:url(#SVGID_20_);}
	.st27{opacity:0.5;fill:url(#SVGID_21_);}
	.st28{opacity:0.5;fill:url(#SVGID_22_);}
	.st29{opacity:0.5;fill:url(#SVGID_23_);}
	.st30{fill:url(#SVGID_24_);}
	.st31{fill:url(#SVGID_25_);}
	.st32{fill:url(#SVGID_26_);}
	.st33{fill:url(#SVGID_27_);}
	.st34{fill:url(#SVGID_28_);}
	.st35{fill:url(#SVGID_29_);}
	.st36{fill:url(#SVGID_30_);}
	.st37{fill:url(#SVGID_31_);}
	.st38{fill:url(#SVGID_32_);}
	.st39{fill:url(#SVGID_33_);}
	.st40{fill:url(#SVGID_34_);}
	.st41{fill:url(#SVGID_35_);}
	.st42{fill:url(#SVGID_36_);}
	.st43{fill:url(#SVGID_37_);}
	.st44{fill:url(#SVGID_38_);}
	.st45{fill:url(#SVGID_39_);}
</style>
<g>
	<g>
		<g>
			<polygon class="st0" points="82.9,160 0,112.2 82.9,64.3 165.7,112.2    "/>
		</g>
		<g class="st1">
			<polygon points="82.9,152.6 12.9,112.2 82.9,71.7 152.9,112.2    "/>
		</g>
		<g>
			<path class="st2" d="M82.9,153l-0.2-0.1l-70.5-40.7l70.7-40.8l0.2,0.1l70.5,40.7L82.9,153z M13.6,112.2l69.3,40l69.3-40l-69.3-40     L13.6,112.2z"/>
		</g>
		<g class="st3">
			<polygon points="82.9,144 27.8,112.2 82.9,80.3 138,112.2    "/>
		</g>
	</g>
	<linearGradient id="SVGID_1_" gradientUnits="userSpaceOnUse" x1="39.8073" y1="112.2574" x2="121.6089" y2="112.2574">
		<stop offset="0" style="stop-color:#0C7DDB"/>
		<stop offset="0.2109" style="stop-color:#0C82DB"/>
		<stop offset="0.4595" style="stop-color:#0C90DB"/>
		<stop offset="0.7271" style="stop-color:#0CA8DB"/>
		<stop offset="1" style="stop-color:#0CC8DB"/>
	</linearGradient>
	<path class="st4" d="M80.7,136c-0.3,0-0.6-0.1-0.9-0.2L40.3,113c-0.3-0.2-0.5-0.5-0.5-0.8c0-0.3,0.2-0.6,0.5-0.8l38.9-22.5   c0.9-0.5,2.1-0.5,3.1,0l38.9,22.5c0.3,0.2,0.5,0.5,0.5,0.8c0,0.3-0.2,0.6-0.5,0.8l-39.6,22.8C81.3,136,81,136,80.7,136z M80.7,89.2   c-0.4,0-0.8,0.1-1.2,0.3l-38.9,22.5c-0.1,0.1-0.1,0.2-0.1,0.2s0,0.1,0.1,0.2l39.6,22.8c0.3,0.2,0.7,0.2,1,0l39.6-22.8   c0.1-0.1,0.1-0.2,0.1-0.2c0,0,0-0.1-0.1-0.2L81.9,89.5C81.5,89.3,81.1,89.2,80.7,89.2z"/>
	<polygon class="st5" points="80.7,120.8 50.3,103.2 80.7,85.6 111.2,103.2  "/>
	<linearGradient id="SVGID_2_" gradientUnits="userSpaceOnUse" x1="45.0258" y1="109.0587" x2="116.3904" y2="109.0587">
		<stop offset="0.5" style="stop-color:#0C46DB"/>
		<stop offset="0.5" style="stop-color:#0C4BDB"/>
		<stop offset="0.5" style="stop-color:#0C59DB"/>
		<stop offset="0.5" style="stop-color:#0C5ADB"/>
	</linearGradient>
	<polygon class="st6" points="116.4,94.1 116.4,103.4 80.7,124 45,103.4 45,94.1  "/>
	<polygon class="st7" points="80.7,114.7 45,94.1 80.7,73.5 116.4,94.1  "/>
	<polygon class="st5" points="80.7,103.4 50.3,85.8 80.7,68.2 111.2,85.8  "/>
	<linearGradient id="SVGID_3_" gradientUnits="userSpaceOnUse" x1="50.2509" y1="98.9648" x2="111.1653" y2="98.9648">
		<stop offset="0" style="stop-color:#0C7DDB"/>
		<stop offset="0.2109" style="stop-color:#0C82DB"/>
		<stop offset="0.4595" style="stop-color:#0C90DB"/>
		<stop offset="0.7271" style="stop-color:#0CA8DB"/>
		<stop offset="1" style="stop-color:#0CC8DB"/>
	</linearGradient>
	<polygon class="st8" points="111.2,85.8 111.2,94.6 80.7,112.2 50.3,94.6 50.3,85.8  "/>
	<linearGradient id="SVGID_4_" gradientUnits="userSpaceOnUse" x1="45.0258" y1="91.6117" x2="116.3904" y2="91.6117">
		<stop offset="0.5" style="stop-color:#0C46DB"/>
		<stop offset="0.5" style="stop-color:#0C4BDB"/>
		<stop offset="0.5" style="stop-color:#0C59DB"/>
		<stop offset="0.5" style="stop-color:#0C5ADB"/>
	</linearGradient>
	<polygon class="st9" points="116.4,76.7 116.4,85.9 80.7,106.5 45,85.9 45,76.7  "/>
	<polygon class="st7" points="80.7,97.3 45,76.7 80.7,56.1 116.4,76.7  "/>
	<polygon class="st5" points="80.7,85.9 50.3,68.3 80.7,50.7 111.2,68.3  "/>
	<linearGradient id="SVGID_5_" gradientUnits="userSpaceOnUse" x1="50.2509" y1="81.5178" x2="111.1653" y2="81.5178">
		<stop offset="0" style="stop-color:#0C7DDB"/>
		<stop offset="0.2109" style="stop-color:#0C82DB"/>
		<stop offset="0.4595" style="stop-color:#0C90DB"/>
		<stop offset="0.7271" style="stop-color:#0CA8DB"/>
		<stop offset="1" style="stop-color:#0CC8DB"/>
	</linearGradient>
	<polygon class="st10" points="111.2,68.3 111.2,77.1 80.7,94.7 50.3,77.1 50.3,68.3  "/>
	<linearGradient id="SVGID_6_" gradientUnits="userSpaceOnUse" x1="45.0258" y1="74.1648" x2="116.3904" y2="74.1648">
		<stop offset="0.5" style="stop-color:#0C46DB"/>
		<stop offset="0.5" style="stop-color:#0C4BDB"/>
		<stop offset="0.5" style="stop-color:#0C59DB"/>
		<stop offset="0.5" style="stop-color:#0C5ADB"/>
	</linearGradient>
	<polygon class="st11" points="116.4,59.2 116.4,68.5 80.7,89.1 45,68.5 45,59.2  "/>
	<polygon class="st7" points="80.7,79.8 45,59.2 80.7,38.6 116.4,59.2  "/>
	<polygon class="st5" points="80.7,68.5 50.3,50.9 80.7,33.3 111.2,50.9  "/>
	<linearGradient id="SVGID_7_" gradientUnits="userSpaceOnUse" x1="50.2509" y1="64.0709" x2="111.1653" y2="64.0709">
		<stop offset="0" style="stop-color:#0C7DDB"/>
		<stop offset="0.2109" style="stop-color:#0C82DB"/>
		<stop offset="0.4595" style="stop-color:#0C90DB"/>
		<stop offset="0.7271" style="stop-color:#0CA8DB"/>
		<stop offset="1" style="stop-color:#0CC8DB"/>
	</linearGradient>
	<polygon class="st12" points="111.2,50.9 111.2,59.7 80.7,77.3 50.3,59.7 50.3,50.9  "/>
	<linearGradient id="SVGID_8_" gradientUnits="userSpaceOnUse" x1="45.0258" y1="56.7179" x2="116.3904" y2="56.7179">
		<stop offset="0.5" style="stop-color:#0C46DB"/>
		<stop offset="0.5" style="stop-color:#0C4BDB"/>
		<stop offset="0.5" style="stop-color:#0C59DB"/>
		<stop offset="0.5" style="stop-color:#0C5ADB"/>
	</linearGradient>
	<polygon class="st13" points="116.4,41.8 116.4,51 80.7,71.6 45,51 45,41.8  "/>
	<polygon class="st7" points="80.7,62.4 45,41.8 80.7,21.2 116.4,41.8  "/>
	<polygon class="st5" points="80.7,51 50.3,33.4 80.7,15.9 111.2,33.4  "/>
	<linearGradient id="SVGID_9_" gradientUnits="userSpaceOnUse" x1="50.2509" y1="46.6239" x2="111.1653" y2="46.6239">
		<stop offset="0" style="stop-color:#0C7DDB"/>
		<stop offset="0.2109" style="stop-color:#0C82DB"/>
		<stop offset="0.4595" style="stop-color:#0C90DB"/>
		<stop offset="0.7271" style="stop-color:#0CA8DB"/>
		<stop offset="1" style="stop-color:#0CC8DB"/>
	</linearGradient>
	<polygon class="st14" points="111.2,33.4 111.2,42.2 80.7,59.8 50.3,42.2 50.3,33.4  "/>
	<linearGradient id="SVGID_10_" gradientUnits="userSpaceOnUse" x1="45.0258" y1="39.2709" x2="116.3904" y2="39.2709">
		<stop offset="0.5" style="stop-color:#0C46DB"/>
		<stop offset="0.5" style="stop-color:#0C4BDB"/>
		<stop offset="0.5" style="stop-color:#0C59DB"/>
		<stop offset="0.5" style="stop-color:#0C5ADB"/>
	</linearGradient>
	<polygon class="st15" points="116.4,24.4 116.4,33.6 80.7,54.2 45,33.6 45,24.4  "/>
	<polygon class="st0" points="80.7,45 45,24.4 80.7,3.7 116.4,24.4  "/>
	<linearGradient id="SVGID_11_" gradientUnits="userSpaceOnUse" x1="50.2509" y1="50.2009" x2="111.1653" y2="50.2009">
		<stop offset="0" style="stop-color:#4BCEF6;stop-opacity:0"/>
		<stop offset="0.5" style="stop-color:#4BCEF6"/>
		<stop offset="1" style="stop-color:#4BCEF6;stop-opacity:0"/>
	</linearGradient>
	<polygon class="st16" points="50.3,40.6 50.3,42.2 80.7,59.8 111.2,42.2 111.2,40.6 80.7,58.2  "/>
	<linearGradient id="SVGID_12_" gradientUnits="userSpaceOnUse" x1="50.2509" y1="67.6479" x2="111.1653" y2="67.6479">
		<stop offset="0" style="stop-color:#4BCEF6;stop-opacity:0"/>
		<stop offset="0.5" style="stop-color:#4BCEF6"/>
		<stop offset="1" style="stop-color:#4BCEF6;stop-opacity:0"/>
	</linearGradient>
	<polygon class="st17" points="50.3,58 50.3,59.7 80.7,77.3 111.2,59.7 111.2,58 80.7,75.6  "/>
	<linearGradient id="SVGID_13_" gradientUnits="userSpaceOnUse" x1="50.2509" y1="85.0949" x2="111.1653" y2="85.0949">
		<stop offset="0" style="stop-color:#4BCEF6;stop-opacity:0"/>
		<stop offset="0.5" style="stop-color:#4BCEF6"/>
		<stop offset="1" style="stop-color:#4BCEF6;stop-opacity:0"/>
	</linearGradient>
	<polygon class="st18" points="50.3,75.5 50.3,77.1 80.7,94.7 111.2,77.1 111.2,75.5 80.7,93.1  "/>
	<linearGradient id="SVGID_14_" gradientUnits="userSpaceOnUse" x1="50.2509" y1="102.5419" x2="111.1653" y2="102.5419">
		<stop offset="0" style="stop-color:#4BCEF6;stop-opacity:0"/>
		<stop offset="0.5" style="stop-color:#4BCEF6"/>
		<stop offset="1" style="stop-color:#4BCEF6;stop-opacity:0"/>
	</linearGradient>
	<polygon class="st19" points="50.3,92.9 50.3,94.6 80.7,112.2 111.2,94.6 111.2,92.9 80.7,110.5  "/>
	<linearGradient id="SVGID_15_" gradientUnits="userSpaceOnUse" x1="45.0258" y1="34.5308" x2="116.3904" y2="34.5308">
		<stop offset="0" style="stop-color:#0C7DDB"/>
		<stop offset="0.2109" style="stop-color:#0C82DB"/>
		<stop offset="0.4595" style="stop-color:#0C90DB"/>
		<stop offset="0.7271" style="stop-color:#0CA8DB"/>
		<stop offset="1" style="stop-color:#0CC8DB"/>
	</linearGradient>
	<polygon class="st20" points="80.7,44.5 45.4,24.1 45,24.4 80.7,45 116.4,24.4 116,24.1  "/>
	<g>
		<linearGradient id="SVGID_16_" gradientUnits="userSpaceOnUse" x1="57.8472" y1="28.4808" x2="90.4272" y2="28.4808">
			<stop offset="0" style="stop-color:#0C7DDB"/>
			<stop offset="0.2109" style="stop-color:#0C82DB"/>
			<stop offset="0.4595" style="stop-color:#0C90DB"/>
			<stop offset="0.7271" style="stop-color:#0CA8DB"/>
			<stop offset="1" style="stop-color:#0CC8DB"/>
		</linearGradient>
		<polygon class="st21" points="103.6,24.2 103.6,19.6 80.7,32.2 57.8,19.6 57.8,24.2 80.7,37.4   "/>
		<linearGradient id="SVGID_17_" gradientUnits="userSpaceOnUse" x1="57.8472" y1="19.5748" x2="103.569" y2="19.5748">
			<stop offset="0" style="stop-color:#2FB3F6"/>
			<stop offset="0.1177" style="stop-color:#34B5F6"/>
			<stop offset="0.2566" style="stop-color:#42BAF7"/>
			<stop offset="0.4062" style="stop-color:#5AC3F8"/>
			<stop offset="0.5634" style="stop-color:#7BCFF9"/>
			<stop offset="0.7265" style="stop-color:#A6DEFB"/>
			<stop offset="0.8921" style="stop-color:#D9F1FD"/>
			<stop offset="1" style="stop-color:#FFFFFF"/>
		</linearGradient>
		<polygon class="st22" points="80.7,32.8 57.8,19.6 80.7,6.4 103.6,19.6   "/>
		<polygon class="st23" points="80.7,32.4 58.2,19.4 57.8,19.6 80.7,32.8 103.6,19.6 103.2,19.4   "/>
		<polygon class="st0" points="80.7,30.3 62.1,19.6 80.7,8.8 99.3,19.6   "/>
		<g>
			<linearGradient id="SVGID_18_" gradientUnits="userSpaceOnUse" x1="66.5751" y1="19.5749" x2="94.8411" y2="19.5749">
				<stop offset="0" style="stop-color:#42E8E0"/>
				<stop offset="0.1507" style="stop-color:#43E3E0"/>
				<stop offset="0.3285" style="stop-color:#45D5DF"/>
				<stop offset="0.5199" style="stop-color:#49BDDD"/>
				<stop offset="0.7209" style="stop-color:#4E9CDB"/>
				<stop offset="0.9274" style="stop-color:#5472D8"/>
				<stop offset="1" style="stop-color:#5761D7"/>
			</linearGradient>
			<polygon class="st24" points="80.7,27.7 66.6,19.6 80.7,11.4 94.8,19.6    "/>
			<g>
				<linearGradient id="SVGID_19_" gradientUnits="userSpaceOnUse" x1="80.7079" y1="9.7875" x2="94.8411" y2="9.7875">
					<stop offset="0" style="stop-color:#42E8E0"/>
					<stop offset="0.1507" style="stop-color:#43E3E0"/>
					<stop offset="0.3285" style="stop-color:#45D5DF"/>
					<stop offset="0.5199" style="stop-color:#49BDDD"/>
					<stop offset="0.7209" style="stop-color:#4E9CDB"/>
					<stop offset="0.9274" style="stop-color:#5472D8"/>
					<stop offset="1" style="stop-color:#5761D7"/>
				</linearGradient>
				<polygon class="st25" points="80.7,0 94.8,8.2 94.8,19.6 80.7,11.4     "/>
				<linearGradient id="SVGID_20_" gradientUnits="userSpaceOnUse" x1="66.5751" y1="9.7874" x2="80.7083" y2="9.7874">
					<stop offset="0" style="stop-color:#42E8E0"/>
					<stop offset="0.1507" style="stop-color:#43E3E0"/>
					<stop offset="0.3285" style="stop-color:#45D5DF"/>
					<stop offset="0.5199" style="stop-color:#49BDDD"/>
					<stop offset="0.7209" style="stop-color:#4E9CDB"/>
					<stop offset="0.9274" style="stop-color:#5472D8"/>
					<stop offset="1" style="stop-color:#5761D7"/>
				</linearGradient>
				<polygon class="st26" points="80.7,11.4 66.6,19.6 66.6,8.2 80.7,0     "/>
				<linearGradient id="SVGID_21_" gradientUnits="userSpaceOnUse" x1="66.5751" y1="8.1597" x2="94.8411" y2="8.1597">
					<stop offset="0" style="stop-color:#42E8E0"/>
					<stop offset="0.1507" style="stop-color:#43E3E0"/>
					<stop offset="0.3285" style="stop-color:#45D5DF"/>
					<stop offset="0.5199" style="stop-color:#49BDDD"/>
					<stop offset="0.7209" style="stop-color:#4E9CDB"/>
					<stop offset="0.9274" style="stop-color:#5472D8"/>
					<stop offset="1" style="stop-color:#5761D7"/>
				</linearGradient>
				<polygon class="st27" points="80.7,16.3 66.6,8.2 80.7,0 94.8,8.2     "/>
				<linearGradient id="SVGID_22_" gradientUnits="userSpaceOnUse" x1="80.7083" y1="17.9472" x2="94.8411" y2="17.9472">
					<stop offset="0" style="stop-color:#42E8E0"/>
					<stop offset="0.2004" style="stop-color:#43E3DF"/>
					<stop offset="0.4367" style="stop-color:#47D5DE"/>
					<stop offset="0.691" style="stop-color:#4DBDDB"/>
					<stop offset="0.9564" style="stop-color:#559CD8"/>
					<stop offset="1" style="stop-color:#5796D7"/>
				</linearGradient>
				<polygon class="st28" points="80.7,16.3 80.7,27.7 94.8,19.6 94.8,8.2     "/>
			</g>
			<linearGradient id="SVGID_23_" gradientUnits="userSpaceOnUse" x1="66.5751" y1="17.947" x2="80.7083" y2="17.947">
				<stop offset="0" style="stop-color:#4BCEF6;stop-opacity:0"/>
				<stop offset="0.5" style="stop-color:#4BCEF6"/>
				<stop offset="1" style="stop-color:#4BCEF6;stop-opacity:0"/>
			</linearGradient>
			<polygon class="st29" points="66.6,8.2 66.6,19.6 80.7,27.7 80.7,16.3    "/>
		</g>
	</g>
	
		<linearGradient id="SVGID_24_" gradientUnits="userSpaceOnUse" x1="-111.6215" y1="-443.0301" x2="-40.5778" y2="-443.0301" gradientTransform="matrix(0.866 -0.5 0 1.1547 186.618 595.2733)">
		<stop offset="0" style="stop-color:#5761D7"/>
		<stop offset="0.1779" style="stop-color:#5C66D9"/>
		<stop offset="0.3876" style="stop-color:#6A73DF"/>
		<stop offset="0.6134" style="stop-color:#8289E8"/>
		<stop offset="0.849" style="stop-color:#A3A7F5"/>
		<stop offset="1" style="stop-color:#BCBEFF"/>
	</linearGradient>
	<path class="st30" d="M141.6,103.7c-1.6,0.9-3,2.2-4.3,3.7c-1.8-5.8-7.4-7.7-13.9-3.9c-5.4,3.1-10.2,9.3-12.7,15.8   c-0.8,0-1.8,0.3-2.7,0.9c-3.5,2-6.4,7-6.4,11.1c0,0.1,0,0.2,0,0.3c-1,0.1-2.1,0.4-3.3,1.1c-4.5,2.6-8.2,9-8.2,14.2   c0,5.2,3.7,7.4,8.2,4.7l43.4-25.1c5.5-3.2,9.9-10.8,9.9-17.2C151.5,103.1,147,100.5,141.6,103.7z"/>
	
		<radialGradient id="SVGID_25_" cx="110.096" cy="121.988" r="30.0817" fx="81.7277" fy="111.9805" gradientTransform="matrix(0.9756 0 0 0.9756 -2.9981 2.0372)" gradientUnits="userSpaceOnUse">
		<stop offset="0" style="stop-color:#2B237C"/>
		<stop offset="1" style="stop-color:#180D5B"/>
	</radialGradient>
	<path class="st31" d="M141.6,103.7c-0.9,0.5-1.8,1.2-2.6,1.9l-4.9-2.8l0,0c-2.7-1.9-6.5-1.8-10.8,0.7c-5.4,3.1-10.2,9.3-12.7,15.8   c-0.8,0-1.8,0.3-2.7,0.9c-3.5,2-6.4,7-6.4,11.1c0,0.1,0,0.2,0,0.3c-1,0.1-2.1,0.4-3.3,1.1c-4.5,2.6-8.2,9-8.2,14.2   c0,2.6,0.9,4.4,2.4,5.3l0,0l0,0c0,0,0,0,0,0l11.9,6.9l2.6-12.5l34.7-20c5.5-3.2,9.9-10.8,9.9-17.2   C151.5,103.1,147,100.5,141.6,103.7z"/>
	<linearGradient id="SVGID_26_" gradientUnits="userSpaceOnUse" x1="89.9537" y1="130.2683" x2="160.6723" y2="130.2683">
		<stop offset="0" style="stop-color:#0C5ADB"/>
		<stop offset="0.1694" style="stop-color:#0C5FDB"/>
		<stop offset="0.3692" style="stop-color:#0C6DDB"/>
		<stop offset="0.5843" style="stop-color:#0C85DB"/>
		<stop offset="0.8085" style="stop-color:#0CA6DB"/>
		<stop offset="1" style="stop-color:#0CC8DB"/>
	</linearGradient>
	<path class="st32" d="M160.7,110l-12-7l0,0c-1.8-1.1-4.3-0.9-7.1,0.7c-0.9,0.5-1.8,1.2-2.6,1.9l-4.9-2.8l0,0   c-2.7-1.9-6.5-1.8-10.8,0.7c-5.4,3.1-10.2,9.3-12.7,15.8c-0.8,0-1.8,0.3-2.7,0.9c-3.5,2-6.4,7-6.4,11.1c0,0.1,0,0.2,0,0.3   c-1,0.1-2.1,0.4-3.3,1.1c-4.5,2.6-8.2,9-8.2,14.2c0,2.6,0.9,4.4,2.4,5.3l0,0l0,0c0,0,0,0,0,0l11.9,6.9l2.6-12.5l34.7-20   c4.4-2.6,8.2-8.1,9.5-13.5L160.7,110z"/>
	<g>
		
			<linearGradient id="SVGID_27_" gradientUnits="userSpaceOnUse" x1="-97.5617" y1="-431.0725" x2="-27.0953" y2="-431.0725" gradientTransform="matrix(0.866 -0.5 0 1.1547 186.618 595.2733)">
			<stop offset="0" style="stop-color:#4BCEF6"/>
			<stop offset="0.1554" style="stop-color:#50CFF6"/>
			<stop offset="0.3386" style="stop-color:#5ED2F7"/>
			<stop offset="0.5359" style="stop-color:#76D7F8"/>
			<stop offset="0.743" style="stop-color:#97DEFA"/>
			<stop offset="0.956" style="stop-color:#C1E7FC"/>
			<stop offset="1" style="stop-color:#CBE9FD"/>
		</linearGradient>
		<path class="st33" d="M106.4,159.4c-2.6,0-4.3-2.2-4.3-5.6c0-5.1,3.6-11.4,8.1-14c1.1-0.6,2.2-1,3.2-1.1l0.2,0l0-0.5    c0-4,2.8-8.9,6.3-10.9c0.9-0.5,1.8-0.8,2.6-0.8l0.2,0l0.1-0.2c2.6-6.7,7.4-12.7,12.6-15.7c2.2-1.3,4.4-2,6.4-2    c3.4,0,6.1,2.1,7.2,5.7l0.1,0.4l0.3-0.3c1.3-1.5,2.8-2.7,4.3-3.6c1.5-0.9,3-1.3,4.3-1.3c3.2,0,5.2,2.6,5.2,6.8    c0,6.2-4.4,13.8-9.8,16.9L110,158.3C108.7,159,107.5,159.4,106.4,159.4C106.4,159.4,106.4,159.4,106.4,159.4z"/>
		<g>
			<path class="st0" d="M141.7,108.9L141.7,108.9c3.3,0,5.9,2,7,5.5l0.3,0.9l0.6-0.7c1.3-1.5,2.7-2.7,4.2-3.6     c1.5-0.9,2.9-1.3,4.2-1.3c3.1,0,5,2.5,5,6.6c0,6.2-4.3,13.7-9.7,16.7l-43.4,25.1c-1.2,0.7-2.4,1.1-3.4,1.1c-2.5,0-4-2.1-4-5.4     c0-5.1,3.6-11.3,8-13.8c1.1-0.6,2.1-1,3.1-1l0.5,0l0-0.5l0-0.1c0,0,0-0.1,0-0.1c0-3.9,2.8-8.7,6.2-10.7c0.9-0.5,1.7-0.8,2.5-0.8     l0.3,0l0.1-0.3c2.5-6.7,7.3-12.6,12.5-15.6C137.7,109.5,139.8,108.9,141.7,108.9 M141.7,108.4c-2,0-4.2,0.6-6.5,2     c-5.4,3.1-10.2,9.3-12.7,15.8c-0.8,0-1.8,0.3-2.7,0.9c-3.5,2-6.4,7-6.4,11.1c0,0.1,0,0.2,0,0.3c-1,0.1-2.1,0.4-3.3,1.1     c-4.5,2.6-8.2,9-8.2,14.2c0,3.7,1.8,5.9,4.5,5.9c1.1,0,2.3-0.4,3.7-1.1l43.4-25.1c5.5-3.2,9.9-10.8,9.9-17.2     c0-4.5-2.2-7.1-5.5-7.1c-1.3,0-2.8,0.4-4.4,1.4c-1.6,0.9-3,2.2-4.3,3.7C148,110.5,145.3,108.4,141.7,108.4L141.7,108.4z"/>
		</g>
	</g>
	<g>
		<linearGradient id="SVGID_28_" gradientUnits="userSpaceOnUse" x1="34.4573" y1="84.1187" x2="34.4573" y2="29.3726">
			<stop offset="0" style="stop-color:#4BCEF6;stop-opacity:0"/>
			<stop offset="0.5" style="stop-color:#4BCEF6"/>
			<stop offset="1" style="stop-color:#4BCEF6;stop-opacity:0"/>
		</linearGradient>
		<path class="st34" d="M34.6,29.6l-0.2,0.1c-0.8,0.5-1.5,1.8-1.5,2.9v50.3c0,1.1,0.7,1.6,1.5,1.1l0.2-0.1c0.8-0.5,1.5-1.8,1.5-2.9    V30.7C36.1,29.6,35.4,29.1,34.6,29.6z"/>
		<linearGradient id="SVGID_29_" gradientUnits="userSpaceOnUse" x1="28.4114" y1="74.6184" x2="28.4114" y2="45.8542">
			<stop offset="0" style="stop-color:#4BCEF6;stop-opacity:0"/>
			<stop offset="0.5" style="stop-color:#4BCEF6"/>
			<stop offset="1" style="stop-color:#4BCEF6;stop-opacity:0"/>
		</linearGradient>
		<path class="st35" d="M28.5,46l-0.2,0.1c-0.8,0.5-1.5,1.8-1.5,2.9v24.3c0,1.1,0.7,1.6,1.5,1.1l0.2-0.1c0.8-0.5,1.5-1.8,1.5-2.9    V47.2C30,46.1,29.4,45.6,28.5,46z"/>
		<linearGradient id="SVGID_30_" gradientUnits="userSpaceOnUse" x1="22.3655" y1="91.1" x2="22.3655" y2="55.1576">
			<stop offset="0" style="stop-color:#4BCEF6;stop-opacity:0"/>
			<stop offset="0.5" style="stop-color:#4BCEF6"/>
			<stop offset="1" style="stop-color:#4BCEF6;stop-opacity:0"/>
		</linearGradient>
		<path class="st36" d="M22.5,55.3l-0.2,0.1c-0.8,0.5-1.5,1.8-1.5,2.9v31.5c0,1.1,0.7,1.6,1.5,1.1l0.2-0.1c0.8-0.5,1.5-1.8,1.5-2.9    V56.5C24,55.4,23.3,54.9,22.5,55.3z"/>
		<linearGradient id="SVGID_31_" gradientUnits="userSpaceOnUse" x1="16.3195" y1="94.5906" x2="16.3195" y2="25.1959">
			<stop offset="0" style="stop-color:#4BCEF6;stop-opacity:0"/>
			<stop offset="0.5" style="stop-color:#4BCEF6"/>
			<stop offset="1" style="stop-color:#4BCEF6;stop-opacity:0"/>
		</linearGradient>
		<path class="st37" d="M16.4,25.4l-0.2,0.1c-0.8,0.5-1.5,1.8-1.5,2.9v64.9c0,1.1,0.7,1.6,1.5,1.1l0.2-0.1c0.8-0.5,1.5-1.8,1.5-2.9    V26.5C17.9,25.4,17.3,24.9,16.4,25.4z"/>
		<linearGradient id="SVGID_32_" gradientUnits="userSpaceOnUse" x1="10.2735" y1="98.0812" x2="10.2735" y2="39.0284">
			<stop offset="0" style="stop-color:#4BCEF6;stop-opacity:0"/>
			<stop offset="0.5" style="stop-color:#4BCEF6"/>
			<stop offset="1" style="stop-color:#4BCEF6;stop-opacity:0"/>
		</linearGradient>
		<path class="st38" d="M10.4,39.2l-0.2,0.1c-0.8,0.5-1.5,1.8-1.5,2.9v54.6c0,1.1,0.7,1.6,1.5,1.1l0.2-0.1c0.8-0.5,1.5-1.8,1.5-2.9    V40.3C11.9,39.2,11.2,38.7,10.4,39.2z"/>
		<linearGradient id="SVGID_33_" gradientUnits="userSpaceOnUse" x1="4.2276" y1="71.7626" x2="4.2276" y2="46.8258">
			<stop offset="0" style="stop-color:#4BCEF6;stop-opacity:0"/>
			<stop offset="0.5" style="stop-color:#4BCEF6"/>
			<stop offset="1" style="stop-color:#4BCEF6;stop-opacity:0"/>
		</linearGradient>
		<path class="st39" d="M4.3,47l-0.2,0.1c-0.8,0.5-1.5,1.8-1.5,2.9v20.4c0,1.1,0.7,1.6,1.5,1.1l0.2-0.1c0.8-0.5,1.5-1.8,1.5-2.9    V48.1C5.8,47,5.2,46.5,4.3,47z"/>
	</g>
	<g>
		
			<linearGradient id="SVGID_34_" gradientUnits="userSpaceOnUse" x1="-451.149" y1="84.1187" x2="-451.149" y2="29.3726" gradientTransform="matrix(-1 0 0 1 -323.3452 0)">
			<stop offset="0" style="stop-color:#4BCEF6;stop-opacity:0"/>
			<stop offset="0.5" style="stop-color:#4BCEF6"/>
			<stop offset="1" style="stop-color:#4BCEF6;stop-opacity:0"/>
		</linearGradient>
		<path class="st40" d="M127.7,29.6l0.2,0.1c0.8,0.5,1.5,1.8,1.5,2.9v50.3c0,1.1-0.7,1.6-1.5,1.1l-0.2-0.1c-0.8-0.5-1.5-1.8-1.5-2.9    V30.7C126.2,29.6,126.9,29.1,127.7,29.6z"/>
		
			<linearGradient id="SVGID_35_" gradientUnits="userSpaceOnUse" x1="-457.1949" y1="74.6184" x2="-457.1949" y2="45.8542" gradientTransform="matrix(-1 0 0 1 -323.3452 0)">
			<stop offset="0" style="stop-color:#4BCEF6;stop-opacity:0"/>
			<stop offset="0.5" style="stop-color:#4BCEF6"/>
			<stop offset="1" style="stop-color:#4BCEF6;stop-opacity:0"/>
		</linearGradient>
		<path class="st41" d="M133.7,46l0.2,0.1c0.8,0.5,1.5,1.8,1.5,2.9v24.3c0,1.1-0.7,1.6-1.5,1.1l-0.2-0.1c-0.8-0.5-1.5-1.8-1.5-2.9    V47.2C132.2,46.1,132.9,45.6,133.7,46z"/>
		
			<linearGradient id="SVGID_36_" gradientUnits="userSpaceOnUse" x1="-463.2408" y1="91.1" x2="-463.2408" y2="55.1576" gradientTransform="matrix(-1 0 0 1 -323.3452 0)">
			<stop offset="0" style="stop-color:#4BCEF6;stop-opacity:0"/>
			<stop offset="0.5" style="stop-color:#4BCEF6"/>
			<stop offset="1" style="stop-color:#4BCEF6;stop-opacity:0"/>
		</linearGradient>
		<path class="st42" d="M139.8,55.3l0.2,0.1c0.8,0.5,1.5,1.8,1.5,2.9v31.5c0,1.1-0.7,1.6-1.5,1.1l-0.2-0.1c-0.8-0.5-1.5-1.8-1.5-2.9    V56.5C138.3,55.4,139,54.9,139.8,55.3z"/>
		
			<linearGradient id="SVGID_37_" gradientUnits="userSpaceOnUse" x1="-469.2868" y1="94.5906" x2="-469.2868" y2="25.1959" gradientTransform="matrix(-1 0 0 1 -323.3452 0)">
			<stop offset="0" style="stop-color:#4BCEF6;stop-opacity:0"/>
			<stop offset="0.5" style="stop-color:#4BCEF6"/>
			<stop offset="1" style="stop-color:#4BCEF6;stop-opacity:0"/>
		</linearGradient>
		<path class="st43" d="M145.8,25.4l0.2,0.1c0.8,0.5,1.5,1.8,1.5,2.9v64.9c0,1.1-0.7,1.6-1.5,1.1l-0.2-0.1c-0.8-0.5-1.5-1.8-1.5-2.9    V26.5C144.3,25.4,145,24.9,145.8,25.4z"/>
		
			<linearGradient id="SVGID_38_" gradientUnits="userSpaceOnUse" x1="-475.3328" y1="98.0812" x2="-475.3328" y2="39.0284" gradientTransform="matrix(-1 0 0 1 -323.3452 0)">
			<stop offset="0" style="stop-color:#4BCEF6;stop-opacity:0"/>
			<stop offset="0.5" style="stop-color:#4BCEF6"/>
			<stop offset="1" style="stop-color:#4BCEF6;stop-opacity:0"/>
		</linearGradient>
		<path class="st44" d="M151.9,39.2l0.2,0.1c0.8,0.5,1.5,1.8,1.5,2.9v54.6c0,1.1-0.7,1.6-1.5,1.1l-0.2-0.1c-0.8-0.5-1.5-1.8-1.5-2.9    V40.3C150.4,39.2,151,38.7,151.9,39.2z"/>
		
			<linearGradient id="SVGID_39_" gradientUnits="userSpaceOnUse" x1="-481.3787" y1="71.7626" x2="-481.3787" y2="46.8258" gradientTransform="matrix(-1 0 0 1 -323.3452 0)">
			<stop offset="0" style="stop-color:#4BCEF6;stop-opacity:0"/>
			<stop offset="0.5" style="stop-color:#4BCEF6"/>
			<stop offset="1" style="stop-color:#4BCEF6;stop-opacity:0"/>
		</linearGradient>
		<path class="st45" d="M157.9,47l0.2,0.1c0.8,0.5,1.5,1.8,1.5,2.9v20.4c0,1.1-0.7,1.6-1.5,1.1l-0.2-0.1c-0.8-0.5-1.5-1.8-1.5-2.9    V48.1C156.4,47,157.1,46.5,157.9,47z"/>
	</g>
</g>
</svg>