<?xml version="1.0" encoding="UTF-8"?>
<!-- Generator: Adobe Illustrator 23.0.3, SVG Export Plug-In . SVG Version: 6.00 Build 0)  -->
<svg version="1.1" id="Layer_1" xmlns="http://www.w3.org/2000/svg" xmlns:xlink="http://www.w3.org/1999/xlink" x="0px" y="0px" viewBox="0 0 140.7 137.3" style="enable-background:new 0 0 140.7 137.3;" xml:space="preserve">
<style type="text/css">
	.st0{fill:#DEF4FC;}
	.st1{fill:#91CFFD;}
	.st2{fill:#AFDAFD;}
	.st3{fill:#45ABFF;}
	.st4{fill:#80C0FF;}
	.st5{fill:#6AB0E5;}
	.st6{fill:#008BD8;}
	.st7{fill:#0C5ADB;}
	.st8{fill:#FFFFFF;}
	.st9{fill:#00FFFF;}
</style>
<g>
	<g>
		<polygon class="st0" points="70.4,56.1 0,96.7 70.4,137.3 140.7,96.7   "/>
	</g>
	<g>
		<g>
			<polygon class="st0" points="70.4,56.1 0,96.7 70.4,137.3 140.7,96.7    "/>
		</g>
	</g>
	<polygon class="st1" points="120.4,108.5 120.4,89.5 105.5,98.1 90.6,89.5 90.6,125.7  "/>
	<polygon class="st2" points="105.5,117.1 105.5,97.9 90.6,89.3 90.6,125.7  "/>
	<polygon class="st1" points="70.4,137.3 97.4,121.7 97.4,103.5 82.5,112.1 67.6,103.5 67.6,135.7  "/>
	<polygon class="st2" points="70.4,137.3 82.5,130.3 82.5,111.9 67.6,103.3 67.6,135.7  "/>
	<polygon class="st1" points="48.8,124.9 48.8,102.7 33.9,111.3 19,102.7 19,107.7  "/>
	<polygon class="st2" points="33.9,116.3 33.9,111.1 19,102.5 19,107.7  "/>
	<polygon class="st1" points="70.4,137.3 74.4,135 74.4,117.5 59.5,126.1 44.6,117.5 44.6,122.4  "/>
	<polygon class="st2" points="59.5,131 59.5,125.9 44.6,117.3 44.6,122.4  "/>
	<g>
		<g>
			<g>
				<g>
					<polygon class="st3" points="65,10 65,74.7 79.9,83.3 94.8,74.7 94.8,10      "/>
				</g>
			</g>
			<g>
				<g>
					<polygon class="st4" points="65,10 65,74.7 79.9,83.3 79.9,10      "/>
				</g>
			</g>
			<g>
				<g>
					<polygon class="st5" points="79.9,1.4 65,10 79.9,18.6 94.8,10      "/>
				</g>
			</g>
			<g>
				<g>
					<polygon class="st6" points="79.9,66.1 65,74.7 79.9,83.3 94.8,74.7      "/>
				</g>
			</g>
			<g>
			</g>
			<g>
				<g>
					<path class="st7" d="M95.5,8.8L80.6,0.2c-0.4-0.3-1-0.3-1.4,0L64.3,8.8C63.9,9,63.6,9.5,63.6,10c0,0.5,0.3,1,0.7,1.2l14.9,8.6       c0.2,0.1,0.5,0.2,0.7,0.2s0.5-0.1,0.7-0.2l14.9-8.6c0.4-0.3,0.7-0.7,0.7-1.2C96.2,9.5,95.9,9,95.5,8.8z M79.9,17l-12.1-7       l12.1-7L92,10L79.9,17z"/>
				</g>
			</g>
			<g>
				<g>
					<path class="st7" d="M94.8,8.6c-0.8,0-1.4,0.6-1.4,1.4v63.9l-13.5,7.8l-13.5-7.8V10c0-0.8-0.6-1.4-1.4-1.4s-1.4,0.6-1.4,1.4       v64.7c0,0.5,0.3,1,0.7,1.2l14.9,8.6c0.2,0.1,0.5,0.2,0.7,0.2s0.5-0.1,0.7-0.2l14.9-8.6c0.4-0.3,0.7-0.7,0.7-1.2V10       C96.2,9.2,95.6,8.6,94.8,8.6z"/>
				</g>
			</g>
			<g>
				<g>
					<path class="st7" d="M79.9,17.2c-0.8,0-1.4,0.6-1.4,1.4v64.7c0,0.8,0.6,1.4,1.4,1.4s1.4-0.6,1.4-1.4V18.6       C81.3,17.8,80.7,17.2,79.9,17.2z"/>
				</g>
			</g>
			<polygon class="st8" points="76.7,30 68.2,25 68.2,28.3 76.7,33.2    "/>
			<polygon class="st8" points="76.7,37 68.2,32.1 68.2,35.3 76.7,40.3    "/>
			<polygon class="st8" points="76.7,44.1 68.2,39.1 68.2,42.4 76.7,47.3    "/>
			<polygon class="st8" points="76.7,51.1 68.2,46.2 68.2,49.4 76.7,54.4    "/>
			<polygon class="st8" points="76.7,58.2 68.2,53.2 68.2,56.5 76.7,61.4    "/>
			<polygon class="st8" points="76.7,65.2 68.2,60.3 68.2,63.5 76.7,68.5    "/>
			<polygon class="st8" points="76.7,72.3 68.2,67.3 68.2,70.6 76.7,75.5    "/>
			<polygon class="st8" points="83,30 91.5,25 91.5,28.3 83,33.2    "/>
			<polygon class="st8" points="83,37 91.5,32.1 91.5,35.3 83,40.3    "/>
			<polygon class="st8" points="83,44.1 91.5,39.1 91.5,42.4 83,47.3    "/>
			<polygon class="st8" points="83,51.1 91.5,46.2 91.5,49.4 83,54.4    "/>
			<polygon class="st8" points="83,58.2 91.5,53.2 91.5,56.5 83,61.4    "/>
			<polygon class="st8" points="83,65.2 91.5,60.3 91.5,63.5 83,68.5    "/>
			<polygon class="st8" points="83,72.3 91.5,67.3 91.5,70.6 83,75.5    "/>
			<g>
				
					<ellipse transform="matrix(0.6033 -0.7975 0.7975 0.6033 14.4341 76.7705)" class="st9" cx="84.4" cy="23.9" rx="1.9" ry="1.1"/>
				<ellipse transform="matrix(0.6033 -0.7975 0.7975 0.6033 18.08 79.1651)" class="st8" cx="88.6" cy="21.4" rx="1.9" ry="1.1"/>
			</g>
		</g>
	</g>
	<g>
		<g>
			<g>
				<polygon class="st3" points="90.6,24.8 90.6,89.5 105.5,98.1 120.4,89.5 120.4,24.8     "/>
			</g>
		</g>
		<g>
			<g>
				<polygon class="st4" points="90.6,24.8 90.6,89.5 105.5,98.1 105.5,24.8     "/>
			</g>
		</g>
		<g>
			<g>
				<polygon class="st5" points="105.5,16.2 90.6,24.8 105.5,33.4 120.4,24.8     "/>
			</g>
		</g>
		<g>
			<g>
				<polygon class="st6" points="105.5,80.9 90.6,89.5 105.5,98.1 120.4,89.5     "/>
			</g>
		</g>
		<g>
		</g>
		<g>
			<g>
				<path class="st7" d="M121.1,23.5l-14.9-8.6c-0.4-0.3-1-0.3-1.4,0l-14.9,8.6c-0.4,0.3-0.7,0.7-0.7,1.2s0.3,1,0.7,1.2l14.9,8.6      c0.2,0.1,0.5,0.2,0.7,0.2c0.2,0,0.5-0.1,0.7-0.2l14.9-8.6c0.4-0.3,0.7-0.7,0.7-1.2S121.5,23.8,121.1,23.5z M105.5,31.7l-12.1-7      l12.1-7l12.1,7L105.5,31.7z"/>
			</g>
		</g>
		<g>
			<g>
				<path class="st7" d="M120.4,23.3c-0.8,0-1.4,0.6-1.4,1.4v63.9l-13.5,7.8L92,88.7V24.8c0-0.8-0.6-1.4-1.4-1.4s-1.4,0.6-1.4,1.4      v64.7c0,0.5,0.3,1,0.7,1.2l14.9,8.6c0.2,0.1,0.5,0.2,0.7,0.2c0.2,0,0.5-0.1,0.7-0.2l14.9-8.6c0.4-0.3,0.7-0.7,0.7-1.2V24.8      C121.8,24,121.1,23.3,120.4,23.3z"/>
			</g>
		</g>
		<g>
			<g>
				<path class="st7" d="M105.5,31.9c-0.8,0-1.4,0.6-1.4,1.4v64.7c0,0.8,0.6,1.4,1.4,1.4s1.4-0.6,1.4-1.4V33.4      C106.9,32.6,106.2,31.9,105.5,31.9z"/>
			</g>
		</g>
		<polygon class="st8" points="102.3,44.7 93.7,39.8 93.7,43 102.3,48   "/>
		<polygon class="st8" points="102.3,51.8 93.7,46.8 93.7,50.1 102.3,55   "/>
		<polygon class="st8" points="102.3,58.8 93.7,53.9 93.7,57.1 102.3,62.1   "/>
		<polygon class="st8" points="102.3,65.9 93.7,60.9 93.7,64.2 102.3,69.1   "/>
		<polygon class="st8" points="102.3,72.9 93.7,68 93.7,71.2 102.3,76.2   "/>
		<polygon class="st8" points="102.3,80 93.7,75 93.7,78.3 102.3,83.2   "/>
		<polygon class="st8" points="102.3,87 93.7,82.1 93.7,85.3 102.3,90.3   "/>
		<polygon class="st8" points="108.5,44.7 117.1,39.8 117.1,43 108.5,48   "/>
		<polygon class="st8" points="108.5,51.8 117.1,46.8 117.1,50.1 108.5,55   "/>
		<polygon class="st8" points="108.5,58.8 117.1,53.9 117.1,57.1 108.5,62.1   "/>
		<polygon class="st8" points="108.5,65.9 117.1,60.9 117.1,64.2 108.5,69.1   "/>
		<polygon class="st8" points="108.5,72.9 117.1,68 117.1,71.2 108.5,76.2   "/>
		<polygon class="st8" points="108.5,80 117.1,75 117.1,78.3 108.5,83.2   "/>
		<polygon class="st8" points="108.5,87 117.1,82.1 117.1,85.3 108.5,90.3   "/>
		<g>
			
				<ellipse transform="matrix(0.6033 -0.7975 0.7975 0.6033 12.8126 103.0054)" class="st9" cx="109.9" cy="38.6" rx="1.9" ry="1.1"/>
			<ellipse transform="matrix(0.6033 -0.7975 0.7975 0.6033 16.4584 105.4)" class="st8" cx="114.2" cy="36.2" rx="1.9" ry="1.1"/>
		</g>
	</g>
	<g>
		<g>
			<g>
				<g>
					<polygon class="st3" points="42,24 42,88.7 56.9,97.3 71.8,88.7 71.8,24      "/>
				</g>
			</g>
			<g>
				<g>
					<polygon class="st4" points="42,24 42,88.7 56.9,97.3 56.9,24      "/>
				</g>
			</g>
			<g>
				<g>
					<polygon class="st5" points="56.9,15.4 42,24 56.9,32.6 71.8,24      "/>
				</g>
			</g>
			<g>
				<g>
					<polygon class="st6" points="56.9,80.1 42,88.7 56.9,97.3 71.8,88.7      "/>
				</g>
			</g>
			<g>
			</g>
			<g>
				<g>
					<path class="st7" d="M72.5,22.8l-14.9-8.6c-0.4-0.3-1-0.3-1.4,0l-14.9,8.6c-0.4,0.3-0.7,0.7-0.7,1.2c0,0.5,0.3,1,0.7,1.2       l14.9,8.6c0.2,0.1,0.5,0.2,0.7,0.2s0.5-0.1,0.7-0.2l14.9-8.6c0.4-0.3,0.7-0.7,0.7-1.2C73.2,23.5,72.9,23,72.5,22.8z M56.9,31       l-12.1-7l12.1-7L69,24L56.9,31z"/>
				</g>
			</g>
			<g>
				<g>
					<path class="st7" d="M71.8,22.6c-0.8,0-1.4,0.6-1.4,1.4v63.9l-13.5,7.8l-13.5-7.8V24c0-0.8-0.6-1.4-1.4-1.4s-1.4,0.6-1.4,1.4       v64.7c0,0.5,0.3,1,0.7,1.2l14.9,8.6c0.2,0.1,0.5,0.2,0.7,0.2s0.5-0.1,0.7-0.2l14.9-8.6c0.4-0.3,0.7-0.7,0.7-1.2V24       C73.2,23.2,72.6,22.6,71.8,22.6z"/>
				</g>
			</g>
			<g>
				<g>
					<path class="st7" d="M56.9,31.2c-0.8,0-1.4,0.6-1.4,1.4v64.7c0,0.8,0.6,1.4,1.4,1.4s1.4-0.6,1.4-1.4V32.6       C58.3,31.8,57.7,31.2,56.9,31.2z"/>
				</g>
			</g>
			<polygon class="st8" points="53.7,44 45.2,39 45.2,42.3 53.7,47.2    "/>
			<polygon class="st8" points="53.7,51 45.2,46.1 45.2,49.3 53.7,54.3    "/>
			<polygon class="st8" points="53.7,58.1 45.2,53.1 45.2,56.4 53.7,61.3    "/>
			<polygon class="st8" points="53.7,65.1 45.2,60.2 45.2,63.4 53.7,68.4    "/>
			<polygon class="st8" points="53.7,72.2 45.2,67.2 45.2,70.5 53.7,75.4    "/>
			<polygon class="st8" points="53.7,79.2 45.2,74.3 45.2,77.5 53.7,82.5    "/>
			<polygon class="st8" points="53.7,86.3 45.2,81.3 45.2,84.6 53.7,89.5    "/>
			<polygon class="st8" points="60,44 68.5,39 68.5,42.3 60,47.2    "/>
			<polygon class="st8" points="60,51 68.5,46.1 68.5,49.3 60,54.3    "/>
			<polygon class="st8" points="60,58.1 68.5,53.1 68.5,56.4 60,61.3    "/>
			<polygon class="st8" points="60,65.1 68.5,60.2 68.5,63.4 60,68.4    "/>
			<polygon class="st8" points="60,72.2 68.5,67.2 68.5,70.5 60,75.4    "/>
			<polygon class="st8" points="60,79.2 68.5,74.3 68.5,77.5 60,82.5    "/>
			<polygon class="st8" points="60,86.3 68.5,81.3 68.5,84.6 60,89.5    "/>
			<g>
				
					<ellipse transform="matrix(0.6033 -0.7975 0.7975 0.6033 -5.8552 63.9814)" class="st9" cx="61.4" cy="37.9" rx="1.9" ry="1.1"/>
				<ellipse transform="matrix(0.6033 -0.7975 0.7975 0.6033 -2.2093 66.376)" class="st8" cx="65.6" cy="35.4" rx="1.9" ry="1.1"/>
			</g>
		</g>
	</g>
	<g>
		<g>
			<g>
				<polygon class="st3" points="67.6,38.8 67.6,103.5 82.5,112.1 97.4,103.5 97.4,38.8     "/>
			</g>
		</g>
		<g>
			<g>
				<polygon class="st4" points="67.6,38.8 67.6,103.5 82.5,112.1 82.5,38.8     "/>
			</g>
		</g>
		<g>
			<g>
				<polygon class="st5" points="82.5,30.2 67.6,38.8 82.5,47.4 97.4,38.8     "/>
			</g>
		</g>
		<g>
			<g>
				<polygon class="st6" points="82.5,94.9 67.6,103.5 82.5,112.1 97.4,103.5     "/>
			</g>
		</g>
		<g>
		</g>
		<g>
			<g>
				<path class="st7" d="M98.1,37.5l-14.9-8.6c-0.4-0.3-1-0.3-1.4,0l-14.9,8.6c-0.4,0.3-0.7,0.7-0.7,1.2s0.3,1,0.7,1.2l14.9,8.6      c0.2,0.1,0.5,0.2,0.7,0.2c0.2,0,0.5-0.1,0.7-0.2L98.1,40c0.4-0.3,0.7-0.7,0.7-1.2S98.5,37.8,98.1,37.5z M82.5,45.7l-12.1-7      l12.1-7l12.1,7L82.5,45.7z"/>
			</g>
		</g>
		<g>
			<g>
				<path class="st7" d="M97.4,37.3c-0.8,0-1.4,0.6-1.4,1.4v63.9l-13.5,7.8L69,102.7V38.8c0-0.8-0.6-1.4-1.4-1.4s-1.4,0.6-1.4,1.4      v64.7c0,0.5,0.3,1,0.7,1.2l14.9,8.6c0.2,0.1,0.5,0.2,0.7,0.2c0.2,0,0.5-0.1,0.7-0.2l14.9-8.6c0.4-0.3,0.7-0.7,0.7-1.2V38.8      C98.8,38,98.1,37.3,97.4,37.3z"/>
			</g>
		</g>
		<g>
			<g>
				<path class="st7" d="M82.5,45.9c-0.8,0-1.4,0.6-1.4,1.4v64.7c0,0.8,0.6,1.4,1.4,1.4s1.4-0.6,1.4-1.4V47.4      C83.9,46.6,83.2,45.9,82.5,45.9z"/>
			</g>
		</g>
		<polygon class="st8" points="79.3,58.7 70.7,53.8 70.7,57 79.3,62   "/>
		<polygon class="st8" points="79.3,65.8 70.7,60.8 70.7,64.1 79.3,69   "/>
		<polygon class="st8" points="79.3,72.8 70.7,67.9 70.7,71.1 79.3,76.1   "/>
		<polygon class="st8" points="79.3,79.9 70.7,74.9 70.7,78.2 79.3,83.1   "/>
		<polygon class="st8" points="79.3,86.9 70.7,82 70.7,85.2 79.3,90.2   "/>
		<polygon class="st8" points="79.3,94 70.7,89 70.7,92.3 79.3,97.2   "/>
		<polygon class="st8" points="79.3,101 70.7,96.1 70.7,99.3 79.3,104.3   "/>
		<polygon class="st8" points="85.5,58.7 94.1,53.8 94.1,57 85.5,62   "/>
		<polygon class="st8" points="85.5,65.8 94.1,60.8 94.1,64.1 85.5,69   "/>
		<polygon class="st8" points="85.5,72.8 94.1,67.9 94.1,71.1 85.5,76.1   "/>
		<polygon class="st8" points="85.5,79.9 94.1,74.9 94.1,78.2 85.5,83.1   "/>
		<polygon class="st8" points="85.5,86.9 94.1,82 94.1,85.2 85.5,90.2   "/>
		<polygon class="st8" points="85.5,94 94.1,89 94.1,92.3 85.5,97.2   "/>
		<polygon class="st8" points="85.5,101 94.1,96.1 94.1,99.3 85.5,104.3   "/>
		<g>
			<ellipse transform="matrix(0.6033 -0.7975 0.7975 0.6033 -7.4767 90.2163)" class="st9" cx="86.9" cy="52.6" rx="1.9" ry="1.1"/>
			<ellipse transform="matrix(0.6033 -0.7975 0.7975 0.6033 -3.8309 92.6109)" class="st8" cx="91.2" cy="50.2" rx="1.9" ry="1.1"/>
		</g>
	</g>
	<g>
		<g>
			<g>
				<polygon class="st3" points="19,38 19,102.7 33.9,111.3 48.8,102.7 48.8,38     "/>
			</g>
		</g>
		<g>
			<g>
				<polygon class="st4" points="19,38 19,102.7 33.9,111.3 33.9,38     "/>
			</g>
		</g>
		<g>
			<g>
				<polygon class="st5" points="33.9,29.4 19,38 33.9,46.6 48.8,38     "/>
			</g>
		</g>
		<g>
			<g>
				<polygon class="st6" points="33.9,94.1 19,102.7 33.9,111.3 48.8,102.7     "/>
			</g>
		</g>
		<g>
		</g>
		<g>
			<g>
				<path class="st7" d="M49.5,36.8l-14.9-8.6c-0.4-0.3-1-0.3-1.4,0l-14.9,8.6c-0.4,0.3-0.7,0.7-0.7,1.2c0,0.5,0.3,1,0.7,1.2      l14.9,8.6c0.2,0.1,0.5,0.2,0.7,0.2s0.5-0.1,0.7-0.2l14.9-8.6c0.4-0.3,0.7-0.7,0.7-1.2C50.2,37.5,49.9,37,49.5,36.8z M33.9,45      l-12.1-7l12.1-7L46,38L33.9,45z"/>
			</g>
		</g>
		<g>
			<g>
				<path class="st7" d="M48.8,36.6c-0.8,0-1.4,0.6-1.4,1.4v63.9l-13.5,7.8l-13.5-7.8V38c0-0.8-0.6-1.4-1.4-1.4s-1.4,0.6-1.4,1.4      v64.7c0,0.5,0.3,1,0.7,1.2l14.9,8.6c0.2,0.1,0.5,0.2,0.7,0.2s0.5-0.1,0.7-0.2l14.9-8.6c0.4-0.3,0.7-0.7,0.7-1.2V38      C50.2,37.2,49.6,36.6,48.8,36.6z"/>
			</g>
		</g>
		<g>
			<g>
				<path class="st7" d="M33.9,45.2c-0.8,0-1.4,0.6-1.4,1.4v64.7c0,0.8,0.6,1.4,1.4,1.4s1.4-0.6,1.4-1.4V46.6      C35.3,45.8,34.7,45.2,33.9,45.2z"/>
			</g>
		</g>
		<polygon class="st8" points="30.7,58 22.2,53 22.2,56.3 30.7,61.2   "/>
		<polygon class="st8" points="30.7,65 22.2,60.1 22.2,63.3 30.7,68.3   "/>
		<polygon class="st8" points="30.7,72.1 22.2,67.1 22.2,70.4 30.7,75.3   "/>
		<polygon class="st8" points="30.7,79.1 22.2,74.2 22.2,77.4 30.7,82.4   "/>
		<polygon class="st8" points="30.7,86.2 22.2,81.2 22.2,84.5 30.7,89.4   "/>
		<polygon class="st8" points="30.7,93.2 22.2,88.3 22.2,91.5 30.7,96.5   "/>
		<polygon class="st8" points="30.7,100.3 22.2,95.3 22.2,98.6 30.7,103.5   "/>
		<polygon class="st8" points="37,58 45.5,53 45.5,56.3 37,61.2   "/>
		<polygon class="st8" points="37,65 45.5,60.1 45.5,63.3 37,68.3   "/>
		<polygon class="st8" points="37,72.1 45.5,67.1 45.5,70.4 37,75.3   "/>
		<polygon class="st8" points="37,79.1 45.5,74.2 45.5,77.4 37,82.4   "/>
		<polygon class="st8" points="37,86.2 45.5,81.2 45.5,84.5 37,89.4   "/>
		<polygon class="st8" points="37,93.2 45.5,88.3 45.5,91.5 37,96.5   "/>
		<polygon class="st8" points="37,100.3 45.5,95.3 45.5,98.6 37,103.5   "/>
		<g>
			
				<ellipse transform="matrix(0.6033 -0.7975 0.7975 0.6033 -26.1445 51.1924)" class="st9" cx="38.4" cy="51.9" rx="1.9" ry="1.1"/>
			<ellipse transform="matrix(0.6033 -0.7975 0.7975 0.6033 -22.4986 53.587)" class="st8" cx="42.6" cy="49.4" rx="1.9" ry="1.1"/>
		</g>
	</g>
	<g>
		<g>
			<g>
				<polygon class="st3" points="44.6,52.8 44.6,117.5 59.5,126.1 74.4,117.5 74.4,52.8     "/>
			</g>
		</g>
		<g>
			<g>
				<polygon class="st4" points="44.6,52.8 44.6,117.5 59.5,126.1 59.5,52.8     "/>
			</g>
		</g>
		<g>
			<g>
				<polygon class="st5" points="59.5,44.2 44.6,52.8 59.5,61.4 74.4,52.8     "/>
			</g>
		</g>
		<g>
			<g>
				<polygon class="st6" points="59.5,108.9 44.6,117.5 59.5,126.1 74.4,117.5     "/>
			</g>
		</g>
		<g>
		</g>
		<g>
			<g>
				<path class="st7" d="M75.1,51.5l-14.9-8.6c-0.4-0.3-1-0.3-1.4,0l-14.9,8.6c-0.4,0.3-0.7,0.7-0.7,1.2s0.3,1,0.7,1.2l14.9,8.6      c0.2,0.1,0.5,0.2,0.7,0.2c0.2,0,0.5-0.1,0.7-0.2L75.1,54c0.4-0.3,0.7-0.7,0.7-1.2S75.5,51.8,75.1,51.5z M59.5,59.7l-12.1-7      l12.1-7l12.1,7L59.5,59.7z"/>
			</g>
		</g>
		<g>
			<g>
				<path class="st7" d="M74.4,51.3c-0.8,0-1.4,0.6-1.4,1.4v63.9l-13.5,7.8L46,116.7V52.8c0-0.8-0.6-1.4-1.4-1.4s-1.4,0.6-1.4,1.4      v64.7c0,0.5,0.3,1,0.7,1.2l14.9,8.6c0.2,0.1,0.5,0.2,0.7,0.2c0.2,0,0.5-0.1,0.7-0.2l14.9-8.6c0.4-0.3,0.7-0.7,0.7-1.2V52.8      C75.8,52,75.1,51.3,74.4,51.3z"/>
			</g>
		</g>
		<g>
			<g>
				<path class="st7" d="M59.5,59.9c-0.8,0-1.4,0.6-1.4,1.4v64.7c0,0.8,0.6,1.4,1.4,1.4s1.4-0.6,1.4-1.4V61.4      C60.9,60.6,60.2,59.9,59.5,59.9z"/>
			</g>
		</g>
		<polygon class="st8" points="56.3,72.7 47.7,67.8 47.7,71 56.3,76   "/>
		<polygon class="st8" points="56.3,79.8 47.7,74.8 47.7,78.1 56.3,83   "/>
		<polygon class="st8" points="56.3,86.8 47.7,81.9 47.7,85.1 56.3,90.1   "/>
		<polygon class="st8" points="56.3,93.9 47.7,88.9 47.7,92.2 56.3,97.1   "/>
		<polygon class="st8" points="56.3,100.9 47.7,96 47.7,99.2 56.3,104.2   "/>
		<polygon class="st8" points="56.3,108 47.7,103 47.7,106.3 56.3,111.2   "/>
		<polygon class="st8" points="56.3,115 47.7,110.1 47.7,113.3 56.3,118.3   "/>
		<polygon class="st8" points="62.5,72.7 71.1,67.8 71.1,71 62.5,76   "/>
		<polygon class="st8" points="62.5,79.8 71.1,74.8 71.1,78.1 62.5,83   "/>
		<polygon class="st8" points="62.5,86.8 71.1,81.9 71.1,85.1 62.5,90.1   "/>
		<polygon class="st8" points="62.5,93.9 71.1,88.9 71.1,92.2 62.5,97.1   "/>
		<polygon class="st8" points="62.5,100.9 71.1,96 71.1,99.2 62.5,104.2   "/>
		<polygon class="st8" points="62.5,108 71.1,103 71.1,106.3 62.5,111.2   "/>
		<polygon class="st8" points="62.5,115 71.1,110.1 71.1,113.3 62.5,118.3   "/>
		<g>
			<ellipse transform="matrix(0.6033 -0.7975 0.7975 0.6033 -27.766 77.4273)" class="st9" cx="63.9" cy="66.6" rx="1.9" ry="1.1"/>
			
				<ellipse transform="matrix(0.6033 -0.7975 0.7975 0.6033 -24.1202 79.8219)" class="st8" cx="68.2" cy="64.2" rx="1.9" ry="1.1"/>
		</g>
	</g>
</g>
</svg>