<?xml version="1.0" encoding="UTF-8"?>
<!-- Generator: Adobe Illustrator 23.0.3, SVG Export Plug-In . SVG Version: 6.00 Build 0)  -->
<svg version="1.1" id="Layer_1" xmlns="http://www.w3.org/2000/svg" xmlns:xlink="http://www.w3.org/1999/xlink" x="0px" y="0px" viewBox="0 0 140.7 140" style="enable-background:new 0 0 140.7 140;" xml:space="preserve">
<style type="text/css">
	.st0{fill:#DEF4FC;}
	.st1{opacity:0.5;}
	.st2{fill:#45ABFF;}
	.st3{fill:#80C0FF;}
	.st4{fill:#6AB0E5;}
	.st5{fill:#008BD8;}
	.st6{fill:#0C5ADB;}
	.st7{fill:#FFFFFF;}
	.st8{fill:#00FFFF;}
	.st9{fill:#D9E021;}
</style>
<g>
	<g>
		<g>
			<polygon class="st0" points="70.4,58.8 0,99.4 70.4,140 140.7,99.4    "/>
		</g>
	</g>
	<g class="st1">
		<g>
			<g>
				<polygon class="st2" points="70.4,108 55.5,99.4 55.5,131.4 70.4,140 85.2,131.4 85.2,99.4     "/>
			</g>
		</g>
		<g>
			<g>
				<polygon class="st3" points="55.5,99.2 55.5,131.4 70.4,140 70.4,107.8     "/>
			</g>
		</g>
		<g>
			<g>
				<polygon class="st3" points="110.8,108 95.9,99.4 95.9,125.3 125.7,108.1 125.7,99.4     "/>
			</g>
		</g>
		<g>
			<g>
				<polygon class="st2" points="95.9,99.2 95.9,125.3 110.8,116.7 110.8,107.8     "/>
			</g>
		</g>
		<g>
			<g>
				<polygon class="st2" points="29.9,108 15,99.4 15,108.1 44.8,125.3 44.8,99.4     "/>
			</g>
		</g>
		<g>
			<g>
				<polygon class="st3" points="15,99.2 15,108.1 29.9,116.7 29.9,107.8     "/>
			</g>
		</g>
	</g>
	<g>
		<g>
			<polygon class="st2" points="55.5,10 55.5,99.4 70.3,108 85.2,99.4 85.2,10    "/>
		</g>
	</g>
	<g>
		<g>
			<polygon class="st3" points="55.5,10 55.5,99.4 70.3,108 70.3,10    "/>
		</g>
	</g>
	<g>
		<g>
			<polygon class="st4" points="70.3,1.4 55.5,10 70.3,18.6 85.2,10    "/>
		</g>
	</g>
	<g>
		<g>
			<polygon class="st5" points="70.3,90.8 55.5,99.4 70.3,108 85.2,99.4    "/>
		</g>
	</g>
	<g>
	</g>
	<g>
		<g>
			<path class="st6" d="M86,8.8L71.1,0.2c-0.4-0.3-1-0.3-1.4,0L54.7,8.8C54.3,9,54,9.5,54,10s0.3,1,0.7,1.2l14.9,8.6     c0.2,0.1,0.5,0.2,0.7,0.2c0.2,0,0.5-0.1,0.7-0.2L86,11.2c0.4-0.3,0.7-0.7,0.7-1.2S86.4,9,86,8.8z M70.3,17l-12.1-7l12.1-7l12.1,7     L70.3,17z"/>
		</g>
	</g>
	<g>
		<g>
			<path class="st6" d="M85.2,8.6c-0.8,0-1.4,0.6-1.4,1.4v88.6l-13.5,7.8l-13.5-7.8V10c0-0.8-0.6-1.4-1.4-1.4C54.7,8.6,54,9.2,54,10     v89.4c0,0.5,0.3,1,0.7,1.2l14.9,8.6c0.2,0.1,0.5,0.2,0.7,0.2c0.2,0,0.5-0.1,0.7-0.2l14.9-8.6c0.4-0.3,0.7-0.7,0.7-1.2V10     C86.7,9.2,86,8.6,85.2,8.6z"/>
		</g>
	</g>
	<g>
		<g>
			<path class="st6" d="M70.3,17.2c-0.8,0-1.4,0.6-1.4,1.4V108c0,0.8,0.6,1.4,1.4,1.4c0.8,0,1.4-0.6,1.4-1.4V18.6     C71.8,17.8,71.1,17.2,70.3,17.2z"/>
		</g>
	</g>
	<polygon class="st7" points="67.2,33.5 58.6,28.5 58.6,31.8 67.2,36.7  "/>
	<polygon class="st7" points="67.2,40.5 58.6,35.6 58.6,38.8 67.2,43.8  "/>
	<polygon class="st7" points="67.2,47.6 58.6,42.6 58.6,45.9 67.2,50.8  "/>
	<polygon class="st7" points="67.2,54.6 58.6,49.7 58.6,52.9 67.2,57.9  "/>
	<polygon class="st7" points="67.2,61.7 58.6,56.7 58.6,60 67.2,64.9  "/>
	<polygon class="st7" points="67.2,68.7 58.6,63.8 58.6,67 67.2,72  "/>
	<polygon class="st7" points="67.2,75.8 58.6,70.8 58.6,74.1 67.2,79  "/>
	<polygon class="st7" points="67.2,82.8 58.6,77.9 58.6,81.1 67.2,86.1  "/>
	<polygon class="st7" points="67.2,89.9 58.6,84.9 58.6,88.2 67.2,93.1  "/>
	<polygon class="st7" points="67.2,96.9 58.6,92 58.6,95.2 67.2,100.2  "/>
	<polygon class="st7" points="73.4,33.5 82,28.5 82,31.8 73.4,36.7  "/>
	<polygon class="st7" points="73.4,40.5 82,35.6 82,38.8 73.4,43.8  "/>
	<polygon class="st7" points="73.4,47.6 82,42.6 82,45.9 73.4,50.8  "/>
	<polygon class="st7" points="73.4,54.6 82,49.7 82,52.9 73.4,57.9  "/>
	<polygon class="st7" points="73.4,61.7 82,56.7 82,60 73.4,64.9  "/>
	<polygon class="st7" points="73.4,68.7 82,63.8 82,67 73.4,72  "/>
	<polygon class="st7" points="73.4,75.8 82,70.8 82,74.1 73.4,79  "/>
	<polygon class="st7" points="73.4,82.8 82,77.9 82,81.1 73.4,86.1  "/>
	<polygon class="st7" points="73.4,89.9 82,84.9 82,88.2 73.4,93.1  "/>
	<polygon class="st7" points="73.4,96.9 82,92 82,95.2 73.4,100.2  "/>
	<ellipse transform="matrix(0.6033 -0.7975 0.7975 0.6033 7.5549 70.6955)" class="st8" cx="74.8" cy="27.8" rx="1.9" ry="1.1"/>
	<ellipse transform="matrix(0.6033 -0.7975 0.7975 0.6033 11.4905 68.7379)" class="st9" cx="74.8" cy="22.8" rx="1.9" ry="1.1"/>
	<ellipse transform="matrix(0.6033 -0.7975 0.7975 0.6033 11.2007 73.0901)" class="st7" cx="79.1" cy="25.3" rx="1.9" ry="1.1"/>
	<g>
		<g>
			<polygon class="st2" points="15,34.7 15,99.4 29.9,108 44.8,99.4 44.8,34.7    "/>
		</g>
	</g>
	<g>
		<g>
			<polygon class="st3" points="15,34.7 15,99.4 29.9,108 29.9,34.7    "/>
		</g>
	</g>
	<g>
		<g>
			<polygon class="st4" points="29.9,26.1 15,34.7 29.9,43.3 44.8,34.7    "/>
		</g>
	</g>
	<g>
		<g>
			<polygon class="st5" points="29.9,90.8 15,99.4 29.9,108 44.8,99.4    "/>
		</g>
	</g>
	<g>
	</g>
	<g>
		<g>
			<path class="st6" d="M45.5,33.5l-14.9-8.6c-0.4-0.3-1-0.3-1.4,0l-14.9,8.6c-0.4,0.3-0.7,0.7-0.7,1.2c0,0.5,0.3,1,0.7,1.2     l14.9,8.6c0.2,0.1,0.5,0.2,0.7,0.2c0.2,0,0.5-0.1,0.7-0.2l14.9-8.6c0.4-0.3,0.7-0.7,0.7-1.2C46.2,34.2,45.9,33.7,45.5,33.5z      M29.9,41.7l-12.1-7l12.1-7l12.1,7L29.9,41.7z"/>
		</g>
	</g>
	<g>
		<g>
			<path class="st6" d="M44.8,33.3c-0.8,0-1.4,0.6-1.4,1.4v63.9l-13.5,7.8l-13.5-7.8V34.7c0-0.8-0.6-1.4-1.4-1.4     c-0.8,0-1.4,0.6-1.4,1.4v64.7c0,0.5,0.3,1,0.7,1.2l14.9,8.6c0.2,0.1,0.5,0.2,0.7,0.2c0.2,0,0.5-0.1,0.7-0.2l14.9-8.6     c0.4-0.3,0.7-0.7,0.7-1.2V34.7C46.2,33.9,45.6,33.3,44.8,33.3z"/>
		</g>
	</g>
	<g>
		<g>
			<path class="st6" d="M29.9,41.9c-0.8,0-1.4,0.6-1.4,1.4V108c0,0.8,0.6,1.4,1.4,1.4c0.8,0,1.4-0.6,1.4-1.4V43.3     C31.3,42.5,30.7,41.9,29.9,41.9z"/>
		</g>
	</g>
	<polygon class="st7" points="26.7,54.6 18.2,49.7 18.2,52.9 26.7,57.9  "/>
	<polygon class="st7" points="26.7,61.7 18.2,56.7 18.2,60 26.7,64.9  "/>
	<polygon class="st7" points="26.7,68.7 18.2,63.8 18.2,67 26.7,72  "/>
	<polygon class="st7" points="26.7,75.8 18.2,70.8 18.2,74.1 26.7,79  "/>
	<polygon class="st7" points="26.7,82.8 18.2,77.9 18.2,81.1 26.7,86.1  "/>
	<polygon class="st7" points="26.7,89.9 18.2,84.9 18.2,88.2 26.7,93.1  "/>
	<polygon class="st7" points="26.7,96.9 18.2,92 18.2,95.2 26.7,100.2  "/>
	<polygon class="st7" points="33,54.6 41.5,49.7 41.5,52.9 33,57.9  "/>
	<polygon class="st7" points="33,61.7 41.5,56.7 41.5,60 33,64.9  "/>
	<polygon class="st7" points="33,68.7 41.5,63.8 41.5,67 33,72  "/>
	<polygon class="st7" points="33,75.8 41.5,70.8 41.5,74.1 33,79  "/>
	<polygon class="st7" points="33,82.8 41.5,77.9 41.5,81.1 33,86.1  "/>
	<polygon class="st7" points="33,89.9 41.5,84.9 41.5,88.2 33,93.1  "/>
	<polygon class="st7" points="33,96.9 41.5,92 41.5,95.2 33,100.2  "/>
	<g>
		<ellipse transform="matrix(0.6033 -0.7975 0.7975 0.6033 -25.0794 46.6831)" class="st8" cx="34.4" cy="48.6" rx="1.9" ry="1.1"/>
		<ellipse transform="matrix(0.6033 -0.7975 0.7975 0.6033 -21.4335 49.0777)" class="st7" cx="38.6" cy="46.1" rx="1.9" ry="1.1"/>
	</g>
	<g>
		<g>
			<polygon class="st2" points="95.9,34.7 95.9,99.4 110.8,108 125.7,99.4 125.7,34.7    "/>
		</g>
	</g>
	<g>
		<g>
			<polygon class="st3" points="110.8,34.7 110.8,108 125.7,99.4 125.7,34.7    "/>
		</g>
	</g>
	<g>
		<g>
			<polygon class="st3" points="110.8,26.1 95.9,34.7 110.8,43.3 125.7,34.7    "/>
		</g>
	</g>
	<g>
		<g>
			<polygon class="st5" points="110.8,90.8 95.9,99.4 110.8,108 125.7,99.4    "/>
		</g>
	</g>
	<g>
	</g>
	<g>
		<g>
			<path class="st6" d="M126.4,33.5l-14.9-8.6c-0.4-0.3-1-0.3-1.4,0l-14.9,8.6c-0.4,0.3-0.7,0.7-0.7,1.2c0,0.5,0.3,1,0.7,1.2     l14.9,8.6c0.2,0.1,0.5,0.2,0.7,0.2c0.2,0,0.5-0.1,0.7-0.2l14.9-8.6c0.4-0.3,0.7-0.7,0.7-1.2C127.1,34.2,126.8,33.7,126.4,33.5z      M110.8,41.7l-12.1-7l12.1-7l12.1,7L110.8,41.7z"/>
		</g>
	</g>
	<g>
		<g>
			<path class="st6" d="M125.7,33.3c-0.8,0-1.4,0.6-1.4,1.4v63.9l-13.5,7.8l-13.5-7.8V34.7c0-0.8-0.6-1.4-1.4-1.4s-1.4,0.6-1.4,1.4     v64.7c0,0.5,0.3,1,0.7,1.2l14.9,8.6c0.2,0.1,0.5,0.2,0.7,0.2c0.2,0,0.5-0.1,0.7-0.2l14.9-8.6c0.4-0.3,0.7-0.7,0.7-1.2V34.7     C127.1,33.9,126.5,33.3,125.7,33.3z"/>
		</g>
	</g>
	<g>
		<g>
			<path class="st6" d="M110.8,41.9c-0.8,0-1.4,0.6-1.4,1.4V108c0,0.8,0.6,1.4,1.4,1.4c0.8,0,1.4-0.6,1.4-1.4V43.3     C112.2,42.5,111.6,41.9,110.8,41.9z"/>
		</g>
	</g>
	<polygon class="st7" points="114,54.6 122.5,49.7 122.5,52.9 114,57.9  "/>
	<polygon class="st7" points="114,61.7 122.5,56.7 122.5,60 114,64.9  "/>
	<polygon class="st7" points="114,68.7 122.5,63.8 122.5,67 114,72  "/>
	<polygon class="st7" points="114,75.8 122.5,70.8 122.5,74.1 114,79  "/>
	<polygon class="st7" points="114,82.8 122.5,77.9 122.5,81.1 114,86.1  "/>
	<polygon class="st7" points="114,89.9 122.5,84.9 122.5,88.2 114,93.1  "/>
	<polygon class="st7" points="114,96.9 122.5,92 122.5,95.2 114,100.2  "/>
	<polygon class="st7" points="107.7,54.6 99.2,49.7 99.2,52.9 107.7,57.9  "/>
	<polygon class="st7" points="107.7,61.7 99.2,56.7 99.2,60 107.7,64.9  "/>
	<polygon class="st7" points="107.7,68.7 99.2,63.8 99.2,67 107.7,72  "/>
	<polygon class="st7" points="107.7,75.8 99.2,70.8 99.2,74.1 107.7,79  "/>
	<polygon class="st7" points="107.7,82.8 99.2,77.9 99.2,81.1 107.7,86.1  "/>
	<polygon class="st7" points="107.7,89.9 99.2,84.9 99.2,88.2 107.7,93.1  "/>
	<polygon class="st7" points="107.7,96.9 99.2,92 99.2,95.2 107.7,100.2  "/>
	<g>
		<ellipse transform="matrix(0.7975 -0.6033 0.6033 0.7975 -7.7628 73.9729)" class="st8" cx="106.3" cy="48.6" rx="1.1" ry="1.9"/>
		<ellipse transform="matrix(0.7975 -0.6033 0.6033 0.7975 -7.1307 70.9213)" class="st7" cx="102.1" cy="46.1" rx="1.1" ry="1.9"/>
	</g>
</g>
</svg>