<?xml version="1.0" encoding="UTF-8"?>
<!-- Generator: Adobe Illustrator 23.0.3, SVG Export Plug-In . SVG Version: 6.00 Build 0)  -->
<svg version="1.1" id="Layer_1" xmlns="http://www.w3.org/2000/svg" xmlns:xlink="http://www.w3.org/1999/xlink" x="0px" y="0px" viewBox="0 0 151.2 140" style="enable-background:new 0 0 151.2 140;" xml:space="preserve">
<style type="text/css">
	.st0{fill:#80C0FF;}
	.st1{fill:#45ABFF;}
	.st2{fill:#DEF4FC;}
	.st3{fill:#E9F6FF;}
	.st4{fill:#0C5ADB;}
	.st5{fill:#C8DFF5;}
	.st6{fill:#AFD8F9;}
	.st7{fill:#FFFFFF;}
	.st8{fill:#6AB0E5;}
	.st9{fill:#5BA1E1;}
	.st10{fill:#00FFFF;}
</style>
<g>
	<g>
		<g>
			<path class="st0" d="M132.3,45.3H18.9c-2.7,0-4.9,2.2-4.9,4.9v74.6h123.1V50.2C137.1,47.5,135,45.3,132.3,45.3z"/>
		</g>
	</g>
	<g>
		<g>
			<rect x="14" y="113.4" class="st1" width="123.1" height="10.5"/>
		</g>
	</g>
	<g>
		<g>
			<path class="st1" d="M52.7,108.6c0.2-0.5,0.4-1.1,0.4-1.7c0-2.2-1.8-4.1-4.1-4.1c-1.3,0-2.5,0.6-3.2,1.6c-0.3-3.1-2.8-5.5-6-5.5     c-3.3,0-6,2.7-6,6c0,0.5,0.1,1,0.2,1.4c-0.2,0-0.3-0.1-0.5-0.1c-1.2,0-2.2,0.9-2.3,2.1c-0.8-0.5-1.8-0.9-2.9-0.9     c-2.9,0-5.2,2.3-5.2,5.2s2.3,5.2,5.2,5.2c0,0,0.1,0,0.1,0c0.6,2.9,3.1,5.1,6.2,5.1c3.3,0,6-2.5,6.2-5.7c0.7,0.4,1.6,0.6,2.5,0.6     c1.8,0,3.4-0.9,4.4-2.4c0.8,1.8,2.6,3.1,4.7,3.1c2.8,0,5-2.3,5-5C57.4,110.9,55.3,108.7,52.7,108.6z"/>
		</g>
	</g>
	<g>
		<g>
			<circle class="st1" cx="23.1" cy="100.6" r="1.8"/>
		</g>
	</g>
	<g>
		<g>
			<path class="st1" d="M27.9,98.8c-0.2,0-0.4,0.2-0.4,0.4s0.2,0.4,0.4,0.4c0.2,0,0.4-0.2,0.4-0.4S28.1,98.8,27.9,98.8z"/>
		</g>
	</g>
	<g>
		<g>
			<path class="st1" d="M32.3,98.6c-0.2,0-0.4,0.2-0.4,0.4c0,0.2,0.2,0.4,0.4,0.4c0.2,0,0.4-0.2,0.4-0.4     C32.8,98.8,32.6,98.6,32.3,98.6z"/>
		</g>
	</g>
	<g>
		<g>
			<path class="st1" d="M28.4,102.8c-0.3,0-0.5,0.2-0.5,0.5c0,0.3,0.2,0.5,0.5,0.5c0.3,0,0.5-0.2,0.5-0.5     C28.9,103,28.7,102.8,28.4,102.8z"/>
		</g>
	</g>
	<g>
		<g>
			<path class="st1" d="M30.4,91c-1.1,0-2,0.9-2,2c0,1.1,0.9,2,2,2c1.1,0,2-0.9,2-2C32.3,91.9,31.5,91,30.4,91z"/>
		</g>
	</g>
	<g>
		<g>
			<path class="st1" d="M47.5,95.7c-0.9,0-1.6,0.7-1.6,1.6c0,0.9,0.7,1.6,1.6,1.6s1.6-0.7,1.6-1.6C49.1,96.4,48.4,95.7,47.5,95.7z"/>
		</g>
	</g>
	<g>
		<g>
			<path class="st1" d="M52.1,97.2c-0.6,0-1,0.4-1,1c0,0.6,0.4,1,1,1s1-0.4,1-1C53.1,97.7,52.7,97.2,52.1,97.2z"/>
		</g>
	</g>
	<g>
		<g>
			<path class="st1" d="M23.9,91c-1.5,0-2.7,1.2-2.7,2.7c0,1.5,1.2,2.7,2.7,2.7s2.7-1.2,2.7-2.7C26.6,92.2,25.4,91,23.9,91z"/>
		</g>
	</g>
	<g>
		<g>
			<path class="st1" d="M122.8,107.4c-1.1,0-2,0.3-2.9,0.9c-0.1-1.2-1.1-2.1-2.3-2.1c-0.2,0-0.3,0-0.5,0.1c0.1-0.5,0.2-0.9,0.2-1.4     c0-3.3-2.7-6-6-6c-3.2,0-5.7,2.4-6,5.5c-0.7-0.9-1.9-1.6-3.2-1.6c-2.2,0-4.1,1.8-4.1,4.1c0,0.6,0.1,1.2,0.4,1.7     c-2.6,0.2-4.7,2.4-4.7,5c0,2.8,2.3,5,5,5c2.1,0,3.9-1.3,4.7-3.1c0.9,1.4,2.5,2.4,4.4,2.4c0.9,0,1.7-0.2,2.5-0.6     c0.3,3.2,3,5.7,6.2,5.7c3.1,0,5.6-2.2,6.2-5.1c0,0,0.1,0,0.1,0c2.9,0,5.2-2.3,5.2-5.2S125.7,107.4,122.8,107.4z"/>
		</g>
	</g>
	<g>
		<g>
			<path class="st1" d="M128.1,98.8c-1,0-1.8,0.8-1.8,1.8c0,1,0.8,1.8,1.8,1.8c1,0,1.8-0.8,1.8-1.8     C129.9,99.6,129.1,98.8,128.1,98.8z"/>
		</g>
	</g>
	<g>
		<g>
			<path class="st1" d="M123.3,98.8c-0.2,0-0.4,0.2-0.4,0.4s0.2,0.4,0.4,0.4c0.2,0,0.4-0.2,0.4-0.4S123.5,98.8,123.3,98.8z"/>
		</g>
	</g>
	<g>
		<g>
			<path class="st1" d="M118.8,98.6c-0.2,0-0.4,0.2-0.4,0.4c0,0.2,0.2,0.4,0.4,0.4c0.2,0,0.4-0.2,0.4-0.4     C119.2,98.8,119.1,98.6,118.8,98.6z"/>
		</g>
	</g>
	<g>
		<g>
			<path class="st1" d="M122.8,102.8c-0.3,0-0.5,0.2-0.5,0.5c0,0.3,0.2,0.5,0.5,0.5s0.5-0.2,0.5-0.5     C123.3,103,123,102.8,122.8,102.8z"/>
		</g>
	</g>
	<g>
		<g>
			<path class="st1" d="M120.8,91c-1.1,0-2,0.9-2,2c0,1.1,0.9,2,2,2c1.1,0,2-0.9,2-2C122.8,91.9,121.9,91,120.8,91z"/>
		</g>
	</g>
	<g>
		<g>
			<path class="st1" d="M103.7,95.7c-0.9,0-1.6,0.7-1.6,1.6c0,0.9,0.7,1.6,1.6,1.6c0.9,0,1.6-0.7,1.6-1.6     C105.3,96.4,104.5,95.7,103.7,95.7z"/>
		</g>
	</g>
	<g>
		<g>
			<path class="st1" d="M99,97.2c-0.6,0-1,0.4-1,1c0,0.6,0.4,1,1,1c0.6,0,1-0.4,1-1C100,97.7,99.6,97.2,99,97.2z"/>
		</g>
	</g>
	<g>
		<g>
			<path class="st1" d="M127.2,91c-1.5,0-2.7,1.2-2.7,2.7c0,1.5,1.2,2.7,2.7,2.7s2.7-1.2,2.7-2.7C129.9,92.2,128.7,91,127.2,91z"/>
		</g>
	</g>
	<g>
		<g>
			<path class="st2" d="M1.2,124.7v9.2c0,2.7,2.2,4.9,4.9,4.9h139c2.7,0,4.9-2.2,4.9-4.9v-9.2H1.2z"/>
		</g>
	</g>
	<g>
		<g>
			<path class="st3" d="M55.9,125.1v1c0,2.7,2.2,4.9,4.9,4.9h29.7c2.7,0,4.9-2.2,4.9-4.9v-1H55.9z"/>
		</g>
	</g>
	<g>
		<g>
			<path class="st0" d="M55.9,125.1v1c0,2.7,2.2,4.9,4.9,4.9h29.7c2.7,0,4.9-2.2,4.9-4.9v-1H55.9z"/>
		</g>
	</g>
	<g>
		<g>
			<path class="st4" d="M95.3,124.5H55.9c-0.3,0-0.6,0.3-0.6,0.6v1c0,3,2.5,5.5,5.5,5.5h29.7c3,0,5.5-2.5,5.5-5.5v-1     C95.9,124.7,95.6,124.5,95.3,124.5z M94.7,126c0,2.3-1.9,4.3-4.3,4.3H60.7c-2.3,0-4.3-1.9-4.3-4.3v-0.4h38.2V126z"/>
		</g>
	</g>
	<g>
		<g>
			<path class="st4" d="M150,123.5H1.2c-0.7,0-1.2,0.5-1.2,1.2v9.2c0,3.3,2.7,6.1,6.1,6.1h139c3.3,0,6.1-2.7,6.1-6.1v-9.2     C151.2,124.1,150.6,123.5,150,123.5z M148.7,133.9c0,2-1.6,3.7-3.6,3.7H6.1c-2,0-3.7-1.6-3.7-3.7v-8h146.3V133.9z"/>
		</g>
	</g>
	<g>
		<g>
			<path class="st4" d="M132.3,44.1H18.9c-3.3,0-6.1,2.7-6.1,6.1v74.6c0,0.7,0.5,1.2,1.2,1.2h123.1c0.7,0,1.2-0.5,1.2-1.2V50.2     C138.4,46.8,135.6,44.1,132.3,44.1z M135.9,123.5H15.2V50.2c0-2,1.6-3.7,3.6-3.7h113.4c2,0,3.7,1.6,3.7,3.7V123.5z"/>
		</g>
	</g>
	<g>
		<g>
			<path class="st1" d="M114.5,87.6c0-0.1,0-0.2,0-0.3V71.8c0-1.8-1.5-3.3-3.3-3.3c-1.8,0-3.3,1.5-3.3,3.3v5.8l-18.7-3.8L88,78.5     l2.1-8.4h0.3c1.4-5.8,2.2-12.2,2.2-19c0-7-0.8-13.6-2.3-19.6v0c-0.2-0.6-0.3-1.2-0.5-1.8c0-0.1-0.1-0.2-0.1-0.3     c-0.1-0.5-0.3-0.9-0.4-1.4c-0.1-0.2-0.1-0.3-0.2-0.5c-0.1-0.4-0.3-0.8-0.4-1.2c-0.1-0.2-0.1-0.3-0.2-0.5     c-0.1-0.4-0.3-0.7-0.4-1.1c-0.1-0.2-0.1-0.3-0.2-0.5c-0.1-0.4-0.3-0.7-0.4-1.1c-0.1-0.1-0.1-0.3-0.2-0.4     c-0.2-0.4-0.3-0.8-0.5-1.2c0-0.1-0.1-0.2-0.1-0.3c-0.2-0.5-0.4-0.9-0.7-1.4c0,0,0,0,0-0.1c-2.8-5.8-6.4-10.2-10.5-12.9     c-3.7,2.4-7,6.4-9.7,11.4h0c0,0,0,0,0,0c-0.2,0.5-0.5,0.9-0.7,1.4c-0.1,0.1-0.1,0.2-0.2,0.3c-0.2,0.4-0.4,0.7-0.5,1.1     c-0.1,0.2-0.1,0.3-0.2,0.5c-0.1,0.3-0.3,0.7-0.4,1c-0.1,0.2-0.1,0.4-0.2,0.6c-0.1,0.3-0.3,0.7-0.4,1c-0.1,0.2-0.2,0.4-0.2,0.6     c-0.1,0.3-0.2,0.7-0.4,1c-0.1,0.2-0.1,0.4-0.2,0.6c-0.1,0.3-0.2,0.7-0.3,1.1c-0.1,0.2-0.1,0.4-0.2,0.6c-0.1,0.4-0.3,0.8-0.4,1.3     c0,0.1-0.1,0.3-0.1,0.4c-0.2,0.6-0.3,1.2-0.5,1.8v0c-1.5,6-2.3,12.6-2.3,19.6c0,6.8,0.8,13.2,2.2,19h0.3l0.7,3l0.2,0.8l-18.7,3.8     v-5.8c0-1.8-1.5-3.3-3.3-3.3c-1.8,0-3.3,1.5-3.3,3.3v15.5c0,0.1,0,0.2,0,0.3H35v5.2H45v-5.2h-1.7c0-0.1,0-0.2,0-0.3V84h21.2     L62.3,75l2.8,11.4h2c0.3,3.8,3.5,6.9,7.4,6.9h2c3.9,0,7.1-3,7.4-6.9h2l0.6-2.5h21.2v3.3c0,0.1,0,0.2,0,0.3h-1.7v5.2h10.1v-5.2     H114.5z"/>
		</g>
	</g>
	<g>
		<g>
			<rect x="75" y="79.8" class="st5" width="1.2" height="8.4"/>
		</g>
	</g>
	<g>
		<g>
			<rect x="75" y="74.3" class="st5" width="1.2" height="0.9"/>
		</g>
	</g>
	<g>
		<g>
			<rect x="75" y="69.9" class="st5" width="1.2" height="0.9"/>
		</g>
	</g>
	<g>
		<g>
			
				<rect x="75.1" y="65.3" transform="matrix(1.055060e-03 -1 1 1.055060e-03 9.5785 141.4416)" class="st5" width="0.9" height="1.2"/>
		</g>
	</g>
	<g>
		<g>
			<rect x="75" y="9.7" class="st5" width="1.2" height="0.9"/>
		</g>
	</g>
	<g>
		<g>
			<rect x="75" y="14.1" class="st5" width="1.2" height="0.9"/>
		</g>
	</g>
	<g>
		<g>
			
				<rect x="75.1" y="18.4" transform="matrix(1.582798e-03 -1 1 1.582798e-03 56.4318 94.588)" class="st5" width="0.9" height="1.2"/>
		</g>
	</g>
	<g>
		<g>
			<path class="st5" d="M76.2,83.7c-0.2,0-0.4,0-0.6,0V85c0.2,0,0.4,0,0.6,0L76.2,83.7z"/>
		</g>
	</g>
	<g>
		<g>
			<path class="st5" d="M75,0l0,1.2c0.2,0,0.4,0,0.6,0V0C75.4,0,75.2,0,75,0z"/>
		</g>
	</g>
	<g>
		<g>
			<path class="st5" d="M75,69.1l0,1.2c0.2,0,0.4,0,0.6,0v-1.2C75.4,69.1,75.2,69.1,75,69.1z"/>
		</g>
	</g>
	<g>
		<g>
			<path class="st5" d="M75.6,14.7v1.2c0.2,0,0.4,0,0.6,0l0-1.2C76,14.7,75.8,14.7,75.6,14.7z"/>
		</g>
	</g>
	<g>
		<g>
			<path class="st5" d="M76.2,83.7c-0.2,0-0.4,0-0.6,0V85c0.2,0,0.4,0,0.6,0L76.2,83.7z"/>
		</g>
	</g>
	<g>
		<g>
			<path class="st5" d="M75,0l0,1.2c0.2,0,0.4,0,0.6,0V0C75.4,0,75.2,0,75,0z"/>
		</g>
	</g>
	<g>
		<g>
			<path class="st1" d="M52.3,108.4c0,4.7,3.8,8.5,8.5,8.5c4.7,0,8.5-3.8,8.5-8.5V88.6L52.3,108.4z"/>
		</g>
	</g>
	<g>
		<g>
			<path class="st1" d="M56.5,101.1c-2.4,0-4.3,1.9-4.3,4.3v3.2l8.5-3.2C60.8,103.1,58.9,101.1,56.5,101.1z"/>
		</g>
	</g>
	<g>
	</g>
	<g>
		<g>
			<path class="st1" d="M81.8,88.6v19.8c0,4.7,3.8,8.5,8.5,8.5c4.7,0,8.5-3.8,8.5-8.5L81.8,88.6z"/>
		</g>
	</g>
	<g>
		<g>
			<path class="st1" d="M94.6,101.1c-2.4,0-4.3,1.9-4.3,4.3l8.5,3.2v-3.2C98.9,103.1,97,101.1,94.6,101.1z"/>
		</g>
	</g>
	<g>
	</g>
	<g>
	</g>
	<g>
		<g>
			<path class="st3" d="M67.1,80.8c0,4.1,3.3,7.5,7.5,7.5h2c4.1,0,7.5-3.3,7.5-7.5H67.1z"/>
		</g>
	</g>
	<g>
		<g>
			<path class="st6" d="M72.3,80.8c0,4.1,1.3,7.5,2.9,7.5H76c1.6,0,2.9-3.3,2.9-7.5H72.3z"/>
		</g>
	</g>
	<g>
		<g>
			<path class="st0" d="M75.6,1c-9.9,6.5-17.1,23.9-17.1,44.3c0,6.8,0.8,13.2,2.2,19h29.7c1.4-5.8,2.2-12.2,2.2-19     C92.6,24.9,85.5,7.5,75.6,1z"/>
		</g>
	</g>
	<g>
		<g>
			<path class="st1" d="M75.6,1c-5.2,6.5-8.9,23.9-8.9,44.3c0,6.8,0.4,13.2,1.1,19h15.5c0.7-5.8,1.1-12.2,1.1-19     C84.5,24.9,80.8,7.5,75.6,1z"/>
		</g>
	</g>
	<g>
		<g>
			<path class="st7" d="M75.6,1C73.5,7.5,72,24.9,72,45.3c0,6.8,0.2,13.2,0.5,19h6.2c0.3-5.8,0.5-12.2,0.5-19     C79.2,24.9,77.7,7.5,75.6,1z"/>
		</g>
	</g>
	<g>
		<g>
			<path class="st0" d="M82.9,38c-4-4-10.5-4-14.6,0c-4,4-4,10.6,0,14.6c4,4,10.6,4,14.6,0C86.9,48.6,86.9,42,82.9,38z"/>
		</g>
	</g>
	<g>
	</g>
	<g>
	</g>
	<g>
	</g>
	<g>
		<g>
			<path class="st8" d="M85.3,12.4H65.8c-2,3.8-3.7,8.3-5,13.2h29.4C89.1,20.7,87.4,16.3,85.3,12.4z"/>
		</g>
	</g>
	<g>
		<g>
			<path class="st9" d="M80.9,12.4H70.2c-1.1,3.8-2.1,8.3-2.7,13.2h16.2C83,20.7,82.1,16.3,80.9,12.4z"/>
		</g>
	</g>
	<g>
		<g>
			<path class="st4" d="M78.1,12.4h-5c-0.5,3.8-1,8.3-1.3,13.2h7.5C79,20.7,78.6,16.3,78.1,12.4z"/>
		</g>
	</g>
	<g>
	</g>
	<g>
	</g>
	<g>
		<g>
			<polygon class="st7" points="61.1,64.3 65.2,80.7 86,80.7 90.1,64.3    "/>
		</g>
	</g>
	<g>
		<g>
			<polygon class="st2" points="66.8,64.3 69.3,80.7 81.9,80.7 84.4,64.3    "/>
		</g>
	</g>
	<g>
		<g>
			<polygon class="st5" points="61.1,64.3 61.8,67.3 89.4,67.3 90.1,64.3    "/>
		</g>
	</g>
	<g>
		<g>
			<polygon class="st6" points="66.8,64.3 67.3,67.3 83.9,67.3 84.4,64.3    "/>
		</g>
	</g>
	<g>
		<g>
			<polygon class="st1" points="89.2,72.3 87.7,78.2 105.5,78.2    "/>
		</g>
	</g>
	<g>
		<g>
			<polygon class="st1" points="62,72.3 45.7,78.2 63.5,78.2    "/>
		</g>
	</g>
	<g>
		<g>
			<rect x="35" y="81.8" class="st10" width="10.1" height="5.2"/>
		</g>
	</g>
	<g>
		<g>
			<path class="st10" d="M40,62.7c-1.8,0-3.3,1.5-3.3,3.3v15.5c0,0.1,0,0.2,0,0.3h6.6c0-0.1,0-0.2,0-0.3V66     C43.3,64.2,41.8,62.7,40,62.7z"/>
		</g>
	</g>
	<g>
		<g>
			<rect x="106.1" y="81.8" class="st10" width="10.1" height="5.2"/>
		</g>
	</g>
	<g>
		<g>
			<path class="st10" d="M111.2,62.7c-1.8,0-3.3,1.5-3.3,3.3v15.5c0,0.1,0,0.2,0,0.3h6.6c0-0.1,0-0.2,0-0.3V66     C114.5,64.2,113,62.7,111.2,62.7z"/>
		</g>
	</g>
	<g>
		<g>
			<rect x="68.7" y="88.6" class="st5" width="1.2" height="0.6"/>
		</g>
	</g>
	<g>
		<g>
			<path class="st5" d="M63.7,115.8l0.4,1.1c0.4-0.2,0.8-0.3,1.2-0.6l-0.6-1.1C64.4,115.5,64,115.7,63.7,115.8z M61.5,116.3l0.1,1.2     c0.4,0,0.9-0.1,1.3-0.2l-0.3-1.2C62.2,116.2,61.8,116.3,61.5,116.3z M58.9,117.4c0.4,0.1,0.9,0.1,1.3,0.2l0.1-1.2     c-0.4,0-0.8-0.1-1.1-0.1L58.9,117.4z M65.7,114.7l0.7,1c0.3-0.3,0.7-0.6,1-0.9l-0.9-0.8C66.2,114.2,66,114.5,65.7,114.7z      M53.8,112.3l-1.1,0.6c0.2,0.4,0.5,0.8,0.7,1.1l1-0.7C54.2,112.9,54,112.6,53.8,112.3z M67.2,113.1l1,0.7     c0.3-0.4,0.5-0.7,0.7-1.1l-1.1-0.6C67.7,112.4,67.5,112.7,67.2,113.1z M56.5,116.5c0.4,0.2,0.8,0.4,1.2,0.5l0.4-1.1     c-0.4-0.1-0.7-0.3-1-0.5L56.5,116.5z M53,110.1l-1.2,0.3c0.1,0.4,0.2,0.9,0.4,1.3l1.1-0.4C53.2,110.9,53.1,110.5,53,110.1z      M54.4,114.9c0.3,0.3,0.6,0.6,1,0.9l0.7-1c-0.3-0.2-0.6-0.5-0.9-0.7L54.4,114.9z M68.7,101.5h1.2v-1.2h-1.2V101.5z M68.7,99h1.2     v-1.2h-1.2V99z M68.7,96.6h1.2v-1.2h-1.2V96.6z M68.7,94.1h1.2v-1.2h-1.2V94.1z M68.7,90.4v1.2h1.2v-1.2H68.7z M68.3,111l1.1,0.4     c0.1-0.4,0.3-0.8,0.3-1.3l-1.2-0.2C68.5,110.3,68.4,110.7,68.3,111z M68.7,108.4c0,0.1,0,0.3,0,0.4l1.2,0.1c0-0.1,0-0.3,0-0.4     v-0.8h-1.2V108.4z M68.7,106.4h1.2v-1.2h-1.2V106.4z M68.7,103.9h1.2v-1.2h-1.2V103.9z"/>
		</g>
	</g>
	<g>
		<g>
			<path class="st5" d="M52.9,108.4h-1.2c0,0.2,0,0.4,0,0.6l1.2-0.1C52.9,108.8,52.9,108.6,52.9,108.4z"/>
		</g>
	</g>
	<g>
		<g>
			<rect x="51.7" y="108" class="st5" width="1.2" height="0.6"/>
		</g>
	</g>
	<g>
		<g>
			<path class="st5" d="M51.8,104.4l1.2,0.3c0.1-0.3,0.2-0.7,0.4-0.9l-1.1-0.6C52,103.5,51.9,103.9,51.8,104.4z M51.7,106.8h1.2     v-1.2h-1.2V106.8z M53,102l0.9,0.8c0.2-0.2,0.5-0.5,0.8-0.6l-0.6-1.1C53.7,101.4,53.4,101.7,53,102z M60.3,102.3l-0.9,0.8     c0.2,0.3,0.4,0.5,0.5,0.9l1.1-0.5C60.8,103,60.5,102.6,60.3,102.3z M57.7,101.9c0.3,0.1,0.6,0.3,0.9,0.4l0.7-1     c-0.4-0.3-0.8-0.5-1.2-0.6L57.7,101.9z M55.7,101.9c0.3-0.1,0.7-0.1,1-0.1l0-1.2c-0.4,0-0.9,0-1.3,0.1L55.7,101.9z"/>
		</g>
	</g>
	<g>
		<g>
			<path class="st5" d="M61.3,104.7l-1.2,0.2c0,0.2,0,0.3,0,0.5h1.2C61.4,105.2,61.4,104.9,61.3,104.7z"/>
		</g>
	</g>
	<g>
		<g>
			<rect x="68.7" y="110.4" class="st5" width="1.2" height="0.6"/>
		</g>
	</g>
	<g>
		<g>
			<path class="st5" d="M68.7,117.7h1.2v-1.1h-1.2V117.7z M68.7,119.9h1.2v-1.1h-1.2V119.9z M68.7,112.1v1.1h1.2v-1.1H68.7z      M68.7,115.4h1.2v-1.1h-1.2V115.4z"/>
		</g>
	</g>
	<g>
		<g>
			<rect x="68.7" y="121" class="st5" width="1.2" height="0.6"/>
		</g>
	</g>
	<g>
		<g>
			<rect x="81.2" y="88.6" class="st5" width="1.2" height="0.6"/>
		</g>
	</g>
	<g>
		<g>
			<path class="st5" d="M82.4,102.7h-1.2v1.2h1.2V102.7z M82.4,100.2h-1.2v1.2h1.2V100.2z M82.4,108.4v-0.8h-1.2v0.8     c0,0.1,0,0.3,0,0.4l1.2-0.1C82.4,108.7,82.4,108.6,82.4,108.4z M82.4,105.2h-1.2v1.2h1.2V105.2z M82.4,90.4h-1.2v1.2h1.2V90.4z      M82.4,97.8h-1.2V99h1.2V97.8z M82.6,109.9l-1.2,0.2c0.1,0.4,0.2,0.9,0.3,1.3l1.1-0.4C82.8,110.7,82.7,110.3,82.6,109.9z      M82.4,92.9h-1.2v1.2h1.2V92.9z M82.4,95.3h-1.2v1.2h1.2V95.3z M93.1,115.9l0.4,1.1c0.4-0.1,0.8-0.3,1.2-0.5l-0.6-1.1     C93.8,115.6,93.4,115.8,93.1,115.9z M96.7,113.2l1,0.7c0.3-0.3,0.5-0.7,0.7-1.1l-1.1-0.6C97.1,112.6,96.9,112.9,96.7,113.2z      M95.1,114.8l0.7,1c0.4-0.3,0.7-0.5,1-0.9l-0.9-0.9C95.7,114.3,95.4,114.6,95.1,114.8z M98.1,110.1c-0.1,0.4-0.2,0.7-0.3,1.1     l1.1,0.4c0.2-0.4,0.3-0.8,0.4-1.3L98.1,110.1z M88.3,117.3c0.4,0.1,0.9,0.2,1.3,0.2l0.1-1.2c-0.4,0-0.8-0.1-1.1-0.2L88.3,117.3z      M85.9,116.4c0.4,0.2,0.8,0.4,1.2,0.6l0.4-1.1c-0.4-0.1-0.7-0.3-1-0.5L85.9,116.4z M90.8,116.3l0.1,1.2c0.4,0,0.9-0.1,1.3-0.2     l-0.2-1.2C91.6,116.3,91.2,116.3,90.8,116.3z M83.8,114.8c0.3,0.3,0.6,0.6,1,0.9l0.7-1c-0.3-0.2-0.6-0.5-0.8-0.8L83.8,114.8z      M83.3,112.1l-1.1,0.6c0.2,0.4,0.4,0.8,0.7,1.1l1-0.7C83.7,112.7,83.5,112.4,83.3,112.1z"/>
		</g>
	</g>
	<g>
		<g>
			<path class="st5" d="M98.3,108.4c0,0.2,0,0.4,0,0.6l1.2,0.1c0-0.2,0-0.4,0-0.6H98.3z"/>
		</g>
	</g>
	<g>
		<g>
			<rect x="98.3" y="108" class="st5" width="1.2" height="0.6"/>
		</g>
	</g>
	<g>
		<g>
			<path class="st5" d="M91.9,101.4l0.7,1c0.3-0.2,0.6-0.3,0.9-0.4l-0.4-1.2C92.7,100.9,92.3,101.1,91.9,101.4z M90.2,103.4l1.1,0.5     c0.1-0.3,0.3-0.6,0.5-0.9l-0.9-0.8C90.6,102.6,90.4,103,90.2,103.4z M94.6,100.5c-0.1,0-0.1,0-0.2,0l0,1.2c0,0,0.1,0,0.1,0     c0.3,0,0.6,0,0.9,0.1l0.3-1.2C95.4,100.6,95,100.5,94.6,100.5L94.6,100.5z M98.3,105.7v1.2h1.2v-1.2H98.3z M98.9,103.1l-1.1,0.6     c0.2,0.3,0.3,0.6,0.4,0.9l1.2-0.3C99.3,103.9,99.1,103.5,98.9,103.1z M97.1,101.2l-0.6,1.1c0.3,0.2,0.6,0.4,0.8,0.6l0.9-0.8     C97.8,101.7,97.4,101.4,97.1,101.2z"/>
		</g>
	</g>
	<g>
		<g>
			<path class="st5" d="M89.8,104.7c0,0.2,0,0.5,0,0.7H91c0-0.2,0-0.3,0-0.5L89.8,104.7z"/>
		</g>
	</g>
	<g>
		<g>
			<rect x="81.2" y="110.4" class="st5" width="1.2" height="0.6"/>
		</g>
	</g>
	<g>
		<g>
			<path class="st5" d="M81.2,117.7h1.2v-1.1h-1.2V117.7z M81.2,119.9h1.2v-1.1h-1.2V119.9z M81.2,115.4h1.2v-1.1h-1.2V115.4z      M81.2,112.1v1.1h1.2v-1.1H81.2z"/>
		</g>
	</g>
	<g>
		<g>
			<rect x="81.2" y="121" class="st5" width="1.2" height="0.6"/>
		</g>
	</g>
	<g>
		<g>
			<rect x="75" y="98.8" class="st5" width="1.2" height="0.6"/>
		</g>
	</g>
	<g>
		<g>
			<rect x="75" y="121" class="st5" width="1.2" height="0.6"/>
		</g>
	</g>
	<g>
		<g>
			<path class="st5" d="M75,94.9h1.2v-1.2H75V94.9z M75,91.2v1.2h1.2v-1.2H75z"/>
		</g>
	</g>
	<g>
		<g>
			<path class="st4" d="M84,79.9c-0.5,0-0.9,0.4-0.9,0.9c0,3.6-2.9,6.5-6.5,6.5h-2c-3.6,0-6.5-2.9-6.5-6.5c0-0.5-0.4-0.9-0.9-0.9     s-0.9,0.4-0.9,0.9c0,4.6,3.8,8.4,8.4,8.4h2c4.6,0,8.4-3.8,8.4-8.4C84.9,80.3,84.5,79.9,84,79.9z"/>
		</g>
	</g>
	<g>
		<g>
			<path class="st4" d="M78.8,79.9c-0.5,0-0.9,0.4-0.9,0.9c0,4.3-1.4,6.5-2,6.5h-0.8c-0.6,0-2-2.2-2-6.5c0-0.5-0.4-0.9-0.9-0.9     c-0.5,0-0.9,0.4-0.9,0.9c0,4.2,1.3,8.4,3.8,8.4H76c2.5,0,3.8-4.2,3.8-8.4C79.7,80.3,79.3,79.9,78.8,79.9z"/>
		</g>
	</g>
	<g>
		<g>
			<path class="st4" d="M76.1,0.2c-0.3-0.2-0.7-0.2-1,0c-10.4,6.8-17.5,24.9-17.5,45c0,6.7,0.7,13.1,2.2,19.2     c0.1,0.4,0.5,0.7,0.9,0.7h29.7c0.4,0,0.8-0.3,0.9-0.7c1.5-6.1,2.2-12.5,2.2-19.2C93.5,25.2,86.5,7.1,76.1,0.2z M89.7,63.4H61.4     c-1.3-5.7-2-11.8-2-18.1c0-19.2,6.5-36.4,16.1-43.2c9.7,6.8,16.1,24,16.1,43.2C91.7,51.5,91.1,57.6,89.7,63.4z"/>
		</g>
	</g>
	<g>
		<g>
			<path class="st4" d="M77.7,67.9h-4.2c-0.5,0-0.9,0.4-0.9,0.9s0.4,0.9,0.9,0.9h4.2c0.5,0,0.9-0.4,0.9-0.9S78.2,67.9,77.7,67.9z"/>
		</g>
	</g>
	<g>
		<g>
			<path class="st4" d="M77.7,71.6h-4.2c-0.5,0-0.9,0.4-0.9,0.9c0,0.5,0.4,0.9,0.9,0.9h4.2c0.5,0,0.9-0.4,0.9-0.9     C78.6,72,78.2,71.6,77.7,71.6z"/>
		</g>
	</g>
	<g>
		<g>
			<path class="st4" d="M77.7,75.2h-4.2c-0.5,0-0.9,0.4-0.9,0.9S73,77,73.5,77h4.2c0.5,0,0.9-0.4,0.9-0.9S78.2,75.2,77.7,75.2z"/>
		</g>
	</g>
	<g>
		<g>
			<path class="st4" d="M91.2,25.5c-1.2-5-2.9-9.5-5.1-13.4c-0.2-0.3-0.5-0.5-0.8-0.5H65.8c-0.3,0-0.6,0.2-0.8,0.5     c-2.1,4-3.8,8.5-5.1,13.4c-0.1,0.3,0,0.6,0.2,0.8c0.2,0.2,0.4,0.3,0.7,0.3h29.4c0.3,0,0.5-0.1,0.7-0.3     C91.2,26,91.3,25.7,91.2,25.5z M62,24.8c1.1-4.2,2.6-8,4.3-11.4h18.4c1.8,3.4,3.2,7.2,4.3,11.4H62z"/>
		</g>
	</g>
	<g>
		<g>
			<path class="st4" d="M81.8,12.2c-0.1-0.4-0.5-0.7-0.9-0.7H70.2c-0.4,0-0.8,0.3-0.9,0.7c-1.1,3.9-2.1,8.4-2.8,13.4     c0,0.3,0,0.5,0.2,0.7c0.2,0.2,0.4,0.3,0.7,0.3h16.2c0.3,0,0.5-0.1,0.7-0.3c0.2-0.2,0.3-0.5,0.2-0.7C83.9,20.6,83,16.1,81.8,12.2z      M68.5,24.8c0.6-4.2,1.4-8,2.4-11.4h9.3c1,3.4,1.8,7.2,2.4,11.4H68.5z"/>
		</g>
	</g>
	<g>
		<g>
			<path class="st4" d="M75.6,11.5c-0.5,0-0.9,0.4-0.9,0.9v13.2c0,0.5,0.4,0.9,0.9,0.9c0.5,0,0.9-0.4,0.9-0.9V12.4     C76.5,11.9,76.1,11.5,75.6,11.5z"/>
		</g>
	</g>
	<g>
		<g>
			<path class="st4" d="M75.6,50.6c-0.5,0-0.9,0.4-0.9,0.9v12.8c0,0.5,0.4,0.9,0.9,0.9c0.5,0,0.9-0.4,0.9-0.9V51.5     C76.5,51,76.1,50.6,75.6,50.6z"/>
		</g>
	</g>
	<g>
		<g>
			<path class="st4" d="M90.8,63.7c-0.2-0.2-0.4-0.3-0.7-0.3H61.1c-0.3,0-0.5,0.1-0.7,0.3s-0.2,0.5-0.2,0.8l4.1,16.4     c0.1,0.4,0.5,0.7,0.9,0.7H86c0.4,0,0.8-0.3,0.9-0.7L91,64.5C91.1,64.2,91,63.9,90.8,63.7z M85.3,79.8H65.9l-3.6-14.6h26.7     L85.3,79.8z"/>
		</g>
	</g>
	<g>
		<g>
			<path class="st4" d="M108.1,74l-18.7-6.8c-0.2-0.1-0.5-0.1-0.7,0.1c-0.2,0.1-0.4,0.3-0.5,0.6L85.7,78c-0.1,0.3,0,0.6,0.2,0.8     c0.2,0.2,0.4,0.3,0.7,0.3h21.2c0.5,0,0.9-0.4,0.9-0.9v-3.3C108.7,74.5,108.5,74.2,108.1,74z M106.9,77.3H87.8l2-8l17.1,6.2V77.3z     "/>
		</g>
	</g>
	<g>
		<g>
			<path class="st4" d="M65.4,78l-2.5-10.1c-0.1-0.3-0.2-0.5-0.5-0.6c-0.2-0.1-0.5-0.1-0.7-0.1L43,74c-0.4,0.1-0.6,0.5-0.6,0.9v3.3     c0,0.5,0.4,0.9,0.9,0.9h21.2c0.3,0,0.5-0.1,0.7-0.3C65.4,78.6,65.5,78.3,65.4,78z M44.2,77.3v-1.8l17.1-6.2l2,8H44.2z"/>
		</g>
	</g>
	<g>
		<g>
			<path class="st4" d="M45,80.9H35c-0.5,0-0.9,0.4-0.9,0.9V87c0,0.5,0.4,0.9,0.9,0.9H45c0.5,0,0.9-0.4,0.9-0.9v-5.2     C45.9,81.3,45.5,80.9,45,80.9z M44.1,86.1h-8.2v-3.4h8.2V86.1z"/>
		</g>
	</g>
	<g>
		<g>
			<path class="st4" d="M40,61.8c-2.3,0-4.2,1.9-4.2,4.2v15.5c0,0.1,0,0.3,0,0.4c0,0.5,0.4,0.8,0.9,0.8h6.6c0.5,0,0.9-0.4,0.9-0.8     c0-0.1,0-0.3,0-0.4V66C44.2,63.7,42.3,61.8,40,61.8z M42.4,80.9h-4.8V66c0-1.3,1.1-2.4,2.4-2.4c1.3,0,2.4,1.1,2.4,2.4V80.9z"/>
		</g>
	</g>
	<g>
		<g>
			<path class="st4" d="M116.2,80.9h-10.1c-0.5,0-0.9,0.4-0.9,0.9V87c0,0.5,0.4,0.9,0.9,0.9h10.1c0.5,0,0.9-0.4,0.9-0.9v-5.2     C117.1,81.3,116.7,80.9,116.2,80.9z M115.3,86.1H107v-3.4h8.2V86.1z"/>
		</g>
	</g>
	<g>
		<g>
			<path class="st4" d="M111.2,61.8c-2.3,0-4.2,1.9-4.2,4.2v15.5c0,0.1,0,0.3,0,0.4c0,0.5,0.4,0.8,0.9,0.8h6.6     c0.5,0,0.9-0.4,0.9-0.8c0-0.1,0-0.3,0-0.4V66C115.4,63.7,113.5,61.8,111.2,61.8z M113.6,80.9h-4.8V66c0-1.3,1.1-2.4,2.4-2.4     s2.4,1.1,2.4,2.4V80.9z"/>
		</g>
	</g>
	<g>
		<g>
			<path class="st0" d="M82.9,35.2c-4-4-10.5-4-14.6,0c-4,4-4,10.6,0,14.6c4,4,10.6,4,14.6,0C86.9,45.7,86.9,39.2,82.9,35.2z"/>
		</g>
	</g>
	<g>
		<g>
			<path class="st1" d="M82.9,35.2c-4-4-10.5-4-14.6,0l14.6,14.6C86.9,45.7,86.9,39.2,82.9,35.2z"/>
		</g>
	</g>
	<g>
		<g>
			<path class="st4" d="M83.5,34.5L83.5,34.5c-2.1-2.1-4.9-3.3-7.9-3.3c-3,0-5.8,1.2-7.9,3.3c-4.4,4.4-4.4,11.5,0,15.9     c2.2,2.2,5.1,3.3,7.9,3.3c2.9,0,5.7-1.1,7.9-3.3C87.9,46,87.9,38.9,83.5,34.5z M82.2,49.1c-3.7,3.7-9.6,3.7-13.3,0     c-3.7-3.7-3.7-9.6,0-13.3c1.8-1.8,4.1-2.8,6.6-2.8c2.5,0,4.9,1,6.6,2.8h0C85.9,39.5,85.9,45.5,82.2,49.1z"/>
		</g>
	</g>
	<g>
		<g>
			<polygon class="st5" points="40,90.5 37.2,93.3 38.1,94.2 40,92.2 41.9,94.2 42.8,93.3    "/>
		</g>
	</g>
	<g>
		<g>
			<rect x="39.4" y="91.4" class="st5" width="1.2" height="5.3"/>
		</g>
	</g>
	<g>
		<g>
			<rect x="39.4" y="98" class="st5" width="1.2" height="1.3"/>
		</g>
	</g>
	<g>
		<g>
			<rect x="39.4" y="100.1" class="st5" width="1.2" height="1.3"/>
		</g>
	</g>
	<g>
		<g>
			<rect x="39.4" y="102.2" class="st5" width="1.2" height="1.3"/>
		</g>
	</g>
	<g>
		<g>
			<rect x="39.4" y="104.5" class="st5" width="1.2" height="3.4"/>
		</g>
	</g>
	<g>
		<g>
			<polygon class="st5" points="40,112 37.2,114.8 38.1,115.7 40,113.8 41.9,115.7 42.8,114.8    "/>
		</g>
	</g>
	<g>
		<g>
			<rect x="39.4" y="112.9" class="st5" width="1.2" height="5.3"/>
		</g>
	</g>
	<g>
		<g>
			<rect x="39.4" y="119.5" class="st5" width="1.2" height="1.3"/>
		</g>
	</g>
	<g>
		<g>
			<rect x="39.4" y="121.6" class="st5" width="1.2" height="1.3"/>
		</g>
	</g>
	<g>
		<g>
			<rect x="39.4" y="123.7" class="st5" width="1.2" height="1.3"/>
		</g>
	</g>
	<g>
		<g>
			<rect x="39.4" y="126.1" class="st5" width="1.2" height="10.3"/>
		</g>
	</g>
	<g>
		<g>
			<polygon class="st5" points="111.2,90.5 108.4,93.3 109.2,94.2 111.2,92.2 113.1,94.2 113.9,93.3    "/>
		</g>
	</g>
	<g>
		<g>
			<rect x="110.6" y="91.4" class="st5" width="1.2" height="5.3"/>
		</g>
	</g>
	<g>
		<g>
			<rect x="110.6" y="98" class="st5" width="1.2" height="1.3"/>
		</g>
	</g>
	<g>
		<g>
			<rect x="110.6" y="100.1" class="st5" width="1.2" height="1.3"/>
		</g>
	</g>
	<g>
		<g>
			<rect x="110.6" y="102.2" class="st5" width="1.2" height="1.3"/>
		</g>
	</g>
	<g>
		<g>
			<rect x="110.6" y="104.5" class="st5" width="1.2" height="3.4"/>
		</g>
	</g>
	<g>
		<g>
			<polygon class="st5" points="111.2,112 108.4,114.8 109.2,115.7 111.2,113.8 113.1,115.7 113.9,114.8    "/>
		</g>
	</g>
	<g>
		<g>
			<rect x="110.6" y="112.9" class="st5" width="1.2" height="5.3"/>
		</g>
	</g>
	<g>
		<g>
			<rect x="110.6" y="119.5" class="st5" width="1.2" height="1.3"/>
		</g>
	</g>
	<g>
		<g>
			<rect x="110.6" y="121.6" class="st5" width="1.2" height="1.3"/>
		</g>
	</g>
	<g>
		<g>
			<rect x="110.6" y="123.7" class="st5" width="1.2" height="1.3"/>
		</g>
	</g>
	<g>
		<g>
			<rect x="110.6" y="126.1" class="st5" width="1.2" height="10.3"/>
		</g>
	</g>
	<polygon class="st2" points="77.2,36.2 77.2,40.8 72.9,40.8 72.9,36.2 69.7,39.5 69.7,48.2 72.9,48.2 72.9,43.7 77.2,43.7    77.2,48.2 80.7,48.2 80.7,36.2  "/>
</g>
</svg>