<?xml version="1.0" encoding="UTF-8"?>
<!-- Generator: Adobe Illustrator 23.0.2, SVG Export Plug-In . SVG Version: 6.00 Build 0)  -->
<svg version="1.1" id="ICONS_1.0" xmlns="http://www.w3.org/2000/svg" xmlns:xlink="http://www.w3.org/1999/xlink" x="0px" y="0px" viewBox="0 0 64 64" style="enable-background:new 0 0 64 64;" xml:space="preserve">
	 <style xmlns="http://www.w3.org/2000/svg" type="text/css">


.ssd_circle {
	animation-name: ssdCircle;
    animation-duration: 10s;
    animation-iteration-count: infinite;
    transform-origin: 49.5% 41%;    
    animation-timing-function: linear;
}

@keyframes ssdCircle {
	0% {transform: rotate(0deg);}
	100% {transform: rotate(360deg);}
}

.dot_bg_one {
	animation-name: dotOpacity-1;
    animation-duration: 5s;
    animation-iteration-count: infinite;
}

@keyframes dotOpacity-1 {
	0% {opacity: 1.5;}
	50% {opacity: 0.4;}
	100% {opacity: 1.5;}
}

.dot_bg_sec {
	animation-name: dotOpacity-2;
    animation-duration: 4s;
    animation-iteration-count: infinite;
}

@keyframes dotOpacity-2 {
	0% {opacity: 1.5;}
	50% {opacity: 0.3;}
	100% {opacity: 1.5;}
}

.ssd_bar {
	animation-name: ssdBar;
    animation-duration: 5s;
    animation-iteration-count: infinite;
}

@keyframes ssdBar {
	0% {transform: translate(2.1px, -1px);}
	50% {transform: translate(-1px, 1px);}
	100% {transform: translate(2.1px, -1px);}
}



	 </style>



<style type="text/css">
	.st0{fill:none;stroke:#09B3F2;stroke-width:2;stroke-miterlimit:10;}
	.st1{fill:#09B3F2;}
</style>



<path class="st0" d="M21,51h-6c-1.1,0-2-0.9-2-2V3c0-1.1,0.9-2,2-2h34c1.1,0,2,0.9,2,2v46c0,1.1-0.9,2-2,2h-6"/>
<circle class="st0" cx="27" cy="51" r="3"/>
<circle class="st0" cx="37" cy="51" r="3"/>
<path class="st0" d="M27,54v7c0,1.1-0.9,2-2,2H0"/>
<path class="st0" d="M37,54v7c0,1.1,0.9,2,2,2h25"/>
<line class="st0" x1="16" y1="5" x2="18" y2="5"/>
<line class="st0" x1="46" y1="5" x2="48" y2="5"/>
<line class="st0" x1="16" y1="47" x2="18" y2="47"/>
<line class="st0" x1="46" y1="47" x2="48" y2="47"/>
<circle class="st0" cx="32" cy="26" r="3"/>
<polyline class="st0 ssd_bar" points="32,33 42,43 48,43 "/>

<path class="st1 ssd_circle" d="M32,12c-7.7,0-14,6.3-14,14s6.3,14,14,14s14-6.3,14-14S39.7,12,32,12z M32,38c-6.6,0-12-5.4-12-12s5.4-12,12-12  c6.6,0,12,5.4,12,12S38.6,38,32,38z M32,16v2c-4.4,0-8,3.6-8,8h-2C22,20.5,26.5,16,32,16z"/>
<line class="st0 dot_bg_one" x1="22" y1="59" x2="20" y2="59"/>
<line class="st0 dot_bg_sec" x1="18" y1="59" x2="16" y2="59"/>
<line class="st0 dot_bg_one" x1="14" y1="59" x2="12" y2="59"/>
<line class="st0 dot_bg_one" x1="52" y1="59" x2="50" y2="59"/>
<line class="st0 dot_bg_sec" x1="48" y1="59" x2="46" y2="59"/>
<line class="st0 dot_bg_one" x1="44" y1="59" x2="42" y2="59"/>
</svg>