<?xml version="1.0" encoding="UTF-8"?>
<!-- Generator: Adobe Illustrator 16.0.0, SVG Export Plug-In . SVG Version: 6.00 Build 0)  -->
<!DOCTYPE svg PUBLIC "-//W3C//DTD SVG 1.1//EN" "http://www.w3.org/Graphics/SVG/1.1/DTD/svg11.dtd">
<svg version="1.1" id="ICONS_1.0" xmlns="http://www.w3.org/2000/svg" xmlns:xlink="http://www.w3.org/1999/xlink" x="0px" y="0px" viewBox="0 0 64 64" enable-background="new 0 0 64 64" xml:space="preserve">
	 <style xmlns="http://www.w3.org/2000/svg" type="text/css">

 .support_circle {
    animation-name: supportCircle;
    animation-duration: 12s;
    animation-iteration-count: infinite;
    transform-origin: 50% 50%;
    animation-timing-function: linear;
}

@keyframes supportCircle {
	0% {transform: rotate(0deg);}
	100% {transform: rotate(360deg);}
}

.support_man {
	animation-name: manStroke;
	animation-duration: 7s;
	animation-iteration-count: 1;
	stroke-dasharray: 200;
	stroke-dashoffset: 100;
	animation-delay: 1s;
}

@keyframes manStroke {
	0% {stroke-dashoffset: 200;}
	50% {stroke-dashoffset: -5;}
	100% {stroke-dashoffset: 100;}
}



	 </style>


<g id="_x30_9_x5F_customer_x5F_service">

	<path class="support_man" fill="none" stroke="#09B3F2" stroke-width="2" stroke-miterlimit="10" d="M26,34v5c0,1.656-3,3-3,3l-7,2c-5,1-8,7-8,7"/>
	<path class="support_man" fill="none" stroke="#09B3F2" stroke-width="2" stroke-miterlimit="10" d="M38,34v5c0,1.656,3,3,3,3l7,2c5,1,8,7,8,7"/>
	<path class="support_man" fill="none" stroke="#09B3F2" stroke-width="2" stroke-miterlimit="10" d="M23,20v3c0,7.18,3,14,9,14s9-6.82,9-14v-3   c0-1.656-1.344-3-3-3h-6l-6-3v3C24.344,17,23,18.344,23,20z"/>
	<polyline fill="none" stroke="#09B3F2" stroke-width="2" stroke-miterlimit="10" points="41,42 38,42 34,46 30,46 26,42 23,42  "/>
	<line class="support_man" fill="none" stroke="#09B3F2" stroke-width="2" stroke-miterlimit="10" x1="32" y1="54" x2="32" y2="56"/>
	<line class="support_man" fill="none" stroke="#09B3F2" stroke-width="2" stroke-miterlimit="10" x1="32" y1="50" x2="32" y2="52"/>
	<line class="support_man" fill="none" stroke="#09B3F2" stroke-width="2" stroke-miterlimit="10" x1="32" y1="58" x2="32" y2="60"/>
	<line class="support_man" fill="none" stroke="#09B3F2" stroke-width="2" stroke-miterlimit="10" x1="37" y1="53" x2="45" y2="53"/>
	<path class="support_man" fill="none" stroke="#09B3F2" stroke-width="2" stroke-miterlimit="10" d="M45,18v-1c0-5.523-4.477-10-10-10v2l-6-2   c-5.523,0-10,4.477-10,10v1"/>
	<path class="support_man" fill="none" stroke="#09B3F2" stroke-width="2" stroke-miterlimit="10" d="M22,29c-3.313,0-6-2.687-6-6s2.687-6,6-6"/>
	<path class="support_man" fill="none" stroke="#09B3F2" stroke-width="2" stroke-miterlimit="10" d="M46,27v4c0,1.104-0.896,2-2,2H33   c-1.104,0-2-0.896-2-2"/>


	<circle class="support_circle" fill="none" stroke="#09B3F2" stroke-width="2" stroke-dasharray="2.5" stroke-miterlimit="10" cx="32" cy="32" r="31"/>
	<path fill="none" stroke="#09B3F2" stroke-width="2" stroke-miterlimit="10" d="M42,29c3.313,0,6-2.687,6-6s-2.687-6-6-6"/>
</g>
</svg>