<?xml version="1.0" encoding="UTF-8"?>
<svg id="OBJECTS" xmlns="http://www.w3.org/2000/svg" viewBox="0 0 450 292"><defs><style>.cls-1{fill:#00beb9;}.cls-2{fill:#fff;}.cls-3{fill:#000222;}.cls-4{fill:#00a49f;}.cls-5{fill:#f065a6;}.cls-6{fill:#5202b5;}.cls-7{fill:#e34932;}.cls-8{fill:#353537;}.cls-9{fill:#f4eed8;}.cls-10{fill:#0e0e15;}.cls-11{fill:#ebe0be;}.cls-12{fill:#9f1ee6;}.cls-13{fill:#ff6748;}.cls-14{fill:#8102d3;}</style></defs><title>support-img</title><rect class="cls-1" x="189.18" y="6.91" width="185.42" height="114.53"/><rect class="cls-2" x="196.94" y="13.89" width="169.9" height="100.56"/><polygon class="cls-3" points="352.82 101 352.82 53.58 343.45 53.58 343.45 101 337.43 101 337.43 66.49 328.06 66.49 328.06 101 322.04 101 322.04 50.84 312.67 50.84 312.67 101 306.65 101 306.65 43.53 297.28 43.53 297.28 101 291.26 101 291.26 66.49 281.89 66.49 281.89 101 274.63 101 274.63 36.28 272.57 36.28 272.57 103.05 359.72 103.05 359.72 101 352.82 101"/><rect class="cls-1" x="206.32" y="29.88" width="52.85" height="3.2"/><rect class="cls-1" x="206.32" y="39.02" width="52.85" height="3.2"/><rect class="cls-1" x="206.32" y="48.15" width="25.97" height="3.2"/><polygon class="cls-1" points="240.44 88.02 240.44 97.16 235.71 101.81 226.65 101.81 226.65 88.02 240.44 88.02"/><polygon class="cls-4" points="240.44 97.16 235.71 101.81 235.71 97.16 240.44 97.16"/><rect class="cls-5" x="206.85" y="88.02" width="13.8" height="13.79"/><polygon class="cls-1" points="348.13 40.73 340.17 42.73 342.31 44.94 332.67 54.28 299.74 28.65 283.34 40.94 284.57 42.59 299.71 31.23 332.81 57 343.74 46.41 345.88 48.62 348.13 40.73"/><path class="cls-6" d="M224.69,71.79a9.43,9.43,0,1,1-9.43-9.43A9.43,9.43,0,0,1,224.69,71.79Z" transform="translate(0.49 -1.47)"/><path class="cls-2" d="M215.26,65.16a6.63,6.63,0,1,0,6.63,6.63A6.63,6.63,0,0,0,215.26,65.16Zm-1.19,1a4.87,4.87,0,0,0-1.47,2.42,5.92,5.92,0,0,1-1.5-.79A5.81,5.81,0,0,1,214.07,66.12Zm-3.38,2.11a6.39,6.39,0,0,0,1.74.92,11.15,11.15,0,0,0-.29,2.32h-2.67A5.75,5.75,0,0,1,210.69,68.23Zm-1.22,3.88h2.67a11,11,0,0,0,.31,2.38,6.29,6.29,0,0,0-1.73.9A5.73,5.73,0,0,1,209.47,72.11Zm1.67,3.75a6.06,6.06,0,0,1,1.48-.76,4.88,4.88,0,0,0,1.45,2.36A5.72,5.72,0,0,1,211.14,75.86Zm3.79,1.35a3.29,3.29,0,0,1-1.69-2.3,9.06,9.06,0,0,1,1.69-.24Zm0-3.18a8.51,8.51,0,0,0-1.86.27,10.65,10.65,0,0,1-.28-2.19h2.14Zm0-2.56h-2.14a10.6,10.6,0,0,1,.26-2.12,8.7,8.7,0,0,0,1.88.27Zm0-2.49a8.39,8.39,0,0,1-1.71-.25c.39-1.26,1-2.15,1.71-2.36Zm6.12,2.49h-2.67a12.68,12.68,0,0,0-.29-2.32,6.54,6.54,0,0,0,1.74-.92A5.82,5.82,0,0,1,221.05,71.47Zm-1.64-3.72a5.85,5.85,0,0,1-1.49.79,5,5,0,0,0-1.47-2.42A5.78,5.78,0,0,1,219.41,67.75Zm-3.83-1.38c.7.21,1.32,1.1,1.72,2.36a8.59,8.59,0,0,1-1.72.25Zm0,3.25a8.7,8.7,0,0,0,1.88-.27,10.58,10.58,0,0,1,.27,2.12h-2.15Zm0,2.49h2.15a10.65,10.65,0,0,1-.28,2.19,8.6,8.6,0,0,0-1.87-.27Zm0,5.1V74.67a9,9,0,0,1,1.7.24A3.32,3.32,0,0,1,215.58,77.21Zm.87.25a5,5,0,0,0,1.45-2.36,6.06,6.06,0,0,1,1.48.76A5.8,5.8,0,0,1,216.45,77.46Zm3.35-2.07a6.43,6.43,0,0,0-1.73-.9,11.62,11.62,0,0,0,.31-2.38h2.67A5.8,5.8,0,0,1,219.8,75.39Z" transform="translate(0.49 -1.47)"/><ellipse class="cls-7" cx="238.6" cy="70.32" rx="9.3" ry="9.29"/><path class="cls-2" d="M243.58,70.53h-1.15a4.48,4.48,0,0,0-.37-.9l.81-.82a.56.56,0,0,0,0-.81l-1-1a.58.58,0,0,0-.81,0l-.82.81a4.48,4.48,0,0,0-.9-.37V66.32a.58.58,0,0,0-.58-.58h-1.36a.58.58,0,0,0-.58.58v1.15a4.48,4.48,0,0,0-.9.37l-.82-.81a.58.58,0,0,0-.81,0l-1,1a.56.56,0,0,0,0,.81l.81.82a4.48,4.48,0,0,0-.37.9h-1.15a.58.58,0,0,0-.58.58v1.36a.58.58,0,0,0,.58.58h1.15a4.48,4.48,0,0,0,.37.9l-.81.82a.56.56,0,0,0,0,.81l1,1a.58.58,0,0,0,.81,0l.82-.82a4.5,4.5,0,0,0,.9.38v1.15a.58.58,0,0,0,.58.58h1.36a.58.58,0,0,0,.58-.58V76.11a4.5,4.5,0,0,0,.9-.38l.82.82a.58.58,0,0,0,.81,0l1-1a.56.56,0,0,0,0-.81l-.81-.82a4.48,4.48,0,0,0,.37-.9h1.15a.58.58,0,0,0,.58-.58V71.11A.58.58,0,0,0,243.58,70.53Zm-5.47,3.67a2.41,2.41,0,1,1,2.41-2.41A2.41,2.41,0,0,1,238.11,74.2Z" transform="translate(0.49 -1.47)"/><rect class="cls-8" x="254.7" y="62.46" width="3.87" height="3.87"/><rect class="cls-8" x="260.99" y="62.46" width="3.87" height="3.87"/><rect class="cls-8" x="254.7" y="68.38" width="3.87" height="3.87"/><rect class="cls-5" x="260.99" y="68.38" width="3.87" height="3.87"/><rect class="cls-5" x="254.7" y="74.3" width="3.87" height="3.87"/><rect class="cls-5" x="260.99" y="74.3" width="3.87" height="3.87"/><path class="cls-6" d="M397.75,98.53s-17.05,13.68-31.66,8.82S345.81,75,345.81,75s3.27-5.62,0-7.56c0,0,.66-4.65-2.62-5s-16.14,3.49-3.05,13.57c0,0,3.71,49.64,31.84,51.38S399.76,122,399.76,122Z" transform="translate(0.49 -1.47)"/><path class="cls-9" d="M345.81,75a13.54,13.54,0,0,0,1.13-2.7h0c3-.92,1.45-8.62.12-9.91-1-1-2.36-.31-3,.09-.65-1.29-4.22-8-6.18-7.42-1.45.46,0,5.06,1.14,8.06-4.23,1.55-8.3,5.59,1.14,12.86a105.32,105.32,0,0,0,1.95,12.7,40.35,40.35,0,0,0,7.18-2.24A82.33,82.33,0,0,1,345.81,75Z" transform="translate(0.49 -1.47)"/><polygon class="cls-9" points="431.19 148.15 418.91 163.74 421.59 166.82 437.76 153.88 431.19 148.15"/><path class="cls-6" d="M406.25,94.65s19.82,2,24.28,8.54,20.55,24,18.85,37.35-9.25,17.3-9.25,17.3l-9.43-8.22s6.17-5,5.14-9.94-14.74-18.16-14.74-18.16L410.3,99.94Z" transform="translate(0.49 -1.47)"/><path class="cls-5" d="M449.51,286a460.62,460.62,0,0,1-58,3.69,460.42,460.42,0,0,1-58-3.69,458.3,458.3,0,0,1,116.08,0Z" transform="translate(0.49 -1.47)"/><path class="cls-2" d="M416.08,277.14l.51,3.15.71,4.27L399.37,289a1.13,1.13,0,0,1-1.2-1.75,21.47,21.47,0,0,1,3.42-3.48,56.32,56.32,0,0,1,6.84-4.75Z" transform="translate(0.49 -1.47)"/><path class="cls-2" d="M385.06,277.14l-.2,3.18-.27,4.33-18.48.32a1.13,1.13,0,0,1-.77-2,21,21,0,0,1,4.12-2.62,56.2,56.2,0,0,1,7.72-3.1Z" transform="translate(0.49 -1.47)"/><path class="cls-3" d="M419.06,166.26s-2.28,28.25-8.47,53.39l6.31,58.77-9.9,1s-10.22-38.59-13.19-47.65c-3.32-10.18,0-35.35,0-35.35s-8.75,19.3-8.75,28.59,1,52.3,1,52.3-6.61,1.84-9.91,0S370.33,220,370.33,220l12.83-60.15A255,255,0,0,0,419.06,166.26Z" transform="translate(0.49 -1.47)"/><path class="cls-6" d="M423.66,168.35c.52-5.95,2.35-45.56-.11-54.45-5.5-19.84-17.3-19.25-17.3-19.25-3.61,8.38-11.18,2.71-11.18,2.71s-13.29,8-8.89,30c2.84,14.2-2.92,27.2-7.36,34.64A51.14,51.14,0,0,0,423.66,168.35Z" transform="translate(0.49 -1.47)"/><path class="cls-2" d="M394.22,98s-4.77,2.85-4.8,5.39,3.17,6.53,3.17,6.53l4.69-5.37,4.53,6.51s14.59-11.18,5-17.33S394.22,98,394.22,98Z" transform="translate(0.49 -1.47)"/><path class="cls-9" d="M385.44,75.34S381.88,95.15,392.73,95s14.88-8,14.12-12.69-1.39-14-10.7-15.13S385.44,75.34,385.44,75.34Z" transform="translate(0.49 -1.47)"/><path class="cls-10" d="M416.41,71a9.18,9.18,0,0,0-3.4-3.26l0,0a6.1,6.1,0,0,0-.49-2.63A8.85,8.85,0,0,0,411,62.68a9.94,9.94,0,0,1,0,3.44A9,9,0,0,0,409.14,63a7.47,7.47,0,0,0-2.09-1.34A20.94,20.94,0,0,0,396,59.84a17.25,17.25,0,0,1-2.58.2,3.57,3.57,0,0,1-2.37-.93,7.82,7.82,0,0,0,2.07,3.22,9.79,9.79,0,0,0-6.89,10.54,7.46,7.46,0,0,1,5.36.3c-.3,7.26,13.16,10.7,13.16,10.7a4.67,4.67,0,0,1,4.73-.77,3.24,3.24,0,0,1,1.6,2.43c3-2.19,3.79-13.26,3.79-13.26a3.61,3.61,0,0,1,2.38.16A8.46,8.46,0,0,1,416.41,71Z" transform="translate(0.49 -1.47)"/><path class="cls-9" d="M404,86.68a3.59,3.59,0,1,0,3-4.11A3.6,3.6,0,0,0,404,86.68Z" transform="translate(0.49 -1.47)"/><path class="cls-9" d="M406.08,85.63l.43,2.69s.06.48.12,1.27c.09,1,.19,2.58.18,4.15,0,2.45-.28,5-1.22,5.86-2,1.87-9.68,2.23-10.75,1.74-.34-.15-.52-1.52-.62-3.33,0-1-.07-2-.08-3.13h0c0-3.31.11-6.62.11-6.62Z" transform="translate(0.49 -1.47)"/><path class="cls-11" d="M406.63,89.59c.09,1,.19,2.58.18,4.15-3,1.4-9.16,4-12.59,4.27,0-1-.07-2-.08-3.13h0C394.49,94.81,405.28,92.59,406.63,89.59Z" transform="translate(0.49 -1.47)"/><path class="cls-1" d="M438.61,8.32H398.22a4,4,0,0,0-4,4V41.14a4,4,0,0,0,4,4h2.18v10l10-10h28.23a4,4,0,0,0,4-4V12.3A4,4,0,0,0,438.61,8.32Z" transform="translate(0.49 -1.47)"/><rect class="cls-2" x="400.34" y="12.53" width="37.14" height="3.3"/><rect class="cls-2" x="400.34" y="19.91" width="37.14" height="3.3"/><rect class="cls-2" x="400.34" y="27.29" width="37.14" height="3.3"/><rect class="cls-2" x="400.34" y="34.67" width="19.97" height="3.3"/><path class="cls-3" d="M216.56,235.48H170.41a3.25,3.25,0,0,1-3.25-3.24h0a3.25,3.25,0,0,1,3.25-3.24h46.15a3.24,3.24,0,0,1,3.25,3.24h0A3.24,3.24,0,0,1,216.56,235.48Z" transform="translate(0.49 -1.47)"/><rect class="cls-11" x="190.37" y="240.58" width="6.27" height="31.67" transform="translate(-6.22 3.73) rotate(-1.52)"/><rect class="cls-9" x="188.36" y="235.49" width="9.6" height="12.34" transform="translate(-5.83 3.72) rotate(-1.52)"/><rect class="cls-3" x="175.05" y="269.3" width="37.85" height="3.98"/><path class="cls-11" d="M180.11,278.17a3.42,3.42,0,1,1-3.42-3.42A3.42,3.42,0,0,1,180.11,278.17Z" transform="translate(0.49 -1.47)"/><path class="cls-11" d="M213.7,278.17a3.42,3.42,0,1,1-3.42-3.42A3.42,3.42,0,0,1,213.7,278.17Z" transform="translate(0.49 -1.47)"/><path class="cls-12" d="M237.36,222.62c-.46-9.59-25.14-11.88-25.14-11.88l-19.77.12-19.77-.12S148,213,147.55,222.62s12.57,59.58,12.57,59.58h10.74s.91-50-1.83-51.81c0,0,13.25-.22,23.42-1.11,10.18.89,23.43,1.11,23.43,1.11-2.74,1.82-1.83,51.81-1.83,51.81h10.74S237.82,232.21,237.36,222.62Z" transform="translate(0.49 -1.47)"/><path class="cls-3" d="M169.6,282.2l-.24,2.91-.07.86-.24,3.08H152.14a1,1,0,0,1-.67-1.8c.24-.2.5-.4.77-.6a22.49,22.49,0,0,1,3-1.75,51.46,51.46,0,0,1,7.12-2.7Z" transform="translate(0.49 -1.47)"/><path class="cls-2" d="M169.29,286l-.24,3.08H152.14a1,1,0,0,1-.67-1.8c.24-.2.5-.4.77-.6A98.33,98.33,0,0,0,169.29,286Z" transform="translate(0.49 -1.47)"/><path class="cls-3" d="M216.28,282.2l.24,2.91.07.86.24,3.08h16.91a1,1,0,0,0,.67-1.8c-.24-.2-.5-.4-.77-.6a22.49,22.49,0,0,0-3-1.75,51.46,51.46,0,0,0-7.12-2.7Z" transform="translate(0.49 -1.47)"/><path class="cls-2" d="M216.59,286l.24,3.08h16.91a1,1,0,0,0,.67-1.8c-.24-.2-.5-.4-.77-.6A98.31,98.31,0,0,1,216.59,286Z" transform="translate(0.49 -1.47)"/><path class="cls-1" d="M216.59,210.84l-.39.18a60.78,60.78,0,0,1-50.81.84s1.22-18,4.9-39.56a293.07,293.07,0,0,1,6.4-29.24h.05c.59-.23,1.18-.44,1.77-.64a37.42,37.42,0,0,1,23.46,0q1,.31,1.92.69C212.68,174.42,216.59,210.84,216.59,210.84Z" transform="translate(0.49 -1.47)"/><path class="cls-4" d="M176.71,143.05h0a293.07,293.07,0,0,0-6.4,29.24c-4,3-9.11,7.28-9.94,10.5-.46,1.77,1.44,3.25,4.21,4.45L162,196.17h-5.73s-12-3.67-11.34-13.59,19.52-31.3,22.21-35.07C168.48,145.66,172.74,144.13,176.71,143.05Z" transform="translate(0.49 -1.47)"/><path class="cls-9" d="M180.11,196.17V191s-9.73-1.27-15.55-3.79L162,196.17Z" transform="translate(0.49 -1.47)"/><path class="cls-4" d="M203.68,143.05h.21a294.5,294.5,0,0,1,6.21,29.24c4,3,9.11,7.28,9.93,10.5.46,1.77-1.43,3.25-4.2,4.45l2.54,8.92h5.73s12-3.67,11.34-13.59-19.52-31.3-22.21-35.07C211.9,145.66,207.65,144.13,203.68,143.05Z" transform="translate(0.49 -1.47)"/><path class="cls-9" d="M200.28,196.17V191s9.73-1.27,15.55-3.79l2.54,8.92Z" transform="translate(0.49 -1.47)"/><rect class="cls-3" x="169.12" y="163.47" width="47.65" height="31.22"/><path class="cls-9" d="M202,142.37c-.53,3.25-2.63,9.6-11,9.6s-11.43-6.31-12.48-9.57c.73-.24,1.46-.46,2.2-.65a37.35,37.35,0,0,1,19.35.05C200.7,142,201.34,142.16,202,142.37Z" transform="translate(0.49 -1.47)"/><path class="cls-11" d="M200.06,141.8c-2.25,2.43-6.13,5.78-10.38,5.88-5,.13-7.81-3.84-9-5.93A37.35,37.35,0,0,1,200.06,141.8Z" transform="translate(0.49 -1.47)"/><path class="cls-9" d="M202.23,130.66c0,8.41-5.4,15.23-12.06,15.23s-12-6.82-12-15.23,5.4-15.22,12-15.22S202.23,122.26,202.23,130.66Z" transform="translate(0.49 -1.47)"/><path class="cls-9" d="M182.15,133.52a3.6,3.6,0,1,1-3.6-3.59A3.6,3.6,0,0,1,182.15,133.52Z" transform="translate(0.49 -1.47)"/><path class="cls-9" d="M205.83,133.52a3.6,3.6,0,1,1-3.6-3.59A3.6,3.6,0,0,1,205.83,133.52Z" transform="translate(0.49 -1.47)"/><path class="cls-6" d="M203.56,130.18c-.15,1.14-2.1,1.23-1.82,2.35a8,8,0,0,0-1.63-2.94,6.11,6.11,0,0,0-4.67-5.74c-1.9-.41-3.86.13-5.8,0a8.92,8.92,0,0,1-6-2.82c-2.68,3.31-4.72,7.47-4.8,11.73a3.84,3.84,0,0,0-2.2-2.3s-3-9.81,1-11.81c0,0-1.65-4.86,4.86-5.77s17.88,2.11,19.77-2.17c0,0,2.63,7,0,8.62C202.23,119.36,205,119.3,203.56,130.18Z" transform="translate(0.49 -1.47)"/><path class="cls-13" d="M69.62,129.42c.21-4.75,3.12-9.26,2.49-14C71,107,58.74,101.61,51.18,104a10.72,10.72,0,0,0-6,5.29,20.48,20.48,0,0,0-4.75,8.5c-.79,3.06-.3,6.13-.17,9.24a18.83,18.83,0,0,1-.14,3.12,12.62,12.62,0,0,1-1.78,2.66c-1.32,1.5-3,2.59-4.43,4a20.22,20.22,0,0,0-4,6.44c-1.41,3.33-2.48,7.1-1.35,10.53s4.18,5.82,7.36,7.48a33,33,0,0,0,19.66,3.42c4.14-.57,8.31-2,11.27-5a17.91,17.91,0,0,0,4.79-11.06,40.85,40.85,0,0,0-1.1-12.2A28.32,28.32,0,0,1,69.62,129.42ZM41.09,127.8c0-1.43-.07-2.88-.17-4.37a17.57,17.57,0,0,1,3-11.26c-.08.24-.15.47-.22.71C42.32,117.72,42.6,123.12,41.09,127.8Z" transform="translate(0.49 -1.47)"/><path class="cls-9" d="M21,241.13C11.07,240,4.49,236,1.43,229.29c-8.83-19.48,15.58-55,16.62-56.48l2.82,1.95c-.25.35-24.35,35.4-16.32,53.11,2.53,5.57,8.18,8.88,16.82,9.86Z" transform="translate(0.49 -1.47)"/><path class="cls-3" d="M13.44,157.54H45.2a0,0,0,0,1,0,0v36.08a0,0,0,0,1,0,0H13.44a4.33,4.33,0,0,1-4.33-4.33V161.87A4.33,4.33,0,0,1,13.44,157.54Z"/><path class="cls-3" d="M58,243H11.86a3.24,3.24,0,0,1-3.24-3.24h0a3.24,3.24,0,0,1,3.24-3.24H58a3.24,3.24,0,0,1,3.24,3.24h0A3.24,3.24,0,0,1,58,243Z" transform="translate(0.49 -1.47)"/><path class="cls-14" d="M35.4,236.17s24,1.1,31.52,0l-7.2,46.05h9.36S89.2,226.85,82.34,220s-28.45-6.1-28.45-6.1L34,224.11Z" transform="translate(0.49 -1.47)"/><path class="cls-3" d="M61.26,282.2l.24,2.9.31,4H78.72a1,1,0,0,0,.67-1.82,18.93,18.93,0,0,0-3.8-2.34,50.94,50.94,0,0,0-7.12-2.7Z" transform="translate(0.49 -1.47)"/><path class="cls-9" d="M61.26,282.2l.24,2.9A12.75,12.75,0,0,0,65,286.36a27.56,27.56,0,0,0,6,.44c1.79,0,3.63-.47,4.62-1.9a50.94,50.94,0,0,0-7.12-2.7Z" transform="translate(0.49 -1.47)"/><path class="cls-4" d="M65.34,134.24s5.12,2.16,7.41,12.21,4.11,34.26,4.11,34.26l16.9,5.54L94,194l-34.28,1.69.91-29.79Z" transform="translate(0.49 -1.47)"/><path class="cls-3" d="M109,269.46l1.08,2.71,1.47,3.68,16.15-5a1,1,0,0,0,.12-1.93,18.88,18.88,0,0,0-4.33-1.12,52.47,52.47,0,0,0-7.6-.49Z" transform="translate(0.49 -1.47)"/><path class="cls-9" d="M109,269.46l1.08,2.71a13.32,13.32,0,0,0,3.73.17,27.38,27.38,0,0,0,5.83-1.34c1.7-.54,3.32-1.51,3.85-3.17a52.47,52.47,0,0,0-7.6-.49Z" transform="translate(0.49 -1.47)"/><path class="cls-12" d="M21.92,205.44s-6,25.3,8.66,30,56-13.29,56-13.29l20.79,47.79,10.06-2.74s-11.89-60.89-19.66-61.74-32.45,0-32.45,0Z" transform="translate(0.49 -1.47)"/><path class="cls-1" d="M65.34,205.44l-3.8.68-10.84,2L18.6,213.9S32,177.19,32.83,172.37s1-18,.06-24.47,9.23-13.66,9.23-13.66H65.34c.06.07.13.14.19.22C77.55,148.55,65.34,205.44,65.34,205.44Z" transform="translate(0.49 -1.47)"/><path class="cls-6" d="M61.54,206.12l-10.84,2c7.06-47.33-4.18-73.85-4.18-73.85H65.34c.06.07.13.14.19.22C72.46,143.32,63.3,196.37,61.54,206.12Z" transform="translate(0.49 -1.47)"/><path class="cls-9" d="M46.52,134.24s6.74,10.37,14.06,8.09,4.76-8.09,4.76-8.09Z" transform="translate(0.49 -1.47)"/><path class="cls-9" d="M101.54,192.27c-1.7-1.5-5.11-5.69-7.78-6-1.3-.16-9.49,3.12-9.49,3.12s-14.09-.63-27.14-1.53l-.67,7.86c9.18-.14,19.66-.37,28.36-.69,6.47,1.78,13.12.24,16.29-.75A1.16,1.16,0,0,0,101.54,192.27Z" transform="translate(0.49 -1.47)"/><path class="cls-4" d="M42.12,134.24A22.77,22.77,0,0,0,28,151.7c-2.51,13.71-1.14,45.68,3,48s28.8-1.14,28.8-1.14V187.34l-16.51-.92S52.63,142.59,42.12,134.24Z" transform="translate(0.49 -1.47)"/><rect class="cls-11" x="32.24" y="246.57" width="6.27" height="31.67"/><rect class="cls-9" x="30.63" y="241.48" width="9.6" height="12.34"/><rect class="cls-3" x="16.5" y="276.77" width="37.86" height="3.98"/><path class="cls-11" d="M21.56,285.64a3.42,3.42,0,1,1-3.42-3.42A3.42,3.42,0,0,1,21.56,285.64Z" transform="translate(0.49 -1.47)"/><path class="cls-11" d="M55.15,285.64a3.42,3.42,0,1,1-3.41-3.42A3.42,3.42,0,0,1,55.15,285.64Z" transform="translate(0.49 -1.47)"/><rect class="cls-13" x="63.4" y="194.69" width="228.65" height="5.01"/><rect class="cls-7" x="69.74" y="199.7" width="215.97" height="5.62"/><polygon class="cls-3" points="79.4 292 88.54 205.31 81.68 205.31 75.15 292 79.4 292"/><polygon class="cls-3" points="280.29 292 273.77 205.31 266.91 205.31 276.05 292 280.29 292"/><rect class="cls-3" x="74.43" y="191.32" width="26.9" height="3.37"/><polygon class="cls-3" points="135.24 194.69 92.11 194.69 98.97 163.47 142.1 163.47 135.24 194.69"/><path class="cls-9" d="M68.8,116.74s2.63,16.63-6.45,16.27-12.3-7-11.58-10.87,1.42-11.68,9.22-12.47S68.8,116.74,68.8,116.74Z" transform="translate(0.49 -1.47)"/><path class="cls-9" d="M53.11,125.89a3,3,0,1,1-2.41-3.5A3,3,0,0,1,53.11,125.89Z" transform="translate(0.49 -1.47)"/><path class="cls-13" d="M48.59,122.79a3.89,3.89,0,0,1,3.94.73s11.32-2.64,11.21-8.71a6.28,6.28,0,0,1,4.48-.16s-2-10-14.86-6.61-6.15,16.76-6.15,16.76A2.7,2.7,0,0,1,48.59,122.79Z" transform="translate(0.49 -1.47)"/><path class="cls-9" d="M51.36,125l-.42,2.24s0,.4-.12,1.06c-.09.86-.2,2.15-.22,3.47,0,2,.14,4.17.91,4.92,1.65,1.61,8.05,2,9,1.66.29-.13.47-1.27.58-2.78.05-.8.1-1.71.12-2.62h0c.08-2.76,0-5.54,0-5.54Z" transform="translate(0.49 -1.47)"/><path class="cls-11" d="M50.82,128.27c-.09.86-.2,2.15-.22,3.47,2.51,1.22,7.59,3.55,10.45,3.8.05-.8.1-1.71.12-2.62h0C60.88,132.85,51.89,130.81,50.82,128.27Z" transform="translate(0.49 -1.47)"/><path class="cls-6" d="M111.12,55.05H70.73a4,4,0,0,0-4,4V87.86a4,4,0,0,0,4,4H72.9v10l10-10h28.23a4,4,0,0,0,4-4V59A4,4,0,0,0,111.12,55.05Z" transform="translate(0.49 -1.47)"/><polygon class="cls-2" points="109.98 62 99.46 64.97 102.39 67.83 96.93 73.44 86 65.44 73.44 78.67 75.43 80.56 86.32 69.08 97.23 77.06 104.36 69.74 107.3 72.6 109.98 62"/><path class="cls-2" d="M164.84,21.38A19.92,19.92,0,1,1,144.92,1.47,19.91,19.91,0,0,1,164.84,21.38Z" transform="translate(0.49 -1.47)"/><path class="cls-6" d="M144.92,38.55a17.36,17.36,0,0,1-2-.12l.16-1.37a15.67,15.67,0,0,0,3.81,0l.16,1.36A15.91,15.91,0,0,1,144.92,38.55Zm-6.07-1.11a16.68,16.68,0,0,1-3.67-1.92L136,34.4a16.14,16.14,0,0,0,3.37,1.76Zm12.17,0-.49-1.28a15.94,15.94,0,0,0,3.37-1.77l.78,1.13A17.5,17.5,0,0,1,151,37.43Zm-18.94-4.65a17.29,17.29,0,0,1-2.36-3.39l1.22-.64a15.56,15.56,0,0,0,2.17,3.12Zm25.7,0-1-.91a15.3,15.3,0,0,0,2.16-3.13l1.22.64A17.18,17.18,0,0,1,157.78,32.76Zm-29.53-7.24a17,17,0,0,1-.5-4.1h1.37a15.94,15.94,0,0,0,.46,3.77Zm33.35,0-1.34-.33a15.46,15.46,0,0,0,.46-3.78l1.37-.06v.06A17.7,17.7,0,0,1,161.6,25.49Zm-32-7.85-1.34-.33a17.4,17.4,0,0,1,1.46-3.87l1.22.64A15.43,15.43,0,0,0,129.57,17.64Zm30.68-.1A15.8,15.8,0,0,0,158.88,14l1.22-.64a17.2,17.2,0,0,1,1.48,3.86Zm-27.18-6.6L132,10a17.23,17.23,0,0,1,3.09-2.75l.78,1.13A15.92,15.92,0,0,0,133.07,10.94Zm23.64-.07a16,16,0,0,0-2.86-2.52l.78-1.12a17.14,17.14,0,0,1,3.1,2.73ZM139.27,6.63l-.49-1.28a17.4,17.4,0,0,1,4-1L143,5.71A16.17,16.17,0,0,0,139.27,6.63Zm11.2,0a15.63,15.63,0,0,0-3.7-.9l.16-1.36a17.43,17.43,0,0,1,4,1Z" transform="translate(0.49 -1.47)"/><polygon class="cls-6" points="149.77 29.01 144.06 23.3 144.06 9.39 146.8 9.39 146.8 22.17 151.7 27.07 149.77 29.01"/></svg>