<?xml version="1.0" encoding="UTF-8"?>
<!-- Generator: Adobe Illustrator 23.0.3, SVG Export Plug-In . SVG Version: 6.00 Build 0)  -->
<svg version="1.1" id="Capa_1" xmlns="http://www.w3.org/2000/svg" xmlns:xlink="http://www.w3.org/1999/xlink" x="0px" y="0px" viewBox="0 0 70 70" style="enable-background:new 0 0 70 70;" xml:space="preserve">
<style type="text/css">
	.st0{fill:#163C79;}
	.st1{fill:#FF2C9C;}
</style>
<g>
	<path class="st0" d="M67.3,40.4H2.7V6.7c0-2.2,1.8-4,4-4h62.9V0H6.7C3,0,0,3,0,6.7v40.4c0,3.7,3,6.7,6.7,6.7h17.3l-1,8.1h-2.9   c-1.5,0-2.7,1.2-2.7,2.7v2.7c0,1.5,1.2,2.7,2.7,2.7h29.6c1.5,0,2.7-1.2,2.7-2.7v-2.7c0-1.5-1.2-2.7-2.7-2.7H47l-1-8.1h17.3   c3.7,0,6.7-3,6.7-6.7V0h-2.7V40.4z M49.8,67.3H20.2v-2.7h29.6V67.3z M44.2,61.9H25.8l1-8.1h16.5L44.2,61.9z M63.3,51.2H6.7   c-2.2,0-4-1.8-4-4v-4h64.6v4C67.3,49.3,65.5,51.2,63.3,51.2z"/>
	<path class="st0" d="M59.2,45.8h2.7v2.7h-2.7V45.8z"/>
	<path class="st1" d="M12.7,24.2h5.4v2.7h-5.4V24.2z"/>
	<path class="st1" d="M20.8,24.2h13.5v2.7H20.8V24.2z"/>
	<path class="st1" d="M15.4,29.6h5.4v2.7h-5.4V29.6z"/>
	<path class="st1" d="M23.5,29.6h13.5v2.7H23.5V29.6z"/>
	<path class="st1" d="M39.6,29.6H45v2.7h-5.4V29.6z"/>
	<path class="st1" d="M47.7,29.6h10.8v2.7H47.7V29.6z"/>
	<path class="st1" d="M58.5,20.8h-5.4v-2.7h5.4V20.8z"/>
	<path class="st1" d="M50.4,20.8H36.9v-2.7h13.5V20.8z"/>
	<path class="st1" d="M27.3,20.8H13.8v-2.7h13.5V20.8z"/>
	<path class="st1" d="M55.8,15.4h-5.4v-2.7h5.4V15.4z"/>
	<path class="st1" d="M47.7,15.4H34.2v-2.7h13.5V15.4z"/>
	<path class="st1" d="M31.5,15.4h-5.4v-2.7h5.4V15.4z"/>
	<path class="st1" d="M23.5,15.4H12.7v-2.7h10.8V15.4z"/>
</g>
</svg>