<?xml version="1.0" encoding="UTF-8"?>
<!-- Generator: Adobe Illustrator 23.0.3, SVG Export Plug-In . SVG Version: 6.00 Build 0)  -->
<svg version="1.1" id="Capa_1" xmlns="http://www.w3.org/2000/svg" xmlns:xlink="http://www.w3.org/1999/xlink" x="0px" y="0px" viewBox="0 0 70 70" style="enable-background:new 0 0 70 70;" xml:space="preserve">
<style type="text/css">
	.st0{fill:#FF2C9C;}
	.st1{fill:#163C79;}
</style>
<g>
	<path class="st0" d="M42,52.5h2.3v2.3H42V52.5z"/>
	<path class="st0" d="M36.2,63h-2.5l-0.8-4.7h12.6c3.2,0,5.8-2.6,5.8-5.8v-28c0-3.2-2.6-5.8-5.8-5.8H5.8c-3.2,0-5.8,2.6-5.8,5.8v28   c0,3.2,2.6,5.8,5.8,5.8h12.6L17.7,63h-2.5c-1.3,0-2.3,1-2.3,2.3v2.3c0,1.3,1,2.3,2.3,2.3h21c1.3,0,2.3-1,2.3-2.3v-2.3   C38.5,64,37.5,63,36.2,63z M5.8,21h39.7c1.9,0,3.5,1.6,3.5,3.5V49H38.4c4.1-6.3,2.8-14.7-2.9-19.6c-5.7-4.9-14.2-4.9-19.8,0   C10,34.3,8.8,42.7,12.9,49H2.3V24.5C2.3,22.6,3.9,21,5.8,21z M15.8,49c-1.6-2-2.7-4.4-2.9-7H14v-2.3h-1.1c0.1-1.5,0.5-2.9,1.1-4.2   l1,0.5l1.2-2l-1-0.5c0.8-1.2,1.9-2.2,3.1-3.1l0.5,1l2-1.2l-0.5-1c1.3-0.6,2.7-1,4.2-1.1v1.1h2.3v-1.1c1.5,0.1,2.9,0.5,4.2,1.1   l-0.5,1l2,1.2l0.5-1c1.2,0.8,2.2,1.9,3.1,3.1l-1,0.5l1.2,2l1-0.5c0.6,1.3,1,2.7,1.1,4.2h-1.1V42h1.1c-0.2,2.6-1.2,5-2.9,7L15.8,49z    M2.3,52.5v-1.2H49v1.2c0,1.9-1.6,3.5-3.5,3.5H5.8C3.9,56,2.3,54.4,2.3,52.5z M20.8,58.3h9.7l0.8,4.7H20L20.8,58.3z M36.2,67.7h-21   v-2.3h21V67.7z"/>
	<path class="st0" d="M30.7,34.2l-3.5,3.5c-0.5-0.2-1-0.3-1.5-0.3c-1.9,0-3.5,1.6-3.5,3.5s1.6,3.5,3.5,3.5s3.5-1.6,3.5-3.5   c0-0.5-0.1-1-0.3-1.5l3.5-3.5L30.7,34.2z M25.7,42c-0.6,0-1.2-0.5-1.2-1.2s0.5-1.2,1.2-1.2s1.2,0.5,1.2,1.2S26.3,42,25.7,42z"/>
	<path class="st0" d="M25.7,31.5c-5.2,0-9.3,4.2-9.3,9.3h2.3c0-3.9,3.1-7,7-7V31.5z"/>
	<path class="st1" d="M53.7,45.5H56v4.7h-2.3V45.5z"/>
	<path class="st1" d="M58.3,45.5h2.3v4.7h-2.3V45.5z"/>
	<path class="st1" d="M63,45.5h2.3v4.7H63V45.5z"/>
	<path class="st1" d="M53.7,31.5H56v4.7h-2.3V31.5z"/>
	<path class="st1" d="M58.3,31.5h2.3v4.7h-2.3V31.5z"/>
	<path class="st1" d="M63,31.5h2.3v4.7H63V31.5z"/>
	<path class="st1" d="M53.7,17.5H56v4.7h-2.3V17.5z"/>
	<path class="st1" d="M58.3,17.5h2.3v4.7h-2.3V17.5z"/>
	<path class="st1" d="M63,17.5h2.3v4.7H63V17.5z"/>
	<path class="st1" d="M67.7,11.7c1.3,0,2.3-1,2.3-2.3v-7C70,1,69,0,67.7,0h-35c-1.3,0-2.3,1-2.3,2.3v7c0,1.3,1,2.3,2.3,2.3h1.2V14   h-1.2c-1.3,0-2.3,1-2.3,2.3h37.3v7h-14v2.3h5.8V28h-5.8v2.3h14v7h-14v2.3h5.8V42h-5.8v2.3h14v7h-14v2.3h5.8V56   c0,0.6,0.5,1.2,1.2,1.2h4.7c0.6,0,1.2-0.5,1.2-1.2v-2.3h1.2c1.3,0,2.3-1,2.3-2.3v-7c0-1.3-1-2.3-2.3-2.3h-1.2v-2.3h1.2   c1.3,0,2.3-1,2.3-2.3v-7c0-1.3-1-2.3-2.3-2.3h-1.2v-2.3h1.2c1.3,0,2.3-1,2.3-2.3v-7c0-1.3-1-2.3-2.3-2.3h-1.2v-2.3H67.7z    M64.2,54.8h-2.3v-1.2h2.3V54.8z M64.2,42h-2.3v-2.3h2.3V42z M64.2,28h-2.3v-2.3h2.3V28z M32.7,2.3h35v7h-35V2.3z M59.5,11.7V14   H40.8v-2.3H59.5z M36.2,11.7h2.3V14h-2.3V11.7z M64.2,14h-2.3v-2.3h2.3V14z"/>
	<path class="st1" d="M35,4.7h2.3V7H35V4.7z"/>
	<path class="st1" d="M39.7,4.7H42V7h-2.3V4.7z"/>
	<path class="st1" d="M44.3,4.7h2.3V7h-2.3V4.7z"/>
	<path class="st1" d="M53.7,3.5H56v4.7h-2.3V3.5z"/>
	<path class="st1" d="M58.3,3.5h2.3v4.7h-2.3V3.5z"/>
	<path class="st1" d="M63,3.5h2.3v4.7H63V3.5z"/>
	<path class="st1" d="M53.7,65.3H40.8v2.3h14c0.6,0,1.2-0.5,1.2-1.2v-7h-2.3V65.3z"/>
	<path class="st1" d="M58.3,59.5h2.3v2.3h-2.3V59.5z"/>
	<path class="st1" d="M58.3,64.2h2.3v2.3h-2.3V64.2z"/>
	<path class="st1" d="M8.2,8.2H28V5.8H7C6.4,5.8,5.8,6.4,5.8,7v9.3h2.3V8.2z"/>
	<path class="st1" d="M7,1.2h2.3v2.3H7V1.2z"/>
	<path class="st1" d="M11.7,1.2H14v2.3h-2.3V1.2z"/>
	<path class="st1" d="M16.3,1.2h2.3v2.3h-2.3V1.2z"/>
	<path class="st1" d="M21,1.2h2.3v2.3H21V1.2z"/>
</g>
</svg>