<?xml version="1.0" encoding="UTF-8"?>
<!-- Generator: Adobe Illustrator 23.0.3, SVG Export Plug-In . SVG Version: 6.00 Build 0)  -->
<svg version="1.1" id="Capa_1" xmlns="http://www.w3.org/2000/svg" xmlns:xlink="http://www.w3.org/1999/xlink" x="0px" y="0px" viewBox="0 0 70 70" style="enable-background:new 0 0 70 70;" xml:space="preserve">
<style type="text/css">
	.st0{fill:#163C79;}
	.st1{fill:#FF2C9C;}
</style>
<g>
	<path class="st0" d="M66.5,35H40.8c-1.9,0-3.5,1.6-3.5,3.5v15.2c0,1.9,1.6,3.5,3.5,3.5h9.3v3.5h-4.7V63H35v-6.3   c0-3.7-2.5-6.9-6-7.9l-6.8-1.9v-1.8c2.2-1.5,3.5-4,3.5-6.7v-1.2c0.6,0,1.2-0.5,1.2-1.2v-3.5c0-5.2-4.2-9.3-9.3-9.3H7   c-1.3,0-2.3,1-2.3,2.3v5.8c0,2.7,1.8,5,4.4,5.6c0.1,0,0.2,0,0.3,0.1v1.3c0,2.7,1.3,5.2,3.5,6.7v1.8L6,48.8c-3.5,1-6,4.2-6,7.9v12.2   C0,69.5,0.5,70,1.2,70h67.7c0.6,0,1.2-0.5,1.2-1.2v-4.7c0-0.6-0.5-1.2-1.2-1.2h-7v-2.3h-4.7v-3.5h9.3c1.9,0,3.5-1.6,3.5-3.5V38.5   C70,36.6,68.4,35,66.5,35z M7,31.5v-5.8h10.5c3.9,0,7,3.1,7,7V35h-0.8c-1.1,0-2-0.7-2.3-1.8l-0.5-2c-0.1-0.4-0.5-0.8-0.9-0.9   c-0.1,0-0.2,0-0.2,0c-0.4,0-0.7,0.2-0.9,0.5l-0.7,0.9c-0.4,0.5-0.9,1-1.4,1.5c-1.4,1.2-3.2,1.8-5.1,1.8h-1.2c-0.3,0-0.6,0-0.9-0.1   C8.1,34.5,7,33.1,7,31.5z M11.7,38.5v-1.2c2.4,0,4.7-0.8,6.6-2.3c0.4-0.3,0.7-0.6,1-1c0.6,1.8,2.2,3.1,4.1,3.2v1.2   c0,3.2-2.6,5.8-5.8,5.8S11.7,41.7,11.7,38.5z M17.5,46.7c0.8,0,1.6-0.1,2.3-0.3v1.5c0,0.3,0.2,0.7,0.4,0.9L17.5,51l-2.7-2.3   c0.3-0.2,0.4-0.5,0.4-0.9v-1.5C15.9,46.5,16.7,46.7,17.5,46.7z M6.6,51l5.5-1.5l4.6,3.8c0.4,0.4,1.1,0.4,1.5,0l4.6-3.8l5.5,1.5   c2.5,0.7,4.3,3,4.3,5.6V63h-3.5v-5.8h-2.3V63H8.2v-5.8H5.8V63H2.3v-6.3C2.3,54,4.1,51.7,6.6,51z M67.7,65.3v2.3H2.3v-2.3H67.7z    M52.5,60.7V47.8h2.3v12.8H52.5z M67.7,53.7c0,0.6-0.5,1.2-1.2,1.2h-9.3v-8.2c0-0.6-0.5-1.2-1.2-1.2h-4.7c-0.6,0-1.2,0.5-1.2,1.2   v8.2h-9.3c-0.6,0-1.2-0.5-1.2-1.2V38.5c0-0.6,0.5-1.2,1.2-1.2h25.7c0.6,0,1.2,0.5,1.2,1.2V53.7z"/>
	<path class="st1" d="M66.5,0h-21C43.6,0,42,1.6,42,3.5v1.2h-1.2c-1.9,0-3.5,1.6-3.5,3.5v16.3c0,1.9,1.6,3.5,3.5,3.5h21   c1.9,0,3.5-1.6,3.5-3.5v-1.2h1.2c1.9,0,3.5-1.6,3.5-3.5V3.5C70,1.6,68.4,0,66.5,0z M40.8,7h21C62.5,7,63,7.5,63,8.2v1.2H39.7V8.2   C39.7,7.5,40.2,7,40.8,7z M61.8,25.7h-21c-0.6,0-1.2-0.5-1.2-1.2V11.7H63v12.8C63,25.1,62.5,25.7,61.8,25.7z M67.7,19.8   c0,0.6-0.5,1.2-1.2,1.2h-1.2V8.2c0-1.9-1.6-3.5-3.5-3.5H44.3V3.5c0-0.6,0.5-1.2,1.2-1.2h21c0.6,0,1.2,0.5,1.2,1.2V19.8z"/>
	<path class="st1" d="M50.2,16.3h2.3v2.3h-2.3V16.3z"/>
	<path class="st1" d="M54.8,16.3h2.3v2.3h-2.3V16.3z"/>
	<path class="st1" d="M45.5,16.3h2.3v2.3h-2.3V16.3z"/>
	<path class="st1" d="M7,4.7h4.7V7H7V4.7z"/>
	<path class="st1" d="M14,4.7h14V7H14V4.7z"/>
	<path class="st1" d="M8.2,14h4.7v2.3H8.2V14z"/>
	<path class="st1" d="M15.2,14h14v2.3h-14V14z"/>
	<path class="st1" d="M9.3,9.3H14v2.3H9.3V9.3z"/>
	<path class="st1" d="M16.3,9.3h14v2.3h-14V9.3z"/>
</g>
</svg>