<?xml version="1.0" encoding="UTF-8"?>
<!-- Generator: Adobe Illustrator 23.0.3, SVG Export Plug-In . SVG Version: 6.00 Build 0)  -->
<svg version="1.1" id="Capa_1" xmlns="http://www.w3.org/2000/svg" xmlns:xlink="http://www.w3.org/1999/xlink" x="0px" y="0px" viewBox="0 0 70 70" style="enable-background:new 0 0 70 70;" xml:space="preserve">
<style type="text/css">
	.st0{fill:#163C79;}
	.st1{fill:#FF2C9C;}
</style>
<g>
	<path class="st0" d="M64.2,0H5.8C2.6,0,0,2.6,0,5.8v58.3C0,67.4,2.6,70,5.8,70h58.3c3.2,0,5.8-2.6,5.8-5.8V5.8   C70,2.6,67.4,0,64.2,0z M5.8,2.3h58.3c1.9,0,3.5,1.6,3.5,3.5v3.5H2.3V5.8C2.3,3.9,3.9,2.3,5.8,2.3z M64.2,67.7H5.8   c-1.9,0-3.5-1.6-3.5-3.5V11.7h65.3v52.5C67.7,66.1,66.1,67.7,64.2,67.7z"/>
	<path class="st0" d="M5.8,4.7h2.3V7H5.8V4.7z"/>
	<path class="st0" d="M10.5,4.7h2.3V7h-2.3V4.7z"/>
	<path class="st0" d="M15.2,4.7h2.3V7h-2.3V4.7z"/>
	<path class="st1" d="M49.2,24.2c-7.5-6.9-18.8-7.4-26.9-1.3c-0.5,0.4-1,0.8-1.5,1.3c-8.6,7.8-9.1,21.1-1.3,29.7   c7.3,8,19.6,9.1,28.3,2.5c0.5-0.4,1-0.8,1.5-1.3c8.5-7.8,9.1-21.1,1.2-29.6C50.1,25,49.7,24.6,49.2,24.2L49.2,24.2z M48.4,52.7   c-1-0.9-2.1-1.6-3.3-2.2c1-3.1,1.5-6.3,1.6-9.6h7C53.3,45.3,51.5,49.5,48.4,52.7z M46.5,54.4c-0.2,0.1-0.4,0.3-0.5,0.4   c-0.3,0.2-0.5,0.4-0.8,0.6c-0.2,0.1-0.4,0.2-0.6,0.4c-0.3,0.2-0.6,0.3-0.8,0.5c-0.2,0.1-0.4,0.2-0.6,0.3c-0.3,0.1-0.6,0.3-0.9,0.4   c-0.2,0.1-0.4,0.2-0.6,0.2c1.1-1.4,2-2.9,2.7-4.5c0.8,0.5,1.6,1,2.4,1.6C46.6,54.3,46.5,54.3,46.5,54.4z M27,56.5   c-0.2-0.1-0.4-0.2-0.6-0.3c-0.3-0.2-0.6-0.3-0.8-0.5c-0.2-0.1-0.4-0.2-0.6-0.4c-0.3-0.2-0.5-0.4-0.8-0.6c-0.2-0.1-0.4-0.3-0.5-0.4   c-0.1,0-0.1-0.1-0.2-0.1c0.8-0.6,1.6-1.1,2.4-1.6c0.7,1.6,1.6,3.1,2.7,4.5c-0.2-0.1-0.4-0.2-0.6-0.2C27.5,56.8,27.3,56.6,27,56.5   L27,56.5z M21.6,26.7c1,0.9,2.1,1.6,3.3,2.2c-1,3.1-1.5,6.3-1.6,9.6h-7C16.7,34.1,18.5,29.9,21.6,26.7z M23.5,24.9   c0.2-0.1,0.4-0.3,0.5-0.4c0.3-0.2,0.5-0.4,0.8-0.6c0.2-0.1,0.4-0.2,0.6-0.4c0.3-0.2,0.6-0.3,0.8-0.5c0.2-0.1,0.4-0.2,0.6-0.3   c0.3-0.1,0.6-0.3,0.9-0.4c0.2-0.1,0.4-0.2,0.6-0.2c-1.1,1.4-2,2.9-2.7,4.5c-0.8-0.5-1.6-1-2.4-1.6C23.4,25,23.5,25,23.5,24.9z    M43,22.8c0.2,0.1,0.4,0.2,0.6,0.3c0.3,0.2,0.6,0.3,0.8,0.5c0.2,0.1,0.4,0.2,0.6,0.4c0.3,0.2,0.5,0.4,0.8,0.6   c0.2,0.1,0.4,0.3,0.5,0.4c0.1,0,0.1,0.1,0.2,0.1c-0.8,0.6-1.6,1.1-2.4,1.6c-0.7-1.6-1.6-3.1-2.7-4.5c0.2,0.1,0.4,0.2,0.6,0.2   C42.5,22.6,42.7,22.7,43,22.8L43,22.8z M33.8,29.1c-2-0.1-4.1-0.6-6-1.4c1.5-3.5,3.6-6,6-6.6V29.1z M33.8,31.5v7h-8.1   c0.1-2.9,0.6-5.8,1.4-8.6C29.2,30.8,31.5,31.3,33.8,31.5L33.8,31.5z M33.8,40.8v7.1c-2.3,0.1-4.6,0.6-6.7,1.5   c-0.8-2.8-1.3-5.7-1.4-8.6H33.8z M33.8,50.2v7.9c-2.4-0.6-4.5-3.1-6-6.6C29.8,50.8,31.8,50.3,33.8,50.2z M36.2,50.2   c2,0.1,4.1,0.6,6,1.4c-1.5,3.5-3.6,5.9-6,6.6V50.2z M36.2,47.9v-7h8.1c-0.1,2.9-0.5,5.8-1.4,8.6C40.8,48.5,38.5,48,36.2,47.9   L36.2,47.9z M36.2,38.5v-7.1c2.3-0.1,4.6-0.6,6.7-1.5c0.8,2.8,1.3,5.7,1.4,8.6L36.2,38.5L36.2,38.5z M36.2,29.1v-7.9   c2.4,0.6,4.5,3.1,6,6.6C40.2,28.5,38.2,29,36.2,29.1z M23.4,40.8c0.1,3.3,0.6,6.5,1.6,9.6c-1.2,0.6-2.3,1.4-3.3,2.2   c-3.1-3.2-5-7.4-5.3-11.8H23.4z M46.6,38.5c-0.1-3.3-0.6-6.5-1.6-9.6c1.2-0.6,2.3-1.4,3.3-2.2c3.1,3.2,5,7.4,5.3,11.8L46.6,38.5   L46.6,38.5z"/>
</g>
</svg>