<?xml version="1.0" encoding="UTF-8"?>
<!-- Generator: Adobe Illustrator 23.0.3, SVG Export Plug-In . SVG Version: 6.00 Build 0)  -->
<svg version="1.1" id="Capa_1" xmlns="http://www.w3.org/2000/svg" xmlns:xlink="http://www.w3.org/1999/xlink" x="0px" y="0px" viewBox="0 0 70 70" style="enable-background:new 0 0 70 70;" xml:space="preserve">
<style type="text/css">
	.st0{fill:#163C79;}
	.st1{fill:#FF2C9C;}
</style>
<g>
	<path class="st0" d="M65.2,50.2H65c-0.7,0-1.4,0.2-2,0.4l-14.2,6.6h-5.3c0.6-0.8,0.9-1.8,0.9-2.9c0-2.9-2.4-5.3-5.3-5.3H23.3   c-0.3,0-0.6,0.1-0.8,0.3l-4.3,4.3h-6.5v-1.2c0-0.6-0.5-1.2-1.2-1.2H1.2c-0.6,0-1.2,0.5-1.2,1.2v16.3C0,69.5,0.5,70,1.2,70h9.3   c0.6,0,1.2-0.5,1.2-1.2h38.5c0.2,0,0.4-0.1,0.6-0.1l16.8-9.4c1.5-0.9,2.5-2.5,2.5-4.2C70,52.3,67.8,50.2,65.2,50.2z M9.3,67.7h-7   v-14h7V67.7z M66.4,57.2l-16.5,9.3H11.7V56h7c0.3,0,0.6-0.1,0.8-0.3l4.3-4.3h15.3c1.6,0,2.9,1.3,2.9,2.9s-1.3,2.9-2.9,2.9h-9.9v2.3   H49c0.2,0,0.3,0,0.5-0.1l14.4-6.7c0.3-0.2,0.7-0.2,1.1-0.2h0.2c1.4,0,2.5,1.1,2.5,2.5C67.7,55.9,67.2,56.8,66.4,57.2z"/>
	<path class="st0" d="M35,0C22.1,0,11.7,10.5,11.7,23.3S22.1,46.7,35,46.7s23.3-10.5,23.3-23.3S47.9,0,35,0z M35,44.3   c-11.6,0-21-9.4-21-21s9.4-21,21-21s21,9.4,21,21S46.6,44.3,35,44.3z"/>
	<path class="st1" d="M49.9,12.1l-1.9,1.4c2.1,2.8,3.3,6.2,3.3,9.8c0,9-7.3,16.3-16.3,16.3s-16.3-7.3-16.3-16.3S26,7,35,7   c2.7,0,5.3,0.7,7.6,1.9l1.1-2.1C41,5.4,38,4.7,35,4.7c-10.3,0-18.7,8.4-18.7,18.7S24.7,42,35,42s18.7-8.4,18.7-18.7   C53.7,19.3,52.4,15.4,49.9,12.1z"/>
	<path class="st1" d="M47.7,9.6c-0.5-0.4-1-0.9-1.5-1.2l-1.4,1.9c0.5,0.3,0.9,0.7,1.3,1.1L47.7,9.6z"/>
	<path class="st1" d="M33.8,15.2h2.3c1.9,0,3.5,1.6,3.5,3.5H42c0-3.2-2.6-5.8-5.8-5.8v-2.3h-2.3v2.3c-3.2,0-5.8,2.6-5.8,5.8   s2.6,5.8,5.8,5.8h2.3c1.9,0,3.5,1.6,3.5,3.5s-1.6,3.5-3.5,3.5h-2.3c-1.9,0-3.5-1.6-3.5-3.5H28c0,3.2,2.6,5.8,5.8,5.8v2.3h2.3v-2.3   c3.2,0,5.8-2.6,5.8-5.8s-2.6-5.8-5.8-5.8h-2.3c-1.9,0-3.5-1.6-3.5-3.5S31.9,15.2,33.8,15.2z"/>
	<path class="st1" d="M45.5,22.2h2.3v2.3h-2.3V22.2z"/>
	<path class="st1" d="M22.2,22.2h2.3v2.3h-2.3V22.2z"/>
	<path class="st1" d="M52.5,40.8h2.3v2.3h-2.3V40.8z"/>
	<path class="st0" d="M52.5,45.5h2.3v7h-2.3V45.5z"/>
	<path class="st0" d="M46.7,47.8H49v7h-2.3V47.8z"/>
</g>
</svg>