<?xml version="1.0" encoding="utf-8"?>
<!-- Generator: Adobe Illustrator 24.2.1, SVG Export Plug-In . SVG Version: 6.00 Build 0)  -->
<svg version="1.1" id="Layer_1" xmlns="http://www.w3.org/2000/svg" xmlns:xlink="http://www.w3.org/1999/xlink" x="0px" y="0px"
	 viewBox="0 0 500 500" style="enable-background:new 0 0 500 500;" xml:space="preserve">
<style type="text/css">
	.st0{fill:#F0F0F0;}
	.st1{fill:#FFFFFF;}
	.st2{fill:#AF8C66;}
	.st3{fill:#FF8C00;}
	.st4{fill:#4B7BEC;}
	.st5{opacity:0.15;enable-background:new    ;}
	.st6{opacity:0.1;enable-background:new    ;}
	.st7{opacity:0.7;fill:#FFFFFF;enable-background:new    ;}
	.st8{opacity:0.2;enable-background:new    ;}
	.st9{fill:#EFC18F;}
	.st10{fill:#352D25;}
	.st11{fill:#37474F;}
	.st12{fill:#635545;}
	.st13{opacity:0.1;fill:#4B7BEC;enable-background:new    ;}
	.st14{opacity:0.6;fill:#FFFFFF;enable-background:new    ;}
	.st15{opacity:0.3;fill:#FFFFFF;enable-background:new    ;}
	.st16{opacity:0.8;fill:#FFFFFF;enable-background:new    ;}
	.st17{fill:#455A64;}
	.st18{fill:#263238;}
	.st19{opacity:5.000000e-02;fill:#4B7BEC;enable-background:new    ;}
	.st20{opacity:0.2;fill:#4B7BEC;enable-background:new    ;}
	.st21{fill:none;stroke:#4B7BEC;stroke-miterlimit:10;}
</style>
<path id="freepik--floor--inject-74_1_" class="st0" d="M482.9,333.5C482.9,407.8,378.6,468,250,468S17.1,407.8,17.1,333.5
	S121.4,199.1,250,199.1"/>
<g id="freepik--clouds--inject-74">
	<path class="st1" d="M152.1,58l-6.6,3.8c0-0.3,0.1-0.6,0.1-0.9V59c0-3.4-2.4-4.8-5.3-3.1c-1.3,0.8-2.3,1.8-3.2,3
		c-0.5-4.3-3.8-5.8-7.9-3.5c-4.4,2.5-7.9,8.7-7.9,13.7V72c0,1.1,0.2,2.3,0.7,3.3l-5.4,3.1c-1.7,1.1-2.8,3-2.9,5.1
		c0,1.9,1.3,2.6,2.9,1.7l35.5-20.5c1.7-1.1,2.8-3,2.9-5.1C155.1,57.8,153.8,57,152.1,58z"/>
	<path class="st1" d="M89.8,47.8l-3.6,1.4v-8c0-6.3-5-7.8-10.5-4.7l0,0c-5.5,3.2-9.9,10.8-9.9,17.2v1.2c-1.6-0.5-3.2-0.2-4.6,0.7
		l0,0c-4.2,2.7-6.9,7.3-7.1,12.4v0.5l-5,2.9c-2.8,1.8-4.5,4.8-4.7,8.1c0,3,2.1,4.2,4.7,2.7l40.7-23.5c2.8-1.8,4.5-4.8,4.7-8.1
		C94.5,47.5,92.4,46.3,89.8,47.8z"/>
</g>
<g id="freepik--land--inject-74">
	<polygon class="st2" points="29.2,292.6 29.2,312.5 102.3,354.6 102.3,334.8 	"/>
	<polygon class="st3" points="102.3,354.6 244,272.8 244,252.9 102.3,334.8 	"/>
	<polygon class="st4" points="171,205.8 20.6,292.6 20.6,297.6 102.3,344.7 252.6,257.9 252.6,252.9 	"/>
	<polyline class="st5" points="20.6,292.6 102.3,339.7 102.3,344.7 20.6,297.6 20.6,292.6 	"/>
	<polygon class="st6" points="102.3,339.7 252.6,252.9 252.6,257.9 102.3,344.7 	"/>
</g>
<g id="freepik--Cables--inject-74">
	<path class="st4" d="M203.4,358.3l-58.8-33.9l0,0c-0.3-0.2-0.8-0.1-1.1,0.1c-0.9,0.6-1.5,1.6-1.5,2.6c0,0.4,0.1,0.8,0.4,1
		l58.8,33.9L203.4,358.3z"/>
	<path class="st7" d="M203.4,358.3l-58.8-33.9l0,0c-0.3-0.2-0.8-0.1-1.1,0.1c-0.9,0.6-1.5,1.6-1.5,2.6c0,0.4,0.1,0.8,0.4,1
		l58.8,33.9L203.4,358.3z"/>
	<path class="st4" d="M205,354.3L149.1,322l0,0c-0.2-0.1-0.4-0.1-0.5,0c-0.4,0.3-0.7,0.8-0.8,1.3c0,0.2,0.1,0.4,0.2,0.5l55.8,32.2
		L205,354.3z"/>
	<path class="st8" d="M205,354.3L149.1,322l0,0c-0.2-0.1-0.4-0.1-0.5,0c-0.4,0.3-0.7,0.8-0.8,1.3c0,0.2,0.1,0.4,0.2,0.5l55.8,32.2
		L205,354.3z"/>
</g>
<g id="freepik--cables--inject-74">
	<path class="st4" d="M274.8,316.6L216,282.6l0,0c-0.3-0.2-0.8-0.1-1.1,0.1c-0.9,0.6-1.5,1.6-1.5,2.6c0,0.4,0.1,0.8,0.4,1l58.8,33.9
		L274.8,316.6z"/>
	<path class="st7" d="M274.8,316.6L216,282.6l0,0c-0.3-0.2-0.8-0.1-1.1,0.1c-0.9,0.6-1.5,1.6-1.5,2.6c0,0.4,0.1,0.8,0.4,1l58.8,33.9
		L274.8,316.6z"/>
	<path class="st4" d="M276.4,312.5l-55.8-32.2l0,0c-0.2-0.1-0.4-0.1-0.5,0c-0.4,0.3-0.7,0.8-0.8,1.3c0,0.2,0.1,0.4,0.2,0.5
		l55.8,32.2L276.4,312.5z"/>
	<path class="st8" d="M276.4,312.5l-55.8-32.2l0,0c-0.2-0.1-0.4-0.1-0.5,0c-0.4,0.3-0.7,0.8-0.8,1.3c0,0.2,0.1,0.4,0.2,0.5
		l55.8,32.2L276.4,312.5z"/>
</g>
<g id="freepik--land--inject-74_1_">
	<polygon class="st2" points="188.3,353.8 188.3,373.6 312.8,445.5 312.8,425.7 	"/>
	<polygon class="st9" points="312.8,445.5 458.9,361.2 458.9,341.4 312.8,425.7 	"/>
	<polygon class="st4" points="332.5,262.6 177,352.2 177,357.2 312.8,435.6 468.3,346 468.3,341 	"/>
	<polyline class="st5" points="177,352.2 312.8,430.6 312.8,435.6 177,357.2 177,352.2 	"/>
	<polygon class="st6" points="312.8,430.6 468.3,341 468.3,346 312.8,435.6 	"/>
</g>
<g id="freepik--tree--inject-74">
	
		<rect x="449.7" y="315.5" transform="matrix(0.4524 -0.8918 0.8918 0.4524 -31.6008 580.8016)" class="st10" width="14.9" height="1.2"/>
	
		<rect x="449.7" y="307.6" transform="matrix(0.8503 -0.5264 0.5264 0.8503 -97.7495 283.9964)" class="st10" width="1.2" height="12.5"/>
	<path class="st10" d="M454.8,306.9v32c0,0.2-0.1,0.3-0.3,0.4c-0.5,0.2-1,0.2-1.4,0c-0.2-0.1-0.3-0.2-0.3-0.4v-32H454.8z"/>
	<circle class="st4" cx="464.1" cy="297" r="14.9"/>
	<path class="st8" d="M468.8,293.2c1.9-6,4-8.4,2.7-9.1c-7.1-4-16.2-1.5-20.2,5.6c-4,7.1-1.5,16.2,5.6,20.2
		c6.3,3.6,14.2,2.1,18.8-3.5C471.2,307.7,466.3,301,468.8,293.2z"/>
	<circle class="st4" cx="440.8" cy="301.2" r="10.4"/>
	<path class="st8" d="M440.8,290.8c-2.2,0-4.3,0.7-6.1,2c-0.3,6.4,5.1,12.6,3.6,14.7s-5.2,0.8-6.5-1c2.9,5,9.3,6.7,14.3,3.8
		s6.7-9.3,3.8-14.3C447.9,292.7,444.5,290.8,440.8,290.8L440.8,290.8z"/>
	<circle class="st4" cx="453.8" cy="289.9" r="19.1"/>
	<path class="st6" d="M472.5,294.3c-2.4,10.3-12.7,16.7-23,14.3c-10.3-2.4-16.7-12.7-14.3-23c1.2-5.2,4.6-9.7,9.2-12.3
		c-1.7,0.9-3.2,2.1-4.5,3.5c-2.4,10.3,4,20.6,14.3,23C460.8,301.4,467.8,299.3,472.5,294.3L472.5,294.3z"/>
</g>
<g id="freepik--wind-turbine--inject-74">
	<path class="st6" d="M164.7,254c7,4,18.3,4,25.3,0s7-10.6,0-14.6s-18.3-4-25.3,0S157.7,249.9,164.7,254z"/>
	<path class="st11" d="M190,245.2L190,245.2c0-1.9-1.2-3.7-3.7-5.1c-4.9-2.9-12.9-2.9-17.9,0c-2.5,1.4-3.7,3.3-3.7,5.1l0,0v1.8l0,0
		c0,1.8,1.3,3.7,3.7,5.1c4.9,2.9,12.9,2.9,17.9,0c2.4-1.4,3.7-3.2,3.7-5.1l0,0L190,245.2z"/>
	<path class="st12" d="M168.4,240.1c-4.9,2.8-4.9,7.5,0,10.3s12.9,2.9,17.9,0s4.9-7.5,0-10.3S173.4,237.2,168.4,240.1z"/>
	<path class="st4" d="M180.9,244.5L180.9,244.5l-1.9-116l0,0c0-0.3-0.2-0.5-0.5-0.6c-0.7-0.4-1.6-0.4-2.3,0
		c-0.2,0.1-0.4,0.3-0.5,0.6l0,0l-1.9,116l0,0c0,0.7,0.4,1.2,1,1.5c1.6,0.8,3.4,0.8,5,0C180.5,245.8,180.9,245.1,180.9,244.5z"/>
	<path class="st7" d="M180.9,244.5L180.9,244.5l-1.9-116l0,0c0-0.3-0.2-0.5-0.5-0.6c-0.7-0.4-1.6-0.4-2.3,0
		c-0.2,0.1-0.4,0.3-0.5,0.6l0,0l-1.9,116l0,0c0,0.7,0.4,1.2,1,1.5c1.6,0.8,3.4,0.8,5,0C180.5,245.8,180.9,245.1,180.9,244.5z"/>
	<path class="st6" d="M177.3,127.6c-0.4,0-0.8,0.1-1.1,0.3c-0.2,0.1-0.4,0.3-0.5,0.6l0,0l-1.9,116l0,0c0,0.7,0.4,1.2,1,1.5
		c0.5,0.2,0.9,0.4,1.5,0.5L177.3,127.6z"/>
	<path class="st13" d="M178.5,127.9c-0.7-0.4-1.6-0.4-2.3,0c-0.2,0.1-0.4,0.3-0.5,0.6l0,0l-0.1,4.8c1.1,0.9,2.3,1.7,3.4,2.5
		l-0.1-7.3l0,0C179,128.2,178.8,128,178.5,127.9z"/>
	<path class="st6" d="M178.5,127.9c-0.7-0.4-1.6-0.4-2.3,0c-0.2,0.1-0.4,0.3-0.5,0.6l0,0l-0.1,4.8c1.1,0.9,2.3,1.7,3.4,2.5l-0.1-7.3
		l0,0C179,128.2,178.8,128,178.5,127.9z"/>
	<path class="st4" d="M170.6,122.1c-2,4.5,13.1,12.9,13.1,12.9l5.2-11.9C189,123.1,172.6,117.6,170.6,122.1"/>
	<path class="st14" d="M170.6,122.1c-2,4.5,13.1,12.9,13.1,12.9l5.2-11.9C189,123.1,172.6,117.6,170.6,122.1"/>
	<path class="st15" d="M171.4,121.2c0.2,1,1.7,2.4,3.3,3.4c2.1,1.4,10.2,5,10.2,5l1.9-1.4l2.2-5C189,123.1,175.2,118.4,171.4,121.2z
		"/>
	<path class="st4" d="M187,134.3c2.5-2,3.9-5.2,3.7-8.4c-0.3-2.9-2.5-3.9-4.9-2.1c-2.5,2-3.9,5.2-3.7,8.4
		C182.4,135.1,184.6,136,187,134.3z"/>
	<path class="st16" d="M187,134.3c2.5-2,3.9-5.2,3.7-8.4c-0.3-2.9-2.5-3.9-4.9-2.1c-2.5,2-3.9,5.2-3.7,8.4
		C182.4,135.1,184.6,136,187,134.3z"/>
	<path class="st11" d="M187.7,125.5l1.4,0.6l-0.5,1.1c0,1.8-0.7,3.4-2,4.6l-0.5,1.1l-1.5-0.6l0,0c-0.6-0.3-0.9-0.9-0.9-1.6
		c-0.1-1.9,0.7-3.7,2.1-4.8C186.3,125.4,187,125.3,187.7,125.5z"/>
	<path class="st17" d="M190.1,127.8c0.1,1.9-0.7,3.7-2.1,4.8c-1.4,1-2.6,0.4-2.8-1.2c-0.1-1.9,0.7-3.7,2.1-4.8
		C188.6,125.5,189.9,126.1,190.1,127.8z"/>
	<path class="st18" d="M188.8,128.7c0.1,0.9-0.3,1.8-1.1,2.4c-0.7,0.5-1.3,0.2-1.4-0.6c0-0.9,0.3-1.8,1.1-2.4
		C188.1,127.6,188.7,127.8,188.8,128.7z"/>
	
		<ellipse transform="matrix(0.3915 -0.9202 0.9202 0.3915 -5.0551 251.5079)" class="st19" cx="187.6" cy="129.6" rx="53.2" ry="30.1"/>
	<path class="st13" d="M187.6,129.6l34.6-23.4c-0.4-8.1-2.6-14.6-5.9-19.2l-28.1,39.5L187.6,129.6z"/>
	<path class="st20" d="M216.4,87c-4.6-6.4-11.6-9.2-19.8-7.3l-0.1,0.1c0,0-7.2,24.1-8.9,34.5s0.6,12.3,0.6,12.3L216.4,87z"/>
	<path class="st13" d="M187.6,129.6l-19.5-27.1c-5.1,7.7-9.1,16.1-11.8,24.9l29.2,4L187.6,129.6z"/>
	<path class="st20" d="M156.4,127.4c-3.6,12-4.5,23.9-2.3,33.6l0.1,0.1c0,0,16.6-11.2,23.5-18s7.9-11.6,7.9-11.6L156.4,127.4z"/>
	<path class="st13" d="M187.6,129.6L172.5,180c5.6,0.4,11.7-1.7,17.6-5.7l-1.1-43.5L187.6,129.6z"/>
	<path class="st20" d="M190.2,174.4c8.2-5.5,16.1-14.8,22.1-26.2V148c0,0-9.4-12.9-14.7-16.5s-8.5-0.7-8.5-0.7L190.2,174.4z"/>
	<path class="st12" d="M188.7,123.8l7.8-42.8c0.2-1-0.6-1.2-1.1-0.3c-1.9,3.3-5.1,10.2-8.1,21.9c-4.2,16.6-3.4,23.2-0.3,23.2
		C187.7,125.8,188.5,124.8,188.7,123.8z"/>
	<path class="st12" d="M183.7,133.3l-28.8,26.8c-0.7,0.6-0.7,1.9,0,1.8c2.4-0.3,7.3-1.9,15.3-8.1c11.3-8.8,15.5-15.6,15.1-19.9
		C185.2,132.8,184.4,132.6,183.7,133.3z"/>
	<path class="st12" d="M190.5,131.8l21,16c0.5,0.4,1.3-0.7,1.2-1.5c-1-5.2-3.5-10-7.2-13.8c-7.1-7.8-12.1-7.6-14.9-3.3
		C190,130.2,190,131.4,190.5,131.8z"/>
</g>
<g id="freepik--wind-turbine--inject-74_1_">
	<path class="st6" d="M78.8,303.5c7,4,18.3,4,25.3,0s7-10.6,0-14.6s-18.3-4-25.3,0S71.8,299.5,78.8,303.5z"/>
	<path class="st11" d="M104.1,294.8L104.1,294.8c0-1.9-1.2-3.7-3.7-5.2c-4.9-2.9-12.9-2.9-17.9,0c-2.5,1.4-3.7,3.3-3.7,5.2l0,0v1.7
		l0,0c0,1.9,1.3,3.7,3.7,5.1c4.9,2.9,12.9,2.9,17.9,0c2.4-1.4,3.7-3.2,3.7-5.1l0,0L104.1,294.8z"/>
	<path class="st12" d="M82.5,289.6c-4.9,2.9-4.9,7.5,0,10.3s12.9,2.8,17.9,0s4.9-7.5,0-10.3S87.4,286.8,82.5,289.6z"/>
	<path class="st4" d="M95,294.1L95,294.1l-1.9-116l0,0c0-0.3-0.2-0.5-0.5-0.6c-0.7-0.4-1.6-0.4-2.3,0c-0.3,0.1-0.4,0.4-0.5,0.6l0,0
		l-1.9,116l0,0c0,0.7,0.4,1.2,1,1.5c1.6,0.8,3.4,0.8,5,0C94.5,295.3,95,294.7,95,294.1z"/>
	<path class="st7" d="M95,294.1L95,294.1l-1.9-116l0,0c0-0.3-0.2-0.5-0.5-0.6c-0.7-0.4-1.6-0.4-2.3,0c-0.3,0.1-0.4,0.4-0.5,0.6l0,0
		l-1.9,116l0,0c0,0.7,0.4,1.2,1,1.5c1.6,0.8,3.4,0.8,5,0C94.5,295.3,95,294.7,95,294.1z"/>
	<path class="st6" d="M91.4,177.2c-0.4,0-0.8,0.1-1.1,0.3c-0.3,0.1-0.4,0.4-0.5,0.6l0,0l-1.9,116l0,0c0,0.7,0.4,1.2,1,1.5
		c0.5,0.3,1,0.4,1.5,0.5L91.4,177.2z"/>
	<path class="st13" d="M92.6,177.5c-0.7-0.4-1.6-0.4-2.3,0c-0.3,0.1-0.4,0.4-0.5,0.6l0,0l-0.1,4.8c1.1,0.9,2.3,1.7,3.4,2.5l-0.1-7.3
		l0,0C93,177.8,92.8,177.6,92.6,177.5z"/>
	<path class="st6" d="M92.6,177.5c-0.7-0.4-1.6-0.4-2.3,0c-0.3,0.1-0.4,0.4-0.5,0.6l0,0l-0.1,4.8c1.1,0.9,2.3,1.7,3.4,2.5l-0.1-7.3
		l0,0C93,177.8,92.8,177.6,92.6,177.5z"/>
	<path class="st4" d="M84.7,171.7c-2,4.5,13.1,12.9,13.1,12.9l5.3-11.9C103.1,172.7,86.7,167.2,84.7,171.7"/>
	<path class="st14" d="M84.7,171.7c-2,4.5,13.1,12.9,13.1,12.9l5.3-11.9C103.1,172.7,86.7,167.2,84.7,171.7"/>
	<path class="st15" d="M85.5,170.8c0.2,1,1.7,2.4,3.3,3.4c2.1,1.4,10.2,5,10.2,5l1.9-1.4l2.2-5C103.1,172.7,89.3,168,85.5,170.8z"/>
	<path class="st4" d="M101.1,183.9c2.5-2.1,3.9-5.2,3.7-8.4c-0.3-2.9-2.5-3.9-4.8-2.1c-2.5,2.1-3.9,5.2-3.7,8.4
		C96.5,184.7,98.7,185.6,101.1,183.9z"/>
	<path class="st16" d="M101.1,183.9c2.5-2.1,3.9-5.2,3.7-8.4c-0.3-2.9-2.5-3.9-4.8-2.1c-2.5,2.1-3.9,5.2-3.7,8.4
		C96.5,184.7,98.7,185.6,101.1,183.9z"/>
	<path class="st11" d="M101.8,175.1l1.5,0.6l-0.5,1.1c0.1,1.8-0.7,3.4-2,4.6l-0.5,1.1l-1.5-0.6l0,0c-0.6-0.3-1-0.9-0.9-1.6
		c-0.1-1.9,0.7-3.7,2.1-4.8C100.4,175.1,101.1,174.9,101.8,175.1z"/>
	<path class="st17" d="M104.2,177.4c0.1,1.9-0.7,3.7-2.2,4.8c-1.4,1-2.6,0.4-2.8-1.2c-0.1-1.9,0.7-3.7,2.1-4.8
		C102.7,175.1,104,175.7,104.2,177.4z"/>
	<path class="st18" d="M102.9,178.3c0,0.9-0.3,1.8-1.1,2.4c-0.7,0.5-1.3,0.2-1.4-0.6c0-0.9,0.3-1.8,1.1-2.4
		C102.2,177.2,102.8,177.4,102.9,178.3z"/>
	
		<ellipse transform="matrix(0.3915 -0.9202 0.9202 0.3915 -102.9528 202.6369)" class="st19" cx="101.7" cy="179.2" rx="53.2" ry="30.1"/>
	<path class="st13" d="M101.8,179.2l34.6-23.4c-0.4-8.1-2.6-14.6-5.9-19.2l-28.2,39.6L101.8,179.2z"/>
	<path class="st20" d="M130.5,136.6c-4.6-6.4-11.6-9.2-19.8-7.3l-0.1,0.1c0,0-7.2,24.1-8.9,34.5s0.6,12.3,0.6,12.3L130.5,136.6z"/>
	<path class="st13" d="M101.8,179.2l-19.5-27.1c-5.1,7.7-9.1,16.1-11.8,24.9l29.2,4L101.8,179.2z"/>
	<path class="st20" d="M70.5,177c-3.6,12-4.5,23.9-2.3,33.6l0.1,0.1c0,0,16.6-11.2,23.5-18s7.9-11.6,7.9-11.6L70.5,177z"/>
	<path class="st13" d="M101.8,179.2l-15.1,50.4c5.7,0.4,11.7-1.7,17.6-5.7l-1-43.6L101.8,179.2z"/>
	<path class="st20" d="M104.3,224c8.2-5.6,16.1-14.8,22.1-26.2v-0.1c0,0-9.3-12.9-14.6-16.6s-8.5-0.7-8.5-0.7L104.3,224z"/>
	<path class="st12" d="M102.8,173.3l7.8-42.8c0.2-1-0.6-1.2-1.1-0.3c-1.9,3.4-5.1,10.2-8.1,21.9c-4.2,16.6-3.4,23.2-0.3,23.2
		C101.8,175.4,102.6,174.4,102.8,173.3z"/>
	<path class="st12" d="M97.8,182.9L69,209.6c-0.7,0.6-0.7,1.9-0.1,1.8c2.4-0.3,7.3-1.9,15.3-8.1c11.3-8.8,15.5-15.6,15.1-19.9
		C99.3,182.4,98.5,182.2,97.8,182.9z"/>
	<path class="st12" d="M104.6,181.4l21,16c0.5,0.4,1.3-0.7,1.2-1.5c-1-5.2-3.5-10-7.2-13.8c-7.2-7.8-12.1-7.6-14.8-3.3
		C104.1,179.8,104.1,181,104.6,181.4z"/>
</g>
<g id="freepik--Server--inject-4">
	<path class="st11" d="M351.5,215.4l-38.3,19.9c-0.8,0.4-1.2,1.2-1.3,2v94.6c0,0.8,0.5,1.5,1.3,2l38.3,19.9c0.8,0.4,1.8,0.4,2.6,0
		l38.3-19.9c0.8-0.4,1.2-1.2,1.3-2v-94.6c0-0.8-0.5-1.6-1.3-2L354,215.4C353.2,215,352.3,215,351.5,215.4z"/>
	<path class="st18" d="M393.6,237.2v94.6c0,0.8-0.5,1.5-1.3,2L354,353.7c-0.4,0.2-0.8,0.3-1.3,0.3v-97.3c0.4,0,0.9-0.1,1.3-0.3
		l38.3-19.9l0.3-0.3l0.5-0.3C393.4,236.4,393.6,236.8,393.6,237.2z"/>
	<path class="st17" d="M317.9,246.6l28.7,14.9c0.8,0.4,1.2,1.2,1.3,2v9.8c0,0.7-0.6,1-1.3,0.7L317.9,259c-0.8-0.4-1.2-1.2-1.3-2
		v-9.8C316.7,246.5,317.2,246.2,317.9,246.6z"/>
	<path class="st4" d="M319.1,250.9c0.1,0.8,0.5,1.5,1.3,1.9l23.9,12.4c0.7,0.4,1.3,0.1,1.3-0.6c-0.1-0.8-0.5-1.5-1.3-1.9l-23.9-12.4
		C319.6,249.9,319.1,250.2,319.1,250.9z"/>
	<path class="st18" d="M319.1,255.9c0.1,0.8,0.5,1.5,1.3,1.9l23.9,12.4c0.7,0.4,1.3,0.1,1.3-0.6c-0.1-0.8-0.5-1.5-1.3-1.9
		l-23.9-12.4C319.6,254.9,319.1,255.2,319.1,255.9z"/>
	<path class="st4" d="M320.4,255.3l13.1,6.8v2.5l-13.1-6.8c-0.7-0.4-1.2-1.1-1.3-1.9C319.1,255.2,319.6,254.9,320.4,255.3z"/>
	<path class="st17" d="M317.9,264l28.7,14.9c0.8,0.4,1.2,1.2,1.3,2v9.8c0,0.7-0.6,1-1.3,0.7l-28.7-14.9c-0.8-0.4-1.2-1.2-1.3-2v-9.8
		C316.7,263.9,317.2,263.6,317.9,264z"/>
	<path class="st4" d="M319.1,268.3c0.1,0.8,0.5,1.5,1.3,1.9l23.9,12.4c0.7,0.4,1.3,0.1,1.3-0.6c-0.1-0.8-0.5-1.5-1.3-1.9l-23.9-12.4
		C319.6,267.4,319.1,267.6,319.1,268.3z"/>
	<path class="st18" d="M319.1,273.3c0.1,0.8,0.5,1.5,1.3,1.9l23.9,12.4c0.7,0.4,1.3,0.1,1.3-0.6c-0.1-0.8-0.5-1.5-1.3-1.9
		l-23.9-12.4C319.6,272.4,319.1,272.6,319.1,273.3z"/>
	<path class="st4" d="M320.4,272.7l20.4,10.6v2.5l-20.4-10.6c-0.7-0.4-1.2-1.1-1.3-1.9C319.1,272.6,319.6,272.4,320.4,272.7z"/>
	<path class="st17" d="M317.9,281.4l28.7,14.9c0.8,0.4,1.2,1.2,1.3,2v9.8c0,0.7-0.6,1-1.3,0.7l-28.7-14.9c-0.8-0.4-1.2-1.2-1.3-2
		v-9.8C316.7,281.4,317.2,281.1,317.9,281.4z"/>
	<path class="st4" d="M319.1,285.8c0.1,0.8,0.5,1.5,1.3,1.9l23.9,12.4c0.7,0.4,1.3,0.1,1.3-0.6c-0.1-0.8-0.5-1.5-1.3-1.9l-23.9-12.4
		C319.6,284.8,319.1,285.1,319.1,285.8z"/>
	<path class="st18" d="M319.1,290.8c0.1,0.8,0.5,1.5,1.3,1.9l23.9,12.4c0.7,0.4,1.3,0.1,1.3-0.6c-0.1-0.8-0.5-1.5-1.3-1.9
		l-23.9-12.4C319.6,289.8,319.1,290.1,319.1,290.8z"/>
	<path class="st4" d="M320.4,290.2l8.3,4.3v2.5l-8.3-4.3c-0.7-0.4-1.2-1.1-1.3-1.9C319.1,290.1,319.6,289.8,320.4,290.2z"/>
	<path class="st17" d="M317.9,298.9l28.7,14.9c0.8,0.4,1.2,1.2,1.3,2v9.8c0,0.7-0.6,1-1.3,0.7l-28.7-14.9c-0.8-0.4-1.2-1.2-1.3-2
		v-9.8C316.7,298.8,317.2,298.6,317.9,298.9z"/>
	<path class="st4" d="M319.1,303.2c0.1,0.8,0.5,1.5,1.3,1.9l23.9,12.4c0.7,0.4,1.3,0.1,1.3-0.6c-0.1-0.8-0.5-1.5-1.3-1.9l-23.9-12.4
		C319.6,302.3,319.1,302.5,319.1,303.2z"/>
	<path class="st18" d="M319.1,308.2c0.1,0.8,0.5,1.5,1.3,1.9l23.9,12.4c0.7,0.4,1.3,0.1,1.3-0.6c-0.1-0.8-0.5-1.5-1.3-1.9
		l-23.9-12.4C319.6,307.3,319.1,307.5,319.1,308.2z"/>
	<path class="st4" d="M320.4,307.6l13.1,6.8v2.5l-13.1-6.8c-0.7-0.4-1.2-1.1-1.3-1.9C319.1,307.5,319.6,307.3,320.4,307.6z"/>
	<path class="st17" d="M317.9,316.4l28.7,14.9c0.8,0.4,1.2,1.2,1.3,2v9.8c0,0.7-0.6,1-1.3,0.7l-28.7-14.9c-0.8-0.4-1.2-1.2-1.3-2
		v-9.8C316.7,316.3,317.2,316,317.9,316.4z"/>
	<path class="st4" d="M319.1,320.7c0.1,0.8,0.5,1.5,1.3,1.9l23.9,12.4c0.7,0.4,1.3,0.1,1.3-0.6c-0.1-0.8-0.5-1.5-1.3-1.9l-23.9-12.4
		C319.6,319.7,319.1,320,319.1,320.7z"/>
	<path class="st18" d="M319.1,325.7c0.1,0.8,0.5,1.5,1.3,1.9l23.9,12.4c0.7,0.4,1.3,0.1,1.3-0.6c-0.1-0.8-0.5-1.5-1.3-1.9
		l-23.9-12.4C319.6,324.7,319.1,325,319.1,325.7z"/>
	<path class="st4" d="M320.4,325.1l18,9.3v2.5l-18-9.3c-0.7-0.4-1.2-1.1-1.3-1.9C319.1,325,319.6,324.7,320.4,325.1z"/>
	<path class="st11" d="M358.7,262.7c1.3-0.7,2.4-0.1,2.4,1.4v57c-0.1,1.6-1,3-2.4,3.9c-1.3,0.7-2.4,0.1-2.4-1.4v-57
		C356.4,265.1,357.3,263.6,358.7,262.7z"/>
	<path class="st18" d="M358.7,323.8c0.7-0.4,1.2-1.2,1.2-2v-57.2c0-0.7-0.5-1.1-1.2-0.7c-0.7,0.4-1.2,1.2-1.2,2v57.2
		C357.5,323.8,358.1,324.2,358.7,323.8z"/>
	<path class="st4" d="M358.7,323.8c0.7-0.4,1.2-1.2,1.2-2v-27.3l-2.4,1.2v27.3C357.5,323.8,358.1,324.2,358.7,323.8z"/>
	<path class="st11" d="M366,259c1.3-0.7,2.4-0.1,2.4,1.4v57c-0.1,1.6-1,3-2.4,3.9c-1.3,0.7-2.4,0.1-2.4-1.4v-57
		C363.6,261.3,364.5,259.9,366,259z"/>
	<path class="st4" d="M366,320.1c0.7-0.4,1.2-1.2,1.2-2v-57.2c0-0.7-0.5-1.1-1.2-0.7c-0.7,0.4-1.2,1.2-1.2,2v57.2
		C364.8,320.1,365.3,320.4,366,320.1z"/>
	<path class="st11" d="M373.2,255.2c1.3-0.7,2.4-0.1,2.4,1.4v57c-0.1,1.6-1,3-2.4,3.9c-1.3,0.7-2.4,0.1-2.4-1.4v-57
		C370.8,257.6,371.7,256.1,373.2,255.2z"/>
	<path class="st18" d="M373.2,316.3c0.7-0.4,1.2-1.2,1.2-2v-57.2c0-0.7-0.5-1.1-1.2-0.7c-0.7,0.4-1.2,1.2-1.2,2v57.2
		C372,316.4,372.5,316.7,373.2,316.3z"/>
	<path class="st4" d="M373.2,316.3c0.7-0.4,1.2-1.2,1.2-2v-44.2l-2.4,1.2v44.2C372,316.4,372.5,316.7,373.2,316.3z"/>
	<path class="st11" d="M380.4,251.5c1.3-0.7,2.4-0.1,2.4,1.4v57c-0.1,1.6-0.9,3-2.4,3.9c-1.3,0.7-2.4,0.1-2.4-1.4v-57.1
		C378,253.8,378.9,252.4,380.4,251.5z"/>
	<path class="st18" d="M380.4,312.6c0.7-0.4,1.2-1.2,1.2-2v-57.2c0-0.7-0.5-1.1-1.2-0.7c-0.7,0.4-1.2,1.2-1.2,2v57.2
		C379.2,312.6,379.7,312.9,380.4,312.6z"/>
	<path class="st4" d="M380.4,312.6c0.7-0.4,1.2-1.2,1.2-2V301l-2.4,1.2v9.7C379.2,312.6,379.7,312.9,380.4,312.6z"/>
	<path class="st11" d="M387.6,247.8c1.3-0.7,2.4-0.1,2.4,1.4v57c-0.1,1.6-1,3-2.4,3.9c-1.3,0.7-2.4,0.1-2.4-1.4v-57
		C385.3,250.1,386.1,248.6,387.6,247.8z"/>
	<path class="st18" d="M387.6,308.8c0.7-0.4,1.2-1.2,1.2-2v-57.2c0-0.7-0.5-1.1-1.2-0.7c-0.7,0.4-1.2,1.2-1.2,2v57.2
		C386.4,308.9,386.9,309.2,387.6,308.8z"/>
	<path class="st4" d="M387.6,308.8c0.7-0.4,1.2-1.2,1.2-2v-29.8l-2.4,1.2v29.8C386.4,308.9,386.9,309.2,387.6,308.8z"/>
	<path class="st11" d="M357.4,332l31.6-16.4c0.6-0.3,1-0.1,1,0.5v10.3c0,0.6-0.4,1.2-1,1.6l-31.6,16.4c-0.6,0.3-1,0.1-1-0.5v-10.3
		C356.4,333,356.8,332.4,357.4,332z"/>
	<path class="st18" d="M358.7,335.1c0,0.7,0.6,0.9,1.3,0.6l26.4-13.7c0.7-0.4,1.2-1.1,1.3-1.9c0-0.7-0.6-0.9-1.3-0.6L360,333.2
		C359.2,333.6,358.7,334.3,358.7,335.1z"/>
	<path class="st4" d="M358.7,335.1c0,0.7,0.6,0.9,1.3,0.6l19.2-10v-2.5l-19.2,10C359.2,333.6,358.7,334.3,358.7,335.1z"/>
	<path class="st18" d="M358.7,340.1c0,0.7,0.6,0.9,1.3,0.6l26.4-13.7c0.7-0.4,1.2-1.1,1.3-1.9c0-0.7-0.6-0.9-1.3-0.6L360,338.1
		C359.2,338.6,358.7,339.3,358.7,340.1z"/>
	<path class="st4" d="M358.7,340.1c0,0.7,0.6,0.9,1.3,0.6l7.2-3.7v-2.5l-7.2,3.7C359.2,338.6,358.7,339.3,358.7,340.1z"/>
	<path class="st17" d="M392.3,235.2L354,215.4c-0.8-0.4-1.8-0.4-2.6,0l-38.3,19.9c-0.4,0.1-0.6,0.5-0.5,0.9c0.1,0.2,0.3,0.4,0.5,0.4
		l38.3,19.9c0.8,0.4,1.8,0.4,2.6,0l38.3-19.9c0.4-0.1,0.6-0.5,0.5-0.9C392.8,235.5,392.6,235.3,392.3,235.2z"/>
	<path class="st18" d="M352,251.7l-29.7-15.4c-0.5-0.3-0.7-0.7-0.8-1.2v-0.9c0-0.5,0.3-0.9,0.8-1.2l29.7-15.4c0.5-0.2,1.1-0.2,1.5,0
		l29.7,15.4c0.5,0.3,0.7,0.7,0.8,1.2v0.9c0,0.5-0.3,0.9-0.8,1.2l-29.7,15.4C353,251.9,352.4,251.9,352,251.7z"/>
	<path class="st17" d="M322.3,233.8l29.7,15.4c0.5,0.2,1.1,0.2,1.5,0l29.7-15.4c0.4-0.2,0.4-0.6,0-0.8l-29.7-14.9
		c-0.5-0.2-1.1-0.2-1.5,0L322.3,233C321.8,233.2,321.8,233.6,322.3,233.8z"/>
	<path class="st11" d="M352.7,249.4v2.5c-0.3,0-0.5-0.1-0.8-0.2l-29.7-15.4c-0.5-0.3-0.7-0.7-0.8-1.2v-0.9c0-0.4,0.2-0.8,0.6-1.1
		c-0.3,0.2-0.2,0.5,0.1,0.7l29.7,15.4C352.2,249.3,352.5,249.4,352.7,249.4z"/>
	<path class="st18" d="M352,244.2l-20.1-10.4c-0.5-0.3-0.7-0.7-0.8-1.2v-0.9c0-0.5,0.3-0.9,0.8-1.2l12.9-6.7c0.5-0.3,0.9-0.6,1.3-1
		l6.2-7.4c0.3-0.4,0.9-0.5,1.3-0.2l20.1,10.4c0.5,0.3,0.7,0.7,0.8,1.2v5.9c0,0.5-0.3,0.9-0.8,1.2l-20.1,10.4
		C353,244.5,352.4,244.5,352,244.2z"/>
	<path class="st17" d="M353.5,241.7l12.9-6.7c0.5-0.3,0.9-0.6,1.3-1.1l6.2-7.4c0.3-0.3,0.2-0.7-0.1-1c0,0-0.1-0.1-0.1-0.1
		l-20.1-10.4c-0.4-0.2-1-0.1-1.3,0.2l-6.2,7.4c-0.3,0.4-0.7,0.8-1.2,1.1l-13,6.6c-0.2,0.1-0.4,0.3-0.3,0.5c0,0.1,0.2,0.2,0.3,0.3
		l20.1,10.4C352.4,241.9,353,242,353.5,241.7z"/>
	<path class="st11" d="M373.6,225.5l-20.1-10.4c-0.4-0.2-1-0.1-1.3,0.2l-6.2,7.4c-0.2,0.2-0.4,0.4-0.6,0.6c0,0,21.7,11.2,21.7,11.2
		c0.2-0.2,0.4-0.4,0.6-0.6l6.2-7.4c0.3-0.3,0.2-0.7-0.1-1C373.7,225.6,373.6,225.6,373.6,225.5z"/>
	<path class="st4" d="M336.7,230.7c0.6-0.3,1.2-0.3,1.8,0c0.3,0.1,0.4,0.4,0.3,0.6c-0.1,0.1-0.2,0.3-0.3,0.3c-0.6,0.3-1.2,0.3-1.8,0
		c-0.3-0.1-0.4-0.4-0.3-0.6C336.5,230.9,336.6,230.8,336.7,230.7z"/>
	<path class="st4" d="M340.4,232.6c0.6-0.3,1.2-0.3,1.8,0c0.3,0.1,0.4,0.4,0.3,0.6c-0.1,0.1-0.2,0.3-0.3,0.3c-0.6,0.2-1.2,0.2-1.8,0
		c-0.3-0.1-0.4-0.4-0.3-0.6C340.1,232.7,340.2,232.6,340.4,232.6z"/>
	<path class="st18" d="M344,234.4c0.6-0.3,1.2-0.3,1.8,0c0.3,0.1,0.4,0.4,0.3,0.6c-0.1,0.1-0.2,0.3-0.3,0.3c-0.6,0.3-1.2,0.3-1.8,0
		c-0.3-0.1-0.4-0.4-0.3-0.6C343.7,234.6,343.8,234.5,344,234.4z"/>
	<path class="st18" d="M347.5,236.3c0.6-0.3,1.2-0.3,1.8,0c0.3,0.1,0.4,0.4,0.3,0.6c-0.1,0.1-0.2,0.3-0.3,0.3
		c-0.6,0.3-1.2,0.3-1.8,0c-0.3-0.1-0.4-0.4-0.3-0.6C347.2,236.5,347.4,236.4,347.5,236.3z"/>
	<ellipse class="st4" cx="340.4" cy="229.8" rx="1.3" ry="0.7"/>
	<path class="st18" d="M343.1,231.2c0.6-0.3,1.2-0.3,1.8,0c0.3,0.1,0.4,0.4,0.3,0.6c-0.1,0.1-0.2,0.3-0.3,0.3
		c-0.6,0.2-1.2,0.2-1.8,0C342.6,231.9,342.6,231.4,343.1,231.2z"/>
	<ellipse class="st4" cx="347.6" cy="233.5" rx="1.3" ry="0.7"/>
	<path class="st18" d="M350.3,234.9c0.6-0.2,1.2-0.2,1.8,0c0.3,0.1,0.4,0.4,0.3,0.6c-0.1,0.1-0.2,0.3-0.3,0.3
		c-0.6,0.3-1.2,0.3-1.8,0c-0.3-0.1-0.4-0.4-0.3-0.6C350,235.1,350.1,235,350.3,234.9z"/>
	<path class="st18" d="M342.1,227.9c0.6-0.2,1.2-0.2,1.8,0c0.3,0.1,0.4,0.4,0.3,0.6c-0.1,0.1-0.2,0.3-0.3,0.3
		c-0.6,0.3-1.2,0.3-1.8,0c-0.3-0.1-0.4-0.4-0.3-0.6C341.9,228.1,342,228,342.1,227.9z"/>
	<path class="st4" d="M345.8,229.8c0.6-0.3,1.2-0.3,1.8,0c0.3,0.1,0.4,0.4,0.3,0.6c-0.1,0.1-0.2,0.3-0.3,0.3c-0.6,0.2-1.2,0.2-1.8,0
		c-0.3-0.1-0.4-0.4-0.3-0.6C345.5,229.9,345.6,229.8,345.8,229.8z"/>
	<path class="st18" d="M349.4,231.6c0.6-0.3,1.2-0.3,1.8,0c0.3,0.1,0.4,0.4,0.3,0.6c-0.1,0.1-0.2,0.3-0.3,0.3
		c-0.6,0.2-1.2,0.2-1.8,0c-0.3-0.1-0.4-0.4-0.3-0.6C349.1,231.8,349.2,231.7,349.4,231.6z"/>
	<path class="st4" d="M351.2,238.2c0.6-0.3,1.2-0.3,1.8,0c0.3,0.1,0.4,0.4,0.3,0.6c-0.1,0.1-0.2,0.3-0.3,0.3c-0.6,0.3-1.2,0.3-1.8,0
		c-0.3-0.1-0.4-0.4-0.3-0.6C350.9,238.3,351,238.2,351.2,238.2z"/>
	<ellipse class="st18" cx="354.8" cy="237.2" rx="1.3" ry="0.7"/>
	<path class="st18" d="M353,233.5c0.6-0.3,1.2-0.3,1.8,0c0.3,0.1,0.4,0.4,0.3,0.6c-0.1,0.1-0.2,0.3-0.3,0.3c-0.6,0.2-1.2,0.2-1.8,0
		c-0.3-0.1-0.4-0.4-0.3-0.6C352.7,233.7,352.8,233.6,353,233.5z"/>
	<path class="st4" d="M344.9,226.5c0.6-0.3,1.2-0.3,1.8,0c0.3,0.1,0.4,0.4,0.3,0.6c-0.1,0.1-0.2,0.3-0.3,0.3c-0.6,0.3-1.2,0.3-1.8,0
		c-0.3-0.1-0.4-0.4-0.3-0.6C344.6,226.7,344.7,226.6,344.9,226.5z"/>
	<ellipse class="st18" cx="349.4" cy="228.8" rx="1.3" ry="0.7"/>
	<path class="st4" d="M352.1,230.2c0.6-0.2,1.2-0.2,1.8,0c0.3,0.1,0.4,0.4,0.3,0.6c-0.1,0.1-0.2,0.3-0.3,0.3c-0.6,0.3-1.2,0.3-1.8,0
		c-0.3-0.1-0.4-0.4-0.3-0.6C351.8,230.4,351.9,230.3,352.1,230.2z"/>
	<ellipse class="st18" cx="356.6" cy="232.6" rx="1.3" ry="0.7"/>
	<path class="st4" d="M356.6,235.3c0.6-0.3,1.2-0.3,1.8,0c0.3,0.1,0.4,0.4,0.3,0.6c-0.1,0.1-0.2,0.3-0.3,0.3c-0.6,0.3-1.2,0.3-1.8,0
		c-0.3-0.1-0.4-0.4-0.3-0.6C356.3,235.5,356.4,235.4,356.6,235.3z"/>
	<path class="st18" d="M359.3,233.9c0.6-0.3,1.2-0.3,1.8,0c0.5,0.3,0.5,0.7,0,0.9c-0.6,0.2-1.2,0.2-1.8,0c-0.3-0.1-0.4-0.4-0.3-0.6
		C359,234.1,359.1,234,359.3,233.9z"/>
	<path class="st11" d="M352.8,241.9v2.5c-0.3,0-0.6,0-0.8-0.2l-20.1-10.4c-0.5-0.3-0.7-0.7-0.8-1.2v-0.9c0-0.4,0.3-0.8,0.6-1.1
		c-0.3,0.2-0.2,0.5,0.1,0.7l20.1,10.4C352.2,241.9,352.5,241.9,352.8,241.9z"/>
	<path class="st18" d="M348.7,222.5L348.7,222.5c0.2-0.2,0.6-0.3,0.9-0.2l17.5,9c0.2,0.1,0.3,0.4,0.2,0.6c0,0,0,0,0,0.1l0,0
		c-0.2,0.2-0.6,0.3-0.9,0.2l-17.5-9C348.6,223.1,348.5,222.8,348.7,222.5C348.7,222.5,348.7,222.5,348.7,222.5z"/>
	<path class="st4" d="M348.7,222.5L348.7,222.5c0.2-0.2,0.6-0.3,0.9-0.2l13,6.7l-0.7,0.9l-13-6.7
		C348.6,223.1,348.5,222.8,348.7,222.5C348.7,222.5,348.7,222.5,348.7,222.5z"/>
	<path class="st18" d="M350.2,220.7L350.2,220.7c0.2-0.2,0.6-0.3,0.9-0.2l17.5,9.1c0.2,0.1,0.3,0.4,0.2,0.6c0,0,0,0,0,0.1l0,0
		c-0.2,0.2-0.6,0.3-0.9,0.2l-17.5-9.1C350.1,221.3,350,221,350.2,220.7C350.1,220.8,350.1,220.8,350.2,220.7z"/>
	<path class="st4" d="M350.2,220.7L350.2,220.7c0.2-0.2,0.6-0.3,0.9-0.2l4.3,2.3l-0.7,0.9l-4.3-2.2C350,221.3,350,221,350.2,220.7
		C350.1,220.8,350.1,220.8,350.2,220.7z"/>
	<path class="st18" d="M351.6,219L351.6,219c0.2-0.2,0.6-0.3,0.9-0.2l17.5,9.1c0.3,0.1,0.3,0.4,0.2,0.6c0,0,0,0,0,0.1l0,0
		c-0.2,0.2-0.6,0.3-0.9,0.2l-17.5-9.1C351.5,219.6,351.4,219.3,351.6,219C351.6,219,351.6,219,351.6,219z"/>
	<path class="st4" d="M351.6,219L351.6,219c0.2-0.2,0.6-0.3,0.9-0.2l9.1,4.7l-0.7,0.9l-9.1-4.7C351.5,219.6,351.4,219.3,351.6,219
		C351.5,219.1,351.6,219,351.6,219z"/>
	<path class="st18" d="M353,217.3L353,217.3c0.2-0.2,0.6-0.3,0.9-0.2l17.5,9c0.3,0.1,0.3,0.4,0.2,0.6c0,0,0,0,0,0.1l0,0
		c-0.2,0.2-0.6,0.3-0.9,0.2l-17.5-9C353,217.8,352.9,217.6,353,217.3C353,217.3,353,217.3,353,217.3z"/>
	<path class="st4" d="M353,217.3L353,217.3c0.2-0.2,0.6-0.3,0.9-0.2l15.9,8.2l-0.7,0.9l-15.9-8.3C353,217.8,352.9,217.6,353,217.3
		C353,217.3,353,217.3,353,217.3z"/>
</g>
<g id="freepik--server--inject-4">
	<path class="st21" d="M330,360"/>
	<path class="st21" d="M321.5,363.1"/>
	<path class="st21" d="M330,355"/>
	<path class="st21" d="M316.7,360.6"/>
	<path class="st21" d="M330,352.5"/>
	<path class="st21" d="M314.3,359.3"/>
	<path class="st11" d="M281.7,251.5l-38.3,19.9c-0.8,0.4-1.2,1.2-1.3,2V368c0,0.8,0.5,1.5,1.3,2l38.3,19.9c0.8,0.4,1.8,0.4,2.6,0
		l38.3-19.9c0.8-0.4,1.2-1.2,1.3-2v-94.6c0-0.8-0.5-1.6-1.3-2l-38.3-19.9C283.5,251.2,282.5,251.2,281.7,251.5z"/>
	<path class="st18" d="M323.9,273.4V368c0,0.8-0.5,1.5-1.3,2l-38.3,19.9c-0.4,0.2-0.8,0.3-1.3,0.3v-97.3c0.4,0,0.9-0.1,1.3-0.3
		l38.3-19.9l0.3-0.3l0.5-0.3C323.7,272.5,323.8,272.9,323.9,273.4z"/>
	<path class="st17" d="M248.2,282.7l28.7,14.9c0.8,0.4,1.2,1.2,1.3,2v9.8c0,0.7-0.6,1-1.3,0.7l-28.7-14.9c-0.8-0.4-1.2-1.2-1.3-2
		v-9.8C247,282.6,247.5,282.3,248.2,282.7z"/>
	<path class="st4" d="M249.4,287c0.1,0.8,0.5,1.5,1.3,1.9l23.9,12.4c0.7,0.4,1.3,0.1,1.3-0.6c-0.1-0.8-0.5-1.5-1.3-1.9l-23.9-12.4
		C249.9,286.1,249.4,286.3,249.4,287z"/>
	<path class="st18" d="M249.4,292c0.1,0.8,0.5,1.5,1.3,1.9l23.9,12.4c0.7,0.4,1.3,0.1,1.3-0.6c-0.1-0.8-0.5-1.5-1.3-1.9l-23.9-12.4
		C249.9,291.1,249.4,291.3,249.4,292z"/>
	<path class="st4" d="M250.6,291.4l13.1,6.8v2.5l-13.1-6.8c-0.7-0.4-1.2-1.1-1.3-1.9C249.4,291.3,249.9,291.1,250.6,291.4z"/>
	<path class="st17" d="M248.2,300.2l28.7,14.9c0.8,0.4,1.2,1.2,1.3,2v9.8c0,0.7-0.6,1-1.3,0.7l-28.7-14.9c-0.8-0.4-1.2-1.2-1.3-2
		v-9.8C247,300.1,247.5,299.8,248.2,300.2z"/>
	<path class="st4" d="M249.4,304.5c0.1,0.8,0.5,1.5,1.3,1.9l23.9,12.4c0.7,0.4,1.3,0.1,1.3-0.6c-0.1-0.8-0.5-1.5-1.3-1.9l-23.9-12.4
		C249.9,303.5,249.4,303.8,249.4,304.5z"/>
	<path class="st18" d="M249.4,309.5c0.1,0.8,0.5,1.5,1.3,1.9l23.9,12.4c0.7,0.4,1.3,0.1,1.3-0.6c-0.1-0.8-0.5-1.5-1.3-1.9
		l-23.9-12.4C249.9,308.5,249.4,308.8,249.4,309.5z"/>
	<path class="st4" d="M250.6,308.9l20.4,10.6v2.5l-20.4-10.6c-0.7-0.4-1.2-1.1-1.3-1.9C249.4,308.8,249.9,308.5,250.6,308.9z"/>
	<path class="st17" d="M248.2,317.6l28.7,14.9c0.8,0.4,1.2,1.2,1.3,2v9.8c0,0.7-0.6,1-1.3,0.7l-28.7-14.9c-0.8-0.4-1.2-1.2-1.3-2
		v-9.8C247,317.5,247.5,317.2,248.2,317.6z"/>
	<path class="st4" d="M249.4,321.9c0.1,0.8,0.5,1.5,1.3,1.9l23.9,12.4c0.7,0.4,1.3,0.1,1.3-0.6c-0.1-0.8-0.5-1.5-1.3-1.9l-23.9-12.4
		C249.9,321,249.4,321.2,249.4,321.9z"/>
	<path class="st18" d="M249.4,326.9c0.1,0.8,0.5,1.5,1.3,1.9l23.9,12.4c0.7,0.4,1.3,0.1,1.3-0.6c-0.1-0.8-0.5-1.5-1.3-1.9
		l-23.9-12.4C249.9,326,249.4,326.2,249.4,326.9z"/>
	<path class="st4" d="M250.6,326.3l8.3,4.3v2.5l-8.3-4.3c-0.7-0.4-1.2-1.1-1.3-1.9C249.4,326.2,249.9,326,250.6,326.3z"/>
	<path class="st17" d="M248.2,335.1l28.7,14.9c0.8,0.4,1.2,1.2,1.3,2v9.8c0,0.7-0.6,1-1.3,0.7l-28.7-14.9c-0.8-0.4-1.2-1.2-1.3-2
		v-9.8C247,335,247.5,334.7,248.2,335.1z"/>
	<path class="st4" d="M249.4,339.4c0.1,0.8,0.5,1.5,1.3,1.9l23.9,12.4c0.7,0.4,1.3,0.1,1.3-0.6c-0.1-0.8-0.5-1.5-1.3-1.9l-23.9-12.4
		C249.9,338.4,249.4,338.7,249.4,339.4z"/>
	<path class="st18" d="M249.4,344.4c0.1,0.8,0.5,1.5,1.3,1.9l23.9,12.4c0.7,0.4,1.3,0.1,1.3-0.6c-0.1-0.8-0.5-1.5-1.3-1.9
		l-23.9-12.4C249.9,343.4,249.4,343.7,249.4,344.4z"/>
	<path class="st4" d="M250.6,343.8l13.1,6.8v2.5l-13.1-6.8c-0.7-0.4-1.2-1.1-1.3-1.9C249.4,343.7,249.9,343.4,250.6,343.8z"/>
	<path class="st17" d="M248.2,352.5l28.7,14.9c0.8,0.4,1.2,1.2,1.3,2v9.8c0,0.7-0.6,1-1.3,0.7L248.2,365c-0.8-0.4-1.2-1.2-1.3-2
		v-9.8C247,352.5,247.5,352.1,248.2,352.5z"/>
	<path class="st4" d="M249.4,356.8c0.1,0.8,0.5,1.5,1.3,1.9l23.9,12.4c0.7,0.4,1.3,0.1,1.3-0.6c-0.1-0.8-0.5-1.5-1.3-1.9l-23.9-12.4
		C249.9,355.9,249.4,356.2,249.4,356.8z"/>
	<path class="st18" d="M249.4,361.8c0.1,0.8,0.5,1.5,1.3,1.9l23.9,12.4c0.7,0.4,1.3,0.1,1.3-0.6c-0.1-0.8-0.5-1.5-1.3-1.9
		l-23.9-12.4C249.9,360.9,249.4,361.1,249.4,361.8z"/>
	<path class="st4" d="M250.6,361.3l18,9.3v2.5l-18-9.3c-0.7-0.4-1.2-1.1-1.3-1.9C249.4,361.1,249.9,360.9,250.6,361.3z"/>
	<path class="st11" d="M289,298.9c1.3-0.7,2.4-0.1,2.4,1.4v57c-0.1,1.6-1,3-2.4,3.9c-1.3,0.7-2.4,0.1-2.4-1.4v-57
		C286.7,301.2,287.6,299.8,289,298.9z"/>
	<path class="st18" d="M289,360c0.7-0.4,1.2-1.2,1.2-2v-57.2c0-0.7-0.5-1.1-1.2-0.7c-0.7,0.4-1.2,1.2-1.2,2v57.2
		C287.8,360,288.4,360.3,289,360z"/>
	<path class="st4" d="M289,360c0.7-0.4,1.2-1.2,1.2-2v-27.3l-2.4,1.2v27.3C287.8,360,288.4,360.3,289,360z"/>
	<path class="st11" d="M296.2,295.1c1.3-0.7,2.4-0.1,2.4,1.4v57c-0.1,1.6-1,3-2.4,3.9c-1.3,0.7-2.4,0.1-2.4-1.4v-57
		C293.9,297.5,294.8,296,296.2,295.1z"/>
	<path class="st4" d="M296.2,356.2c0.7-0.4,1.2-1.2,1.2-2v-57.2c0-0.7-0.5-1.1-1.2-0.7c-0.7,0.4-1.2,1.2-1.2,2v57.2
		C295,356.2,295.6,356.6,296.2,356.2z"/>
	<path class="st11" d="M303.4,291.4c1.3-0.7,2.4-0.1,2.4,1.4v57c-0.1,1.6-1,3-2.4,3.9c-1.3,0.7-2.4,0.1-2.4-1.4v-57
		C301.1,293.7,302,292.3,303.4,291.4z"/>
	<path class="st18" d="M303.4,352.5c0.7-0.4,1.2-1.2,1.2-2v-57.2c0-0.7-0.5-1.1-1.2-0.7c-0.7,0.4-1.2,1.2-1.2,2v57.2
		C302.2,352.5,302.8,352.8,303.4,352.5z"/>
	<path class="st4" d="M303.4,352.5c0.7-0.4,1.2-1.2,1.2-2v-44.2l-2.4,1.2v44.2C302.2,352.5,302.8,352.8,303.4,352.5z"/>
	<path class="st11" d="M310.7,287.7c1.3-0.7,2.4-0.1,2.4,1.4v57c-0.1,1.6-0.9,3-2.4,3.9c-1.3,0.7-2.4,0.1-2.4-1.4v-57.1
		C308.3,290,309.2,288.5,310.7,287.7z"/>
	<path class="st18" d="M310.7,348.7c0.7-0.4,1.2-1.2,1.2-2v-57.2c0-0.7-0.5-1.1-1.2-0.7c-0.7,0.4-1.2,1.2-1.2,2V348
		C309.5,348.8,310,349.1,310.7,348.7z"/>
	<path class="st4" d="M310.7,348.7c0.7-0.4,1.2-1.2,1.2-2v-9.7l-2.4,1.2v9.6C309.5,348.8,310,349.1,310.7,348.7z"/>
	<path class="st11" d="M317.9,283.9c1.3-0.7,2.4-0.1,2.4,1.4v57c-0.1,1.6-1,3-2.4,3.9c-1.3,0.7-2.4,0.1-2.4-1.4v-57
		C315.5,286.2,316.4,284.8,317.9,283.9z"/>
	<path class="st18" d="M317.9,345c0.7-0.4,1.2-1.2,1.2-2v-57.2c0-0.7-0.5-1.1-1.2-0.7c-0.7,0.4-1.2,1.2-1.2,2v57.2
		C316.7,345,317.2,345.3,317.9,345z"/>
	<path class="st4" d="M317.9,345c0.7-0.4,1.2-1.2,1.2-2v-29.8l-2.4,1.2v29.8C316.7,345,317.2,345.3,317.9,345z"/>
	<path class="st11" d="M287.6,368.2l31.6-16.4c0.6-0.3,1-0.1,1,0.5v10.3c0,0.6-0.4,1.2-1,1.6l-31.6,16.4c-0.6,0.3-1,0.1-1-0.5v-10.3
		C286.7,369.1,287,368.5,287.6,368.2z"/>
	<path class="st18" d="M288.9,371.2c0,0.7,0.6,0.9,1.3,0.6l26.4-13.7c0.7-0.4,1.2-1.1,1.3-1.9c0-0.7-0.6-0.9-1.3-0.6l-26.4,13.7
		C289.5,369.7,289,370.4,288.9,371.2z"/>
	<path class="st4" d="M288.9,371.2c0,0.7,0.6,0.9,1.3,0.6l19.2-10v-2.5l-19.2,10C289.5,369.7,289,370.4,288.9,371.2z"/>
	<path class="st18" d="M288.9,376.2c0,0.7,0.6,1,1.3,0.6l26.4-13.7c0.7-0.4,1.2-1.1,1.3-1.9c0-0.7-0.6-0.9-1.3-0.6l-26.4,13.7
		C289.5,374.7,289,375.4,288.9,376.2z"/>
	<path class="st4" d="M288.9,376.2c0,0.7,0.6,1,1.3,0.6l7.2-3.7v-2.5l-7.2,3.7C289.5,374.7,289,375.4,288.9,376.2z"/>
	<path class="st17" d="M322.6,271.4l-38.3-19.9c-0.8-0.4-1.8-0.4-2.6,0l-38.3,19.9c-0.4,0.1-0.6,0.5-0.5,0.9
		c0.1,0.2,0.3,0.4,0.5,0.4l38.3,19.9c0.8,0.4,1.8,0.4,2.6,0l38.3-19.9c0.4-0.1,0.6-0.5,0.5-0.9C323,271.6,322.8,271.5,322.6,271.4z"
		/>
	<path class="st18" d="M282.2,287.9l-29.7-15.4c-0.5-0.3-0.7-0.7-0.8-1.2v-0.9c0-0.5,0.3-0.9,0.8-1.2l29.7-15.4
		c0.5-0.2,1.1-0.2,1.5,0l29.7,15.4c0.5,0.3,0.7,0.7,0.8,1.2v0.9c0,0.5-0.3,0.9-0.8,1.2l-29.7,15.4
		C283.3,288.1,282.7,288.1,282.2,287.9z"/>
	<path class="st17" d="M252.5,270l29.7,15.4c0.5,0.2,1.1,0.2,1.5,0l29.7-15.4c0.4-0.2,0.4-0.6,0-0.8l-29.7-14.9
		c-0.5-0.2-1.1-0.2-1.5,0l-29.7,14.9C252.1,269.4,252.1,269.7,252.5,270z"/>
	<path class="st11" d="M283,285.5v2.5c-0.3,0-0.5-0.1-0.8-0.2l-29.7-15.4c-0.5-0.3-0.7-0.7-0.8-1.2v-0.9c0-0.4,0.3-0.8,0.6-1.1
		c-0.3,0.2-0.2,0.5,0.1,0.7l29.7,15.4C282.5,285.5,282.8,285.5,283,285.5z"/>
	<path class="st18" d="M282.2,280.4L262.1,270c-0.4-0.3-0.7-0.7-0.8-1.2v-0.9c0-0.5,0.3-0.9,0.8-1.2L275,260
		c0.5-0.3,0.9-0.6,1.3-1.1l6.2-7.4c0.3-0.4,0.9-0.5,1.3-0.2l20.1,10.4c0.5,0.3,0.7,0.7,0.8,1.2v5.9c0,0.5-0.3,0.9-0.8,1.2
		l-20.1,10.4C283.3,280.6,282.7,280.6,282.2,280.4z"/>
	<path class="st17" d="M283.8,277.9l12.9-6.7c0.5-0.3,0.9-0.6,1.3-1.1l6.2-7.4c0.3-0.3,0.2-0.7-0.1-1c0,0-0.1-0.1-0.1-0.1
		l-20.1-10.4c-0.4-0.2-1-0.1-1.3,0.2l-6.2,7.4c-0.3,0.4-0.7,0.8-1.2,1.1l-13,6.6c-0.2,0.1-0.4,0.3-0.3,0.5c0,0.1,0.2,0.2,0.3,0.3
		l20.1,10.4C282.7,278.1,283.3,278.1,283.8,277.9z"/>
	<path class="st11" d="M303.9,261.7l-20.1-10.4c-0.4-0.2-1-0.1-1.3,0.2l-6.2,7.4c-0.2,0.2-0.4,0.4-0.6,0.6c0,0,21.6,11.2,21.6,11.2
		c0.2-0.2,0.4-0.4,0.6-0.6l6.2-7.4c0.3-0.3,0.2-0.7-0.1-1C304,261.7,303.9,261.7,303.9,261.7z"/>
	<path class="st4" d="M267,266.9c0.6-0.3,1.2-0.3,1.8,0c0.3,0.1,0.4,0.4,0.3,0.6c-0.1,0.1-0.2,0.3-0.3,0.3c-0.6,0.3-1.2,0.3-1.8,0
		c-0.3-0.1-0.4-0.4-0.3-0.6C266.8,267,266.9,266.9,267,266.9z"/>
	<path class="st4" d="M270.6,268.7c0.6-0.3,1.2-0.3,1.8,0c0.3,0.1,0.4,0.4,0.3,0.6c-0.1,0.1-0.2,0.3-0.3,0.3c-0.6,0.2-1.2,0.2-1.8,0
		c-0.3-0.1-0.4-0.4-0.3-0.6C270.3,268.9,270.5,268.8,270.6,268.7z"/>
	<path class="st18" d="M274.2,270.6c0.6-0.2,1.2-0.2,1.8,0c0.3,0.1,0.4,0.4,0.3,0.6c-0.1,0.1-0.2,0.3-0.3,0.3
		c-0.6,0.3-1.2,0.3-1.8,0c-0.3-0.1-0.4-0.4-0.3-0.6C273.9,270.8,274.1,270.6,274.2,270.6z"/>
	<path class="st18" d="M277.8,272.5c0.6-0.3,1.2-0.3,1.8,0c0.3,0.1,0.4,0.4,0.3,0.6c-0.1,0.1-0.2,0.3-0.3,0.3
		c-0.6,0.3-1.2,0.3-1.8,0c-0.3-0.1-0.4-0.4-0.3-0.6C277.6,272.6,277.7,272.5,277.8,272.5z"/>
	<path class="st4" d="M269.7,265.5c0.6-0.3,1.2-0.3,1.8,0c0.3,0.1,0.4,0.4,0.3,0.6c-0.1,0.1-0.2,0.3-0.3,0.3c-0.6,0.3-1.2,0.3-1.8,0
		c-0.3-0.1-0.4-0.4-0.3-0.6C269.4,265.6,269.6,265.5,269.7,265.5z"/>
	<ellipse class="st18" cx="274.2" cy="267.8" rx="1.3" ry="0.7"/>
	<path class="st4" d="M276.9,269.2c0.6-0.3,1.2-0.3,1.8,0c0.3,0.1,0.4,0.4,0.3,0.6c-0.1,0.1-0.2,0.3-0.3,0.3c-0.6,0.3-1.2,0.3-1.8,0
		c-0.3-0.1-0.4-0.4-0.3-0.6C276.6,269.4,276.8,269.3,276.9,269.2z"/>
	<ellipse class="st18" cx="281.5" cy="271.5" rx="1.3" ry="0.7"/>
	<path class="st18" d="M272.4,264.1c0.6-0.3,1.2-0.3,1.8,0c0.3,0.1,0.4,0.4,0.3,0.6c-0.1,0.1-0.2,0.3-0.3,0.3
		c-0.6,0.3-1.2,0.3-1.8,0c-0.3-0.1-0.4-0.4-0.3-0.6C272.1,264.2,272.3,264.1,272.4,264.1z"/>
	<path class="st4" d="M276,265.9c0.6-0.3,1.2-0.3,1.8,0c0.3,0.1,0.4,0.4,0.3,0.6c-0.1,0.1-0.2,0.3-0.3,0.3c-0.6,0.2-1.2,0.2-1.8,0
		c-0.3-0.1-0.4-0.4-0.3-0.6C275.8,266.1,275.9,266,276,265.9z"/>
	<path class="st18" d="M279.6,267.8c0.6-0.3,1.2-0.3,1.8,0c0.3,0.1,0.4,0.4,0.3,0.6c-0.1,0.1-0.2,0.3-0.3,0.3
		c-0.6,0.2-1.2,0.2-1.8,0c-0.3-0.1-0.4-0.4-0.3-0.6C279.4,268,279.5,267.8,279.6,267.8z"/>
	<path class="st4" d="M281.5,274.3c0.6-0.3,1.2-0.3,1.8,0c0.3,0.1,0.4,0.4,0.3,0.6c-0.1,0.1-0.2,0.3-0.3,0.3c-0.6,0.2-1.2,0.2-1.8,0
		c-0.3-0.1-0.4-0.4-0.3-0.6C281.2,274.5,281.3,274.4,281.5,274.3z"/>
	<path class="st18" d="M284.2,272.9c0.6-0.2,1.2-0.2,1.8,0c0.3,0.1,0.4,0.4,0.3,0.6c-0.1,0.1-0.2,0.3-0.3,0.3
		c-0.6,0.3-1.2,0.3-1.8,0c-0.3-0.1-0.4-0.4-0.3-0.6C283.9,273.1,284,272.9,284.2,272.9z"/>
	<path class="st18" d="M283.3,269.7c0.6-0.3,1.2-0.3,1.8,0c0.3,0.1,0.4,0.4,0.3,0.6c-0.1,0.1-0.2,0.3-0.3,0.3
		c-0.6,0.3-1.2,0.3-1.8,0c-0.3-0.1-0.4-0.4-0.3-0.6C283,269.8,283.1,269.7,283.3,269.7z"/>
	<ellipse class="st4" cx="276" cy="263.1" rx="1.3" ry="0.7"/>
	<path class="st18" d="M278.7,264.5c0.6-0.2,1.2-0.2,1.8,0c0.3,0.1,0.4,0.4,0.3,0.6c-0.1,0.1-0.2,0.3-0.3,0.3
		c-0.6,0.3-1.2,0.3-1.8,0C278.2,265.2,278.2,264.8,278.7,264.5z"/>
	<ellipse class="st4" cx="283.3" cy="266.9" rx="1.3" ry="0.7"/>
	<path class="st18" d="M286,268.3c0.6-0.3,1.2-0.3,1.8,0c0.3,0.1,0.4,0.4,0.3,0.6c-0.1,0.1-0.2,0.3-0.3,0.3c-0.6,0.2-1.2,0.2-1.8,0
		c-0.3-0.1-0.4-0.4-0.3-0.6C285.7,268.4,285.8,268.3,286,268.3z"/>
	<path class="st4" d="M286.9,271.5c0.6-0.3,1.2-0.3,1.8,0c0.3,0.1,0.4,0.4,0.3,0.6c-0.1,0.1-0.2,0.3-0.3,0.3c-0.6,0.3-1.2,0.3-1.8,0
		c-0.3-0.1-0.4-0.4-0.3-0.7C286.7,271.7,286.8,271.6,286.9,271.5z"/>
	<ellipse class="st18" cx="290.5" cy="270.6" rx="1.3" ry="0.7"/>
	<path class="st11" d="M283.1,278.1v2.5c-0.3,0-0.6,0-0.8-0.2L262.1,270c-0.5-0.3-0.7-0.7-0.8-1.2v-0.9c0-0.4,0.3-0.8,0.6-1.1
		c-0.3,0.2-0.2,0.5,0.1,0.7l20.1,10.4C282.5,278,282.8,278.1,283.1,278.1z"/>
	<path class="st18" d="M279,258.6L279,258.6c0.2-0.2,0.6-0.3,0.9-0.2l17.5,9.1c0.2,0.1,0.3,0.4,0.2,0.6c0,0,0,0,0,0.1v0
		c-0.2,0.2-0.6,0.3-0.9,0.2l-17.5-9.1C278.9,259.2,278.8,259,279,258.6C278.9,258.7,279,258.7,279,258.6z"/>
	<path class="st4" d="M279,258.6L279,258.6c0.2-0.2,0.6-0.3,0.9-0.2l13,6.7l-0.7,0.9l-13-6.7C278.9,259.2,278.8,259,279,258.6
		C278.9,258.7,279,258.7,279,258.6z"/>
	<path class="st18" d="M280.4,256.9L280.4,256.9c0.2-0.2,0.6-0.3,0.9-0.2l17.5,9.1c0.2,0.1,0.3,0.4,0.2,0.6c0,0,0,0,0,0.1l0,0
		c-0.2,0.2-0.6,0.3-0.9,0.2l-17.5-9.1C280.3,257.5,280.3,257.2,280.4,256.9C280.4,256.9,280.4,256.9,280.4,256.9z"/>
	<path class="st4" d="M280.4,256.9L280.4,256.9c0.2-0.2,0.6-0.3,0.9-0.2l4.3,2.3l-0.7,0.9l-4.3-2.2
		C280.3,257.5,280.2,257.2,280.4,256.9C280.4,257,280.4,256.9,280.4,256.9z"/>
	<path class="st18" d="M281.9,255.2L281.9,255.2c0.2-0.2,0.6-0.3,0.9-0.2l17.5,9.1c0.3,0.1,0.3,0.4,0.2,0.6c0,0,0,0,0,0.1l0,0
		c-0.2,0.2-0.6,0.3-0.9,0.2l-17.5-9.1C281.8,255.7,281.7,255.4,281.9,255.2C281.9,255.2,281.9,255.2,281.9,255.2z"/>
	<path class="st4" d="M281.9,255.2L281.9,255.2c0.2-0.2,0.6-0.3,0.9-0.2l9.2,4.7l-0.7,0.9l-9.1-4.7
		C281.8,255.7,281.7,255.5,281.9,255.2C281.8,255.2,281.9,255.2,281.9,255.2z"/>
	<path class="st18" d="M283.3,253.4L283.3,253.4c0.2-0.2,0.6-0.3,0.9-0.2l17.5,9c0.2,0.1,0.3,0.4,0.2,0.6c0,0,0,0,0,0.1l0,0
		c-0.2,0.2-0.6,0.3-0.9,0.2l-17.5-9.1C283.3,254,283.2,253.7,283.3,253.4C283.3,253.4,283.3,253.4,283.3,253.4z"/>
	<path class="st4" d="M283.3,253.4L283.3,253.4c0.2-0.2,0.6-0.3,0.9-0.2l15.9,8.2l-0.7,0.9l-15.9-8.2
		C283.2,254,283.1,253.7,283.3,253.4C283.3,253.5,283.3,253.4,283.3,253.4z"/>
</g>
</svg>
