<?xml version="1.0" encoding="utf-8"?>
<!-- Generator: Adobe Illustrator 24.2.1, SVG Export Plug-In . SVG Version: 6.00 Build 0)  -->
<svg version="1.1" id="Layer_1" xmlns="http://www.w3.org/2000/svg" xmlns:xlink="http://www.w3.org/1999/xlink" x="0px" y="0px"
	 viewBox="0 0 500 500" style="enable-background:new 0 0 500 500;" xml:space="preserve">
<style type="text/css">
	.st0{fill:#DDDDDD;}
	.st1{fill:#FFFFFF;}
	.st2{fill:#EAEAEA;}
	.st3{fill:#FAFAFA;}
	.st4{fill:#E0E0E0;}
	.st5{fill:#263238;}
	.st6{fill:#37474F;}
	.st7{fill:#4B7BEC;}
	.st8{opacity:0.2;enable-background:new    ;}
	.st9{opacity:0.1;enable-background:new    ;}
	.st10{fill:#455A64;}
	.st11{fill:#635545;}
	.st12{opacity:5.000000e-02;enable-background:new    ;}
	.st13{opacity:0.15;enable-background:new    ;}
	.st14{fill:#FFA8A7;}
	.st15{fill:#F28F8F;}
	.st16{fill:#B16668;}
	.st17{opacity:0.45;fill:#FFFFFF;enable-background:new    ;}
	.st18{opacity:0.3;enable-background:new    ;}
	.st19{fill:#FF8C00;}
	.st20{fill:#F0F0F0;}
	.st21{fill:#EBEBEB;}
	.st22{opacity:0.6;}
	.st23{opacity:0.4;enable-background:new    ;}
	.st24{opacity:0.5;fill:#FFFFFF;enable-background:new    ;}
	.st25{opacity:0.65;fill:#FFFFFF;enable-background:new    ;}
	.st26{opacity:0.2;fill:#FFFFFF;enable-background:new    ;}
</style>
<g id="freepik--Plants--inject-10">
	<g id="freepik--plants--inject-10">
		<path class="st0" d="M75.5,311.7c0,0,1.3-17.4-2.3-34.1s-12.3-29.6-23-34.6s-23.5,1.8-14.3,13.2c9.2,11.4,28.4,31.8,28.3,61.6
			L75.5,311.7z"/>
		<path class="st1" d="M70,311.1h0.1c0.3,0,0.6-0.3,0.6-0.6c-1-36.5-13.2-54.8-27.2-64c-0.3-0.2-0.7-0.1-0.9,0.2
			c-0.2,0.3-0.1,0.7,0.2,0.9c0,0,0,0,0,0c13.8,9.2,25.6,27.1,26.6,63C69.5,310.8,69.7,311.1,70,311.1z"/>
		<path class="st2" d="M21.2,279c0.2,2,1.8,3.6,3.4,4.9s3.3,2.7,3.7,4.7c0.9,4-3.9,7.7-2.9,11.7c0.6,1.7,1.8,3,3.3,3.7
			c1.3,0.6,2.6,1.2,3.9,1.7c0.7,0.2,1.3,0.4,2,0.5c2,0.2,3.9,1,5.4,2.4c2.2,2.4,1.9,6,2.7,9.2c0.9,3.8,3.2,6,8.3,7.7l17.5-9.9
			c4.4-4.4,5.9-12,1.9-17.2c-2.4-3.1-6.9-3.5-9.2-6.6c-2-2.8-0.9-6.8-2.1-10s-4.6-4.3-7.7-4.9s-6.5,0.8-9.5-0.4s-5.9-2.9-9.1-3.7
			c-3.1-0.9-6.5-0.4-9.2,1.5C22,275.3,21.1,277.1,21.2,279z"/>
		<path class="st1" d="M53.8,294.8c0-0.1-0.1-0.1-0.1-0.2c-8.2-11.7-21.1-17.2-25.5-18.2c-0.2-0.1-0.5,0-0.6,0.3
			c-0.1,0.2,0,0.5,0.3,0.6c0,0,0.1,0,0.1,0c4.1,0.9,16.1,6,24.2,16.7c-6.6-2.2-13.9-1.6-20.1,1.7c-0.2,0.1-0.3,0.4-0.1,0.6
			c0.1,0.1,0.2,0.2,0.4,0.2c0.1,0,0.2,0,0.3-0.1c6.3-3.4,13.8-3.9,20.5-1.2c4.8,6.9,7.2,15.1,6.8,23.5c0,0.2,0.2,0.4,0.4,0.5l0,0
			c0.3,0,0.5-0.2,0.5-0.4C61.2,310.3,58.7,301.8,53.8,294.8z"/>
	</g>
	<g id="freepik--plants--inject-10_1_">
		<path class="st0" d="M434.6,323.5c-0.2-13,0.1-25,6.7-43.5c5.5-15.5,19.8-31.1,29.4-30.5c9,0.6,10.9,11.6,2.9,21.4
			s-25.6,28.5-26.7,42l-3.4,15.3L434.6,323.5z"/>
		<path class="st1" d="M438.6,320.2c0.2-0.1,0.4-0.3,0.4-0.5c1.4-30.2,18.3-55.4,32.4-63.2c0.3-0.2,0.4-0.5,0.2-0.8
			s-0.5-0.4-0.8-0.2c-14.3,7.9-31.5,33.5-33,64.1c0,0.3,0.2,0.6,0.5,0.6c0,0,0,0,0,0L438.6,320.2z"/>
		<path class="st2" d="M446.7,330.1c0.5-4.6,4.7-12.6,12.4-19.9c8.5-8.1,20.1-13,22-18.6c2.4-6.7-3.5-10.3-13.3-8.2
			c-11.8,2.5-24.8,16-27,43.4L446.7,330.1z"/>
		<path class="st1" d="M444.1,325.8c0.2-0.1,0.4-0.2,0.4-0.5c4.5-24,20.5-34.7,28.4-37.1c0.3-0.1,0.5-0.4,0.4-0.7
			c-0.1-0.3-0.4-0.5-0.7-0.4c0,0,0,0,0,0c-8.7,2.6-24.6,13.5-29.2,37.9c-0.1,0.3,0.1,0.6,0.5,0.7c0,0,0,0,0,0
			C443.9,325.8,444,325.8,444.1,325.8z"/>
	</g>
</g>
<g id="freepik--Floor--inject-10">
	<path id="freepik--floor--inject-10" class="st3" d="M93.7,456.8c-85-49.1-85-128.6,0-177.7s222.8-49.1,307.8,0s85,128.6,0,177.7
		S178.7,505.9,93.7,456.8z"/>
</g>
<g id="freepik--Shadows--inject-10">
	<path id="freepik--Shadow--inject-10" class="st4" d="M261,420.6l23.3-13.4c0.4-0.1,0.6-0.6,0.5-1c-0.1-0.2-0.3-0.4-0.5-0.5
		l-5.7-3.3c-0.8-0.4-1.7-0.4-2.5,0l-23.3,13.4c-0.4,0.1-0.6,0.6-0.5,1c0.1,0.2,0.3,0.4,0.5,0.5l2.9,1.6l-29.2,16.9
		c-0.7,0.4-0.4,0.5-0.1,0.7s0.6,0.4,1.3,0l29.2-16.9l1.7,1C259.3,421,260.2,421,261,420.6z"/>
	<path id="freepik--shadow--inject-10" class="st4" d="M252.2,394.8c-1.8,0-3.6-0.4-5.2-1.3l-0.5-0.3l-0.9-0.6l7.3-1.1l0.7-1.4
		l-2-1.2l-7,1l0.2-0.7c0.4-1,1.2-1.8,2.1-2.3c1.6-0.8,3.3-1.3,5.1-1.2c0.8,0,1.6,0.1,2.4,0.2l23.9-13.8c-0.3-0.6-0.4-1.3-0.2-1.9
		c0.4-1.1,1.2-2,2.2-2.6c1.6-0.8,3.3-1.3,5.1-1.2c1.8,0,3.6,0.4,5.2,1.3c0.2,0.1,0.3,0.2,0.5,0.3l0.9,0.6l-7.3,1.1l-0.7,1.4l2,1.2
		l7-1l-0.2,0.6c-0.4,1-1.2,1.8-2.1,2.3c-1.6,0.8-3.3,1.3-5.1,1.2c-0.8,0-1.6-0.1-2.4-0.2l-23.9,13.8c0.3,0.6,0.4,1.3,0.2,1.9
		c-0.4,1.1-1.2,2-2.2,2.6C255.8,394.4,254,394.8,252.2,394.8z"/>
	<ellipse id="freepik--shadow--inject-10_1_" class="st4" cx="151.6" cy="402.8" rx="76.3" ry="44"/>
	<polygon id="freepik--shadow--inject-10_2_" class="st4" points="276.4,405.3 377.7,346.9 434.2,379.5 333,438 	"/>
	<path id="freepik--shadow--inject-10_3_" class="st4" d="M250.3,371.2l-39.5-22.8c-1.4-0.8-1.4-2.2,0-3l63.9-36.9
		c1.6-0.8,3.6-0.8,5.2,0l39.5,22.8c1.4,0.8,1.4,2.2,0,3l-63.9,36.9C253.9,372.1,251.9,372.1,250.3,371.2z"/>
</g>
<g id="freepik--tool-box--inject-10_1_">
	<g id="freepik--tool-box--inject-10">
		<polygon class="st5" points="252.9,367.4 252.9,334.6 212.3,311.1 216.4,346.3 		"/>
		<polygon class="st6" points="252.9,367.4 313.8,332.3 317.9,297.1 252.9,334.6 		"/>
		<path class="st7" d="M209.8,304.1c0.1-0.7,0.5-1.2,1.1-1.5l63.9-36.9c1.6-0.8,3.6-0.8,5.2,0l39.5,22.8c0.6,0.3,1,0.8,1.1,1.5v9.4
			c-0.1,0.7-0.5,1.2-1.1,1.5l-63.9,36.9c-1.6,0.8-3.6,0.8-5.2,0L210.8,315c-0.6-0.3-1-0.8-1.1-1.5V304.1z"/>
		<path class="st8" d="M210.8,302.6l42.1-24.3v60.1c-0.9,0-1.8-0.2-2.6-0.6L210.8,315c-0.6-0.3-1-0.8-1.1-1.5v-9.4
			C209.8,303.5,210.2,302.9,210.8,302.6z"/>
		<path class="st9" d="M252.9,278.3l21.8-12.6c1.6-0.8,3.6-0.8,5.2,0l39.5,22.8c0.6,0.3,1,0.8,1.1,1.5v9.4c-0.1,0.7-0.5,1.2-1.1,1.5
			l-63.9,36.9c-0.8,0.4-1.7,0.6-2.6,0.6L252.9,278.3z"/>
		<path class="st7" d="M250.3,328.4l-39.5-22.8c-1.4-0.8-1.4-2.2,0-3l63.9-36.9c1.6-0.8,3.6-0.8,5.2,0l39.5,22.8
			c1.4,0.8,1.4,2.2,0,3l-63.9,36.9C253.9,329.3,251.9,329.3,250.3,328.4z"/>
		<path class="st8" d="M307.8,291.2c1.1,0.6,1.1,1.7-0.1,2.4l-44.4,25.6c-1.3,0.7-2.9,0.7-4.2,0.1c-1.1-0.6-1.1-1.7,0.1-2.4
			l44.4-25.6C304.9,290.6,306.4,290.6,307.8,291.2z"/>
		<path class="st8" d="M263.2,319.3c-1.3,0.7-2.9,0.7-4.2,0.1l-0.2-0.1c0.1-0.1,0.2-0.2,0.4-0.3l44.4-25.6c1.3-0.7,2.9-0.7,4.2-0.1
			l0.2,0.2c-0.1,0.1-0.2,0.2-0.4,0.2L263.2,319.3z"/>
		<path class="st8" d="M275.3,272.5c1.1,0.6,1.1,1.7-0.1,2.4l-44.4,25.6c-1.3,0.7-2.9,0.7-4.2,0.1c-1.1-0.6-1.1-1.7,0.1-2.4
			l44.4-25.6C272.4,271.8,273.9,271.8,275.3,272.5z"/>
		<path class="st8" d="M230.7,300.5c-1.3,0.7-2.9,0.7-4.2,0.1c-0.1,0-0.2-0.1-0.2-0.2c0.1-0.1,0.2-0.2,0.4-0.2l44.4-25.6
			c1.3-0.7,2.9-0.7,4.2-0.1c0.1,0,0.1,0.1,0.2,0.1c-0.1,0.1-0.2,0.2-0.4,0.3L230.7,300.5z"/>
		<path class="st8" d="M234.6,303c-1.1,0.6-1.1,1.7,0.1,2.4l16,9.2c1.3,0.7,2.9,0.7,4.2,0.1c1.1-0.6,1.1-1.7-0.1-2.4l-16-9.2
			C237.5,302.4,236,302.4,234.6,303z"/>
		<path class="st8" d="M250.8,314.6c1.3,0.7,2.9,0.7,4.2,0.1c0.1,0,0.1-0.1,0.2-0.1c-0.1-0.1-0.2-0.2-0.4-0.3l-16-9.2
			c-1.3-0.7-2.9-0.7-4.2-0.1c-0.1,0-0.1,0.1-0.2,0.2c0.1,0.1,0.2,0.2,0.4,0.2L250.8,314.6z"/>
		<path class="st8" d="M226.5,307.6c-1.1,0.6-1.1,1.7,0.1,2.4l16,9.2c1.3,0.7,2.9,0.7,4.2,0.1c1.1-0.6,1.1-1.7-0.1-2.4l-16-9.2
			C229.4,307,227.8,307,226.5,307.6z"/>
		<path class="st8" d="M242.6,319.3c1.3,0.7,2.9,0.7,4.2,0.1c0.1,0,0.1-0.1,0.2-0.2c-0.1-0.1-0.2-0.2-0.4-0.3l-16-9.2
			c-1.3-0.7-2.9-0.7-4.2-0.1c-0.1,0-0.2,0.1-0.2,0.1c0.1,0.1,0.2,0.2,0.4,0.3L242.6,319.3z"/>
		<path class="st8" d="M283.4,274.8c-1.1,0.6-1.1,1.7,0.1,2.4l16,9.2c1.3,0.7,2.9,0.7,4.2,0.1c1.1-0.6,1.1-1.7-0.1-2.4l-16-9.2
			C286.3,274.2,284.7,274.2,283.4,274.8z"/>
		<path class="st8" d="M299.5,286.5c1.3,0.7,2.9,0.7,4.2,0.1c0.1,0,0.1-0.1,0.2-0.2c-0.1-0.1-0.2-0.2-0.4-0.2l-16-9.2
			c-1.3-0.7-2.9-0.7-4.2-0.1c-0.1,0-0.1,0.1-0.2,0.1c0.1,0.1,0.2,0.2,0.4,0.3L299.5,286.5z"/>
		<path class="st8" d="M275.3,279.5c-1.1,0.6-1.1,1.7,0.1,2.4l16,9.2c1.3,0.7,2.9,0.7,4.2,0.1c1.1-0.6,1.1-1.7-0.1-2.4l-16-9.2
			C278.1,278.9,276.6,278.9,275.3,279.5z"/>
		<path class="st8" d="M291.4,291.1c1.3,0.7,2.9,0.7,4.2,0.1l0.2-0.2c-0.1-0.1-0.2-0.2-0.4-0.3l-16-9.2c-1.3-0.7-2.9-0.7-4.2-0.1
			l-0.2,0.2c0.1,0.1,0.2,0.2,0.4,0.3L291.4,291.1z"/>
		<path class="st10" d="M248.9,295v9.1l4.1,2.4l4.1-2.4v-6.9c0.1-1.5,0.9-2.9,2.2-3.8l10-5.8l1.9-1.1c1.2-0.7,2.2-0.1,2.2,1.3v6.9
			l4.1-2.4v-9.1c0-0.2,0-0.4,0-0.5c0-0.1,0-0.3-0.1-0.4c0-0.2-0.1-0.3-0.1-0.5c0-0.1-0.1-0.2-0.1-0.4c-0.1-0.1-0.1-0.2-0.2-0.3
			c-0.1-0.1-0.1-0.2-0.2-0.3c-0.1-0.1-0.2-0.2-0.3-0.2l0,0c-0.1-0.1-0.2-0.1-0.3-0.2l-0.1-0.1l-3.9-2.3c-1-0.5-2.2-0.4-3,0.3
			l-15.7,9.1C250.6,289.2,249,292,248.9,295z"/>
		<path class="st5" d="M269.1,287.7L269.1,287.7v4.7l4.1,2.4v-6.9c0-1.4-1-1.9-2.2-1.3L269.1,287.7z"/>
		<path class="st6" d="M252.9,297.4v9.1l4.1-2.4v-6.9c0.1-1.5,0.9-2.9,2.2-3.8l10-5.8l0,0l1.9-1.1c1.2-0.7,2.2-0.1,2.2,1.3v6.9
			l4.1-2.3v-9.1c0-0.2,0-0.4,0-0.5c0-0.1,0-0.3-0.1-0.4c0-0.2-0.1-0.3-0.1-0.5c0-0.1-0.1-0.2-0.1-0.4c-0.1-0.1-0.1-0.2-0.2-0.3
			c-0.1-0.1-0.1-0.2-0.2-0.3c-0.1-0.1-0.2-0.2-0.3-0.2l0,0c-0.1-0.1-0.2-0.1-0.3-0.2l-0.1-0.1c-1-0.4-2.1-0.2-2.9,0.4l-15.7,9.1
			C254.7,291.6,253.1,294.3,252.9,297.4z"/>
		<polygon class="st10" points="273.2,337 271.7,336.1 267.6,338.4 269.2,339.3 		"/>
		<polygon class="st5" points="269.2,339.3 267.7,358.9 267.6,338.4 		"/>
		<polygon class="st6" points="273.2,337 271.7,356.6 272.2,356.4 		"/>
		<polygon class="st10" points="239.2,340.8 240.7,339.9 244.8,342.3 243.3,343.1 		"/>
		<polygon points="239.2,340.8 240.7,360.4 240.2,360.2 		"/>
		<polygon class="st10" points="223,331.4 224.5,330.5 228.5,332.9 227,333.7 		"/>
		<polygon class="st6" points="244.8,362.8 243.3,343.1 244.8,342.3 		"/>
		<polygon class="st6" points="228.5,332.9 228.5,353.4 227,333.7 		"/>
		<polygon points="223,331.4 224.5,351 224,350.8 		"/>
		<polygon class="st10" points="301.6,320.5 300.1,319.7 296.1,322 297.6,322.9 		"/>
		<polygon class="st5" points="297.6,322.9 296.1,342.5 296.1,322 		"/>
		<polygon class="st6" points="301.6,320.5 300.1,340.2 300.6,339.9 		"/>
		<polygon class="st6" points="265.5,333.6 265.5,328.9 273.6,324.2 275,325 275,329.7 266.8,334.4 		"/>
		<polygon class="st10" points="275,325 275,329.7 266.8,334.4 266.8,329.7 		"/>
		<polygon class="st5" points="266.8,329.7 265.5,328.9 265.5,333.6 266.8,334.4 		"/>
		<polygon class="st6" points="294.1,317.1 294.1,312.4 302.3,307.7 303.6,308.5 303.6,313.2 295.5,317.9 		"/>
		<polygon class="st10" points="303.6,308.5 303.6,313.2 295.5,317.9 295.5,313.2 		"/>
		<polygon class="st5" points="295.5,313.2 294.1,312.4 294.1,317.1 295.5,317.9 		"/>
	</g>
</g>
<g id="freepik--Tools--inject-10">
	<g id="freepik--Wrench--inject-10">
		<path class="st6" d="M247.4,386.8c-0.6,0.3-1.6,0.3-1.9,0.7v1.4l6.3-0.9l2.4,1.4l-0.9,1.9l-6.3-0.4v1.4c0.1,0.1,0.3,0.2,0.4,0.3
			c3,1.5,6.6,1.5,9.7,0c1.1-0.5,1.9-1.6,2-2.8l0,0v-1.4l-0.4,0.1c0,0,0,0,0-0.1l23.8-13.7c2.4,0.5,4.9,0.2,7.1-0.9
			c0.9-0.4,1.5-1.1,1.9-2v-1.4l-6.3,2.3l-2.4-1.4l0.9-1.9l6.3-0.9v-1.4c0,0-7.4-0.5-10.1,1c-0.7,0.4-1.3,0.9-1.7,1.5l-0.4-0.1v1.3
			l0,0c0,0.5,0.1,1,0.4,1.4l-23.8,13.7C252.1,385.3,249.6,385.6,247.4,386.8z"/>
		<polygon class="st6" points="282.4,374.5 282.4,373.1 258.6,386.9 258.6,388.2 		"/>
		<path class="st11" d="M278.3,370.8l-23.8,13.7c-2.4-0.5-4.9-0.2-7.1,0.9c-0.9,0.4-1.5,1.1-1.9,2l6.3-0.9l2.4,1.4l-0.9,1.9
			l-6.3,0.9c0.1,0.1,0.3,0.2,0.4,0.3c3,1.5,6.6,1.5,9.7,0c2-1.1,2.5-2.8,1.6-4.2l23.8-13.7c2.4,0.5,4.9,0.2,7.1-0.9
			c0.9-0.4,1.5-1.1,1.9-2l-6.3,0.9l-2.4-1.4l0.9-1.9l6.3-0.9l-0.4-0.3c-3-1.5-6.6-1.5-9.7,0C278,367.7,277.4,369.4,278.3,370.8z"/>
		<polygon class="st5" points="283.3,370 282.8,369.8 283.7,367.9 290,366.9 290,368.3 283.7,369.2 		"/>
		<polygon class="st5" points="253.6,389 254.1,387.9 251.8,386.5 245.5,387.4 245.5,388.8 251.8,387.9 		"/>
	</g>
	<g id="freepik--Screwdriver--inject-10">
		<path class="st7" d="M261.9,406.7l5,8.6l16.8-9.7c0.8-0.5,1.2-1.4,1.1-2.3c-0.1-2.5-1.4-4.7-3.5-6.1c-0.7-0.5-1.7-0.6-2.5-0.2l0,0
			L261.9,406.7z"/>
		<path class="st7" d="M260.9,408.5L260.9,408.5c-0.1,1.3-1.9,1.6-1.9,1.6l3.5,6.1c0,0,1.2-1.4,2.3-0.9l0,0c1.7,0.8,3.1-0.2,3.1-2.3
			c-0.1-2.5-1.4-4.7-3.5-6.1C262.6,405.9,261.1,406.6,260.9,408.5z"/>
		<path class="st12" d="M260.9,408.5L260.9,408.5c-0.1,1.3-1.9,1.6-1.9,1.6l3.5,6.1c0,0,1.2-1.4,2.3-0.9l0,0
			c1.7,0.8,3.1-0.2,3.1-2.3c-0.1-2.5-1.4-4.7-3.5-6.1C262.6,405.9,261.1,406.6,260.9,408.5z"/>
		<path class="st12" d="M259.8,409.8c-0.3,0.1-0.6,0.2-0.8,0.3l3.5,6.1c0.2-0.2,0.4-0.4,0.6-0.6C263,413.3,261.7,411.2,259.8,409.8z
			"/>
		<path class="st7" d="M255.3,410.5l0.3,0.5c-0.1,0.4-0.2,0.7-0.1,1.1c0.1,2.5,1.4,4.7,3.5,6.1c0.3,0.2,0.6,0.3,1,0.4l0.3,0.5
			l1.2-0.7l0,0c0.7-0.5,1.1-1.4,1-2.3c-0.1-2.5-1.4-4.7-3.5-6.1c-0.7-0.5-1.7-0.6-2.5-0.2l0,0L255.3,410.5z"/>
		<path class="st7" d="M261.3,416.9c-0.1-2.5-1.4-4.7-3.5-6.1c-1.9-1.1-3.5-0.2-3.5,2c0.1,2.5,1.4,4.7,3.5,6.1
			C259.8,420,261.3,419.1,261.3,416.9z"/>
		<path class="st13" d="M261.3,416.9c-0.1-2.5-1.4-4.7-3.5-6.1c-1.9-1.1-3.5-0.2-3.5,2c0.1,2.5,1.4,4.7,3.5,6.1
			C259.8,420,261.3,419.1,261.3,416.9z"/>
		<path class="st13" d="M256.5,417.8c0.3,0.3,0.6,0.6,0.9,0.8l0.8-2.3l-1-0.7L256.5,417.8z"/>
		<path class="st8" d="M281.9,400.9L281.9,400.9c0.2,0.5,0.1,1-0.4,1.3l-12,6.9c-0.5,0.3-1,0.1-1.3-0.4l0,0c-0.2-0.5-0.1-1,0.4-1.3
			l12-6.9C281,400.3,281.6,400.5,281.9,400.9z"/>
		<path class="st8" d="M279.8,398.4L279.8,398.4c0.3,0.1,0.4,0.5,0.2,0.8c-0.1,0.1-0.1,0.2-0.2,0.2l-12.2,7c-0.5,0.2-1,0.2-1.4-0.2
			l0,0c-0.3-0.1-0.4-0.5-0.2-0.8c0.1-0.1,0.1-0.2,0.2-0.2l12.2-7C278.8,398,279.3,398,279.8,398.4z"/>
		<path class="st8" d="M283.1,404.1L283.1,404.1c0-0.3-0.3-0.6-0.6-0.6c-0.1,0-0.2,0-0.3,0.1l-12.2,7c-0.4,0.3-0.6,0.8-0.6,1.3l0,0
			c0,0.3,0.3,0.6,0.6,0.6c0.1,0,0.2,0,0.3-0.1l12.2-7C282.9,405.1,283.1,404.6,283.1,404.1z"/>
		<path class="st10" d="M227,431v2.3l5.9-1.9c0.6-1.1,1.4-2.1,2.3-2.8l22.3-12.9l0.7-2l-0.7-0.4l-22.3,12.9
			c-0.7,0.4-1.6,0.3-2.3-0.1L227,431z"/>
		<path class="st6" d="M227.7,431.5v2.3l5.9-1.9c0.6-1.1,1.4-2.1,2.3-2.8l22.3-12.9v-2.4l-22.3,12.9c-0.7,0.4-1.6,0.3-2.3-0.1
			L227.7,431.5z"/>
		<polygon class="st5" points="227.7,433.8 227,433.4 227,431 227.7,431.5 		"/>
		<polygon class="st10" points="227,431 227.7,431.5 233.6,426.6 232.9,426.2 		"/>
	</g>
</g>
<g id="freepik--Character--inject-10">
	<g id="freepik--character--inject-10">
		<g id="freepik--Top--inject-10">
			<path class="st6" d="M310.4,129.9h-51.5c-0.4,0-0.8-0.3-0.8-0.8s0.3-0.8,0.8-0.8h51.5c0.4,0,0.8,0.3,0.8,0.8
				S310.8,129.9,310.4,129.9L310.4,129.9z"/>
			<g id="freepik--Arm--inject-10">
				<path class="st14" d="M192,163.3c-4.9-9.4-12.9-29.9-12.9-29.9l0.2-27.4c-0.2,0,3.7,1.2,4.9,1.5c7.7,2.8,9.9,4.2,13.2,11
					c2.6,5.4,11.5,30.1,14.6,38.4l18.9-13.4c4.8-4,5.9-9.7,8.8-13.3s6.2-4.5,9.5-7.5s4.5-5.3,5.8-2.8c1.3,2.4-2.3,6.8-2.9,7.9
					c-0.4,0.8-1.5,1.3-1.8,2.2c-0.4,1.5,1.8,1.2,2.7,1c4.6-1,8.8-4.9,11.6-8.4c1.1-1.4,5.2-6.8,6.2-2.4c0.8,3.6-2.1,5.8-2.3,9.1
					c-0.1,1.8-0.6,3.6-1.4,5.2c-0.7,1.5-0.4,3.2-0.9,4.8c-1.5,4.8-5.3,6.5-9.8,8s-9.3,2.6-12.9,5.4c-4.5,3.5-15.3,15.1-21.9,22.1
					c-8.4,8.9-13.9,11-18.8,5.8S193.9,166.8,192,163.3z"/>
				<path class="st10" d="M270.6,120.1c-1-4.4-5.1,1-6.2,2.4c-2.8,3.6-7,7.4-11.6,8.4c-0.9,0.2-3.1,0.4-2.7-1
					c0.3-0.9,1.3-1.4,1.8-2.2c0.6-1.1,4.2-5.5,2.9-7.9s-2.5-0.2-5.8,2.8s-6.6,4-9.5,7.5s-4,9.3-8.8,13.3l-1.3,0.9
					c0.8,5.3,4,10.4,8.7,12.8c2.1-2,3.9-3.7,5.1-4.7c3.7-2.8,8.6-4,13-5.4s8.3-3.2,9.8-8c0.5-1.6,0.2-3.3,0.9-4.8
					c0.8-1.6,1.3-3.4,1.4-5.2C268.5,125.9,271.4,123.7,270.6,120.1z"/>
				<path class="st7" d="M231.8,142.6c-0.1,1.7,0.9,6.4,3.1,8.9c1.5,1.6,3.3,2.9,5.3,3.7l0.8-0.6c0,0,0.8,0.1-1.3,2.1
					s-2.5,2.8-3.7,2.6s-4.4-2-6.5-5.4c-1.6-2.4-2.5-5.1-2.7-8c0.1-1,1.5-1.7,2.7-2.6s2.6-2.4,3.3-1.8L231.8,142.6z"/>
				<path class="st8" d="M231.8,142.6c-0.1,1.7,0.9,6.4,3.1,8.9c1.5,1.6,3.3,2.9,5.3,3.7l0.8-0.6c0,0,0.8,0.1-1.3,2.1
					s-2.5,2.8-3.7,2.6s-4.4-2-6.5-5.4c-1.6-2.4-2.5-5.1-2.7-8c0.1-1,1.5-1.7,2.7-2.6s2.6-2.4,3.3-1.8L231.8,142.6z"/>
				<path class="st4" d="M181.7,106.4c5.1,1.2,9,3.1,11.4,5.1c3.7,3.2,5.4,8.2,7.9,15c2.5,6.8,9,23.4,9,23.4
					c-7.5,2.4-13.9,7.4-18,14.1l-17.2-35.7L181.7,106.4z"/>
				<path class="st15" d="M212,156.9c-3.3,1.7-6,4.4-7.7,7.7c0,0,0-5.5,7-9.6L212,156.9z"/>
			</g>
			<g id="freepik--Chest--inject-10">
				<path class="st3" d="M123.6,109.3c0,0-5.9,5.2-7.4,10.7c-0.7,2.7-1.4,5,0.9,20.2c2.2,14.5,3.8,14.5,4.9,25.6l-1.6,27.7
					c8.7,10.2,49.3,15.4,69.6,1.6c0,0,0.9-42.1-0.6-59.4c-1-11.8-5.9-23.9-7.8-29.4c-5.5-1-10.8-1.6-10.8-1.6l-20.3-1.2L123.6,109.3
					z"/>
			</g>
			<g id="freepik--Head--inject-10">
				<path class="st6" d="M180.4,67.8c2.7-6.1,0.1-14.2-3.1-18c-4.6-5.5-11.8-7.9-22.6-7.2c-8.2,0.5-16.3,3.9-17.9,12.4
					c-6.6,2-5.9,12.8-4.2,17.6c3.3,9.7,9.9,18.2,10,23.1L180.4,67.8z"/>
				<path class="st14" d="M180.4,90.6c-1.3,4.7-4,8.1-8.4,8.8c-2.3,0.2-4.6,0.2-6.9,0l0.2,6c9,11.4-12.1,13.7-22.5,1.2l-0.6-20.2
					c0,0-2.6,3-7,0.2c-3.6-2.7-4.9-7.6-3-11.7c2.2-4.6,6.5-2.7,7.9-1.3s2.9,4,4,3.6c1.3-0.4,2.3-1.4,2.7-2.8c1-2.8,1.5-5.9,1.4-8.9
					c1.3-0.7,2.4-1.5,3.4-2.6c1.8-1.8,2.8-4.2,3-6.8c9.4-2.9,20.1-1.5,24,1.5c2.2,4,2.3,13.1,2.7,18.4
					C181.7,81.9,181.5,86.7,180.4,90.6z"/>
				<path class="st15" d="M165.2,99.4c-4.8-0.3-14.4-2.5-17-5.2s-3.7-8.2-3.7-8.2s0.4,6.9,2.4,10s7,4.4,10,5.2
					c2.8,0.6,5.5,1,8.4,1.3L165.2,99.4z"/>
				<path class="st5" d="M162.1,73.1c0,1.1-0.9,2-1.9,2c-1.1,0-2-0.8-2.1-1.9c0-1.1,0.8-2,1.9-2.1C161.2,71.1,162.1,71.9,162.1,73.1
					C162.1,73,162.1,73.1,162.1,73.1z"/>
				<path class="st5" d="M159.4,66.9l-3.9,2.7c-0.7-1.1-0.4-2.6,0.7-3.4C157.2,65.5,158.7,65.7,159.4,66.9
					C159.4,66.8,159.4,66.9,159.4,66.9z"/>
				<path class="st5" d="M178.5,68.1l-4.3-2.1c0.5-1.2,1.8-1.7,3-1.2c0,0,0.1,0,0.1,0.1C178.5,65.5,179,66.9,178.5,68.1z"/>
				<path class="st5" d="M177,72.4c0,1.1-0.9,1.9-2,1.9c-1.1,0-1.9-0.9-1.9-2c0-1,0.9-1.9,1.9-1.9C176.1,70.4,177,71.3,177,72.4z"/>
				<polygon class="st15" points="166.6,68.9 168,82.9 175.5,80.6 				"/>
				<path class="st16" d="M162.1,86.1l8,1.8c-0.4,2.2-2.4,3.7-4.6,3.3c-0.1,0-0.2,0-0.2,0C163.1,90.6,161.7,88.4,162.1,86.1z"/>
				<path class="st15" d="M165.3,91.2c0.2,0,0.3,0,0.5,0.1c0-2-1.7-3.6-3.7-3.6C162.3,89.3,163.6,90.7,165.3,91.2z"/>
			</g>
			<g id="freepik--Helmet--inject-10">
				<path class="st7" d="M131,66.9c0.2,2.4,0.8,4.8,1.8,7.1c0.5-0.7,1.1-1.3,1.8-2c3.6-3.5,7.8-6.4,12.5-8.5l0,0
					c10.7-5,23.8-6.7,34.3-3.8c-0.4-2.1-1-4.1-1.9-6c-5.9-12.7-20.9-18.3-33.7-12.5C135.8,45.8,129.9,56.1,131,66.9z"/>
				<path class="st7" d="M142,41.6c1.3-0.6,7.7-2.5,8.2-2.7c3.3-1,8.6-0.9,14.1,3.6c4.3,3.6,7.3,8.4,8.6,13.8l-6.8,2.1l-2.2,0.2
					c-0.8-5-7.4-15.8-16.6-16.2c-0.4,0-0.9,0-1.3,0c-1.2,0.1-2.4,0.3-3.6,0.7c-1.3,0.9-2.5,1.8-3.6,2.9
					C139,44.2,140.2,42.5,142,41.6z"/>
				<path class="st17" d="M142,41.6c1.3-0.6,7.7-2.5,8.2-2.7c3.3-1,8.6-0.9,14.1,3.6c4.3,3.6,7.3,8.4,8.6,13.8l-6.8,2.1l-2.2,0.2
					c-0.8-5-7.4-15.8-16.6-16.2c-0.4,0-0.9,0-1.3,0c-1.2,0.1-2.4,0.3-3.6,0.7c-1.3,0.9-2.5,1.8-3.6,2.9
					C139,44.2,140.2,42.5,142,41.6z"/>
				<path class="st7" d="M163.9,58.7c-1-5.8-9.8-19.6-21.5-15.4c-1.3,0.9-2.5,1.8-3.6,2.9c0.2-2,1.5-3.7,3.2-4.5
					c3.1-1.5,9.2-2.2,15.5,3c4.3,3.6,7.3,8.4,8.6,13.8L163.9,58.7z"/>
				<path class="st18" d="M163.9,58.7c-1-5.8-9.8-19.6-21.5-15.4c-1.3,0.9-2.5,1.8-3.6,2.9c0.2-2,1.5-3.7,3.2-4.5
					c3.1-1.5,9.2-2.2,15.5,3c4.3,3.6,7.3,8.4,8.6,13.8L163.9,58.7z"/>
				<path class="st7" d="M146.8,61.5c0.5-0.4,2.9-5.5,11.3-10c5.2-2.8,15.9-2.9,20.7-2.8c8.4,0.1,10.4,1.9,10.5,3.2
					c0,0.3,0.1,1.7,0.2,2c0,0.3,0,0.6-0.2,0.8c-1.3,1.9-8,5.2-8,5.2c-10.5-2.9-23.6-1.2-34.3,3.8L146.8,61.5z"/>
				<path class="st13" d="M146.8,61.5c0.5-0.4,2.9-5.5,11.3-10c5.2-2.8,15.9-2.9,20.7-2.8c8.4,0.1,10.4,1.9,10.5,3.2
					c0,0.3,0.1,1.7,0.2,2c0,0.3,0,0.6-0.2,0.8c-1.3,1.9-8,5.2-8,5.2c-10.5-2.9-23.6-1.2-34.3,3.8L146.8,61.5z"/>
				<path class="st7" d="M147,63.5c10.7-5,23.8-6.7,34.3-3.8c0,0,6.8-3.3,8-5.2c0.7-1,0.1-3.7-10.3-3.9c-4.8-0.1-15.5,0.1-20.7,2.8
					C149.9,58,147.5,63.1,147,63.5z"/>
				<path class="st18" d="M147,63.5c10.7-5,23.8-6.7,34.3-3.8c0,0,6.8-3.3,8-5.2c0.7-1,0.1-3.7-10.3-3.9c-4.8-0.1-15.5,0.1-20.7,2.8
					C149.9,58,147.5,63.1,147,63.5z"/>
			</g>
		</g>
		<g id="freepik--Bottom--inject-10">
			<path class="st14" d="M179.3,369.9c0.3-5.3,3.2-58.8,3.2-58.8l-26,18.3c4.5,30.6,5.5,39.8,5.7,44.9l0,0c-0.1,0.4-0.1,0.9-0.1,1.3
				c0.1,6.1,7.4,9.2,13.1,13.2c4.9,3.5,10,6.6,15.4,9.2c4.1,1.9,12.4,2,13.4-0.6c-6.9-4.9-14.9-10.2-20.5-15.7
				C180.8,379.1,178.9,376.3,179.3,369.9z"/>
			<path class="st5" d="M215.7,403.9c0.4,0,0.9,3.6-0.9,5.2c-2.2,1.8-8.6,4.9-17.1,4s-13.2-3.4-16.6-6s-8.3-6.4-12.2-7.2
				c-3.6-0.7-7.5-2.2-8.7-3.2s-1.1-5.7-1.1-5.7L215.7,403.9z"/>
			<path class="st6" d="M189.1,383.8c-0.6-0.5-1.1-1-1.6-1.6c-1.8-1.9-3.2-4.2-4.1-6.7c-0.6-1.2-1-2.4-1.3-3.7
				c-0.3-1.5-0.4-3-0.7-4.4c-0.1-0.5,0-1.8-0.7-2c-0.8-0.1-1.6,0.1-2.3,0.4c-1.7,0.7-3.5,1.3-5.3,1.9c-1,0.4-3.1,0.9-3.4,2
				s0.2,2.5,0,3.7c-0.1,0.5-0.3,1-0.8,0.9c-1,0-1.3-1.4-1.5-2.1c-0.6-1.5-1-2.2-2.6-2.6c-0.8-0.2-2.4-0.3-3-1.1l-0.2-2
				c-0.9,0.2-1.7,0.8-2.1,1.6c-0.7,1.4-0.2,3.4,0,4.9c0.3,1.5,0.4,3,0.4,4.6c-0.1,1.3-0.3,2.6-0.6,3.9c-0.4,2.2-0.6,4.5-0.6,6.8
				c0,1.1,0.1,2.1,0.2,3.2c0.2,0.9,0.6,1.6,1.3,2.2c1.1,0.9,2.3,1.7,3.6,2.2c1.8,0.7,3.7,1.3,5.6,1.9c3.8,1.3,8.3,4.1,12.2,7.1
				s12.5,6.1,18.1,6.1c8.5,0,14.4-2.8,16-5.7c0.1-2,0.3-4-0.6-5.4c-3-4.6-9.6-6.1-14.9-8.6c-2.3-1.2-4.5-2.5-6.7-3.9
				C192,386.3,190.5,385.1,189.1,383.8z"/>
			<path class="st10" d="M203.5,392.7c-10.4,2.9-14,10-15.5,15.6c3.7,1.6,7.7,2.5,11.8,2.7c8.5,0,14.4-2.8,16-5.7
				c0.1-2,0.3-4-0.6-5.4C212.7,396.2,208,394.5,203.5,392.7z"/>
			<path class="st10" d="M169.4,397.8l0.4,0.2c-0.4-8-3.7-13.3-10.9-14.4c-0.2,1.6-0.3,3.2-0.3,4.8c0,1.1,0.1,2.1,0.2,3.2
				c0.2,0.9,0.6,1.6,1.3,2.2c1.1,0.9,2.3,1.7,3.6,2.2C165.6,396.6,167.5,397.1,169.4,397.8z"/>
			<path class="st14" d="M136.4,326.9l-27.1-5.9c-0.7,16.8-0.3,39.5-0.8,55.2c-0.1,3-1.6,23-0.8,29.1c1.3,9.3,13.7,8.6,14.7,3.2
				s1.9-28.7,2.1-31.1c0.6-10.1,6.3-27,10.4-45C135.1,331.6,136.3,327.8,136.4,326.9z"/>
			<path class="st5" d="M126.8,412.6c-0.1,5.4-0.9,9-2.9,12.2s-6.1,4.4-10.2,3.6s-9.6-3-11-7.6s-1.3-7.8-0.6-12.8L126.8,412.6z"/>
			<path class="st6" d="M108.7,366.9c-1.7,0.2-2,14.8-2.7,22.1c-0.7,7.8-3.2,11.1-3.8,17.5c-0.7,7.3-0.2,10.5,2.9,14.8
				s13.5,8.2,18.2,1.7c3.9-5.3,3.8-11,3.1-18.2c-0.7-7.5-0.8-19.5-0.7-25.1c0.1-5.4,1.7-11.2,0.2-11.7c-0.3,1.5-0.5,2.7-0.7,3.5
				c-0.4,1.7-0.8,3.8-1.3,3.4c0,0,0.2-1.5,0.2-2.2s0.2-1.2-0.3-1.6s-2.5-0.7-3.2-0.8c-1.7-0.2-3.4-0.4-5.1-0.5c-0.8,0-1.7,0-2.6,0
				c-0.7,0-1.4,0.1-2.1,0.4c-0.4,0.1-0.7,0.4-0.9,0.8c-0.1,0.3-0.1,0.6,0,0.8c0,0.5,0,1-0.1,1.5c-0.1,0.2-0.2,0.5-0.5,0.5
				s-0.4-0.2-0.5-0.7c-0.1-1-0.2-2-0.2-3c0-0.5,0-1.1,0-1.6S108.7,367.4,108.7,366.9z"/>
			<path class="st10" d="M101.9,410.7c-0.1,4.5,0.3,7.6,2.8,10.9c3.1,4.3,14.3,8.2,19,1.7c2.4-3.2,2.9-6.9,3-10.7
				C123.5,407.9,106.5,406.4,101.9,410.7z"/>
			<path class="st11" d="M191.1,147.8c0,0-20.6,4.6-51.4,2.5c0,20.4,2.1,43.8-7.6,43.6l-11.7-0.3c-0.7,30.5-5.8,94.2-5.8,94.2
				c-0.5,3.8-5.9,19.7-6.1,33.3c-0.3,21.3-0.8,37.4-0.8,37.4s11.9,4.7,20.6,1.4c0,0,11.4-45.2,14.5-59.3
				c3.8-16.8,11.6-47.9,11.6-47.9l0.9,44.2c-1.1,8.9-1.2,17.9-0.4,26.9c1,9,4.6,33.9,4.6,33.9s10.9,2.2,20.4-0.6
				c0,0,5.7-53.6,6.2-61.8c0.5-9,3.4-91.7,3.6-99.4l0,0C192.6,157,191.1,147.8,191.1,147.8z"/>
			<path class="st10" d="M139.7,150.3c-1.4-18.5-1.4-33.6-8.3-42.6l8.8-1.9c0,0,7.6,16.9,7.6,45.1L139.7,150.3z"/>
			<path class="st10" d="M183,149.8c0-20.1-4.4-37.3-11.4-44.9l10.1,1.5c0,0,9.5,15.2,9.5,43.4H183z"/>
			<path class="st19" d="M150.8,154.5c0,0,16.3,1,29.9-1.6l0.6,13.8l-13.6,8.5l-16.9-5.5V154.5z"/>
			<path class="st7" d="M124.7,194.6c7.8,3.3,26.8,5.2,42.1,5s23.3-3.8,23.3-3.8l-0.3,9.3c0,0-27.1,11.4-66.3-2L124.7,194.6z"/>
			<path class="st18" d="M124.7,194.6c7.8,3.3,26.8,5.2,42.1,5s23.3-3.8,23.3-3.8l-0.3,9.3c0,0-27.1,11.4-66.3-2L124.7,194.6z"/>
			<path class="st6" d="M154.6,252.7l7.3-29.3c0,0,10.9,0.1,18-6.5c0,0-1,7.5-13.9,11.5l-6.7,23.3l-3.8,44.5L154.6,252.7z"/>
			<path class="st7" d="M143,104.6l0.1,2c1.6,4.4,2.7,9,3.4,13.7c2.1,12.7,2.5,29.3,2.5,48v51.6c0,0-23.4,1.5-30.9-16.4l3-37.5
				c0,0-4.3-19.4-5.5-30.5s-3.3-18.9,7.1-27.3L143,104.6z"/>
			<path class="st20" d="M118.8,155.4c1.2,5.9,2.2,10.5,2.2,10.5l-0.1,1.5c7.3,4.7,18,7.8,28,7.3v-10.5
				C138,164.7,126,161,118.8,155.4z"/>
			<path class="st20" d="M148.9,195.5V185c-10.3,0.5-21.5-2.8-28.7-7.8l-0.8,9.9C126.6,192.5,138.3,196,148.9,195.5z"/>
			<path class="st7" d="M165.7,104.3c6.6,4,11.3,10.3,13.2,17.7c3.2,12.4,3.6,22.2,4.1,38.2s-0.2,60.4-0.2,60.4s7-3.1,8.5-6.4
				c0,0,2-56.5-0.2-76.5s-9.5-31.3-9.5-31.3S176.5,104.3,165.7,104.3z"/>
			<path class="st20" d="M183.2,172.7c3-0.1,6-0.4,9-1.1c0-3.5,0-7,0-10.5c-3,0.6-6.1,1-9.2,1.1
				C183.1,165.2,183.1,168.8,183.2,172.7z"/>
			<path class="st20" d="M192,192.5c0.1-3.2,0.1-6.8,0.2-10.5c-2.9,0.6-5.9,0.9-8.9,1c0,3.6,0,7.1,0,10.5
				C186.2,193.4,189.1,193.1,192,192.5z"/>
		</g>
		<g id="freepik--hand-with-bulb--inject-10">
			<path class="st14" d="M127.9,108.3c-6,0-13-0.3-16.9,8.4c-1.3,2.8-5.2,19.4-9.6,34.7c-7.9-10-14.6-20.3-15.4-22.1
				c-2.3-4.9-2.4-8.2-4.7-13.2c-1.4-2.8-2.4-5.7-3.2-8.6c-0.6-2-2.3-0.5-3,0.4c-1,1.5-1.6,3.3-1.7,5.1c0,1.3,0,2.6-0.1,3.9
				s-0.5,1.2-1.6,0.7c-2.1-1.2-4-3.3-5.7-4.9s-4.1-3.2-6-5s-2.8-3.6-4.4-5.4c-1.2-1.3-3.1-3.1-4.6-1.2c-0.9,1.2-0.1,2.5,0.3,3.7
				c0.5,1.3,0,2.3-0.3,3.6c-0.4,1.4-0.4,3,0.1,4.3c0.7,1.4,1.4,2.3,1.2,3.9c-0.2,1.4-0.6,2.7-0.4,4.1c0.2,1.2,1,2,1.6,3
				c1,1.8,2.3,3.4,3.8,4.8c1.7,1.8,3.6,3.4,5.6,4.8c4.8,3.7,6.6,4.9,8.2,6.2c2.4,1.9,4.9,6.6,6.3,9.3c2.7,5.2,8.6,19.5,16.5,29.8
				c4.6,5.9,10.7,7.8,16.2,1.1c2.9-3.5,5.3-9.1,6.9-13.3c6.1-16.2,10.5-29.5,10.5-29.5S132.3,121.9,127.9,108.3z"/>
			<path class="st11" d="M88.8,134c-1.6-2.4-2.6-4.1-2.9-4.7c-2.3-4.9-2.4-8.2-4.7-13.2c-1.4-2.7-2.4-5.6-3.2-8.6
				c-0.6-2-2.3-0.5-3,0.4c-1,1.5-1.6,3.3-1.7,5.1c0,1.3,0,2.6-0.1,3.9s-0.5,1.2-1.6,0.7c-2.1-1.2-4-3.3-5.7-4.9s-4.1-3.2-6-5
				s-2.8-3.6-4.4-5.4c-1.2-1.3-3.1-3.1-4.6-1.2c-0.9,1.2-0.1,2.5,0.3,3.7c0.5,1.3,0,2.3-0.3,3.6c-0.4,1.4-0.4,3,0.1,4.3
				c0.7,1.4,1.4,2.3,1.2,3.9c-0.2,1.4-0.6,2.7-0.4,4.1c0.2,1.2,1,2,1.6,3c1,1.8,2.3,3.4,3.8,4.8c1.7,1.8,3.6,3.4,5.6,4.8
				c4.8,3.7,6.6,4.9,8.2,6.2c2.3,1.8,4.7,6.2,6.1,8.8C81.9,145.4,86.3,139.5,88.8,134z"/>
			<path class="st7" d="M87.3,131.7l-0.8-1.1c0,0,0.3-1.3,1.5,0.6c1.1,1.6,2,3.2,2.8,4.9c0.2,0.7-1.1,6.8-4.9,9.9s-7.1,3.9-8.2,3.8
				s-1.4-1.1-2-2.4s-2.1-2.8-1.7-4l0.9,1.2c3.4-0.9,6.5-2.8,8.8-5.5C87.2,134.9,87.3,131.7,87.3,131.7z"/>
			<path class="st8" d="M87.3,131.7l-0.8-1.1c0,0,0.3-1.3,1.5,0.6c1.1,1.6,2,3.2,2.8,4.9c0.2,0.7-1.1,6.8-4.9,9.9s-7.1,3.9-8.2,3.8
				s-1.4-1.1-2-2.4s-2.1-2.8-1.7-4l0.9,1.2c3.4-0.9,6.5-2.8,8.8-5.5C87.2,134.9,87.3,131.7,87.3,131.7z"/>
			<path class="st15" d="M101.3,151.4c2.9,5.4,4.6,11.4,5.1,17.6c1-9.1-1.8-17.4-4.3-20.3L101.3,151.4z"/>
			<path class="st21" d="M128.9,107c-5.7,0.9-6.9,1-10.6,2.3s-6.3,2.5-9.6,13.5c-3.2,10.6-6.3,22.7-6.3,22.7s3.2,8.4,19,10l8.4-23.3
				C129.8,132.1,132.3,118,128.9,107z"/>
			<g id="freepik--Light--inject-10">
				<path class="st5" d="M72.7,119.9c0.2,1.8-1,3.3-2.8,3.6s-3.3-1-3.6-2.8c-0.2-1.8,1-3.3,2.8-3.6
					C70.8,116.9,72.4,118.1,72.7,119.9C72.7,119.9,72.7,119.9,72.7,119.9z"/>
				<path class="st6" d="M255.7,129.9h-3.5c-1.9,0-3.4,1.5-3.4,3.4l0,0v37.4c0,9.4-7.6,17-17,17h-146c-9.4,0-17-7.6-17-17v-48.7
					c0-0.4,0.3-0.8,0.8-0.8s0.8,0.3,0.8,0.8v48.4c0,8.7,7.1,15.8,15.8,15.8c0,0,0,0,0,0h145.4c8.7,0,15.8-7.1,15.8-15.8c0,0,0,0,0,0
					v-37.1c0-2.7,2.2-4.9,4.9-4.9l0,0h6.1C257.5,129,256.6,129.5,255.7,129.9z"/>
				<path class="st6" d="M65.7,120.9c-2.3-1-2.5-2.9-0.5-4.4c2.2-1.5,5.1-1.9,7.6-0.9c2.3,1,2.5,2.9,0.5,4.4
					C71.1,121.5,68.2,121.9,65.7,120.9z"/>
				<path class="st5" d="M65.4,119.8c-2.3-1-2.6-3-0.6-4.5c2.3-1.6,5.2-1.9,7.9-1c2.3,1,2.6,3,0.6,4.5
					C71,120.4,68.1,120.7,65.4,119.8z"/>
				<path class="st6" d="M65.2,118.6c-2.4-1-2.7-3.1-0.6-4.7c2.4-1.6,5.4-2,8.1-1c2.4,1,2.7,3.1,0.6,4.7
					C70.9,119.2,67.9,119.6,65.2,118.6z"/>
				<path class="st5" d="M64.9,117.4c-2.5-1-2.7-3.2-0.6-4.8c2.5-1.6,5.6-2,8.3-1c2.5,1,2.7,3.2,0.6,4.8
					C70.8,118.1,67.7,118.4,64.9,117.4z"/>
				<path class="st6" d="M64.7,116.2c-2.5-1.1-2.8-3.3-0.6-4.9c2.5-1.7,5.7-2,8.5-1c2.5,1.1,2.8,3.3,0.6,4.9
					C70.7,116.8,67.5,117.2,64.7,116.2z"/>
				<path class="st7" d="M64.4,78.6c-8.4,1-14.3,8.6-13.3,17c1.5,12,11.6,12.8,12.2,17.7c0.2,0.9,0.9,1.7,1.8,2
					c2.5,0.9,5.2,0.6,7.4-0.9c0.8-0.5,1.3-1.4,1.3-2.3l0,0c-0.6-4.8,9.1-8.1,7.6-20.1C80.4,83.5,72.8,77.6,64.4,78.6
					C64.4,78.6,64.4,78.6,64.4,78.6z"/>
				<g class="st22">
					<path class="st19" d="M64.4,78.6c-8.4,1-14.3,8.6-13.3,17c1.5,12,11.6,12.8,12.2,17.7c0.2,0.9,0.9,1.7,1.8,2
						c2.5,0.9,5.2,0.6,7.4-0.9c0.8-0.5,1.3-1.4,1.3-2.3l0,0c-0.6-4.8,9.1-8.1,7.6-20.1C80.4,83.5,72.8,77.6,64.4,78.6
						C64.4,78.6,64.4,78.6,64.4,78.6z"/>
				</g>
				<path class="st7" d="M66,114.4c-1.6-0.7-1.8-2.1-0.4-3.2c1.6-1.1,3.7-1.4,5.6-0.7c1.6,0.7,1.8,2.1,0.4,3.2
					C69.9,114.9,67.9,115.1,66,114.4z"/>
				<path class="st1" d="M70.5,111.9c-0.3,0-0.5-0.2-0.6-0.4c-0.4-2.9-0.4-5.9,0-8.8c0.1-0.8,0.3-1.7,0.5-2.5
					c-0.5-0.1-1-0.3-1.4-0.5c-0.8-0.4-1.6-0.9-2.2-1.4c-0.5,0.7-1.1,1.4-1.8,1.9c-0.4,0.3-0.8,0.6-1.2,0.8c0.4,0.7,0.8,1.5,1,2.3
					c1,2.7,1.8,5.6,2.1,8.5c0,0.3-0.2,0.5-0.5,0.6c-0.3,0-0.5-0.2-0.6-0.5c-0.4-2.8-1.1-5.6-2.1-8.3c-0.3-0.8-0.6-1.6-1-2.3
					c-1,0.3-2.1,0.2-3-0.5c-0.7-0.5-0.9-1.4-0.5-2.1c0.3-0.5,0.8-0.8,1.3-0.7c0.8,0.1,1.7,0.8,2.6,2.1c0.4-0.2,0.8-0.4,1.1-0.7
					c0.7-0.5,1.3-1.2,1.7-1.9c-0.7-0.7-1.1-1.8-1.1-2.8c0.1-0.8,0.9-1.3,1.7-1.2c0.5,0.1,0.9,0.4,1.1,0.9c0.3,1,0.2,2.1-0.4,3
					c0.6,0.6,1.3,1.1,2.1,1.4c0.4,0.2,0.8,0.3,1.3,0.4c0.5-1.4,1.2-2.4,2-2.6c0.5-0.2,1.1,0,1.5,0.4c0.5,0.6,0.5,1.5,0,2.2
					c-0.7,0.8-1.7,1.3-2.8,1.2c-0.2,0.8-0.4,1.7-0.5,2.5c-0.3,2.8-0.3,5.7,0,8.5C71,111.6,70.8,111.9,70.5,111.9
					C70.5,111.9,70.5,111.9,70.5,111.9L70.5,111.9z M60.5,99c-0.1,0-0.2,0.1-0.3,0.2c-0.2,0.4,0.1,0.7,0.2,0.8
					c0.5,0.4,1.1,0.5,1.7,0.3C61.5,99.4,60.9,99,60.5,99L60.5,99z M71.8,99.2c0.6,0,1.2-0.3,1.6-0.8c0.1-0.1,0.3-0.5,0.1-0.8
					c-0.1-0.1-0.3-0.2-0.4-0.1C72.7,97.6,72.2,98.1,71.8,99.2L71.8,99.2z M66.3,94.5c-0.3,0-0.3,0.2-0.4,0.3c0,0.6,0.2,1.2,0.6,1.6
					c0.3-0.5,0.3-1.2,0.2-1.7C66.7,94.5,66.5,94.4,66.3,94.5L66.3,94.5z"/>
			</g>
			<path class="st19" d="M74.2,73.7c-0.5-0.2-0.8-0.8-0.6-1.3c0,0,0,0,0,0l2-4.9c0.2-0.5,0.8-0.7,1.3-0.5l0,0
				c0.5,0.2,0.8,0.8,0.6,1.3c0,0,0,0,0,0l-2,4.9C75.3,73.7,74.7,74,74.2,73.7C74.2,73.8,74.2,73.8,74.2,73.7L74.2,73.7z"/>
			<path class="st19" d="M62.6,72.3c-0.3-0.1-0.6-0.4-0.6-0.8l-0.7-5.2c-0.1-0.6,0.3-1.1,0.9-1.1s1.1,0.3,1.1,0.9l0.7,5.2
				c0.1,0.5-0.3,1.1-0.8,1.1c0,0,0,0,0,0C63,72.4,62.8,72.4,62.6,72.3z"/>
			<path class="st19" d="M51.9,76.8c-0.2-0.1-0.3-0.2-0.4-0.3l-3.2-4.2c-0.3-0.4-0.3-1.1,0.2-1.4s1.1-0.3,1.4,0.2l0,0l3.2,4.2
				c0.3,0.4,0.3,1.1-0.2,1.4c0,0,0,0,0,0C52.6,76.9,52.2,77,51.9,76.8z"/>
			<path class="st19" d="M40,84.2c-0.5-0.2-0.8-0.8-0.6-1.3c0.2-0.5,0.8-0.8,1.3-0.6l4.9,2l0,0c0.5,0.2,0.8,0.8,0.6,1.3
				c-0.2,0.5-0.8,0.8-1.3,0.6L40,84.2L40,84.2z"/>
			<path class="st19" d="M38.2,98.4c-0.3-0.1-0.6-0.4-0.6-0.8c-0.1-0.5,0.3-1.1,0.8-1.1c0,0,0,0,0,0l5.2-0.7
				c0.6-0.1,1.1,0.3,1.1,0.9s-0.3,1.1-0.9,1.1l-5.2,0.7C38.6,98.5,38.4,98.5,38.2,98.4z"/>
			<path class="st19" d="M88,91.5c-0.5-0.2-0.8-0.8-0.6-1.3c0.1-0.4,0.5-0.6,0.9-0.7l5.2-0.7c0.5-0.1,1.1,0.3,1.1,0.8c0,0,0,0,0,0
				c0.1,0.5-0.3,1.1-0.8,1.1c0,0,0,0,0,0l-5.2,0.7C88.4,91.6,88.2,91.6,88,91.5z"/>
			<path class="st19" d="M83.5,80.8c-0.2-0.1-0.3-0.2-0.4-0.3c-0.4-0.4-0.3-1.1,0.1-1.4c0,0,0,0,0,0l4.2-3.2
				c0.4-0.3,1.1-0.3,1.4,0.2s0.3,1.1-0.2,1.4l-4.2,3.2C84.2,80.8,83.8,80.9,83.5,80.8z"/>
		</g>
		<path class="st10" d="M118,196.1l-5.3,2.9c-0.7,0.4-1.1,1.2-1.2,2c-0.1,4.7-0.6,23.3,0.2,32.2c0.1,0.8,0.6,1.6,1.3,2
			c3,1.7,11.1,6.1,14.9,7.2c0.9,0.1,1.7,0.1,2.5-0.3l3.8-1.5c0.7-0.3,1.2-1,1.2-1.8c0-9.4,1.7-22.2,3.3-32.5c0.1-0.8-0.3-1.5-1-1.9
			l-17.3-8.4C119.6,195.7,118.7,195.7,118,196.1z"/>
		<path class="st6" d="M111.7,233.2c-0.8-8.9-0.3-27.5-0.2-32.2c-0.1-0.4,0.2-0.8,0.7-0.9c0.2,0,0.4,0,0.6,0.1l16.1,8
			c0.7,0.4,1.1,1.1,1.1,1.9c-0.3,4.2-1.4,19.9-0.9,31.1c0.1,0.5-0.3,1-0.9,1.1c-0.1,0-0.2,0-0.4,0c-3.7-1-11.9-5.5-14.9-7.2
			C112.3,234.7,111.8,234,111.7,233.2z"/>
		<path class="st5" d="M128,242.4c0.8,0.1,1.6,0,2.3-0.3l3.8-1.5c0.7-0.3,1.2-1,1.2-1.8c0.7-9.7,1.7-22.2,3.3-32.5
			c0-0.3,0-0.7-0.2-1l-8.7,4c0.1,0.3,0.2,0.6,0.2,0.9c-0.4,4.2-1.4,20-0.9,31.1c0.1,0.6-0.4,1-0.9,1.1
			C128.1,242.4,128,242.4,128,242.4z"/>
		<path class="st5" d="M113.8,204l14.1,6.6l-0.7,12l-13.8-5.9C113.4,216.7,113.5,208.1,113.8,204z"/>
		<path class="st7" d="M127.2,221.9l-13.2-5.7c0,0,0.1-7.8,0.3-11.9l13.5,6.3L127.2,221.9z"/>
		<path class="st23" d="M127.2,221.9l-13.2-5.7c0,0,0.1-7.8,0.3-11.9l13.5,6.3L127.2,221.9z"/>
		<polygon class="st19" points="121.3,208.6 118.4,212.9 120.2,213.5 118.8,217.3 122.1,212.9 120.2,212.1 		"/>
		<path class="st5" d="M126.3,225.3l-0.1,1.2c0,0.2-0.2,0.5-0.4,0.5c-0.1,0-0.2,0-0.2-0.1l-2.1-0.9c-0.4-0.2-0.6-0.5-0.6-0.9
			l0.1-1.2c0-0.2,0.2-0.4,0.4-0.5c0.1,0,0.2,0,0.2,0.1l2.2,0.9C126.1,224.6,126.3,224.9,126.3,225.3z"/>
		<path class="st5" d="M126.3,229.2l-0.1,1.2c0,0.2-0.2,0.5-0.4,0.5c-0.1,0-0.1,0-0.2,0l-2.2-0.9c-0.4-0.2-0.6-0.5-0.6-0.9v-1.2
			c0-0.2,0.2-0.5,0.4-0.5c0.1,0,0.2,0,0.2,0l2.2,0.9C126.1,228.4,126.3,228.8,126.3,229.2z"/>
		<path class="st5" d="M126.3,233.1v1.2c0,0.2-0.2,0.5-0.4,0.5c-0.1,0-0.2,0-0.2,0l-2.2-0.8c-0.4-0.2-0.6-0.5-0.6-0.9v-1.2
			c0-0.2,0.2-0.5,0.4-0.5c0.1,0,0.2,0,0.2,0l2.2,0.8C126.1,232.3,126.3,232.7,126.3,233.1z"/>
		<path class="st5" d="M126.3,237v1.2c0,0.2-0.2,0.5-0.4,0.5c-0.1,0-0.2,0-0.2,0l-2.2-0.8c-0.4-0.1-0.6-0.5-0.6-0.9v-1.2
			c0-0.2,0.2-0.5,0.4-0.5c0.1,0,0.2,0,0.2,0l2.2,0.8C126.1,236.3,126.3,236.6,126.3,237z"/>
		<path class="st5" d="M121.5,223.1l-0.1,1.2c0,0.2-0.2,0.4-0.4,0.5c-0.1,0-0.2,0-0.2-0.1l-2.1-0.9c-0.4-0.2-0.6-0.5-0.6-0.9v-1.3
			c0-0.2,0.2-0.4,0.4-0.5c0.1,0,0.2,0,0.2,0.1l2.2,0.9C121.3,222.4,121.5,222.7,121.5,223.1z"/>
		<path class="st5" d="M121.5,227l-0.1,1.2c0,0.2-0.2,0.4-0.4,0.5c-0.1,0-0.2,0-0.2-0.1l-2.1-0.9c-0.4-0.2-0.6-0.5-0.6-0.9v-1.3
			c0-0.2,0.2-0.4,0.4-0.5c0.1,0,0.2,0,0.2,0.1l2.2,0.9C121.2,226.2,121.5,226.6,121.5,227z"/>
		<path class="st5" d="M121.5,230.8v1.2c0,0.2-0.2,0.5-0.4,0.5c-0.1,0-0.2,0-0.2,0l-2.1-0.9c-0.4-0.2-0.6-0.5-0.6-0.9v-1.3
			c0-0.2,0.2-0.4,0.4-0.5c0.1,0,0.2,0,0.2,0l2.2,0.9C121.2,230.1,121.5,230.4,121.5,230.8z"/>
		<path class="st5" d="M121.4,234.7v1.2c0,0.2-0.2,0.4-0.4,0.5c-0.1,0-0.2,0-0.2,0l-2.1-0.9c-0.4-0.2-0.6-0.5-0.6-0.9v-1.3
			c0-0.2,0.2-0.5,0.4-0.5c0.1,0,0.2,0,0.2,0l2.2,0.9C121.2,233.9,121.5,234.3,121.4,234.7z"/>
		<path class="st5" d="M116.7,221v1.3c0,0.2-0.2,0.4-0.4,0.5c-0.1,0-0.2,0-0.2-0.1l-2.1-0.9c-0.4-0.2-0.6-0.5-0.6-0.9v-1.3
			c0-0.2,0.2-0.4,0.4-0.5c0.1,0,0.2,0,0.2,0.1l2.1,0.9C116.5,220.2,116.7,220.6,116.7,221z"/>
		<path class="st5" d="M116.7,224.7v1.3c0,0.2-0.2,0.4-0.4,0.5c-0.1,0-0.2,0-0.2-0.1l-2.1-0.9c-0.4-0.2-0.6-0.5-0.6-0.9v-1.3
			c0-0.2,0.2-0.4,0.4-0.5c0.1,0,0.2,0,0.2,0.1l2.1,0.9C116.5,224,116.7,224.3,116.7,224.7z"/>
		<path class="st5" d="M116.7,228.4v1.3c0,0.2-0.2,0.4-0.4,0.5c-0.1,0-0.2,0-0.2-0.1l-2.1-0.9c-0.4-0.2-0.6-0.5-0.6-0.9V227
			c0-0.2,0.2-0.4,0.4-0.5c0.1,0,0.2,0,0.2,0.1l2.1,0.9C116.5,227.7,116.7,228.1,116.7,228.4z"/>
		<path class="st5" d="M116.8,232.2v1.3c0,0.2-0.2,0.4-0.4,0.5c-0.1,0-0.2,0-0.2-0.1L114,233c-0.4-0.2-0.6-0.5-0.6-0.9v-1.3
			c0-0.2,0.2-0.4,0.4-0.5c0.1,0,0.2,0,0.2,0.1l2.1,0.9C116.5,231.4,116.7,231.8,116.8,232.2z"/>
	</g>
</g>
<g id="freepik--fuse-box--inject-10_1_">
	<g id="freepik--fuse-box--inject-10">
		<g id="freepik--plants--inject-10_2_">
			<path class="st7" d="M358.2,389.5l-9.2-3.1c-0.8-8.8,0.4-30.3,14.7-42.8c14.6-12.8,24.1-4.6,23.8,1c-0.3,6.1-13.4,11.8-20,20
				C360.3,373.5,358.1,379.5,358.2,389.5z"/>
			<path class="st24" d="M358.2,389.5l-9.2-3.1c-0.8-8.8,0.4-30.3,14.7-42.8c14.6-12.8,24.1-4.6,23.8,1c-0.3,6.1-13.4,11.8-20,20
				C360.3,373.5,358.1,379.5,358.2,389.5z"/>
			<path class="st1" d="M352,387.9L352,387.9c-0.3,0-0.5-0.2-0.5-0.5c0.1-23.8,17.8-44.6,26.6-45.9c0.3,0,0.5,0.1,0.6,0.4
				c0,0.3-0.1,0.5-0.4,0.6c-8.6,1.3-25.6,22.5-25.7,45C352.5,387.7,352.3,387.9,352,387.9C352,387.9,352,387.9,352,387.9z"/>
			<path class="st7" d="M380.2,368.2c-8-2.6-25.4,6.1-28.8,19l6.8,2.3c5.5-4.5,12.2-7.4,19.3-8.3
				C388.8,380.1,388.1,370.8,380.2,368.2z"/>
			<path class="st25" d="M380.2,368.2c-8-2.6-25.4,6.1-28.8,19l6.8,2.3c5.5-4.5,12.2-7.4,19.3-8.3
				C388.8,380.1,388.1,370.8,380.2,368.2z"/>
			<path class="st1" d="M354.5,388.9c-0.1,0-0.2,0-0.2,0c-0.2-0.1-0.3-0.4-0.2-0.7c6.9-13.2,21.7-17.1,27.8-15.5
				c0.3,0.1,0.4,0.3,0.4,0.6c0,0,0,0,0,0c-0.1,0.3-0.3,0.4-0.6,0.4c-5.8-1.5-20,2.3-26.6,15C354.9,388.8,354.7,388.9,354.5,388.9z"
				/>
		</g>
		<g id="freepik--Box--inject-10">
			<path class="st10" d="M346.8,241.3v147.9l0,0c0.1,1,0.7,1.9,1.6,2.3c2.5,1.3,5.4,1.3,7.9,0c0.9-0.4,1.5-1.3,1.6-2.3l0,0V241.3
				H346.8z"/>
			<polygon class="st6" points="346.8,269 358,262.5 358,241.3 346.8,241.3 			"/>
			<polygon class="st7" points="331.2,266.6 408.3,222.1 408.3,83.9 331.2,128.5 			"/>
			<polygon class="st7" points="408.3,83.9 373.6,63.9 296.4,108.4 331.2,128.5 			"/>
			<polygon class="st26" points="408.3,83.9 373.6,63.9 296.4,108.4 331.2,128.5 			"/>
			<polygon class="st7" points="296.4,108.4 296.4,246.6 331.2,266.6 331.2,128.5 			"/>
			<polygon class="st8" points="296.4,108.4 296.4,246.6 331.2,266.6 331.2,128.5 			"/>
			<polygon class="st19" points="380.4,119.8 351.8,194.3 369.8,179.7 355.8,232.4 387.8,152.3 369.8,166.4 			"/>
			<path class="st6" d="M337,129.6c1.1-0.6,1.9-0.1,1.9,1.1c-0.1,1.4-0.8,2.6-1.9,3.3c-1.1,0.6-1.9,0.1-1.9-1.1
				C335.1,131.6,335.9,130.3,337,129.6z"/>
			<path class="st6" d="M337,254.4c1.1-0.6,1.9-0.1,1.9,1.1c-0.1,1.4-0.8,2.6-1.9,3.3c-1.1,0.6-1.9,0.1-1.9-1.1
				C335.1,256.4,335.9,255.1,337,254.4z"/>
			<path class="st6" d="M402.5,91.7c1.1-0.6,1.9-0.1,1.9,1.1c-0.1,1.4-0.8,2.6-1.9,3.3c-1.1,0.6-1.9,0.1-1.9-1.1
				C400.7,93.7,401.4,92.5,402.5,91.7z"/>
			<path class="st6" d="M402.5,216.5c1.1-0.6,1.9-0.1,1.9,1.1c-0.1,1.4-0.8,2.6-1.9,3.3c-1.1,0.6-1.9,0.1-1.9-1.1
				C400.7,218.5,401.4,217.2,402.5,216.5z"/>
			<polygon class="st7" points="408.3,83.9 408.3,182 450.8,157.4 450.8,19.3 373.6,63.9 			"/>
			<polygon class="st7" points="450.8,19.3 373.6,63.9 369.8,61.7 446.9,17.1 			"/>
			<polygon class="st26" points="450.8,19.3 373.6,63.9 369.8,61.7 446.9,17.1 			"/>
			<polygon class="st7" points="369.8,66.1 369.8,61.7 373.6,63.9 			"/>
			<polygon class="st8" points="369.8,66.1 369.8,61.7 373.6,63.9 			"/>
			<polygon class="st8" points="373.6,63.9 423.3,77.5 423.3,173.3 408.3,182 408.3,83.9 			"/>
		</g>
	</g>
</g>
</svg>
