<?xml version="1.0" encoding="UTF-8"?>
<!-- Generator: Adobe Illustrator 23.0.3, SVG Export Plug-In . SVG Version: 6.00 Build 0)  -->
<svg version="1.1" id="Ñëîé_1" xmlns="http://www.w3.org/2000/svg" xmlns:xlink="http://www.w3.org/1999/xlink" x="0px" y="0px" viewBox="0 0 730 404" style="enable-background:new 0 0 730 404;" xml:space="preserve">
<style type="text/css">
	.st0{fill:url(#SVGID_1_);}
	.st1{fill:url(#SVGID_3_);}
	.st2{fill:url(#SVGID_4_);}
	.st3{fill:url(#SVGID_5_);}
	.st4{fill:url(#SVGID_6_);}
	.st5{fill:url(#SVGID_7_);}
	.st6{opacity:0.5;fill:#FFFFFF;}
	.st7{fill:#0E3AD8;}
	.st8{opacity:0.5;fill:url(#SVGID_8_);}
	.st9{opacity:0.5;fill:url(#SVGID_10_);}
	.st10{opacity:0.5;fill:url(#SVGID_11_);}
	.st11{opacity:0.5;fill:url(#SVGID_12_);}
	.st12{fill:url(#SVGID_13_);}
	.st13{fill:#0C5ADB;}
	.st14{opacity:0.5;fill:url(#SVGID_14_);}
	.st15{opacity:0.5;fill:url(#SVGID_15_);}
	.st16{opacity:0.8;fill:#42E8E0;}
	.st17{fill:url(#SVGID_16_);}
	.st18{fill:url(#SVGID_17_);}
	.st19{opacity:0.5;fill:url(#SVGID_18_);}
	.st20{opacity:0.5;fill:url(#SVGID_19_);}
	.st21{opacity:0.5;fill:url(#SVGID_20_);}
	.st22{opacity:0.5;fill:url(#SVGID_21_);}
	.st23{fill:url(#SVGID_22_);}
	.st24{opacity:0.5;fill:url(#SVGID_23_);}
	.st25{opacity:0.5;fill:url(#SVGID_24_);}
	.st26{fill:url(#SVGID_25_);}
	.st27{fill:#FFFFFF;}
	.st28{fill:url(#SVGID_26_);}
	.st29{fill:url(#SVGID_27_);}
	.st30{fill:#0B32A0;}
	.st31{fill:url(#SVGID_28_);}
	.st32{fill:url(#SVGID_29_);}
	.st33{fill:url(#SVGID_30_);}
	.st34{fill:url(#SVGID_31_);}
	.st35{fill:url(#SVGID_32_);}
	.st36{fill:url(#SVGID_33_);}
	.st37{opacity:0.11;}
	.st38{clip-path:url(#SVGID_34_);}
	.st39{fill:url(#SVGID_35_);}
	.st40{fill:url(#SVGID_36_);}
	.st41{fill:#9198DB;}
	.st42{fill:#ADB1F2;}
	.st43{fill:#24126A;}
	.st44{fill:url(#SVGID_37_);}
	.st45{fill:url(#SVGID_38_);}
	.st46{fill:url(#SVGID_39_);}
	.st47{fill:#1071FF;}
	.st48{fill:url(#SVGID_40_);}
	.st49{fill:url(#SVGID_41_);}
	.st50{fill:url(#SVGID_42_);}
	.st51{fill:url(#SVGID_43_);}
	.st52{fill:url(#SVGID_44_);}
	.st53{fill:url(#SVGID_45_);}
	.st54{fill:url(#SVGID_46_);}
	.st55{fill:url(#SVGID_47_);}
	.st56{fill:#42E8E0;}
	.st57{fill:url(#SVGID_48_);}
	.st58{fill:url(#SVGID_49_);}
	.st59{fill:url(#SVGID_50_);}
	.st60{fill:url(#SVGID_51_);}
	.st61{fill:url(#SVGID_52_);}
	.st62{fill:url(#SVGID_53_);}
	.st63{fill:url(#SVGID_54_);}
	.st64{fill:url(#SVGID_55_);}
	.st65{clip-path:url(#SVGID_56_);}
	.st66{fill:url(#SVGID_57_);}
	.st67{fill:url(#SVGID_58_);}
	.st68{fill:url(#SVGID_59_);}
</style>
<g>
	<linearGradient id="SVGID_1_" gradientUnits="userSpaceOnUse" x1="128.6569" y1="241.3653" x2="235.7132" y2="241.3653">
		<stop offset="0" style="stop-color:#00E1DB"/>
		<stop offset="0.1208" style="stop-color:#02CEDB"/>
		<stop offset="0.3647" style="stop-color:#07ADDB"/>
		<stop offset="0.5985" style="stop-color:#0A95DB"/>
		<stop offset="0.8158" style="stop-color:#0B87DB"/>
		<stop offset="1" style="stop-color:#0C82DB"/>
	</linearGradient>
	<path class="st0" d="M129.1,261.9l-0.5-0.8l67.7-39.2c2.4-1.4,5.3-1.4,7.7,0l31.6,18.3l-0.5,0.8l-31.6-18.3c-2.1-1.2-4.7-1.2-6.7,0   L129.1,261.9z"/>
	<linearGradient id="SVGID_3_" gradientUnits="userSpaceOnUse" x1="500.7891" y1="241.3653" x2="607.8453" y2="241.3653">
		<stop offset="0" style="stop-color:#00E1DB"/>
		<stop offset="0.1208" style="stop-color:#02CEDB"/>
		<stop offset="0.3647" style="stop-color:#07ADDB"/>
		<stop offset="0.5985" style="stop-color:#0A95DB"/>
		<stop offset="0.8158" style="stop-color:#0B87DB"/>
		<stop offset="1" style="stop-color:#0C82DB"/>
	</linearGradient>
	<path class="st1" d="M607.4,261.9l-67.7-39.2c-2.1-1.2-4.7-1.2-6.7,0L501.3,241l-0.5-0.8l31.6-18.3c2.4-1.4,5.3-1.4,7.7,0   l67.7,39.2L607.4,261.9z"/>
	<linearGradient id="SVGID_4_" gradientUnits="userSpaceOnUse" x1="195.2812" y1="259.432" x2="310.2404" y2="259.432">
		<stop offset="0" style="stop-color:#00E1DB"/>
		<stop offset="0.1208" style="stop-color:#02CEDB"/>
		<stop offset="0.3647" style="stop-color:#07ADDB"/>
		<stop offset="0.5985" style="stop-color:#0A95DB"/>
		<stop offset="0.8158" style="stop-color:#0B87DB"/>
		<stop offset="1" style="stop-color:#0C82DB"/>
	</linearGradient>
	<path class="st2" d="M252.6,292.9c-0.9,0-1.7-0.2-2.4-0.6l-53.9-31.2c-0.7-0.4-1.1-1-1.1-1.6c0-0.7,0.5-1.5,1.4-2l53.1-30.7   c1.6-0.9,4-1,5.4-0.2l53.9,31.2c0.7,0.4,1.1,1,1.1,1.6c0,0.7-0.5,1.5-1.4,2l-53.1,30.7C254.8,292.6,253.7,292.9,252.6,292.9z    M250.6,291.6c1.2,0.7,3.3,0.6,4.6-0.2l53.1-30.7c0.6-0.4,1-0.8,1-1.3c0-0.4-0.4-0.7-0.7-0.9l-53.9-31.2c-1.2-0.7-3.3-0.6-4.6,0.2   l-53.1,30.7c-0.6,0.4-1,0.8-1,1.3c0,0.4,0.4,0.7,0.7,0.9L250.6,291.6z"/>
	<linearGradient id="SVGID_5_" gradientUnits="userSpaceOnUse" x1="526.1795" y1="294.5076" x2="463.3304" y2="244.5591">
		<stop offset="0" style="stop-color:#00E1DB"/>
		<stop offset="0.1208" style="stop-color:#02CEDB"/>
		<stop offset="0.3647" style="stop-color:#07ADDB"/>
		<stop offset="0.5985" style="stop-color:#0A95DB"/>
		<stop offset="0.8158" style="stop-color:#0B87DB"/>
		<stop offset="1" style="stop-color:#0C82DB"/>
	</linearGradient>
	<path class="st3" d="M481.9,292.9c-0.9,0-1.7-0.2-2.4-0.6l-53.9-31.2c-0.7-0.4-1.1-1-1.1-1.6c0-0.7,0.5-1.5,1.4-2l53.1-30.7   c1.6-0.9,4-1,5.4-0.2l53.9,31.2c0.7,0.4,1.1,1,1.1,1.6c0,0.7-0.5,1.5-1.4,2l-53.1,30.7C484.1,292.6,483,292.9,481.9,292.9z    M479.9,291.6c1.2,0.7,3.3,0.6,4.6-0.2l53.1-30.7c0.6-0.4,1-0.8,1-1.3c0-0.4-0.4-0.7-0.7-0.9l-53.9-31.2c-1.2-0.7-3.3-0.6-4.6,0.2   l-53.1,30.7c-0.6,0.4-1,0.8-1,1.3c0,0.4,0.4,0.7,0.7,0.9L479.9,291.6z"/>
	<g>
		<linearGradient id="SVGID_6_" gradientUnits="userSpaceOnUse" x1="396.4212" y1="256.4871" x2="543.0217" y2="256.4871">
			<stop offset="0" style="stop-color:#0C7DDB"/>
			<stop offset="0.2109" style="stop-color:#0C82DB"/>
			<stop offset="0.4595" style="stop-color:#0C90DB"/>
			<stop offset="0.7271" style="stop-color:#0CA8DB"/>
			<stop offset="1" style="stop-color:#0CC8DB"/>
		</linearGradient>
		<polygon class="st4" points="539.1,236.6 539.1,243.3 481.9,276.3 424.7,243.3 424.7,236.6   "/>
		<linearGradient id="SVGID_7_" gradientUnits="userSpaceOnUse" x1="424.7042" y1="236.6333" x2="539.108" y2="236.6333">
			<stop offset="0" style="stop-color:#2FB3F6"/>
			<stop offset="0.1177" style="stop-color:#34B5F6"/>
			<stop offset="0.2566" style="stop-color:#42BAF7"/>
			<stop offset="0.4062" style="stop-color:#5AC3F8"/>
			<stop offset="0.5634" style="stop-color:#7BCFF9"/>
			<stop offset="0.7265" style="stop-color:#A6DEFB"/>
			<stop offset="0.8921" style="stop-color:#D9F1FD"/>
			<stop offset="1" style="stop-color:#FFFFFF"/>
		</linearGradient>
		<polygon class="st5" points="481.9,269.7 424.7,236.6 481.9,203.5 539.1,236.6   "/>
		<polygon class="st6" points="481.9,268.9 425.4,236.2 424.7,236.6 481.9,269.7 539.1,236.6 538.4,236.2   "/>
		<polygon class="st7" points="481.9,262.1 437.9,236.6 481.9,211.2 525.9,236.6   "/>
		<linearGradient id="SVGID_8_" gradientUnits="userSpaceOnUse" x1="437.9095" y1="236.641" x2="525.9029" y2="236.641">
			<stop offset="0" style="stop-color:#42E8E0"/>
			<stop offset="0.1464" style="stop-color:#40E3E0"/>
			<stop offset="0.3192" style="stop-color:#3BD5DF"/>
			<stop offset="0.5051" style="stop-color:#32BDDE"/>
			<stop offset="0.7003" style="stop-color:#259CDD"/>
			<stop offset="0.901" style="stop-color:#1572DC"/>
			<stop offset="1" style="stop-color:#0C5ADB"/>
		</linearGradient>
		<polygon class="st8" points="481.9,262.1 437.9,236.6 481.9,211.2 525.9,236.6   "/>
		<linearGradient id="SVGID_10_" gradientUnits="userSpaceOnUse" x1="481.9056" y1="220.7086" x2="525.9029" y2="220.7086">
			<stop offset="0" style="stop-color:#42E8E0"/>
			<stop offset="0.1507" style="stop-color:#43E3E0"/>
			<stop offset="0.3285" style="stop-color:#45D5DF"/>
			<stop offset="0.5199" style="stop-color:#49BDDD"/>
			<stop offset="0.7209" style="stop-color:#4E9CDB"/>
			<stop offset="0.9274" style="stop-color:#5472D8"/>
			<stop offset="1" style="stop-color:#5761D7"/>
		</linearGradient>
		<polygon class="st9" points="481.9,204.8 525.9,230.2 525.9,236.6 481.9,211.2   "/>
		<linearGradient id="SVGID_11_" gradientUnits="userSpaceOnUse" x1="437.9095" y1="220.7082" x2="481.9068" y2="220.7082">
			<stop offset="0" style="stop-color:#42E8E0"/>
			<stop offset="0.1507" style="stop-color:#43E3E0"/>
			<stop offset="0.3285" style="stop-color:#45D5DF"/>
			<stop offset="0.5199" style="stop-color:#49BDDD"/>
			<stop offset="0.7209" style="stop-color:#4E9CDB"/>
			<stop offset="0.9274" style="stop-color:#5472D8"/>
			<stop offset="1" style="stop-color:#5761D7"/>
		</linearGradient>
		<polygon class="st10" points="481.9,211.2 437.9,236.6 437.9,230.2 481.9,204.8   "/>
		<linearGradient id="SVGID_12_" gradientUnits="userSpaceOnUse" x1="437.9095" y1="230.2239" x2="525.9029" y2="230.2239">
			<stop offset="0" style="stop-color:#42E8E0"/>
			<stop offset="0.1464" style="stop-color:#40E3E0"/>
			<stop offset="0.3192" style="stop-color:#3BD5DF"/>
			<stop offset="0.5051" style="stop-color:#32BDDE"/>
			<stop offset="0.7003" style="stop-color:#259CDD"/>
			<stop offset="0.901" style="stop-color:#1572DC"/>
			<stop offset="1" style="stop-color:#0C5ADB"/>
		</linearGradient>
		<polygon class="st11" points="481.9,255.7 437.9,230.2 481.9,204.8 525.9,230.2   "/>
		<g>
			<linearGradient id="SVGID_13_" gradientUnits="userSpaceOnUse" x1="464.326" y1="230.2239" x2="499.4864" y2="230.2239">
				<stop offset="0" style="stop-color:#4BCEF6"/>
				<stop offset="0.1554" style="stop-color:#50CFF6"/>
				<stop offset="0.3386" style="stop-color:#5ED2F7"/>
				<stop offset="0.5359" style="stop-color:#76D7F8"/>
				<stop offset="0.743" style="stop-color:#97DEFA"/>
				<stop offset="0.956" style="stop-color:#C1E7FC"/>
				<stop offset="1" style="stop-color:#CBE9FD"/>
			</linearGradient>
			<polygon class="st12" points="481.9,240.4 464.3,230.2 481.9,220.1 499.5,230.2    "/>
		</g>
		<polygon class="st13" points="481.9,221 498.7,230.7 499.5,230.2 481.9,220.1 464.3,230.2 465.1,230.7   "/>
		<linearGradient id="SVGID_14_" gradientUnits="userSpaceOnUse" x1="481.9068" y1="246.1564" x2="525.9029" y2="246.1564">
			<stop offset="0" style="stop-color:#42E8E0"/>
			<stop offset="0.1464" style="stop-color:#40E3E0"/>
			<stop offset="0.3192" style="stop-color:#3BD5DF"/>
			<stop offset="0.5051" style="stop-color:#32BDDE"/>
			<stop offset="0.7003" style="stop-color:#259CDD"/>
			<stop offset="0.901" style="stop-color:#1572DC"/>
			<stop offset="1" style="stop-color:#0C5ADB"/>
		</linearGradient>
		<polygon class="st14" points="481.9,255.7 481.9,262.1 525.9,236.6 525.9,230.2   "/>
		<linearGradient id="SVGID_15_" gradientUnits="userSpaceOnUse" x1="437.9095" y1="246.156" x2="481.9068" y2="246.156">
			<stop offset="0" style="stop-color:#42E8E0"/>
			<stop offset="0.1464" style="stop-color:#40E3E0"/>
			<stop offset="0.3192" style="stop-color:#3BD5DF"/>
			<stop offset="0.5051" style="stop-color:#32BDDE"/>
			<stop offset="0.7003" style="stop-color:#259CDD"/>
			<stop offset="0.901" style="stop-color:#1572DC"/>
			<stop offset="1" style="stop-color:#0C5ADB"/>
		</linearGradient>
		<polygon class="st15" points="437.9,230.2 437.9,236.6 481.9,262.1 481.9,255.7   "/>
		<polygon class="st16" points="481.9,255 438.5,229.9 437.9,230.2 481.9,255.7 525.9,230.2 525.3,229.9   "/>
	</g>
	<g>
		
			<linearGradient id="SVGID_16_" gradientUnits="userSpaceOnUse" x1="220.0621" y1="256.4871" x2="366.6626" y2="256.4871" gradientTransform="matrix(-1 0 0 1 558.1687 0)">
			<stop offset="0" style="stop-color:#0C7DDB"/>
			<stop offset="0.2109" style="stop-color:#0C82DB"/>
			<stop offset="0.4595" style="stop-color:#0C90DB"/>
			<stop offset="0.7271" style="stop-color:#0CA8DB"/>
			<stop offset="1" style="stop-color:#0CC8DB"/>
		</linearGradient>
		<polygon class="st17" points="195.4,236.6 195.4,243.3 252.6,276.3 309.8,243.3 309.8,236.6   "/>
		
			<linearGradient id="SVGID_17_" gradientUnits="userSpaceOnUse" x1="248.3451" y1="236.6333" x2="362.749" y2="236.6333" gradientTransform="matrix(-1 0 0 1 558.1687 0)">
			<stop offset="0" style="stop-color:#2FB3F6"/>
			<stop offset="0.1177" style="stop-color:#34B5F6"/>
			<stop offset="0.2566" style="stop-color:#42BAF7"/>
			<stop offset="0.4062" style="stop-color:#5AC3F8"/>
			<stop offset="0.5634" style="stop-color:#7BCFF9"/>
			<stop offset="0.7265" style="stop-color:#A6DEFB"/>
			<stop offset="0.8921" style="stop-color:#D9F1FD"/>
			<stop offset="1" style="stop-color:#FFFFFF"/>
		</linearGradient>
		<polygon class="st18" points="252.6,269.7 309.8,236.6 252.6,203.5 195.4,236.6   "/>
		<polygon class="st6" points="252.6,268.9 309.2,236.2 309.8,236.6 252.6,269.7 195.4,236.6 196.1,236.2   "/>
		<polygon class="st7" points="252.6,262.1 296.6,236.6 252.6,211.2 208.6,236.6   "/>
		
			<linearGradient id="SVGID_18_" gradientUnits="userSpaceOnUse" x1="261.5504" y1="236.641" x2="349.5438" y2="236.641" gradientTransform="matrix(-1 0 0 1 558.1687 0)">
			<stop offset="0" style="stop-color:#42E8E0"/>
			<stop offset="0.1464" style="stop-color:#40E3E0"/>
			<stop offset="0.3192" style="stop-color:#3BD5DF"/>
			<stop offset="0.5051" style="stop-color:#32BDDE"/>
			<stop offset="0.7003" style="stop-color:#259CDD"/>
			<stop offset="0.901" style="stop-color:#1572DC"/>
			<stop offset="1" style="stop-color:#0C5ADB"/>
		</linearGradient>
		<polygon class="st19" points="252.6,262.1 296.6,236.6 252.6,211.2 208.6,236.6   "/>
		
			<linearGradient id="SVGID_19_" gradientUnits="userSpaceOnUse" x1="305.5465" y1="220.7086" x2="349.5438" y2="220.7086" gradientTransform="matrix(-1 0 0 1 558.1687 0)">
			<stop offset="0" style="stop-color:#42E8E0"/>
			<stop offset="0.1507" style="stop-color:#43E3E0"/>
			<stop offset="0.3285" style="stop-color:#45D5DF"/>
			<stop offset="0.5199" style="stop-color:#49BDDD"/>
			<stop offset="0.7209" style="stop-color:#4E9CDB"/>
			<stop offset="0.9274" style="stop-color:#5472D8"/>
			<stop offset="1" style="stop-color:#5761D7"/>
		</linearGradient>
		<polygon class="st20" points="252.6,204.8 208.6,230.2 208.6,236.6 252.6,211.2   "/>
		
			<linearGradient id="SVGID_20_" gradientUnits="userSpaceOnUse" x1="261.5504" y1="220.7082" x2="305.5477" y2="220.7082" gradientTransform="matrix(-1 0 0 1 558.1687 0)">
			<stop offset="0" style="stop-color:#42E8E0"/>
			<stop offset="0.1507" style="stop-color:#43E3E0"/>
			<stop offset="0.3285" style="stop-color:#45D5DF"/>
			<stop offset="0.5199" style="stop-color:#49BDDD"/>
			<stop offset="0.7209" style="stop-color:#4E9CDB"/>
			<stop offset="0.9274" style="stop-color:#5472D8"/>
			<stop offset="1" style="stop-color:#5761D7"/>
		</linearGradient>
		<polygon class="st21" points="252.6,211.2 296.6,236.6 296.6,230.2 252.6,204.8   "/>
		
			<linearGradient id="SVGID_21_" gradientUnits="userSpaceOnUse" x1="261.5504" y1="230.2239" x2="349.5438" y2="230.2239" gradientTransform="matrix(-1 0 0 1 558.1687 0)">
			<stop offset="0" style="stop-color:#42E8E0"/>
			<stop offset="0.1464" style="stop-color:#40E3E0"/>
			<stop offset="0.3192" style="stop-color:#3BD5DF"/>
			<stop offset="0.5051" style="stop-color:#32BDDE"/>
			<stop offset="0.7003" style="stop-color:#259CDD"/>
			<stop offset="0.901" style="stop-color:#1572DC"/>
			<stop offset="1" style="stop-color:#0C5ADB"/>
		</linearGradient>
		<polygon class="st22" points="252.6,255.7 296.6,230.2 252.6,204.8 208.6,230.2   "/>
		<g>
			
				<linearGradient id="SVGID_22_" gradientUnits="userSpaceOnUse" x1="287.9669" y1="230.2239" x2="323.1273" y2="230.2239" gradientTransform="matrix(-1 0 0 1 558.1687 0)">
				<stop offset="0" style="stop-color:#4BCEF6"/>
				<stop offset="0.1554" style="stop-color:#50CFF6"/>
				<stop offset="0.3386" style="stop-color:#5ED2F7"/>
				<stop offset="0.5359" style="stop-color:#76D7F8"/>
				<stop offset="0.743" style="stop-color:#97DEFA"/>
				<stop offset="0.956" style="stop-color:#C1E7FC"/>
				<stop offset="1" style="stop-color:#CBE9FD"/>
			</linearGradient>
			<polygon class="st23" points="252.6,240.4 270.2,230.2 252.6,220.1 235,230.2    "/>
		</g>
		<polygon class="st13" points="252.6,221 235.9,230.7 235,230.2 252.6,220.1 270.2,230.2 269.4,230.7   "/>
		
			<linearGradient id="SVGID_23_" gradientUnits="userSpaceOnUse" x1="305.5477" y1="246.1564" x2="349.5438" y2="246.1564" gradientTransform="matrix(-1 0 0 1 558.1687 0)">
			<stop offset="0" style="stop-color:#42E8E0"/>
			<stop offset="0.1464" style="stop-color:#40E3E0"/>
			<stop offset="0.3192" style="stop-color:#3BD5DF"/>
			<stop offset="0.5051" style="stop-color:#32BDDE"/>
			<stop offset="0.7003" style="stop-color:#259CDD"/>
			<stop offset="0.901" style="stop-color:#1572DC"/>
			<stop offset="1" style="stop-color:#0C5ADB"/>
		</linearGradient>
		<polygon class="st24" points="252.6,255.7 252.6,262.1 208.6,236.6 208.6,230.2   "/>
		
			<linearGradient id="SVGID_24_" gradientUnits="userSpaceOnUse" x1="261.5504" y1="246.156" x2="305.5477" y2="246.156" gradientTransform="matrix(-1 0 0 1 558.1687 0)">
			<stop offset="0" style="stop-color:#42E8E0"/>
			<stop offset="0.1464" style="stop-color:#40E3E0"/>
			<stop offset="0.3192" style="stop-color:#3BD5DF"/>
			<stop offset="0.5051" style="stop-color:#32BDDE"/>
			<stop offset="0.7003" style="stop-color:#259CDD"/>
			<stop offset="0.901" style="stop-color:#1572DC"/>
			<stop offset="1" style="stop-color:#0C5ADB"/>
		</linearGradient>
		<polygon class="st25" points="296.6,230.2 296.6,236.6 252.6,262.1 252.6,255.7   "/>
		<polygon class="st16" points="252.6,255 296,229.9 296.6,230.2 252.6,255.7 208.6,230.2 209.2,229.9   "/>
	</g>
	<linearGradient id="SVGID_25_" gradientUnits="userSpaceOnUse" x1="309.2441" y1="381.5653" x2="447.4003" y2="256.83">
		<stop offset="0" style="stop-color:#00E1DB"/>
		<stop offset="0.1208" style="stop-color:#02CEDB"/>
		<stop offset="0.3647" style="stop-color:#07ADDB"/>
		<stop offset="0.5985" style="stop-color:#0A95DB"/>
		<stop offset="0.8158" style="stop-color:#0B87DB"/>
		<stop offset="1" style="stop-color:#0C82DB"/>
	</linearGradient>
	<path class="st26" d="M367.4,404c-1.6,0-3.1-0.4-4.5-1.2l-124.5-72c-0.8-0.5-1.3-1.4-1.3-2.3c0-1,0.5-1.8,1.3-2.3l129.1-74.6   l133.1,77l-128.5,74.3C370.5,403.6,369,404,367.4,404z M363.4,401.9c2.5,1.4,5.6,1.4,8.1,0l127.1-73.5l-131.1-75.8L238.8,327   c-0.5,0.3-0.8,0.9-0.8,1.5c0,0.6,0.3,1.2,0.8,1.5L363.4,401.9z"/>
	<polygon class="st27" points="367.4,387.2 265.7,328.4 367.4,269.6 469.1,328.4  "/>
	<g>
		<linearGradient id="SVGID_26_" gradientUnits="userSpaceOnUse" x1="19.4435" y1="291.6811" x2="170.261" y2="291.6811">
			<stop offset="0" style="stop-color:#0C82DB"/>
			<stop offset="0.1842" style="stop-color:#0B87DB"/>
			<stop offset="0.4015" style="stop-color:#0A95DB"/>
			<stop offset="0.6353" style="stop-color:#07ADDB"/>
			<stop offset="0.8792" style="stop-color:#02CEDB"/>
			<stop offset="1" style="stop-color:#00E1DB"/>
		</linearGradient>
		<path class="st28" d="M76.3,336.1c-1.6,0-3.1-0.4-4.4-1.2l-51.1-29.6c-0.8-0.5-1.3-1.3-1.3-2.2c0-0.9,0.5-1.7,1.3-2.2l92.7-53.6    l0.7,0.4l54.9,31.7c0.8,0.5,1.3,1.3,1.3,2.2c0,0.9-0.5,1.7-1.3,2.2l-88.3,51.1C79.3,335.7,77.8,336.1,76.3,336.1z M113.4,248.4    l-92.2,53.4c-0.5,0.3-0.8,0.8-0.8,1.4c0,0.6,0.3,1.1,0.8,1.4L72.3,334c2.4,1.4,5.5,1.4,7.9,0l88.3-51.1c0.5-0.3,0.8-0.8,0.8-1.4    c0-0.6-0.3-1.1-0.8-1.4L113.4,248.4z"/>
	</g>
	<g>
		
			<linearGradient id="SVGID_27_" gradientUnits="userSpaceOnUse" x1="2278.6904" y1="219.6638" x2="2392.2717" y2="219.6638" gradientTransform="matrix(1 0 0 1 -2278.6904 0)">
			<stop offset="0" style="stop-color:#0C82DB"/>
			<stop offset="0.1842" style="stop-color:#0B87DB"/>
			<stop offset="0.4015" style="stop-color:#0A95DB"/>
			<stop offset="0.6353" style="stop-color:#07ADDB"/>
			<stop offset="0.8792" style="stop-color:#02CEDB"/>
			<stop offset="1" style="stop-color:#00E1DB"/>
		</linearGradient>
		<path class="st29" d="M113.6,226.7l-12.3-73.1l1-0.4l-1.5-0.9l0,0c-0.3-0.2-0.7-0.2-1.1,0.1L1.3,209.3c-0.8,0.5-1.4,1.7-1.3,2.5    l12.4,73.7c0.1,0.4,0.3,0.6,0.5,0.8l0,0l1.5,0.8l0.2-1.4l-0.1,0l97.7-56.5C113.1,228.8,113.7,227.6,113.6,226.7z"/>
		<path class="st13" d="M1.8,211.3l-1.6-0.7C0,211,0,211.4,0,211.8l12.4,73.7c0.1,0.4,0.3,0.6,0.5,0.8l0,0l1.5,0.8l0.2-1.4l-0.1,0    l4.9-2.9L1.8,211.3z"/>
		<path class="st30" d="M113.8,230.1L15.5,287c-0.8,0.4-1.4,0.2-1.5-0.6L1.6,212.7c-0.1-0.8,0.5-2,1.3-2.5l98.3-56.9    c0.8-0.4,1.4-0.2,1.5,0.6l12.4,73.7C115.2,228.5,114.6,229.7,113.8,230.1z"/>
		<g>
			<polygon class="st13" points="99.9,158 5.1,212.8 16.9,282.3 111.6,227.5    "/>
		</g>
		
			<linearGradient id="SVGID_28_" gradientUnits="userSpaceOnUse" x1="2293.9077" y1="281.6488" x2="2454.3215" y2="281.6488" gradientTransform="matrix(1 0 0 1 -2278.6904 0)">
			<stop offset="0" style="stop-color:#0C82DB"/>
			<stop offset="0.1842" style="stop-color:#0B87DB"/>
			<stop offset="0.4015" style="stop-color:#0A95DB"/>
			<stop offset="0.6353" style="stop-color:#07ADDB"/>
			<stop offset="0.8792" style="stop-color:#02CEDB"/>
			<stop offset="1" style="stop-color:#00E1DB"/>
		</linearGradient>
		<path class="st31" d="M175.6,265l-5.4,2.8l-53.8-31.1c-0.9-0.5-2.5-0.5-3.5,0.1l-92.8,53.7c-0.9-0.5-4.9-2.4-4.9-2.4l2,5.1l0,0    c0.1,0.2,0.3,0.4,0.5,0.6l56.7,32.8c0.9,0.5,2.5,0.5,3.5-0.1l95-54.9c0.4-0.2,0.7-0.5,0.8-0.8l0,0L175.6,265z"/>
		
			<linearGradient id="SVGID_29_" gradientUnits="userSpaceOnUse" x1="2347.8074" y1="276.2902" x2="2508.3066" y2="276.2902" gradientTransform="matrix(1 0 0 1 -2278.6904 0)">
			<stop offset="0" style="stop-color:#64C0F6"/>
			<stop offset="0.152" style="stop-color:#69C2F6"/>
			<stop offset="0.3313" style="stop-color:#77C6F7"/>
			<stop offset="0.5243" style="stop-color:#8FCDF8"/>
			<stop offset="0.7271" style="stop-color:#B0D7FA"/>
			<stop offset="0.9354" style="stop-color:#DAE4FC"/>
			<stop offset="1" style="stop-color:#E9E9FD"/>
		</linearGradient>
		<path class="st32" d="M174.8,265.9l-97.3,56.3c-1.1,0.6-2.7,0.7-3.6,0.1l-58.1-33.6c-0.9-0.5-0.8-1.5,0.3-2.1l97.3-56.3    c1.1-0.6,2.7-0.7,3.6-0.1l58.1,33.6C176,264.4,175.9,265.3,174.8,265.9z"/>
		<path class="st16" d="M174.8,265.3l-97.3,56.3c-1.1,0.6-2.7,0.7-3.6,0.1l-58.1-33.6c-0.3-0.2-0.5-0.4-0.6-0.6    c-0.1,0.4,0,0.9,0.6,1.2l58.1,33.6c0.9,0.5,2.5,0.5,3.6-0.1l97.3-56.3c0.7-0.4,1-1,0.8-1.5C175.5,264.8,175.2,265.1,174.8,265.3z"/>
		<g>
			<linearGradient id="SVGID_30_" gradientUnits="userSpaceOnUse" x1="48.1258" y1="310.6541" x2="52.165" y2="310.6541">
				<stop offset="0" style="stop-color:#4BCEF6"/>
				<stop offset="0.1554" style="stop-color:#50CFF6"/>
				<stop offset="0.3386" style="stop-color:#5ED2F7"/>
				<stop offset="0.5359" style="stop-color:#76D7F8"/>
				<stop offset="0.743" style="stop-color:#97DEFA"/>
				<stop offset="0.956" style="stop-color:#C1E7FC"/>
				<stop offset="1" style="stop-color:#CBE9FD"/>
			</linearGradient>
			<path class="st33" d="M48.1,310V309c0-0.1,0.1-0.1,0.1-0.1L52,311c0.1,0,0.1,0.2,0.1,0.3v1.1c0,0.1-0.1,0.1-0.1,0.1l-3.8-2.2     C48.2,310.2,48.1,310.1,48.1,310z"/>
		</g>
		<g>
			<linearGradient id="SVGID_31_" gradientUnits="userSpaceOnUse" x1="53.7549" y1="313.91" x2="57.7941" y2="313.91">
				<stop offset="0" style="stop-color:#4BCEF6"/>
				<stop offset="0.1554" style="stop-color:#50CFF6"/>
				<stop offset="0.3386" style="stop-color:#5ED2F7"/>
				<stop offset="0.5359" style="stop-color:#76D7F8"/>
				<stop offset="0.743" style="stop-color:#97DEFA"/>
				<stop offset="0.956" style="stop-color:#C1E7FC"/>
				<stop offset="1" style="stop-color:#CBE9FD"/>
			</linearGradient>
			<path class="st34" d="M53.8,313.3v-1.1c0-0.1,0.1-0.1,0.1-0.1l3.8,2.2c0.1,0,0.1,0.2,0.1,0.3v1.1c0,0.1-0.1,0.1-0.1,0.1l-3.8-2.2     C53.8,313.5,53.8,313.4,53.8,313.3z"/>
		</g>
		<linearGradient id="SVGID_32_" gradientUnits="userSpaceOnUse" x1="30.6365" y1="271.0952" x2="142.6722" y2="271.0952">
			<stop offset="0" style="stop-color:#FFFFFF"/>
			<stop offset="0.1079" style="stop-color:#D9F1FD"/>
			<stop offset="0.2735" style="stop-color:#A6DEFB"/>
			<stop offset="0.4366" style="stop-color:#7BCFF9"/>
			<stop offset="0.5938" style="stop-color:#5AC3F8"/>
			<stop offset="0.7434" style="stop-color:#42BAF7"/>
			<stop offset="0.8823" style="stop-color:#34B5F6"/>
			<stop offset="1" style="stop-color:#2FB3F6"/>
		</linearGradient>
		<path class="st35" d="M30.9,285.6l80.9-46.8c0.5-0.3,1.2-0.3,1.7,0l28.8,16.7c0.4,0.2,0.4,0.8,0,1.1l-80.8,46.8    c-0.5,0.3-1.2,0.3-1.7,0l-28.8-16.7C30.5,286.4,30.5,285.8,30.9,285.6z"/>
		<path class="st30" d="M30.9,286.7l0.3,0.2l80.6-46.6c0.5-0.3,1.2-0.3,1.7,0l28.5,16.5l0.3-0.2c0.4-0.2,0.4-0.8,0-1.1l-28.8-16.7    c-0.5-0.3-1.2-0.3-1.7,0l-80.9,46.8C30.5,285.8,30.5,286.4,30.9,286.7z"/>
		<g>
			<polygon class="st30" points="115.7,243.1 45.5,283.7 42.4,281.9 112.6,241.3    "/>
			<polygon class="st30" points="123.4,247.5 57.5,285.6 54.4,283.8 120.3,245.7    "/>
			<polygon class="st30" points="128.4,250.4 50.8,295.2 47.7,293.4 125.3,248.6    "/>
			<polygon class="st30" points="133.4,253.3 55.8,298.1 52.7,296.3 130.2,251.5    "/>
			<polygon class="st30" points="138.4,256.1 60.8,301 57.7,299.2 135.2,254.3    "/>
			<polygon class="st30" points="41.2,286.1 38.1,288 35,286.1 38.1,284.3    "/>
			<polygon class="st30" points="52.3,288.6 45.8,292.4 42.7,290.6 49.1,286.8    "/>
		</g>
		<g>
			
				<linearGradient id="SVGID_33_" gradientUnits="userSpaceOnUse" x1="2374.9878" y1="285.4182" x2="2416.071" y2="285.4182" gradientTransform="matrix(1 0 0 1 -2278.6904 0)">
				<stop offset="0" style="stop-color:#CBE9FD"/>
				<stop offset="4.405040e-02" style="stop-color:#C1E7FC"/>
				<stop offset="0.257" style="stop-color:#97DEFA"/>
				<stop offset="0.4641" style="stop-color:#76D7F8"/>
				<stop offset="0.6614" style="stop-color:#5ED2F7"/>
				<stop offset="0.8446" style="stop-color:#50CFF6"/>
				<stop offset="1" style="stop-color:#4BCEF6"/>
			</linearGradient>
			<path class="st36" d="M114.9,296.9l21.8-12.6c0.9-0.5,0.9-1.3,0-1.8l-14.9-8.6c-0.9-0.5-2.2-0.5-3.1,0l-21.8,12.6     c-0.9,0.5-0.9,1.3,0,1.8l14.9,8.6C112.7,297.4,114.1,297.4,114.9,296.9z"/>
		</g>
		<path class="st30" d="M96.9,287.2l21.8-12.6c0.9-0.5,2.2-0.5,3.1,0l14.9,8.6c0.3,0.2,0.4,0.3,0.5,0.5c0.2-0.4,0.1-0.9-0.5-1.3    l-14.9-8.6c-0.9-0.5-2.2-0.5-3.1,0l-21.8,12.6c-0.6,0.3-0.8,0.8-0.5,1.3C96.5,287.6,96.7,287.4,96.9,287.2z"/>
		<g class="st37">
			<defs>
				<polygon id="SVGID_9_" class="st37" points="99.9,158 5.1,212.8 16.9,282.3 111.6,227.5     "/>
			</defs>
			<clipPath id="SVGID_34_">
				<use xlink:href="#SVGID_9_" style="overflow:visible;"/>
			</clipPath>
			<g class="st38">
				
					<linearGradient id="SVGID_35_" gradientUnits="userSpaceOnUse" x1="2319.0022" y1="240.4911" x2="2430.5308" y2="240.4911" gradientTransform="matrix(1 0 0 1 -2278.6904 0)">
					<stop offset="0" style="stop-color:#C0BFF6"/>
					<stop offset="0.2938" style="stop-color:#C5C4F7"/>
					<stop offset="0.6399" style="stop-color:#D3D2F9"/>
					<stop offset="1" style="stop-color:#E9E9FD"/>
				</linearGradient>
				<path class="st39" d="M113.5,230.3l-97.3,56.3c-1.1,0.6-2.2-0.4-3.1-1L2.8,223.2l49.2-28.5c1.1-0.6,2.7-0.7,3.6-0.1l58.1,33.6      C114.7,228.7,114.5,229.7,113.5,230.3z"/>
				
					<linearGradient id="SVGID_36_" gradientUnits="userSpaceOnUse" x1="2283.0381" y1="228.8479" x2="2317.0071" y2="228.8479" gradientTransform="matrix(1 0 0 1 -2278.6904 0)">
					<stop offset="0" style="stop-color:#C0BFF6"/>
					<stop offset="0.2938" style="stop-color:#C5C4F7"/>
					<stop offset="0.6399" style="stop-color:#D3D2F9"/>
					<stop offset="1" style="stop-color:#E9E9FD"/>
				</linearGradient>
				<path class="st40" d="M15.9,240.4l21.8-12.6c0.9-0.5,0.9-1.3,0-1.8l-14.9-8.6c-0.9-0.5-2.2-0.5-3.1,0l-15.3,8.9l0.1,2.1      c0.5,2,1.1,7.9,2,8.4L7,237l5.8,3.4C13.6,240.9,15,240.9,15.9,240.4z"/>
				<path class="st41" d="M4.9,229.2l-0.4-2.4l15.2-8.8c0.9-0.5,2.2-0.5,3.1,0l14.9,8.6c0.3,0.2,0.4,0.3,0.5,0.5      c0.2-0.4,0.1-0.9-0.5-1.3l-14.9-8.6c-0.9-0.5-2.2-0.5-3.1,0l-15.1,8.8l1.1,4.8c-0.6,0.3,0.2,1.7,0.5,2.1      C6.2,232.8,4.6,229.4,4.9,229.2z"/>
				<g>
					<path class="st42" d="M8.6,248.2l60.5-34.9c0.5-0.3,1.2-0.3,1.7,0L99.7,230c0.4,0.2,0.4,0.8,0,1.1l-80.8,46.8       c-0.5,0.3-1.2,0.3-1.7,0l-8.5-28.5C8.2,249.1,8.2,248.5,8.6,248.2z"/>
					<path class="st41" d="M8.6,249.3l0.3,0.2l60.3-34.8c0.5-0.3,1.2-0.3,1.7,0l28.5,16.5l0.3-0.2c0.4-0.2,0.4-0.8,0-1.1l-28.8-16.7       c-0.5-0.3-1.2-0.3-1.7,0L8.6,248.2C8.2,248.5,8.2,249.1,8.6,249.3z"/>
					<g>
						<polygon class="st43" points="92.2,228.8 21.7,269.6 24.5,271.2 95,230.5       "/>
						<polygon class="st43" points="84.7,224.6 17.8,263.3 20.6,264.9 87.5,226.2       "/>
						<polygon class="st43" points="12.8,266.2 10.1,267.7 10.6,270.7 15.6,267.8       "/>
						<polygon class="st43" points="18.3,271.6 13.9,274.1 16.7,275.7 21.1,273.2       "/>
						<polygon class="st43" points="80.1,221.9 8.7,263.2 10,265.6 82.9,223.5       "/>
						<polygon class="st43" points="75.4,219.2 8.4,257.9 9.2,260.7 78.2,220.8       "/>
						<polygon class="st43" points="70.8,216.5 7.3,253.3 8.2,256 73.6,218.1       "/>
					</g>
				</g>
			</g>
		</g>
		<linearGradient id="SVGID_37_" gradientUnits="userSpaceOnUse" x1="32.4984" y1="220.7616" x2="88.9289" y2="220.7616">
			<stop offset="0" style="stop-color:#2FB3F6"/>
			<stop offset="0.1177" style="stop-color:#34B5F6"/>
			<stop offset="0.2566" style="stop-color:#42BAF7"/>
			<stop offset="0.4062" style="stop-color:#5AC3F8"/>
			<stop offset="0.5634" style="stop-color:#7BCFF9"/>
			<stop offset="0.7265" style="stop-color:#A6DEFB"/>
			<stop offset="0.8921" style="stop-color:#D9F1FD"/>
			<stop offset="1" style="stop-color:#FFFFFF"/>
		</linearGradient>
		<path class="st44" d="M48.5,251.4l0.2,1.3l-7.7,4.4l-0.2-1.3L48.5,251.4z M49.7,250.6l0.2,1.3l4.2-2.4l-0.2-1.3L49.7,250.6z     M60.4,244.5l0.2,1.3l3-1.8l-0.2-1.3L60.4,244.5z M58.2,245.7l0.2,1.3l1-0.6l-0.2-1.3L58.2,245.7z M55.1,247.5l0.2,1.3l1.9-1.1    l-0.2-1.3L55.1,247.5z M49.9,243.8l-3,1.8l0.2,1.3l3-1.8L49.9,243.8z M45.7,246.3l-5.9,3.4L40,251l5.9-3.4L45.7,246.3z     M48.5,229.4l5.9-3.4l-0.2-1.3l-5.9,3.4L48.5,229.4z M47.3,230.1l-0.2-1.3l-1.9,1.1l0.2,1.3L47.3,230.1z M55.2,230.8l-5.9,3.4    l0.2,1.3l5.9-3.4L55.2,230.8z M48.1,234.9l-1.9,1.1l0.2,1.3l1.9-1.1L48.1,234.9z M43.7,200.4l-11.2,6.5l0.2,1.3l11.2-6.5    L43.7,200.4z M47.8,199.5l-0.2-1.3l-2.8,1.6l0.2,1.3L47.8,199.5z M56.3,204.6l11.2-6.5l-0.2-1.3L56,203.3L56.3,204.6z M71.4,195.9    l-0.2-1.3l-2.8,1.6l0.2,1.3L71.4,195.9z M36,208.2l-3,1.8l0.2,1.3l3-1.8L36,208.2z M51.6,207.3l3-1.8l-0.2-1.3l-3,1.8L51.6,207.3z     M43.1,204.1l-5.9,3.4l0.2,1.3l5.9-3.4L43.1,204.1z M46.4,203.6l-0.2-1.3l-1.9,1.1l0.2,1.3L46.4,203.6z M47.6,202.9l5.9-3.4    l-0.2-1.3l-5.9,3.4L47.6,202.9z M56.6,197.7l-0.2-1.3l-1.9,1.1l0.2,1.3L56.6,197.7z M51.1,204.3l3-1.8l-0.2-1.3l-3,1.8L51.1,204.3    z M55.3,201.8l5.9-3.4l-0.2-1.3l-5.9,3.4L55.3,201.8z M64.3,196.6l-0.2-1.3l-1.9,1.1l0.2,1.3L64.3,196.6z M39.7,209.4l-6.2,3.6    l0.2,1.3l6.2-3.6L39.7,209.4z M45.6,207.4l-0.2-1.3l-4.5,2.6l0.2,1.3L45.6,207.4z M46.5,205.4l0.2,1.3l3-1.8l-0.2-1.3L46.5,205.4z     M79.1,191.4l-0.2-1.3l-6.2,3.6l0.2,1.3L79.1,191.4z M80,189.4l0.2,1.3l4.5-2.6l-0.2-1.3L80,189.4z M88.7,184.4l-3,1.8l0.2,1.3    l3-1.8L88.7,184.4z M76.7,231.7l0.2,1.3l6.2-3.6l-0.2-1.3L76.7,231.7z M71.3,236.3l4.5-2.6l-0.2-1.3L71,235L71.3,236.3z     M67.1,238.7l3-1.8l-0.2-1.3l-3,1.8L67.1,238.7z M74.6,236.2l0.2,1.3L81,234l-0.2-1.3L74.6,236.2z M69,239.5l0.2,1.3l4.5-2.6    l-0.2-1.3L69,239.5z M64.8,241.9l0.2,1.3l3-1.8l-0.2-1.3L64.8,241.9z M49.9,231.9l2.1-1.2l-0.2-1.3l-2.1,1.2L49.9,231.9z     M48.5,231.3l-2.8,1.6l0.2,1.3l2.8-1.6L48.5,231.3z M40.3,212.4l-6.2,3.6l0.2,1.3l6.2-3.6L40.3,212.4z M46.1,210.5l-0.2-1.3    l-4.5,2.6l0.2,1.3L46.1,210.5z M47.1,208.5l0.2,1.3l3-1.8l-0.2-1.3L47.1,208.5z M36.7,217.8l-2.1,1.2l0.2,1.3l2.1-1.2L36.7,217.8z     M38.1,218.5l2.8-1.6l-0.2-1.3l-2.8,1.6L38.1,218.5z M46.5,213.6l-0.2-1.3l-4.4,2.6l0.2,1.3L46.5,213.6z M54.8,239.1l-0.2-1.3    l-2.1,1.2l0.2,1.3L54.8,239.1z M51.3,239.7l-2.8,1.6l0.2,1.3l2.8-1.6L51.3,239.7z M47.6,243.3l-0.2-1.3l-4.4,2.6l0.2,1.3    L47.6,243.3z M60.3,232.8l-0.2-1.3l-4.4,2.6l0.2,1.3L60.3,232.8z M54.4,234.6l-6,3.5l0.2,1.3l6-3.5L54.4,234.6z M47.5,240    l-0.2-1.3l-1.9,1.1l0.2,1.3L47.5,240z M44.5,241.7l-0.2-1.3l-1.9,1.1l0.2,1.3L44.5,241.7z M43.1,225.6l5.9-3.4l-0.2-1.3l-5.9,3.4    L43.1,225.6z M40,227.4l1.9-1.1l-0.2-1.3l-1.9,1.1L40,227.4z M45.3,219.5l-2.1,1.2l0.2,1.3l2.1-1.2L45.3,219.5z M52.7,221.9    l-2.1,1.2l0.2,1.3l2.1-1.2L52.7,221.9z M58.6,218.5l-5,2.9l0.2,1.3l5-2.9L58.6,218.5z M62.5,216.3l-3,1.7l0.2,1.3l3-1.7    L62.5,216.3z M42.1,221.4l-2.8,1.6l0.2,1.3l2.8-1.6L42.1,221.4z M41.1,218.6l-2.1,1.2l0.2,1.3l2.1-1.2L41.1,218.6z M35.1,222.1    l0.2,1.3l2.8-1.6l-0.2-1.3L35.1,222.1z M49.5,223.8l-1.9,1.1l0.2,1.3l1.9-1.1L49.5,223.8z M44.7,226.6l0.2,1.3l1.9-1.1l-0.2-1.3    L44.7,226.6z M65.7,239.5l-0.2-1.3l-6.4,3.7l0.2,1.3L65.7,239.5z M51.9,246l0.2,1.3l6-3.5l-0.2-1.3L51.9,246z M50.7,246.7    l-1.9,1.1l0.2,1.3l1.9-1.1L50.7,246.7z M46.1,250.8l1.9-1.1l-0.2-1.3l-1.9,1.1L46.1,250.8z M44.3,250.4l-4,2.3l0.2,1.3l4-2.3    L44.3,250.4z"/>
	</g>
	<g>
		<linearGradient id="SVGID_38_" gradientUnits="userSpaceOnUse" x1="559.739" y1="291.6811" x2="710.5565" y2="291.6811">
			<stop offset="0" style="stop-color:#00E1DB"/>
			<stop offset="0.1208" style="stop-color:#02CEDB"/>
			<stop offset="0.3647" style="stop-color:#07ADDB"/>
			<stop offset="0.5985" style="stop-color:#0A95DB"/>
			<stop offset="0.8158" style="stop-color:#0B87DB"/>
			<stop offset="1" style="stop-color:#0C82DB"/>
		</linearGradient>
		<path class="st45" d="M653.7,336.1c-1.6,0-3.1-0.4-4.4-1.2L561,283.8c-0.8-0.5-1.3-1.3-1.3-2.2c0-0.9,0.5-1.7,1.3-2.2l55.5-32.1    l0.2,0.1l92.5,53.5c0.8,0.5,1.3,1.3,1.3,2.2c0,0.9-0.5,1.7-1.3,2.2l-51.1,29.6C656.8,335.7,655.3,336.1,653.7,336.1z M649.8,334    c2.4,1.4,5.5,1.4,7.9,0l51.1-29.6c0.5-0.3,0.8-0.8,0.8-1.4c0-0.6-0.3-1.1-0.8-1.4l-92.2-53.4l-0.2,0.1l-54.9,31.7    c-0.5,0.3-0.8,0.8-0.8,1.4c0,0.6,0.3,1.1,0.8,1.4L649.8,334z"/>
	</g>
	<g>
		<linearGradient id="SVGID_39_" gradientUnits="userSpaceOnUse" x1="265.7408" y1="102.7328" x2="469.0644" y2="102.7328">
			<stop offset="0" style="stop-color:#2FB3F6"/>
			<stop offset="0.1177" style="stop-color:#34B5F6"/>
			<stop offset="0.2566" style="stop-color:#42BAF7"/>
			<stop offset="0.4062" style="stop-color:#5AC3F8"/>
			<stop offset="0.5634" style="stop-color:#7BCFF9"/>
			<stop offset="0.7265" style="stop-color:#A6DEFB"/>
			<stop offset="0.8921" style="stop-color:#D9F1FD"/>
			<stop offset="1" style="stop-color:#FFFFFF"/>
		</linearGradient>
		<polygon class="st46" points="367.4,161.5 265.7,102.7 367.4,43.9 469.1,102.7   "/>
		<polygon class="st47" points="367.4,156.2 274.9,102.7 367.4,49.2 459.9,102.7   "/>
		<polygon class="st27" points="367.4,387.2 265.7,328.4 367.4,269.6 469.1,328.4   "/>
		<linearGradient id="SVGID_40_" gradientUnits="userSpaceOnUse" x1="418.2343" y1="323.6973" x2="418.2343" y2="108.7682">
			<stop offset="0" style="stop-color:#0C82DB"/>
			<stop offset="0.1842" style="stop-color:#0B87DB"/>
			<stop offset="0.4015" style="stop-color:#0A95DB"/>
			<stop offset="0.6353" style="stop-color:#07ADDB"/>
			<stop offset="0.8792" style="stop-color:#02CEDB"/>
			<stop offset="1" style="stop-color:#00E1DB"/>
		</linearGradient>
		<polygon class="st48" points="469.1,102.7 469.1,328.4 367.4,387.2 367.4,161.5   "/>
		<polygon class="st13" points="265.7,102.7 265.7,328.4 367.4,387.2 367.4,161.5   "/>
		<g>
			<polygon class="st7" points="272.6,117.7 272.6,320.6 360.5,371.4 360.5,168.5    "/>
		</g>
		<polygon class="st7" points="453.8,157.3 453.8,163.2 382.7,204.4 382.7,198.4   "/>
		<polygon class="st7" points="453.8,182.5 453.8,188.5 382.7,229.6 382.7,223.7   "/>
		<polygon class="st7" points="453.8,207.7 453.8,213.7 382.7,254.8 382.7,248.9   "/>
		<polygon class="st7" points="453.8,232.9 453.8,238.9 382.7,280.1 382.7,274.1   "/>
		<polygon class="st7" points="453.8,258.2 453.8,264.1 382.7,305.3 382.7,299.3   "/>
		<polygon class="st7" points="453.8,283.4 453.8,289.4 382.7,330.5 382.7,324.6   "/>
		<linearGradient id="SVGID_41_" gradientUnits="userSpaceOnUse" x1="265.7408" y1="131.6556" x2="469.0644" y2="131.6556">
			<stop offset="0" style="stop-color:#0C7DDB"/>
			<stop offset="0.2109" style="stop-color:#0C82DB"/>
			<stop offset="0.4595" style="stop-color:#0C90DB"/>
			<stop offset="0.7271" style="stop-color:#0CA8DB"/>
			<stop offset="1" style="stop-color:#0CC8DB"/>
		</linearGradient>
		<polygon class="st49" points="367.4,159.6 267.4,101.8 265.7,102.7 367.4,161.5 469.1,102.7 467.4,101.8   "/>
		<linearGradient id="SVGID_42_" gradientUnits="userSpaceOnUse" x1="283.0095" y1="238.9341" x2="353.4101" y2="238.9341">
			<stop offset="0" style="stop-color:#2FB3F6"/>
			<stop offset="0.1177" style="stop-color:#34B5F6"/>
			<stop offset="0.2566" style="stop-color:#42BAF7"/>
			<stop offset="0.4062" style="stop-color:#5AC3F8"/>
			<stop offset="0.5634" style="stop-color:#7BCFF9"/>
			<stop offset="0.7265" style="stop-color:#A6DEFB"/>
			<stop offset="0.8921" style="stop-color:#D9F1FD"/>
			<stop offset="1" style="stop-color:#FFFFFF"/>
		</linearGradient>
		<path class="st50" d="M295.8,196.9l-12.7-7.3l0-2.2l12.7,7.3L295.8,196.9z M304.7,199.8l-6.9-4l0,2.2l6.9,4L304.7,199.8z     M320.4,208.9l-5-2.9l0,2.2l5,2.9L320.4,208.9z M313.5,204.9l-1.7-1l0,2.2l1.7,1L313.5,204.9z M309.9,202.8l-3.1-1.8l0,2.2    l3.1,1.8L309.9,202.8z M299.8,207.1l-5-2.9l0,2.2l5,2.9L299.8,207.1z M292.9,203.1l-9.8-5.7l0,2.2l9.8,5.7L292.9,203.1z     M311.1,238.7l-9.8-5.7l0,2.2l9.8,5.7L311.1,238.7z M299.4,231.9l-3.1-1.8l0,2.2l3.1,1.8L299.4,231.9z M311.1,228.6l-9.8-5.7    l0,2.2l9.8,5.7L311.1,228.6z M299.4,221.9l-3.1-1.8l0,2.2l3.1,1.8L299.4,221.9z M283,270.2l18.4,10.6l0-2.2L283,268L283,270.2z     M303.4,282l4.6,2.6l0-2.2l-4.6-2.6L303.4,282z M319.3,276.1l18.4,10.6l0-2.2l-18.4-10.6L319.3,276.1z M339.7,287.9l4.6,2.6l0-2.2    l-4.6-2.6L339.7,287.9z M288,265.9l-5-2.9l0,2.2l5,2.9L288,265.9z M311.7,271.7l5,2.9l0-2.2l-5-2.9L311.7,271.7z M289.9,269.2    l9.8,5.7l0-2.2l-9.8-5.7L289.9,269.2z M304.7,275.6l-3.1-1.8l0,2.2l3.1,1.8L304.7,275.6z M306.8,278.9l9.8,5.7l0-2.2l-9.8-5.7    L306.8,278.9z M318.5,285.7l3.1,1.8l0-2.2l-3.1-1.8L318.5,285.7z M311.7,276.7l5,2.9l0-2.2l-5-2.9L311.7,276.7z M318.6,280.7    l9.8,5.7l0-2.2l-9.8-5.7L318.6,280.7z M330.3,287.5l3.1,1.8l0-2.2l-3.1-1.8L330.3,287.5z M293.2,263.9L283,258l0,2.2l10.2,5.9    L293.2,263.9z M302.5,269.3l-7.4-4.3l0,2.2l7.4,4.3L302.5,269.3z M304.5,272.6l5,2.9l0-2.2l-5-2.9L304.5,272.6z M343.2,227.1    l0,2.2l10.2,5.9l0-2.2L343.2,227.1z M333.9,223.9l7.4,4.3l0-2.2l-7.4-4.3L333.9,223.9z M327,219.9l5,2.9l0-2.2l-5-2.9L327,219.9z     M349.2,225.5l-10.2-5.9l0,2.2l10.2,5.9L349.2,225.5z M337,218.5l-7.4-4.3l0,2.2l7.4,4.3L337,218.5z M327.7,213.1l-5-2.9l0,2.2    l5,2.9L327.7,213.1z M306.3,233.1l0-2.2l-3.4-2l0,2.2L306.3,233.1z M300.9,227.8l-4.6-2.6l0,2.2l4.6,2.6L300.9,227.8z     M293.3,258.9l-10.2-5.9l0,2.2l10.2,5.9L293.3,258.9z M302.6,264.3l-7.4-4.3l0,2.2l7.4,4.3L302.6,264.3z M309.5,268.3l-5-2.9    l0,2.2l5,2.9L309.5,268.3z M286.5,250l-3.4-2l0,2.2l3.4,2L286.5,250z M288.5,253.3l4.6,2.6l0-2.2l-4.6-2.6L288.5,253.3z M295,257    l7.3,4.2l0-2.2l-7.3-4.2L295,257z M305,215l0,2.2l3.4,2l0-2.2L305,215z M298.5,213.5l4.6,2.6l0-2.2l-4.6-2.6L298.5,213.5z     M289.2,208.1l7.3,4.2l0-2.2l-7.3-4.2L289.2,208.1z M318.4,227.4l-7.3-4.2l0,2.2l7.3,4.2L318.4,227.4z M309,222.4l-9.9-5.7l0,2.2    l9.9,5.7L309,222.4z M297.1,215.5l-3.1-1.8l0,2.2l3.1,1.8L297.1,215.5z M289.2,213.1l3.1,1.8l0-2.2l-3.1-1.8L289.2,213.1z     M303.9,245l-9.8-5.7l0,2.2l9.8,5.7L303.9,245z M289.1,238.6l3.1,1.8l0-2.2l-3.1-1.8L289.1,238.6z M295.7,245.2l0,2.2l3.4,2l0-2.2    L295.7,245.2z M309.6,243.2l-3.4-2l0,2.2l3.4,2L309.6,243.2z M319.3,248.8l-8.3-4.8l0,2.2l8.3,4.8L319.3,248.8z M320.8,251.9    l4.9,2.8l0-2.2l-4.9-2.8L320.8,251.9z M293.7,244.1l-4.6-2.6l0,2.2l4.6,2.6L293.7,244.1z M293,248.6l-3.4-2l0,2.2l3.4,2L293,248.6    z M287.7,245.5l-4.6-2.6l0,2.2l4.6,2.6L287.7,245.5z M304.3,240.1l-3.1-1.8l0,2.2l3.1,1.8L304.3,240.1z M299.4,237.3l-3.1-1.8    l0,2.2l3.1,1.8L299.4,237.3z M324.7,216.4l-10.6-6.1l0,2.2l10.6,6.1L324.7,216.4z M302.3,205.6l9.9,5.7l0-2.2l-9.9-5.7    L302.3,205.6z M300.4,202.3l-3.1-1.8l0,2.2l3.1,1.8L300.4,202.3z M295.6,199.5l-3.1-1.8l0,2.2l3.1,1.8L295.6,199.5z M289.8,196.2    l-6.7-3.9l0,2.2l6.7,3.9L289.8,196.2z"/>
		<linearGradient id="SVGID_43_" gradientUnits="userSpaceOnUse" x1="265.7408" y1="58.8015" x2="469.0644" y2="58.8015">
			<stop offset="0" style="stop-color:#2FB3F6"/>
			<stop offset="0.1177" style="stop-color:#34B5F6"/>
			<stop offset="0.2566" style="stop-color:#42BAF7"/>
			<stop offset="0.4062" style="stop-color:#5AC3F8"/>
			<stop offset="0.5634" style="stop-color:#7BCFF9"/>
			<stop offset="0.7265" style="stop-color:#A6DEFB"/>
			<stop offset="0.8921" style="stop-color:#D9F1FD"/>
			<stop offset="1" style="stop-color:#FFFFFF"/>
		</linearGradient>
		<polygon class="st51" points="367.4,117.6 265.7,58.8 367.4,0 469.1,58.8   "/>
		<polygon class="st7" points="367.4,101.5 293.5,58.8 367.4,16.1 441.3,58.8   "/>
		<linearGradient id="SVGID_44_" gradientUnits="userSpaceOnUse" x1="293.4999" y1="38.1527" x2="441.3053" y2="38.1527">
			<stop offset="0" style="stop-color:#FFFFFF"/>
			<stop offset="0.1079" style="stop-color:#D9F1FD"/>
			<stop offset="0.2735" style="stop-color:#A6DEFB"/>
			<stop offset="0.4366" style="stop-color:#7BCFF9"/>
			<stop offset="0.5938" style="stop-color:#5AC3F8"/>
			<stop offset="0.7434" style="stop-color:#42BAF7"/>
			<stop offset="0.8823" style="stop-color:#34B5F6"/>
			<stop offset="1" style="stop-color:#2FB3F6"/>
		</linearGradient>
		<polygon class="st52" points="367.4,19 438.8,60.2 441.3,58.8 367.4,16.1 293.5,58.8 296,60.2   "/>
		<polygon class="st13" points="469.1,58.8 469.1,92.1 367.4,150.9 367.4,117.6   "/>
		<polygon class="st7" points="265.7,58.8 265.7,92.1 367.4,150.9 367.4,117.6   "/>
		<g>
			<linearGradient id="SVGID_45_" gradientUnits="userSpaceOnUse" x1="273.1924" y1="79.1576" x2="359.3864" y2="129.3964">
				<stop offset="0" style="stop-color:#0C82DB"/>
				<stop offset="0.1842" style="stop-color:#0B87DB"/>
				<stop offset="0.4015" style="stop-color:#0A95DB"/>
				<stop offset="0.6353" style="stop-color:#07ADDB"/>
				<stop offset="0.8792" style="stop-color:#02CEDB"/>
				<stop offset="1" style="stop-color:#00E1DB"/>
			</linearGradient>
			<polygon class="st53" points="272.6,73.8 272.6,84.3 360.5,135.1 360.5,124.6    "/>
		</g>
		<linearGradient id="SVGID_46_" gradientUnits="userSpaceOnUse" x1="265.7408" y1="87.7242" x2="469.0644" y2="87.7242">
			<stop offset="0" style="stop-color:#0C7DDB"/>
			<stop offset="0.2109" style="stop-color:#0C82DB"/>
			<stop offset="0.4595" style="stop-color:#0C90DB"/>
			<stop offset="0.7271" style="stop-color:#0CA8DB"/>
			<stop offset="1" style="stop-color:#0CC8DB"/>
		</linearGradient>
		<polygon class="st54" points="367.4,115.7 267.4,57.8 265.7,58.8 367.4,117.6 469.1,58.8 467.4,57.8   "/>
		<linearGradient id="SVGID_47_" gradientUnits="userSpaceOnUse" x1="382.6084" y1="125.6235" x2="454.0239" y2="85.7293">
			<stop offset="0" style="stop-color:#0C82DB"/>
			<stop offset="0.1842" style="stop-color:#0B87DB"/>
			<stop offset="0.4015" style="stop-color:#0A95DB"/>
			<stop offset="0.6353" style="stop-color:#07ADDB"/>
			<stop offset="0.8792" style="stop-color:#02CEDB"/>
			<stop offset="1" style="stop-color:#00E1DB"/>
		</linearGradient>
		<polygon class="st55" points="453.8,82.2 453.8,88.1 382.7,129.3 382.7,123.3   "/>
		<polygon class="st56" points="337.7,115.8 319.3,105.2 319.3,107.4 337.7,118   "/>
		<polygon class="st56" points="316.7,103.7 311.7,100.8 311.7,103 316.7,105.9   "/>
		<polygon class="st56" points="293.3,90.2 283.1,84.3 283.1,86.5 293.3,92.4   "/>
		<polygon class="st56" points="302.6,95.5 295.2,91.3 295.2,93.5 302.6,97.7   "/>
		<polygon class="st56" points="309.5,99.5 304.5,96.7 304.5,98.9 309.5,101.7   "/>
		<linearGradient id="SVGID_48_" gradientUnits="userSpaceOnUse" x1="312.4189" y1="58.8014" x2="422.3862" y2="58.8014">
			<stop offset="0" style="stop-color:#2FB3F6"/>
			<stop offset="0.1177" style="stop-color:#34B5F6"/>
			<stop offset="0.2566" style="stop-color:#42BAF7"/>
			<stop offset="0.4062" style="stop-color:#5AC3F8"/>
			<stop offset="0.5634" style="stop-color:#7BCFF9"/>
			<stop offset="0.7265" style="stop-color:#A6DEFB"/>
			<stop offset="0.8921" style="stop-color:#D9F1FD"/>
			<stop offset="1" style="stop-color:#FFFFFF"/>
		</linearGradient>
		<path class="st57" d="M367.5,30.7l-3.2-1.9l3.2-1.9l3.2,1.9L367.5,30.7z M377.2,32.6l-3.2-1.9l-3.2,1.9l3.2,1.9L377.2,32.6z     M383.6,36.3l-3.2-1.9l-3.2,1.9l3.2,1.9L383.6,36.3z M390.1,40.1l-3.2-1.9l-3.2,1.9l3.2,1.9L390.1,40.1z M393.3,45.7l3.2-1.9    l-3.2-1.9l-3.2,1.9L393.3,45.7z M399.8,49.4l3.2-1.9l-3.2-1.9l-3.2,1.9L399.8,49.4z M406.2,53.1l3.2-1.9l-3.2-1.9l-3.2,1.9    L406.2,53.1z M409.5,55l3.2,1.9l3.2-1.9l-3.2-1.9L409.5,55z M419.2,56.9l-3.2,1.9l3.2,1.9l3.2-1.9L419.2,56.9z M364.3,32.6    l-3.2-1.9l-3.2,1.9l3.2,1.9L364.3,32.6z M370.7,36.3l-3.2-1.9l-3.2,1.9l3.2,1.9L370.7,36.3z M370.7,40.1l3.2,1.9l3.2-1.9l-3.2-1.9    L370.7,40.1z M380.4,42l-3.2,1.9l3.2,1.9l3.2-1.9L380.4,42z M386.8,45.7l-3.2,1.9l3.2,1.9l3.2-1.9L386.8,45.7z M396.5,51.3    l-3.2-1.9l-3.2,1.9l3.2,1.9L396.5,51.3z M399.8,53.2l-3.2,1.9l3.2,1.9L403,55L399.8,53.2z M409.4,58.8l-3.2-1.9l-3.2,1.9l3.2,1.9    L409.4,58.8z M409.4,62.5l3.2,1.9l3.2-1.9l-3.2-1.9L409.4,62.5z M357.8,36.4l-3.2-1.9l-3.2,1.9l3.2,1.9L357.8,36.4z M357.8,40.1    L361,42l3.2-1.9l-3.2-1.9L357.8,40.1z M364.2,43.8l3.2,1.9l3.2-1.9l-3.2-1.9L364.2,43.8z M373.9,49.4l3.2-1.9l-3.2-1.9l-3.2,1.9    L373.9,49.4z M377.1,51.3l3.2,1.9l3.2-1.9l-3.2-1.9L377.1,51.3z M386.8,53.2l-3.2,1.9l3.2,1.9l3.2-1.9L386.8,53.2z M396.5,58.8    l-3.2-1.9l-3.2,1.9l3.2,1.9L396.5,58.8z M403,62.5l-3.2-1.9l-3.2,1.9l3.2,1.9L403,62.5z M403,66.2l3.2,1.9l3.2-1.9l-3.2-1.9    L403,66.2z M351.3,40.1l-3.2-1.9l-3.2,1.9l3.2,1.9L351.3,40.1z M351.3,43.8l3.2,1.9l3.2-1.9l-3.2-1.9L351.3,43.8z M361,49.5    l3.2-1.9l-3.2-1.9l-3.2,1.9L361,49.5z M367.4,49.5l-3.2,1.9l3.2,1.9l3.2-1.9L367.4,49.5z M370.7,55.1l3.2,1.9l3.2-1.9l-3.2-1.9    L370.7,55.1z M380.3,56.9l-3.2,1.9l3.2,1.9l3.2-1.9L380.3,56.9z M390,62.5l-3.2-1.9l-3.2,1.9l3.2,1.9L390,62.5z M390,66.3l3.2,1.9    l3.2-1.9l-3.2-1.9L390,66.3z M396.5,70l3.2,1.9l3.2-1.9l-3.2-1.9L396.5,70z M344.8,43.9l-3.2-1.9l-3.2,1.9l3.2,1.9L344.8,43.9z     M351.3,47.6l-3.2-1.9l-3.2,1.9l3.2,1.9L351.3,47.6z M354.5,53.2l3.2-1.9l-3.2-1.9l-3.2,1.9L354.5,53.2z M360.9,53.2l-3.2,1.9    l3.2,1.9l3.2-1.9L360.9,53.2z M367.4,56.9l-3.2,1.9l3.2,1.9l3.2-1.9L367.4,56.9z M373.9,60.7l-3.2,1.9l3.2,1.9l3.2-1.9L373.9,60.7    z M380.3,64.4l-3.2,1.9l3.2,1.9l3.2-1.9L380.3,64.4z M383.5,70l3.2,1.9L390,70l-3.2-1.9L383.5,70z M390,73.7l3.2,1.9l3.2-1.9    l-3.2-1.9L390,73.7z M338.3,47.6l-3.2-1.9l-3.2,1.9l3.2,1.9L338.3,47.6z M344.8,51.3l-3.2-1.9l-3.2,1.9l3.2,1.9L344.8,51.3z     M344.8,55.1l3.2,1.9l3.2-1.9l-3.2-1.9L344.8,55.1z M354.5,60.7l3.2-1.9l-3.2-1.9l-3.2,1.9L354.5,60.7z M357.7,62.6l3.2,1.9    l3.2-1.9l-3.2-1.9L357.7,62.6z M364.1,66.3l3.2,1.9l3.2-1.9l-3.2-1.9L364.1,66.3z M373.8,68.2l-3.2,1.9l3.2,1.9l3.2-1.9    L373.8,68.2z M383.5,73.8l-3.2-1.9l-3.2,1.9l3.2,1.9L383.5,73.8z M383.5,77.5l3.2,1.9l3.2-1.9l-3.2-1.9L383.5,77.5z M331.8,51.4    l-3.2-1.9l-3.2,1.9l3.2,1.9L331.8,51.4z M338.3,55.1l-3.2-1.9l-3.2,1.9l3.2,1.9L338.3,55.1z M341.5,57l-3.2,1.9l3.2,1.9l3.2-1.9    L341.5,57z M348,64.4l3.2-1.9l-3.2-1.9l-3.2,1.9L348,64.4z M351.2,66.3l3.2,1.9l3.2-1.9l-3.2-1.9L351.2,66.3z M360.9,68.2    l-3.2,1.9l3.2,1.9l3.2-1.9L360.9,68.2z M370.6,73.8l-3.2-1.9l-3.2,1.9l3.2,1.9L370.6,73.8z M377,77.5l-3.2-1.9l-3.2,1.9l3.2,1.9    L377,77.5z M377,81.2l3.2,1.9l3.2-1.9l-3.2-1.9L377,81.2z M325.4,55.1l-3.2-1.9l-3.2,1.9l3.2,1.9L325.4,55.1z M325.4,58.8l3.2,1.9    l3.2-1.9l-3.2-1.9L325.4,58.8z M335,64.4l3.2-1.9l-3.2-1.9l-3.2,1.9L335,64.4z M344.7,66.3l-3.2-1.9l-3.2,1.9l3.2,1.9L344.7,66.3z     M351.2,70.1l-3.2-1.9l-3.2,1.9l3.2,1.9L351.2,70.1z M357.6,73.8l-3.2-1.9l-3.2,1.9l3.2,1.9L357.6,73.8z M364.1,77.5l-3.2-1.9    l-3.2,1.9l3.2,1.9L364.1,77.5z M364.1,81.3l3.2,1.9l3.2-1.9l-3.2-1.9L364.1,81.3z M370.6,85l3.2,1.9L377,85l-3.2-1.9L370.6,85z     M312.4,58.9l3.2,1.9l3.2-1.9l-3.2-1.9L312.4,58.9z M318.9,62.6l3.2,1.9l3.2-1.9l-3.2-1.9L318.9,62.6z M328.6,64.5l-3.2,1.9    l3.2,1.9l3.2-1.9L328.6,64.5z M335,68.2l-3.2,1.9l3.2,1.9l3.2-1.9L335,68.2z M341.5,71.9l-3.2,1.9l3.2,1.9l3.2-1.9L341.5,71.9z     M344.7,77.5l3.2,1.9l3.2-1.9l-3.2-1.9L344.7,77.5z M351.2,81.3l3.2,1.9l3.2-1.9l-3.2-1.9L351.2,81.3z M357.6,85l3.2,1.9l3.2-1.9    l-3.2-1.9L357.6,85z M364.1,88.7l3.2,1.9l3.2-1.9l-3.2-1.9L364.1,88.7z"/>
	</g>
	<g>
		
			<linearGradient id="SVGID_49_" gradientUnits="userSpaceOnUse" x1="2351.7314" y1="219.6638" x2="2465.3127" y2="219.6638" gradientTransform="matrix(-1 0 0 1 3081.7314 0)">
			<stop offset="0" style="stop-color:#0C82DB"/>
			<stop offset="0.1842" style="stop-color:#0B87DB"/>
			<stop offset="0.4015" style="stop-color:#0A95DB"/>
			<stop offset="0.6353" style="stop-color:#07ADDB"/>
			<stop offset="0.8792" style="stop-color:#02CEDB"/>
			<stop offset="1" style="stop-color:#00E1DB"/>
		</linearGradient>
		<path class="st58" d="M616.4,226.7l12.3-73.1l-1-0.4l1.5-0.9l0,0c0.3-0.2,0.7-0.2,1.1,0.1l98.3,56.9c0.8,0.5,1.4,1.7,1.3,2.5    l-12.4,73.7c-0.1,0.4-0.3,0.6-0.5,0.8l0,0l-1.5,0.8l-0.2-1.4l0.1,0l-97.7-56.5C616.9,228.8,616.3,227.6,616.4,226.7z"/>
		<path class="st13" d="M728.2,211.3l1.6-0.7c0.2,0.4,0.3,0.9,0.2,1.2l-12.4,73.7c-0.1,0.4-0.3,0.6-0.5,0.8l0,0l-1.5,0.8l-0.2-1.4    l0.1,0l-4.9-2.9L728.2,211.3z"/>
		<path class="st30" d="M616.2,230.1l98.3,56.9c0.8,0.4,1.4,0.2,1.5-0.6l12.4-73.7c0.1-0.8-0.5-2-1.3-2.5l-98.3-56.9    c-0.8-0.4-1.4-0.2-1.5,0.6l-12.4,73.7C614.8,228.5,615.4,229.7,616.2,230.1z"/>
		<g>
			<polygon class="st13" points="630.1,158 724.9,212.8 713.1,282.3 618.4,227.5    "/>
		</g>
		
			<linearGradient id="SVGID_50_" gradientUnits="userSpaceOnUse" x1="2366.9487" y1="281.6488" x2="2527.3625" y2="281.6488" gradientTransform="matrix(-1 0 0 1 3081.7314 0)">
			<stop offset="0" style="stop-color:#0C82DB"/>
			<stop offset="0.1842" style="stop-color:#0B87DB"/>
			<stop offset="0.4015" style="stop-color:#0A95DB"/>
			<stop offset="0.6353" style="stop-color:#07ADDB"/>
			<stop offset="0.8792" style="stop-color:#02CEDB"/>
			<stop offset="1" style="stop-color:#00E1DB"/>
		</linearGradient>
		<path class="st59" d="M554.4,265l5.4,2.8l53.8-31.1c0.9-0.5,2.5-0.5,3.5,0.1l92.8,53.7c0.9-0.5,4.9-2.4,4.9-2.4l-2,5.1l0,0    c-0.1,0.2-0.3,0.4-0.5,0.6l-56.7,32.8c-0.9,0.5-2.5,0.5-3.5-0.1l-95-54.9c-0.4-0.2-0.7-0.5-0.8-0.8l0,0L554.4,265z"/>
		
			<linearGradient id="SVGID_51_" gradientUnits="userSpaceOnUse" x1="2420.8484" y1="276.2902" x2="2581.3477" y2="276.2902" gradientTransform="matrix(-1 0 0 1 3081.7314 0)">
			<stop offset="0" style="stop-color:#64C0F6"/>
			<stop offset="0.152" style="stop-color:#69C2F6"/>
			<stop offset="0.3313" style="stop-color:#77C6F7"/>
			<stop offset="0.5243" style="stop-color:#8FCDF8"/>
			<stop offset="0.7271" style="stop-color:#B0D7FA"/>
			<stop offset="0.9354" style="stop-color:#DAE4FC"/>
			<stop offset="1" style="stop-color:#E9E9FD"/>
		</linearGradient>
		<path class="st60" d="M555.2,265.9l97.3,56.3c1.1,0.6,2.7,0.7,3.6,0.1l58.1-33.6c0.9-0.5,0.8-1.5-0.3-2.1l-97.3-56.3    c-1.1-0.6-2.7-0.7-3.6-0.1l-58.1,33.6C554,264.4,554.1,265.3,555.2,265.9z"/>
		<path class="st16" d="M555.2,265.3l97.3,56.3c1.1,0.6,2.7,0.7,3.6,0.1l58.1-33.6c0.3-0.2,0.5-0.4,0.6-0.6c0.1,0.4,0,0.9-0.6,1.2    l-58.1,33.6c-0.9,0.5-2.5,0.5-3.6-0.1l-97.3-56.3c-0.7-0.4-1-1-0.8-1.5C554.5,264.8,554.8,265.1,555.2,265.3z"/>
		<g>
			
				<linearGradient id="SVGID_52_" gradientUnits="userSpaceOnUse" x1="121.1668" y1="310.6541" x2="125.206" y2="310.6541" gradientTransform="matrix(-1 0 0 1 803.041 0)">
				<stop offset="0" style="stop-color:#4BCEF6"/>
				<stop offset="0.1554" style="stop-color:#50CFF6"/>
				<stop offset="0.3386" style="stop-color:#5ED2F7"/>
				<stop offset="0.5359" style="stop-color:#76D7F8"/>
				<stop offset="0.743" style="stop-color:#97DEFA"/>
				<stop offset="0.956" style="stop-color:#C1E7FC"/>
				<stop offset="1" style="stop-color:#CBE9FD"/>
			</linearGradient>
			<path class="st61" d="M681.9,310V309c0-0.1-0.1-0.1-0.1-0.1L678,311c-0.1,0-0.1,0.2-0.1,0.3v1.1c0,0.1,0.1,0.1,0.1,0.1l3.8-2.2     C681.8,310.2,681.9,310.1,681.9,310z"/>
		</g>
		<g>
			
				<linearGradient id="SVGID_53_" gradientUnits="userSpaceOnUse" x1="126.796" y1="313.91" x2="130.8352" y2="313.91" gradientTransform="matrix(-1 0 0 1 803.041 0)">
				<stop offset="0" style="stop-color:#4BCEF6"/>
				<stop offset="0.1554" style="stop-color:#50CFF6"/>
				<stop offset="0.3386" style="stop-color:#5ED2F7"/>
				<stop offset="0.5359" style="stop-color:#76D7F8"/>
				<stop offset="0.743" style="stop-color:#97DEFA"/>
				<stop offset="0.956" style="stop-color:#C1E7FC"/>
				<stop offset="1" style="stop-color:#CBE9FD"/>
			</linearGradient>
			<path class="st62" d="M676.2,313.3v-1.1c0-0.1-0.1-0.1-0.1-0.1l-3.8,2.2c-0.1,0-0.1,0.2-0.1,0.3v1.1c0,0.1,0.1,0.1,0.1,0.1     l3.8-2.2C676.2,313.5,676.2,313.4,676.2,313.3z"/>
		</g>
		
			<linearGradient id="SVGID_54_" gradientUnits="userSpaceOnUse" x1="103.6775" y1="271.0952" x2="215.7132" y2="271.0952" gradientTransform="matrix(-1 0 0 1 803.041 0)">
			<stop offset="0" style="stop-color:#FFFFFF"/>
			<stop offset="0.1079" style="stop-color:#D9F1FD"/>
			<stop offset="0.2735" style="stop-color:#A6DEFB"/>
			<stop offset="0.4366" style="stop-color:#7BCFF9"/>
			<stop offset="0.5938" style="stop-color:#5AC3F8"/>
			<stop offset="0.7434" style="stop-color:#42BAF7"/>
			<stop offset="0.8823" style="stop-color:#34B5F6"/>
			<stop offset="1" style="stop-color:#2FB3F6"/>
		</linearGradient>
		<path class="st63" d="M699.1,285.6l-80.9-46.8c-0.5-0.3-1.2-0.3-1.7,0l-28.8,16.7c-0.4,0.2-0.4,0.8,0,1.1l80.8,46.8    c0.5,0.3,1.2,0.3,1.7,0l28.8-16.7C699.5,286.4,699.5,285.8,699.1,285.6z"/>
		<path class="st30" d="M699.1,286.7l-0.3,0.2l-80.6-46.6c-0.5-0.3-1.2-0.3-1.7,0l-28.5,16.5l-0.3-0.2c-0.4-0.2-0.4-0.8,0-1.1    l28.8-16.7c0.5-0.3,1.2-0.3,1.7,0l80.9,46.8C699.5,285.8,699.5,286.4,699.1,286.7z"/>
		<g>
			<polygon class="st30" points="614.3,243.1 684.5,283.7 687.6,281.9 617.4,241.3    "/>
			<polygon class="st30" points="606.6,247.5 672.5,285.6 675.6,283.8 609.7,245.7    "/>
			<polygon class="st30" points="601.6,250.4 679.2,295.2 682.3,293.4 604.7,248.6    "/>
			<polygon class="st30" points="596.6,253.3 674.2,298.1 677.3,296.3 599.8,251.5    "/>
			<polygon class="st30" points="591.6,256.1 669.2,301 672.3,299.2 594.8,254.3    "/>
			<polygon class="st30" points="688.8,286.1 691.9,288 695,286.1 691.9,284.3    "/>
			<polygon class="st30" points="677.7,288.6 684.2,292.4 687.3,290.6 680.9,286.8    "/>
		</g>
		<g>
			
				<linearGradient id="SVGID_55_" gradientUnits="userSpaceOnUse" x1="2448.0288" y1="285.4182" x2="2489.1121" y2="285.4182" gradientTransform="matrix(-1 0 0 1 3081.7314 0)">
				<stop offset="0" style="stop-color:#CBE9FD"/>
				<stop offset="4.405040e-02" style="stop-color:#C1E7FC"/>
				<stop offset="0.257" style="stop-color:#97DEFA"/>
				<stop offset="0.4641" style="stop-color:#76D7F8"/>
				<stop offset="0.6614" style="stop-color:#5ED2F7"/>
				<stop offset="0.8446" style="stop-color:#50CFF6"/>
				<stop offset="1" style="stop-color:#4BCEF6"/>
			</linearGradient>
			<path class="st64" d="M615.1,296.9l-21.8-12.6c-0.9-0.5-0.9-1.3,0-1.8l14.9-8.6c0.9-0.5,2.2-0.5,3.1,0l21.8,12.6     c0.9,0.5,0.9,1.3,0,1.8l-14.9,8.6C617.3,297.4,615.9,297.4,615.1,296.9z"/>
		</g>
		<path class="st30" d="M633.1,287.2l-21.8-12.6c-0.9-0.5-2.2-0.5-3.1,0l-14.9,8.6c-0.3,0.2-0.4,0.3-0.5,0.5    c-0.2-0.4-0.1-0.9,0.5-1.3l14.9-8.6c0.9-0.5,2.2-0.5,3.1,0l21.8,12.6c0.6,0.3,0.8,0.8,0.5,1.3    C633.5,287.6,633.3,287.4,633.1,287.2z"/>
		<g class="st37">
			<defs>
				<polygon id="SVGID_2_" class="st37" points="630.1,158 724.9,212.8 713.1,282.3 618.4,227.5     "/>
			</defs>
			<clipPath id="SVGID_56_">
				<use xlink:href="#SVGID_2_" style="overflow:visible;"/>
			</clipPath>
			<g class="st65">
				
					<linearGradient id="SVGID_57_" gradientUnits="userSpaceOnUse" x1="2392.0435" y1="240.4911" x2="2503.5718" y2="240.4911" gradientTransform="matrix(-1 0 0 1 3081.7314 0)">
					<stop offset="0" style="stop-color:#C0BFF6"/>
					<stop offset="0.2938" style="stop-color:#C5C4F7"/>
					<stop offset="0.6399" style="stop-color:#D3D2F9"/>
					<stop offset="1" style="stop-color:#E9E9FD"/>
				</linearGradient>
				<path class="st66" d="M616.5,230.3l97.3,56.3c1.1,0.6,2.2-0.4,3.1-1l10.2-62.4l-49.2-28.5c-1.1-0.6-2.7-0.7-3.6-0.1l-58.1,33.6      C615.3,228.7,615.5,229.7,616.5,230.3z"/>
				
					<linearGradient id="SVGID_58_" gradientUnits="userSpaceOnUse" x1="2356.0791" y1="228.8479" x2="2390.0481" y2="228.8479" gradientTransform="matrix(-1 0 0 1 3081.7314 0)">
					<stop offset="0" style="stop-color:#C0BFF6"/>
					<stop offset="0.2938" style="stop-color:#C5C4F7"/>
					<stop offset="0.6399" style="stop-color:#D3D2F9"/>
					<stop offset="1" style="stop-color:#E9E9FD"/>
				</linearGradient>
				<path class="st67" d="M714.1,240.4l-21.8-12.6c-0.9-0.5-0.9-1.3,0-1.8l14.9-8.6c0.9-0.5,2.2-0.5,3.1,0l15.3,8.9l-0.1,2.1      c-0.5,2-1.1,7.9-2,8.4L723,237l-5.8,3.4C716.4,240.9,715,240.9,714.1,240.4z"/>
				<path class="st41" d="M725.1,229.2l0.4-2.4l-15.2-8.8c-0.9-0.5-2.2-0.5-3.1,0l-14.9,8.6c-0.3,0.2-0.4,0.3-0.5,0.5      c-0.2-0.4-0.1-0.9,0.5-1.3l14.9-8.6c0.9-0.5,2.2-0.5,3.1,0l15.1,8.8l-1.1,4.8c0.6,0.3-0.2,1.7-0.5,2.1      C723.8,232.8,725.4,229.4,725.1,229.2z"/>
				<g>
					<path class="st42" d="M721.4,248.2l-60.5-34.9c-0.5-0.3-1.2-0.3-1.7,0L630.3,230c-0.4,0.2-0.4,0.8,0,1.1l80.8,46.8       c0.5,0.3,1.2,0.3,1.7,0l8.5-28.5C721.8,249.1,721.8,248.5,721.4,248.2z"/>
					<path class="st41" d="M721.4,249.3l-0.3,0.2l-60.3-34.8c-0.5-0.3-1.2-0.3-1.7,0l-28.5,16.5l-0.3-0.2c-0.4-0.2-0.4-0.8,0-1.1       l28.8-16.7c0.5-0.3,1.2-0.3,1.7,0l60.5,34.9C721.8,248.5,721.8,249.1,721.4,249.3z"/>
					<g>
						<polygon class="st43" points="637.8,228.8 708.3,269.6 705.5,271.2 635,230.5       "/>
						<polygon class="st43" points="645.3,224.6 712.2,263.3 709.4,264.9 642.5,226.2       "/>
						<polygon class="st43" points="717.2,266.2 719.9,267.7 719.4,270.7 714.4,267.8       "/>
						<polygon class="st43" points="711.7,271.6 716.1,274.1 713.3,275.7 708.9,273.2       "/>
						<polygon class="st43" points="649.9,221.9 721.3,263.2 720,265.6 647.1,223.5       "/>
						<polygon class="st43" points="654.6,219.2 721.6,257.9 720.8,260.7 651.8,220.8       "/>
						<polygon class="st43" points="659.2,216.5 722.7,253.3 721.8,256 656.4,218.1       "/>
					</g>
				</g>
			</g>
		</g>
		
			<linearGradient id="SVGID_59_" gradientUnits="userSpaceOnUse" x1="-120.0186" y1="189.3092" x2="-63.5877" y2="189.3092" gradientTransform="matrix(1 8.237118e-03 8.237118e-03 -1 759.5274 410.8207)">
			<stop offset="0" style="stop-color:#2FB3F6"/>
			<stop offset="0.1177" style="stop-color:#34B5F6"/>
			<stop offset="0.2566" style="stop-color:#42BAF7"/>
			<stop offset="0.4062" style="stop-color:#5AC3F8"/>
			<stop offset="0.5634" style="stop-color:#7BCFF9"/>
			<stop offset="0.7265" style="stop-color:#A6DEFB"/>
			<stop offset="0.8921" style="stop-color:#D9F1FD"/>
			<stop offset="1" style="stop-color:#FFFFFF"/>
		</linearGradient>
		<path class="st68" d="M649.6,185.6l0.2-1.3l7.6,4.5l-0.2,1.3L649.6,185.6z M662.7,193.2l0.2-1.3l-4.2-2.5l-0.2,1.3L662.7,193.2z     M672.1,198.8l0.2-1.3l-3-1.8l-0.2,1.3L672.1,198.8z M668,196.4l0.2-1.3l-1-0.6l-0.2,1.3L668,196.4z M665.8,195.1l0.2-1.3    l-1.9-1.1l-0.2,1.3L665.8,195.1z M658.9,196.3l-3-1.8l-0.2,1.3l3,1.8L658.9,196.3z M654.7,193.8l-5.9-3.5l-0.2,1.3l5.9,3.5    L654.7,193.8z M656.9,213.3l5.9,3.5l0.2-1.3l-5.9-3.5L656.9,213.3z M654.1,210.2l-0.2,1.3l1.9,1.1l0.2-1.3L654.1,210.2z     M664.1,209.4l-5.9-3.5l-0.2,1.3l5.9,3.5L664.1,209.4z M657,205.2l-1.9-1.1l-0.2,1.3l1.9,1.1L657,205.2z M652.3,239.6l-11.1-6.6    l-0.2,1.3l11.1,6.6L652.3,239.6z M653.5,240.3l-0.2,1.3l2.7,1.6l0.2-1.3L653.5,240.3z M664.5,238.2l11.1,6.6l0.2-1.3l-11.1-6.6    L664.5,238.2z M677,244.1l-0.2,1.3l2.7,1.6l0.2-1.3L677,244.1z M644.7,231.8l-3-1.8l-0.2,1.3l3,1.8L644.7,231.8z M659.9,235.5    l3,1.8l0.2-1.3l-3-1.8L659.9,235.5z M651.8,236l-5.9-3.5l-0.2,1.3l5.9,3.5L651.8,236z M653,236.7l-0.2,1.3l1.9,1.1l0.2-1.3    L653,236.7z M655.8,239.8l5.9,3.5l0.2-1.3l-5.9-3.5L655.8,239.8z M663.1,242.7l-0.2,1.3l1.9,1.1l0.2-1.3L663.1,242.7z     M659.3,238.5l3,1.8l0.2-1.3l-3-1.8L659.3,238.5z M663.5,241l5.9,3.5l0.2-1.3l-5.9-3.5L663.5,241z M670.8,243.8l-0.2,1.3l1.9,1.1    l0.2-1.3L670.8,243.8z M648.4,230.6l-6.2-3.6l-0.2,1.3l6.2,3.6L648.4,230.6z M649.6,231.3l-0.2,1.3l4.5,2.6l0.2-1.3L649.6,231.3z     M658,237.7l0.2-1.3l-3-1.8L655,236L658,237.7z M681.3,246.6l-0.2,1.3l6.2,3.6l0.2-1.3L681.3,246.6z M692.8,254.9l0.2-1.3    l-4.5-2.6l-0.2,1.3L692.8,254.9z M697.2,256l-3-1.8l-0.2,1.3l3,1.8L697.2,256z M691.5,213.6l0.2-1.3l-6.2-3.6l-0.2,1.3    L691.5,213.6z M679.7,206.7l4.5,2.6l0.2-1.3l-4.5-2.6L679.7,206.7z M675.5,204.2l3,1.8l0.2-1.3l-3-1.8L675.5,204.2z M689.5,209    l0.2-1.3l-6.2-3.6l-0.2,1.3L689.5,209z M682.2,204.7l0.2-1.3l-4.5-2.6l-0.2,1.3L682.2,204.7z M676.5,201.4l0.2-1.3l-3-1.8    l-0.2,1.3L676.5,201.4z M658.3,210.8l2.1,1.2l0.2-1.3l-2.1-1.2L658.3,210.8z M657.4,208.8l-2.7-1.6l-0.2,1.3l2.7,1.6L657.4,208.8z     M649,227.6l-6.2-3.6l-0.2,1.3l6.2,3.6L649,227.6z M650.2,228.3l-0.2,1.3l4.5,2.6l0.2-1.3L650.2,228.3z M658.6,234.7l0.2-1.3    l-3-1.8l-0.2,1.3L658.6,234.7z M645.5,222.2l-2.1-1.2l-0.2,1.3l2.1,1.2L645.5,222.2z M646.4,224.2l2.7,1.6l0.2-1.3l-2.7-1.6    L646.4,224.2z M650.5,225.2l-0.2,1.3l4.4,2.6l0.2-1.3L650.5,225.2z M661.4,201.1l-0.2,1.3l2.1,1.2l0.2-1.3L661.4,201.1z     M660.3,200.4l-2.7-1.6l-0.2,1.3l2.7,1.6L660.3,200.4z M651.9,195.5l-0.2,1.3l4.4,2.6l0.2-1.3L651.9,195.5z M664.6,206.1l-0.2,1.3    l4.4,2.6l0.2-1.3L664.6,206.1z M663.3,205.6l-6-3.5l-0.2,1.3l6,3.5L663.3,205.6z M654.3,200.3l-0.2,1.3l1.9,1.1l0.2-1.3    L654.3,200.3z M651.4,198.6l-0.2,1.3l1.9,1.1l0.2-1.3L651.4,198.6z M651.4,217.1l5.9,3.5l0.2-1.3l-5.9-3.5L651.4,217.1z     M648.4,215.3l1.9,1.1l0.2-1.3l-1.9-1.1L648.4,215.3z M654.1,220.6l-2.1-1.2l-0.2,1.3l2.1,1.2L654.1,220.6z M661.5,218.2l-2.1-1.2    l-0.2,1.3l2.1,1.2L661.5,218.2z M667.4,221.7l-5-2.9l-0.2,1.3l5,2.9L667.4,221.7z M671.2,223.9l-3-1.8l-0.2,1.3l3,1.8L671.2,223.9    z M650.9,218.7l-2.7-1.6l-0.2,1.3l2.7,1.6L650.9,218.7z M649.9,221.4l-2.1-1.2l-0.2,1.3l2.1,1.2L649.9,221.4z M646.4,220.8    l0.2-1.3l-2.7-1.6l-0.2,1.3L646.4,220.8z M658.3,216.3l-1.9-1.1l-0.2,1.3l1.9,1.1L658.3,216.3z M655.1,215.9l0.2-1.3l-1.9-1.1    l-0.2,1.3L655.1,215.9z M668,198.3l-0.2,1.3l6.4,3.8l0.2-1.3L668,198.3z M666.6,198.9l0.2-1.3l-6-3.5l-0.2,1.3L666.6,198.9z     M659.7,193.4l-1.9-1.1l-0.2,1.3l1.9,1.1L659.7,193.4z M654.7,191.9l1.9,1.1l0.2-1.3l-1.9-1.1L654.7,191.9z M653.4,189.6l-4-2.4    l-0.2,1.3l4,2.4L653.4,189.6z"/>
	</g>
</g>
</svg>